<svg xmlns="http://www.w3.org/2000/svg" width="32" height="32" viewBox="0 0 32 32">
  <g fill="none" fill-rule="evenodd" transform="translate(4 6)">
    <path fill="#D14748" fill-rule="nonzero" d="M16.3494,4.4902 C15.89449,4.4902 15.46345,4.548183 15.0564,4.66403 C14.64938,4.77524 14.28953,4.95042 13.9783,5.19137 C13.67104,5.43233 13.4274,5.73986 13.24783,6.1152 C13.06826,6.4859 12.9783,6.93215 12.9783,7.4511 C12.9783,8.11373 13.14327,8.6784 13.47049,9.1464 C13.80169,9.61442 14.30205,10.00953 14.97249,10.3339 C15.23586,10.45901 15.48137,10.58256 15.70882,10.70304 C15.93627,10.82352 16.13115,10.94829 16.29476,11.07804 C16.46236,11.20779 16.59352,11.34895 16.68929,11.50187 C16.78506,11.65479 16.83382,11.82873 16.83382,12.02335 C16.83382,12.167 16.803833,12.30253 16.743977,12.42765 C16.684121,12.54813 16.592287,12.65333 16.468587,12.74601 C16.348877,12.834052 16.197067,12.90402 16.013507,12.95499 C15.833937,13.005962 15.622157,13.031162 15.378737,13.031162 C14.963737,13.031162 14.553337,12.947979 14.146337,12.781162 C13.739317,12.609712 13.362647,12.355762 13.015437,12.017492 L13.015437,14.240192 C13.326687,14.425542 13.694017,14.565482 14.117037,14.658162 C14.544007,14.750838 14.991877,14.796832 15.462737,14.796832 C15.921637,14.796832 16.356417,14.746432 16.767437,14.644492 C17.182437,14.542552 17.546027,14.376182 17.857237,14.144492 C18.168487,13.908172 18.413997,13.601862 18.593567,13.226522 C18.777127,12.846552 18.868957,12.378282 18.868957,11.822222 C18.868957,11.419082 18.816457,11.066782 18.712707,10.765622 C18.608957,10.459792 18.459017,10.189442 18.263487,9.953122 C18.067957,9.716802 17.833747,9.505662 17.558407,9.320312 C17.287057,9.130322 16.979707,8.951972 16.636527,8.785152 C16.385127,8.664672 16.160267,8.548712 15.960747,8.437492 C15.761227,8.321652 15.590647,8.205682 15.450977,8.089832 C15.311317,7.969352 15.204527,7.844582 15.128707,7.714832 C15.05289,7.580452 15.013477,7.428522 15.013477,7.261712 C15.013477,7.108792 15.047202,6.973992 15.115037,6.853512 C15.182874,6.728402 15.280397,6.621242 15.404097,6.533202 C15.527797,6.44516 15.679607,6.378372 15.859177,6.332032 C16.038747,6.28106 16.237357,6.253907 16.456837,6.253907 C16.616457,6.253907 16.783217,6.269073 16.958787,6.296876 C17.138357,6.324679 17.318287,6.367496 17.497847,6.427736 C17.677417,6.483342 17.851737,6.556486 18.019327,6.644536 C18.190917,6.732578 18.348327,6.833376 18.491987,6.949226 L18.491987,4.871126 C18.200687,4.741376 17.882117,4.646206 17.534957,4.585966 C17.191777,4.521093 16.796337,4.4902 16.349457,4.4902 L16.3494,4.4902 Z M7.576,4.65622 L4.453,14.62302 L6.5468,14.62302 L7.15227,12.40622 L10.20497,12.40622 L10.81435,14.62302 L12.92175,14.62302 L9.86905,4.65622 L7.57605,4.65622 L7.576,4.65622 Z M8.6483,6.43552 L8.695175,6.43552 C8.723108,6.78306 8.771869,7.08178 8.839705,7.332 L9.761585,10.6816 L7.564285,10.6816 L8.497875,7.3046 C8.577683,7.0173 8.628315,6.72739 8.648265,6.43546 L8.6483,6.43552 Z"/>
    <path fill="#6A9FB5" d="M4.74412.031108C3.5869.031108 2.7498.3415 2.2343.96089 1.71881 1.57291 1.46282 2.63919 1.46282 4.15819L1.46282 6.62499C1.46282 8.03339 1.06119 8.73629.26162 8.73629L.26162 10.77149C1.06116 10.77149 1.46282 11.44989 1.46282 12.80669L1.46282 15.46099C1.46282 16.97259 1.72137 18.02339 2.24212 18.61329 2.76287 19.20319 3.59732 19.49806 4.74412 19.49806L4.74412 17.42966C4.29701 17.42966 3.9733 17.27886 3.77342 16.97653 3.5788 16.67421 3.4824 16.16204 3.4824 15.43943L3.4824 13.17183C3.4824 11.36523 3.07761 10.23443 2.2676 9.77733L2.2676 9.732408C3.07766 9.267868 3.4824 8.150508 3.4824 6.380808L3.4824 4.025308C3.4824 2.742308 3.9025 2.099508 4.74412 2.099508L4.74412.031108 4.74412.031108zM19.40408.031192L19.40408 2.0996C20.24572 2.0996 20.6658 2.74236 20.6658 4.0254L20.6658 6.293C20.6658 8.1364 21.06803 9.2894 21.8728 9.7539L21.8728 9.798822C21.068 10.241242 20.6658 11.343122 20.6658 13.105422L20.6658 15.460922C20.6658 16.176172 20.566856 16.681622 20.36697 16.976522 20.16709 17.278842 19.84593 17.429652 19.40408 17.429652L19.40408 19.498052C20.55608 19.498052 21.38798 19.203182 21.89818 18.613282 22.41367 18.023382 22.66966 16.950382 22.66966 15.394482L22.66966 12.839782C22.66966 11.460882 23.07385 10.771382 23.87866 10.771382L23.87866 8.736182C23.07386 8.736182 22.66966 8.039962 22.66966 6.646382L22.66966 4.113182C22.66966 2.623682 22.41367 1.572882 21.89818.960882 21.38269.341492 20.55078.031192 19.40408.031192L19.40408.031192z"/>
  </g>
</svg>
