<svg xmlns="http://www.w3.org/2000/svg" width="32" height="32" viewBox="0 0 32 32">
  <path fill="#AEE33E" d="M12.847,5.3571 L11.89785,5.3571 L11.89785,4.40795 L12.847,4.40795 L12.847,5.3571 Z M8.1012,5.3571 L7.15205,5.3571 L7.15205,4.40795 L8.1012,4.40795 L8.1012,5.3571 Z M13.35,2.66155 L14.5934,1.41815 C14.77374,1.23781 14.77374,0.93408 14.5934,0.74425 C14.40357,0.56391 14.09984,0.56391 13.9195,0.74425 L12.5148,2.14895 C11.75548,1.77878 10.9012,1.56048 9.9995,1.56048 C9.08831,1.56048 8.2341,1.77879 7.4748,2.15845 L6.0606,0.74425 C5.88026,0.56391 5.57653,0.56391 5.39619,0.74425 C5.20636,0.93408 5.20636,1.23781 5.39619,1.41815 L6.63959,2.66155 C5.22539,3.70565 4.30469,5.35715 4.30469,7.25545 L15.69469,7.25545 C15.69469,5.35715 14.74554,3.69615 13.35029,2.66155 L13.35,2.66155 Z M18.06759,8.20465 C17.2813022,8.20465 16.64389,8.8420622 16.64389,9.62835 L16.64389,16.27245 C16.64389,17.0587378 17.2813022,17.69615 18.06759,17.69615 C18.8538778,17.69615 19.49129,17.0587378 19.49129,16.27245 L19.49129,9.62835 C19.49129,8.8420622 18.8538778,8.20465 18.06759,8.20465 L18.06759,8.20465 Z M1.93159,8.20465 C1.1453022,8.20465 0.50789,8.8420622 0.50789,9.62835 L0.50789,16.27245 C0.50789,17.0587378 1.1453022,17.69615 1.93159,17.69615 C2.7178778,17.69615 3.35529,17.0587378 3.35529,16.27245 L3.35529,9.62835 C3.35529,8.8420622 2.7178778,8.20465 1.93159,8.20465 L1.93159,8.20465 Z M4.30449,17.69615 C4.30449,18.2203511 4.72943893,18.6453 5.25364,18.6453 L6.20279,18.6453 L6.20279,21.9673 C6.20279,22.3448887 6.35278653,22.7070124 6.61978208,22.9740079 C6.88677762,23.2410035 7.24890128,23.391 7.62649,23.391 C8.4127778,23.391 9.05019,22.7535878 9.05019,21.9673 L9.05019,18.6453 L10.94849,18.6453 L10.94849,21.9673 C10.94849,22.7535878 11.5859022,23.391 12.37219,23.391 C13.1584778,23.391 13.79589,22.7535878 13.79589,21.9673 L13.79589,18.6453 L14.74504,18.6453 C15.2692411,18.6453 15.69419,18.2203511 15.69419,17.69615 L15.69419,8.20465 L4.30419,8.20465 L4.30449,17.69615 Z" transform="translate(6 4)"/>
</svg>
