<svg xmlns="http://www.w3.org/2000/svg" width="32" height="32" viewBox="0 0 32 32">
  <g fill="none" transform="translate(4 4)">
    <path fill="#EE9D5C" d="M0.762763636,0.596618182 L0.762763636,23.4009818 L4.45309091,23.4009818 L4.45309091,21.1232727 L2.60792727,21.1232727 L2.60792727,2.87563636 L4.45309091,2.87563636 L4.45309091,0.595854545 L0.762763636,0.596618182 Z M19.5471273,0.596618182 L19.5471273,2.8764 L21.3944727,2.8764 L21.3944727,21.1240364 L19.5471273,21.1240364 L19.5471273,23.4038182 L23.2374545,23.4038182 L23.2374545,0.597272727 L19.5471273,0.596618182 Z"/>
    <path fill="#F4BF75" d="M15.4527273,3.28112727 C14.9073818,3.28112727 14.4385091,3.36359455 14.0461091,3.52653818 C13.65372,3.68947636 13.3344982,3.93289091 13.0884218,4.25876727 C12.8423564,4.58797091 12.6627818,4.99232727 12.54972,5.46782182 C12.4366582,5.94333818 12.3801273,6.50264727 12.3801273,7.14771273 C12.3801273,7.77286909 12.4339964,8.32818545 12.5437309,8.81364 C12.6534655,9.29581091 12.8323636,9.69883636 13.07844,10.0246582 C13.3211891,10.3505345 13.6377491,10.5966109 14.0301382,10.7628764 C14.4225164,10.9291418 14.8973673,11.0142655 15.4526836,11.0142655 C16.0179818,11.0142655 16.4934982,10.9317927 16.8792655,10.7688545 C17.265,10.6025891 17.5809055,10.3591745 17.8269709,10.0366255 C18.0663927,9.72072 18.2426291,9.31570909 18.3556909,8.82353455 C18.4687527,8.32806545 18.5252836,7.76875636 18.5252836,7.14364364 C18.5252836,6.51853091 18.4694182,5.96720727 18.3596836,5.49168 C18.2499491,5.01283636 18.0737127,4.61047636 17.8309636,4.28458909 C17.5848873,3.95205818 17.2689927,3.70266545 16.8832582,3.5364 C16.4975236,3.36680727 16.0213418,3.28101818 15.4527491,3.28101818 L15.4527273,3.28112727 Z M8.01872727,3.41276509 C8.00542582,3.61232727 7.95554618,3.77859273 7.86908727,3.91160727 C7.78262945,4.04462182 7.65294545,4.15169455 7.48002545,4.23482182 C7.33371273,4.30465309 7.15082182,4.35452727 6.93135273,4.38446182 C6.71188364,4.41106364 6.48244364,4.42436509 6.24302182,4.42436509 L6.24302182,5.63538327 L7.80924,5.63538327 L7.80924,9.56189236 L6.24302182,9.56189236 L6.24302182,10.8587651 L11.2009855,10.8587651 L11.2009855,9.56189236 L9.66869455,9.56189236 L9.66869455,3.41276509 L8.01872727,3.41276509 Z M15.4527273,4.65382909 C15.8617418,4.65382909 16.1543673,4.84602545 16.3306036,5.22844364 C16.50684,5.60752364 16.5939709,6.24597818 16.5939709,7.14386182 C16.5939709,8.03170909 16.5041891,8.67015273 16.3246255,9.05928 C16.1450618,9.44834182 15.8550982,9.64186909 15.4527382,9.64186909 C15.0503782,9.64186909 14.7584182,9.44834182 14.5788545,9.05928 C14.3992909,8.67021818 14.3095091,8.03309455 14.3095091,7.15193455 C14.3095091,6.24745091 14.3986255,5.60764364 14.5748727,5.22855273 C14.7511091,4.84614545 15.0437345,4.65393818 15.4527491,4.65393818 L15.4527273,4.65382909 Z M8.54738182,12.98772 C8.00203636,12.98772 7.53316364,13.0681964 7.14076364,13.2311345 C6.74837455,13.3940727 6.42915273,13.6394836 6.18307636,13.96536 C5.937,14.2945636 5.75743636,14.6969236 5.64437455,15.1724509 C5.53131273,15.6479782 5.47478182,16.2072764 5.47478182,16.8523418 C5.47478182,17.4774982 5.52865091,18.0328145 5.63838545,18.5182691 C5.74812,19.00044 5.92701818,19.4054509 6.17309455,19.73136 C6.41584364,20.0572364 6.7344,20.3033127 7.12678909,20.4695782 C7.51917818,20.6358436 7.99203273,20.7189709 8.54737091,20.7189709 C9.11266909,20.7189709 9.58818545,20.6364982 9.97395273,20.47356 C10.3596873,20.3072945 10.6755927,20.0638909 10.9216582,19.7413309 C11.16108,19.4254255 11.3373164,19.0204145 11.4503782,18.52824 C11.56344,18.0327709 11.6199709,17.4734618 11.6199709,16.8483491 C11.6199709,16.2232364 11.5661018,15.6719127 11.4563673,15.1963855 C11.3466327,14.7175418 11.1684,14.3151818 10.9256509,13.9892945 C10.6795855,13.6567636 10.3656764,13.4073709 9.97994182,13.2411055 C9.59420727,13.0715127 9.11602909,12.98772 8.54736,12.98772 L8.54738182,12.98772 Z M14.9239636,13.1174073 C14.9106655,13.3169236 14.8607782,13.4831891 14.7743236,13.6162036 C14.6878582,13.7492182 14.5581818,13.8562909 14.3852618,13.9394182 C14.2389491,14.0092473 14.0560582,14.0591236 13.8365891,14.0890582 C13.61712,14.1156545 13.38768,14.1289636 13.1482582,14.1289636 L13.1482582,15.3420545 L14.7144764,15.3420545 L14.7144764,19.2666 L13.1482582,19.2666 L13.1482582,20.5634727 L18.1062218,20.5634727 L18.1062218,19.2666 L16.5739309,19.2666 L16.5739309,13.1174073 L14.9239309,13.1174073 L14.9239636,13.1174073 Z M8.54738182,14.3584255 C8.95639636,14.3584255 9.24902182,14.5506218 9.42525818,14.93304 C9.60149455,15.31212 9.68862545,15.9505745 9.68862545,16.8484582 C9.68862545,17.7363055 9.60083891,18.3747491 9.42127636,18.7638764 C9.24171273,19.1529382 8.94975273,19.3464655 8.54739273,19.3464655 C8.14503273,19.3464655 7.85307273,19.1529382 7.67350909,18.7638764 C7.49394545,18.3748145 7.40616,17.7396873 7.40616,16.8584945 C7.40616,15.9540109 7.49328218,15.31224 7.66952727,14.9331491 C7.84576364,14.5507418 8.13838909,14.3585345 8.54740364,14.3585345 L8.54738182,14.3584255 Z"/>
  </g>
</svg>
