<svg xmlns="http://www.w3.org/2000/svg" width="32" height="32" viewBox="0 0 32 32">
  <g fill="none" fill-rule="evenodd" transform="translate(4 4)">
    <circle cx="12" cy="12" r="12" fill="#D14748"/>
    <path fill="#000" fill-rule="nonzero" d="M11.9680083,5.8074 C10.7434279,2.1972 7.37328188,1.4184 5.99990388,1.2492 L5.99990388,0 L4.79992311,0 L4.79992311,9.0156 C4.29713116,8.6346 3.67794108,8.4 2.99995194,8.4 C1.34577844,8.4 0,9.7458 0,11.4 C0,13.0542 1.34577844,14.4 2.99995194,14.4 C4.65412544,14.4 5.99990388,13.0542 5.99990388,11.4 L5.99990388,5.4042 C7.11048609,5.4342 9.55724689,5.6076 11.0944223,6.5166 C11.1892207,6.5724 11.2948191,6.6 11.3998174,6.6 C11.5348152,6.6 11.6686131,6.5544 11.7778113,6.4656 C11.9728082,6.3078 12.049007,6.045 11.9680083,5.8074 Z" transform="translate(7.2 4.8)"/>
  </g>
</svg>
