<svg xmlns="http://www.w3.org/2000/svg" width="32" height="32" viewBox="0 0 32 32">
  <path fill="#F4BF75" fill-rule="evenodd" d="M16.3109963,10.0300112 C16.2810928,9.84994401 16.9906212,10.1993281 15.9575914,9.06786114 L16.3109963,10.0300112 Z M17.556069,11.0378499 C17.5261656,10.8577828 16.9906212,10.1993281 15.9575914,9.06786114 C15.9385619,8.8474804 16.3055593,8.52765957 17.0504282,8.11646137 L19.1599837,6.28085106 C19.6302841,5.68152296 19.9102895,4.7193729 20,3.39708847 L19.972815,3.08801792 C19.89126,2.15543113 19.2061982,1.40291153 17.920348,0.822396417 C17.1591681,0.311758119 15.7944814,0.0403135498 13.8181324,0 C12.1815958,0.137066069 10.0448552,0.712206047 7.41606633,1.71735722 C6.69294549,2.23605823 5.86924018,2.7493841 4.94495039,3.2600224 L4.95854288,3.4212766 C5.02106837,3.41590146 5.10262335,3.38365062 5.20592633,3.32452408 C5.3119478,3.31646137 5.36903629,3.36483763 5.37991029,3.45890258 L5.54302025,3.3675252 L5.62457523,3.36483763 L5.62729373,3.44008959 C5.63273073,3.51534155 5.05912736,3.95879059 3.90104662,4.76774916 L3.9907571,4.91019037 L3.90920212,4.91556551 L3.73249966,4.8537514 C3.73793666,4.90212766 3.65366318,4.9343785 3.48511622,4.94781635 L3.49599021,5.03650616 L3.68900367,5.24344905 C3.62375968,5.24882419 3.5394862,5.2300112 3.42802773,5.19238522 C3.05287481,5.22463606 2.6858774,5.49339306 2.32431698,5.99596865 L2.41674596,6.13840985 C2.72937339,5.85352744 2.91423134,5.71108623 2.96588283,5.70571109 L2.98491233,5.93952968 C2.93326084,5.94221725 2.84898736,5.97715566 2.74024738,6.03359462 L2.93869784,6.32922732 C3.31656925,5.92609183 3.73793666,5.57670773 4.19464456,5.28645017 C4.42028001,5.34288914 4.53989398,5.41545353 4.54533098,5.49339306 L4.71931494,5.47726764 C5.96166916,4.56886898 7.19043088,3.9131019 8.40831861,3.50727884 L8.42191111,3.66853303 C8.19627566,4.00179171 8.04132119,4.17379619 7.95976621,4.1818589 C7.96792171,4.29742441 8.0059807,4.3968645 8.07938018,4.48286674 C8.09840968,4.68712206 7.5438358,6.06853303 6.42381405,8.61903695 C3.87658013,14.5505039 1.73983961,18.9393057 0,21.7773796 C0.00543699878,21.8338186 0.0380589914,21.9090705 0.100584477,22.0058231 C0.530107381,21.906383 0.79923882,21.8015677 0.913415794,21.7021277 L1.00584477,21.6913774 L1.01943727,21.8526316 L1.17982873,21.8391937 L1.3429387,21.7478163 C1.3483757,21.7961926 1.40274568,21.8203807 1.51148566,21.8096305 L1.52779666,21.9708847 C1.54138915,22.1294513 1.44896017,22.368645 1.25594672,22.6965286 C1.08196276,22.8900336 0.897104798,23.2985442 0.698654343,23.924748 L0.704091342,24 L0.861764306,23.9838746 C1.55498165,23.2179171 2.07965203,22.4680851 2.44121245,21.7316909 C4.463776,21.1484882 6.00244665,20.5733483 7.07353541,20.006271 C8.14734267,19.9175812 8.96561098,19.6326988 9.52290336,19.1731243 L9.51474786,19.0871221 L9.10969145,19.2053751 L9.01726247,19.2161254 L9.00910697,19.1301232 C9.7974718,19.0118701 10.3438902,18.8398656 10.6456436,18.6006719 C12.1815958,17.4315789 13.342395,16.6011198 14.1280413,16.1119821 C15.7401115,14.9402016 16.7894522,13.7979843 17.2679081,12.6907055 L17.556069,11.0378499 Z M3.30297676,5.59552072 L3.22142178,5.60358343 L3.20782928,5.37782755 L3.5394862,5.33482643 L3.5449232,5.45039194 C3.49055321,5.45845465 3.40899823,5.50145577 3.30297676,5.59552072 L3.30297676,5.59552072 Z M1.68003262,21.5516237 C1.48701917,21.4683091 1.3130352,21.4333707 1.16623624,21.4494961 L1.14448824,21.2156775 C1.13633274,21.1243001 1.19070273,21.062486 1.30487971,21.0409854 C1.41090118,21.0302352 1.47342667,21.1054871 1.48158217,21.2586786 C1.7615876,20.9200448 1.91654207,20.7480403 1.94372706,20.7426652 L2.12314802,20.8152296 C2.06605954,21.2909295 1.91654207,21.5328108 1.68003262,21.5516237 L1.68003262,21.5516237 Z M19.0186217,3.62015677 C18.9370667,3.63090705 18.7739568,3.37827548 18.5374473,2.87838746 L18.5238548,2.73057111 C18.6788093,2.71713326 18.8364823,2.9643897 19.0050292,3.475028 L19.0186217,3.62015677 Z M18.7875493,1.84636058 L18.7223053,2.00223964 L16.3680848,1.03202688 C17.936659,1.08309071 18.7467718,1.35453527 18.7875493,1.84636058 L18.7875493,1.84636058 Z M8.84599701,10.3632699 L8.51162158,10.406271 L8.49802909,10.1805151 L8.83240451,10.137514 L8.84599701,10.3632699 Z M8.57414707,5.21388578 L8.65842055,5.21119821 L8.67745005,5.4450168 C8.60133206,5.44770437 8.49802909,5.56326988 8.37297812,5.78096305 L8.35938562,5.61970885 C8.50890309,5.4450168 8.58502107,5.3106383 8.57414707,5.21388578 L8.57414707,5.21388578 Z M7.9951067,6.84255319 L8.06850618,7.15431131 L7.86733723,7.15699888 L7.79665625,6.84792833 L7.9951067,6.84255319 Z M7.51121381,7.42575588 L7.67160527,7.40963046 C7.65529428,7.66763718 7.58461329,7.80470325 7.45412532,7.81545353 L7.37257034,7.82082867 C7.47315482,7.64882419 7.52208781,7.51444569 7.51121381,7.42575588 L7.51121381,7.42575588 Z M7.23664537,8.23471445 L7.32907435,8.22396417 L7.33451135,8.29921613 L7.18499388,8.54916013 L7.02460242,8.56259798 L7.02188392,8.48465845 C7.17955688,8.4712206 7.25023787,8.39059351 7.23664537,8.23471445 L7.23664537,8.23471445 Z M7.07625391,8.96304591 L6.99469893,9.35274356 L6.85877396,9.3581187 L6.80440397,8.97110862 L7.07625391,8.96304591 Z M4.26532554,16.5554311 C4.15930406,17.08757 4.04512709,17.3617021 3.92279462,17.3670773 L3.92007612,17.2918253 C3.89017262,17.0284434 4.0070681,16.7838746 4.26532554,16.5554311 L4.26532554,16.5554311 Z M3.88473563,17.6143337 L3.89560962,17.7003359 C3.91192062,17.8132139 3.82492864,17.8804031 3.63463368,17.8857783 L3.62647818,17.8024636 C3.61016719,17.7030235 3.69444067,17.6412094 3.88473563,17.6143337 L3.88473563,17.6143337 Z M3.62375968,19.8288914 L3.87658013,19.7966405 L3.88473563,19.9148936 C3.82221014,19.9229563 3.74065516,19.9659574 3.64007068,20.0465845 L3.48239772,20.0653975 C3.47152372,19.9525196 3.52317521,19.8692049 3.62375968,19.8288914 L3.62375968,19.8288914 Z M10.7516651,17.643897 C9.3462009,18.3319149 8.51705858,18.7968645 8.27239364,19.0414334 C6.75003398,19.5628219 5.99429115,19.8880179 6.00788365,20.0170213 C4.65678945,20.543785 3.76512165,20.9361702 3.33831725,21.1753639 C3.23501427,21.1861142 3.0909338,21.1484882 2.89792035,21.062486 C2.87617235,20.7910414 3.00122332,20.5733483 3.26491777,20.3959686 C3.50142721,20.3771557 3.72706266,20.4094065 3.94454261,20.5007839 C4.19464456,20.3744681 4.63232296,20.2293393 5.25485932,20.0761478 L5.23854832,19.9175812 L4.73834443,19.9578947 C4.80086992,19.8718925 5.28204431,19.6488242 6.18730461,19.2860022 L6.43740655,19.2645017 L6.44284355,19.3397536 C6.01332065,19.3800672 5.7768112,19.5010078 5.72515971,19.7240761 C5.73331521,19.8262038 5.7931222,19.8665174 5.89914367,19.8584546 C6.2226451,19.6595745 6.38031806,19.5386338 6.37488107,19.506383 C6.98654343,19.3908175 8.67745005,18.5146697 11.4448824,16.8833147 L11.4584749,17.0284434 C11.4639119,17.1036954 11.2274025,17.3025756 10.7516651,17.643897 L10.7516651,17.643897 Z M6.50536904,19.025308 C6.91042545,18.9930571 7.25567487,18.8291153 7.5438358,18.5496081 C7.66073128,18.5388578 7.72325676,18.5845465 7.72869376,18.6839866 C7.53024331,18.7027996 7.14965339,18.8640538 6.59779802,19.1758119 L6.51352453,19.181187 L6.50536904,19.025308 Z M13.358706,13.8221725 L11.2328395,15.4884658 C9.65339133,16.51243 8.80793802,17.0284434 8.68016855,17.0338186 C6.16827511,18.4017917 4.60241946,19.1113102 3.9961941,19.162374 L3.90648362,19.1731243 C3.9826016,18.893617 5.09718635,16.6306831 7.26654887,12.3762598 C8.21802365,12.2929451 9.72135381,11.8575588 11.7683839,11.0566629 L12.2685877,11.0136618 C13.304336,10.924972 14.0791083,11.1238522 14.5901862,11.5995521 L14.6173712,11.9086226 C14.2367813,12.9970885 13.8154139,13.6367301 13.358706,13.8221725 L13.358706,13.8221725 Z M9.20755743,11.5592385 L9.54736985,11.4866741 L9.55280685,11.6801792 L9.21027593,11.7554311 L9.20755743,11.5592385 Z M14.0057088,10.7099664 L14.2585293,10.6857783 C14.4896017,10.7959686 14.6092157,10.8900336 14.6173712,10.9760358 L14.6228082,11.0512878 C14.4026098,11.0701008 14.1960038,10.9572228 14.0057088,10.7099664 L14.0057088,10.7099664 Z M14.6853337,6.88824188 C14.4651352,7.14893617 13.8589099,7.59507279 12.8666576,8.22396417 C12.5377192,8.25352744 11.3198315,8.71847704 9.21027593,9.63493841 C9.10697295,9.58387458 8.99551448,9.56774916 8.873182,9.57581187 L8.85958951,9.42799552 C8.83512301,9.12967525 8.97104798,8.75341545 9.27008291,8.29384099 C9.43319288,7.43919373 9.60989534,6.95005599 9.80834579,6.82911534 L11.5644964,2.92138858 C11.5481854,2.67950728 11.9233383,2.49406495 12.6926736,2.36506159 L12.9427756,2.34087346 L12.9618051,2.56394177 C13.7175479,2.45106383 14.1905668,2.38387458 14.3727063,2.36774916 C15.770015,2.24949608 16.4958543,2.53169093 16.5529428,3.20089586 L16.7133342,3.18745801 L16.6807122,2.79238522 L16.8519777,2.77894737 C17.2624711,3.00201568 17.4826696,3.27346025 17.5125731,3.59059351 C17.5316026,3.81097424 17.4119886,4.08241881 17.1564496,4.40761478 C17.0504282,4.41567749 16.9879027,4.34042553 16.9770287,4.18723404 L16.8057632,4.20335946 L16.7649857,4.67905935 C16.0581759,5.72452408 15.541661,6.26203807 15.2263151,6.29160134 C14.9354356,6.68667413 14.7587332,6.88286674 14.6853337,6.88824188 L14.6853337,6.88824188 Z M15.764578,9.62418813 C15.6204975,9.52743561 15.503602,9.48443449 15.41661,9.48980963 L15.400299,9.25599104 L15.557972,9.24255319 L15.9086584,9.44680851 C15.9222509,9.55699888 15.8760364,9.61343785 15.764578,9.62418813 L15.764578,9.62418813 Z M16.8818812,10.9330347 C17.0395542,10.9948488 17.1347016,11.0620381 17.1537311,11.1238522 L17.0748947,11.1426652 L17.0803317,11.1480403 C17.0640207,11.1480403 17.0449912,11.1507279 17.0313987,11.156103 L16.9117847,11.2474804 L16.8818812,10.9330347 Z M16.9906212,11.750056 L16.9743102,11.5968645 L17.2271306,11.481299 L17.2461601,11.6318029 L16.9906212,11.750056 Z" transform="translate(6 4)"/>
</svg>
