<svg xmlns="http://www.w3.org/2000/svg" width="32" height="32" viewBox="0 0 32 32">
  <path fill="#D14748" stroke="#D14748" stroke-width=".97" d="M19.7390201,9.01316319 L17.6319516,5.85245153 C17.5730946,5.76101374 17.5235329,5.66958037 17.6712918,5.6482454 C17.8187439,5.62657141 20.2132096,5.15380859 20.321374,5.1267092 C20.4297948,5.09961644 20.522722,5.06744393 20.6559275,5.26657914 C20.7885083,5.46537423 22.6105576,7.98601472 22.6793795,8.08319264 C22.7481477,8.1800492 22.6304359,8.23897546 22.4730781,8.27622331 C22.3156666,8.31417571 19.7390201,9.01316319 19.7390201,9.01316319 Z M22.0236096,13.7232663 C22.0880414,13.8340049 22.1524754,13.9044479 21.9501938,13.984708 C21.7482212,14.0653093 15.1290431,16.5076896 15.0002759,16.5676528 C14.871717,16.627934 14.7710485,16.6482541 14.6050102,16.3868135 C14.4395965,16.1260454 12.2861061,12.0509117 12.2861061,12.0509117 L19.3029828,10.0548994 C19.5086705,9.98378061 19.5569883,10.0101964 19.6431143,10.1456602 C19.7608239,10.331248 20.8327418,11.9408135 20.8966322,12.0509117 L22.0236096,13.7232663 Z M6.3281554,12.523648 C6.11286773,12.5771555 6.11286773,12.5507407 6.08839649,12.4694625 C6.06361512,12.3892001 1.2962869,1.6415238 1.22998553,1.50702074 C1.16369512,1.37291521 1.16710225,1.26657166 1.22998553,1.26657166 C1.29255868,1.26657166 5.03645129,0.900818282 5.16905403,0.893033006 C5.301328,0.88524773 5.28738827,0.915722945 5.33633074,1.00716184 L10.7089335,11.1465729 C10.8009346,11.3209852 10.8446157,11.3463839 10.6593707,11.3948072 C10.5741664,11.4173006 6.54284033,12.4698578 6.3281554,12.523648 Z M20.2188557,4.41774221 C19.9828118,4.45499448 17.2295954,4.96061337 16.9099242,5.01953853 C16.590242,5.0788038 16.3885872,5.21866491 16.5852885,5.51973975 C16.7603022,5.78727718 18.5702748,8.59243914 18.9689598,9.21040233 L11.7730146,11.0949913 L6.04852142,0.634120123 C5.82114608,0.264976564 5.77375978,0.135619509 5.25551321,0.161349571 C4.73665293,0.186749448 0.765759781,0.547421963 0.482910466,0.573494356 C0.200094027,0.599231043 -0.110601863,0.736731166 0.172214575,1.46687963 C0.455337863,2.1970281 4.9649817,12.8212355 5.09068033,13.1304379 C5.21644471,13.4399717 5.54294334,13.9415312 6.30810499,13.7407042 C7.09243375,13.5341238 9.81155704,12.7585888 11.2965981,12.3336121 C12.0815516,13.8873545 13.6824612,17.0400048 13.9785707,17.4914404 C14.3738365,18.0942526 14.6458146,17.9950318 15.2526529,17.7938625 C15.7265927,17.6370637 22.6663516,14.9084514 22.9788995,14.7679852 C23.2917653,14.6274416 23.4844447,14.5268625 23.273179,14.1854919 C23.1176721,13.9338674 21.2869872,11.2527066 20.3278639,9.85003178 C20.9845762,9.65869067 23.3201927,8.97899742 23.5689598,8.90517534 C23.8588995,8.81915521 23.8985598,8.66336798 23.7411899,8.46999497 C23.583831,8.27627963 21.4077105,5.29846123 21.0244776,4.79313607 C20.6416831,4.28871644 20.4552064,4.38015202 20.2188557,4.41774221 Z" transform="translate(4 7)"/>
</svg>
