<svg xmlns="http://www.w3.org/2000/svg" width="32" height="32" viewBox="0 0 32 32">
  <g fill="none" transform="translate(4 6)">
    <path fill="#343944" d="M23.4703188,10.2591691 C22.2435816,9.08854692 16.1090472,8.35776364 14.173433,8.14505727 C14.2671812,7.92515889 14.3470074,7.69773682 14.4129063,7.46355448 C14.6767722,7.34879307 14.9616219,7.24201868 15.2561258,7.15286102 C15.2920155,7.25799799 15.4610485,7.66081858 15.5573733,7.85200159 C19.4495429,7.95862329 19.6493602,4.97957052 19.807666,4.16344144 C19.9624674,3.365424 19.9545787,2.5943634 21.2896223,1.18476249 C19.300674,0.609139031 16.4404078,2.0769183 15.4822496,4.26147591 C15.1222127,4.12750776 14.7613911,4.02857297 14.4045404,3.9673725 C14.14877,2.94285436 12.8170293,0.0885349208 9.32226757,0.0885349208 C4.89749919,0.0885349208 0.0746866862,3.71365171 0.0746866862,9.85038848 C0.0746866862,15.0088339 3.62097994,19.5295814 5.62440157,19.5295814 C6.49943065,19.5295814 7.25215181,18.8788263 7.42885414,18.2955159 C7.57700205,18.6954671 8.03154003,19.9388306 8.18083309,20.2553629 C8.40148568,20.7234275 9.42193765,21.1284594 9.86849141,20.6427202 C10.4426547,20.9595053 11.4962417,21.1503197 12.070458,20.3055016 C13.1763187,20.5377938 14.1539337,19.8829162 14.1752992,19.1014993 C14.717918,19.0727187 14.9841113,18.3160652 14.8656205,17.7134849 C14.7782661,17.26985 13.8451686,15.6779797 13.4812137,15.1284707 C14.2017012,15.7104648 16.0266709,15.875207 16.2483308,15.1288393 C17.4099644,16.0343155 19.2202487,15.559059 19.3638161,14.8226526 C20.775314,15.1868597 22.3942106,14.3869521 22.1283884,13.4181588 C24.3959357,13.2624303 24.1056731,10.8665247 23.4694811,10.2593639 L23.4703188,10.2591691 Z"/>
    <path fill="#7ACCEE" d="M1.45673985,3.47332585 C1.94512155,2.51103663 2.55880867,1.46030755 3.33394897,0.810246392 C2.48078929,1.15171542 1.63845848,2.17248658 1.14043393,3.26351802 C0.886574451,3.10328158 0.628847521,2.96035415 0.368954819,2.83535027 C1.0637037,1.36264987 2.67802929,0.13273661 4.45710828,0.0366664402 C3.2654693,1.10992797 3.6884653,3.34064045 2.70871107,4.52154563 C2.42834666,4.24188721 1.78459656,3.70218384 1.45673985,3.47332585 L1.45673985,3.47332585 Z M0.686446757,5.04030406 C0.686962417,5.00348399 0.700833675,4.7194215 0.726874511,4.5897575 C0.658549544,4.57377994 0.233851866,4.49128045 0.012427409,4.49645267 C-0.00371275289,4.77262881 0.129275993,5.24248159 0.260717759,5.52531504 C1.16595911,5.50646971 1.81981614,5.23725816 2.20465329,4.98975968 C1.87700285,4.83807533 1.31792414,4.70323911 0.892813939,4.62258318 C0.845373207,4.72003602 0.728627755,4.96835386 0.686446757,5.04030406 L0.686446757,5.04030406 Z" transform="translate(15.7 1.676)"/>
    <g transform="translate(1.065 1.094)">
      <path fill="#2ECC71" d="M11.9572286,13.2357066 C11.9574407,13.236986 11.9580027,13.2387235 11.9581617,13.2400081 C11.8434245,12.9948114 11.7215778,12.6969751 11.5760542,12.3076803 C12.1426892,13.1267578 13.9185131,12.704304 13.825364,11.9703564 C14.6945614,12.619848 16.4837453,11.86215 16.0770066,10.9514192 C16.9476883,11.3543398 17.9414733,10.5436337 17.718594,10.1903621 C19.203042,10.4746832 20.6255673,10.7580881 21.0721741,10.871549 C20.7755125,11.3519021 20.0999137,11.6911004 19.0814763,11.4553859 C19.6317824,12.1998582 18.5633403,13.093067 17.0751388,12.6011045 C17.4027406,13.3319931 16.0776958,13.9899613 14.5717233,13.2281671 C14.5908541,13.9593716 12.7034394,14.0435591 11.9572392,13.235644 L11.9572286,13.2357066 Z M14.9018963,9.53998607 C16.6247573,9.67134279 19.4738901,9.92646934 21.2378385,10.1716292 C21.1264042,9.60153403 20.8220075,9.4386873 19.864459,9.1832817 C18.8346232,9.29236216 16.2219417,9.54723599 14.9018963,9.5400124 L14.9018963,9.53998607 Z"/>
      <path fill="#F4BF75" d="M13.8255125,11.9705249 C14.6947098,12.6200165 16.4838938,11.8623185 16.077155,10.9515877 C16.9478368,11.3545083 17.9416217,10.5437969 17.7187424,10.1905306 C15.9637538,9.85448613 14.122137,9.51724123 13.7044239,9.45827313 C13.9578192,9.47163941 14.3778332,9.50021419 14.9020554,9.5402072 C16.2221008,9.54742764 18.8347823,9.2925517 19.864565,9.18347651 C18.1971058,8.76360255 14.7927364,8.15085025 12.4417949,7.99990244 C12.3328364,8.15804225 12.1325526,8.42623129 11.7837073,8.71120518 C10.7550378,10.8726494 8.89131336,12.3093651 6.82915001,12.3093651 C6.22821365,12.3093651 5.55581172,12.2086876 4.80218928,11.9694298 C4.33221304,12.4694477 2.3284097,12.8483704 0.702515016,12.0558233 C1.99218223,15.0548252 4.98302686,17.0567397 8.29387606,17.0567397 C11.0820405,17.0567397 12.3184266,14.2292191 12.047833,13.4810613 C11.9821886,13.2994185 11.7220391,12.6971541 11.5764677,12.3078593 C12.1431558,13.1268842 13.9189797,12.7044304 13.8258836,11.9704881 L13.8255125,11.9705249 Z"/>
      <path fill="#CFD2D3" d="M12.1358926,6.27957648 C12.3820724,6.14658234 13.2327936,5.6344549 14.0434613,5.44201881 C14.0306733,5.35286115 14.0210302,5.26293479 14.0150484,5.17249773 C13.4831919,5.29898957 12.4805003,5.72579754 11.9058598,5.13762388 C13.1181237,5.50090952 13.7234074,4.81392059 14.6144473,4.81392059 C15.1453495,4.81392059 15.9030012,4.96120396 16.5001734,5.19405425 C16.0198325,4.75338878 14.4446901,3.42343166 12.4944435,3.4188511 C12.0590178,3.94309333 11.588347,5.0786979 12.1358539,6.2795412 L12.1358926,6.27957648 Z"/>
      <path fill="#D14748" d="M4.80218928,11.9689454 C5.55581172,12.208198 6.22821365,12.3088807 6.82915001,12.3088807 C8.89126034,12.3088807 10.7549848,10.8721124 11.7837073,8.7107208 C11.0228747,9.34141625 9.70065562,9.8810797 7.63568242,9.8810797 C9.47501952,9.46689195 11.0583954,8.55661398 11.8638675,7.22609351 C11.2976566,6.33114724 10.6835723,4.35124053 12.2387012,2.78605859 C11.9994824,2.02284286 10.8351026,0.00797648894 8.25746467,0.00797648894 C3.75900405,0.00797648894 0.0309719472,3.74618567 0.0309719472,8.75578928 C0.0309719472,9.9417326 0.272046302,11.0539658 0.702631651,12.0550546 C2.32847332,12.8476491 4.33226606,12.4687317 4.8022529,11.9687138 L4.80218928,11.9689454 Z"/>
      <path fill="#F4BF75" d="M6.15144648,4.34100009 C6.15144648,5.48055868 7.08166522,6.40440984 8.22914352,6.40440984 C9.37662182,6.40440984 10.3069466,5.48050603 10.3069466,4.34100009 C10.3069466,3.2014415 9.37662182,2.27759033 8.22914352,2.27759033 C7.08166522,2.27759033 6.15144648,3.2014415 6.15144648,4.34100009 Z"/>
      <path fill="#343944" d="M6.98538816,4.34100009 C6.98538816,5.02323998 7.54242727,5.5763292 8.22930257,5.5763292 C8.91638993,5.5763292 9.47326999,5.02318733 9.47326999,4.34100009 C9.47326999,3.65870754 8.91638993,3.10561833 8.22930257,3.10561833 C7.54237426,3.10561833 6.98538816,3.65876019 6.98538816,4.34100009 L6.98538816,4.34100009 Z"/>
      <ellipse cx="8.229" cy="3.793" fill="#FFF" rx="1" ry="1"/>
    </g>
  </g>
</svg>
