<svg xmlns="http://www.w3.org/2000/svg" width="32" height="32" viewBox="0 0 32 32">
  <g fill="none" fill-rule="evenodd" transform="translate(4 4)">
    <circle cx="12" cy="12" r="11.831" fill="#F4BF75"/>
    <path fill="#343944" d="M16.4344225,4.61712676 C16.4868169,4.60242254 16.5388732,4.58974648 16.5907606,4.57892958 L16.7445634,4.76721127 C16.7334761,4.81122078 16.7230524,4.85539481 16.7132958,4.89971831 C16.5949859,4.92050704 16.4729577,4.95447887 16.3478873,5.00112676 C16.3710423,4.87419718 16.3999437,4.74608451 16.4344225,4.61712676 L16.4344225,4.61712676 Z M13.1065352,8.18416901 C12.0414085,9.87380282 11.4545915,11.6210704 11.6264789,12.564169 C13.6255775,12.8907042 15.4744225,12.8244507 17.1647324,12.444507 C18.4729014,12.1504225 19.5889014,11.6925634 20.5010704,11.1578028 C20.6907042,11.0464225 20.867831,10.9052958 20.9739718,10.7859718 C19.9901408,10.5887324 18.6711549,9.89966197 17.7429296,8.99290141 C16.6041127,7.88061972 16.0698592,6.52140845 16.3478873,5.00095775 C15.3339718,5.37802817 14.1202817,6.57616901 13.1065352,8.18416901 Z M16.8064225,4.54614085 C15.7129014,8.12738028 19.5887324,10.2037183 21.1208451,10.4695775 C21.7355493,10.5762254 21.1972394,11.1414085 20.6719437,11.4493521 C19.2625352,12.275831 16.032169,13.6857465 11.3543662,12.8607887 C10.6335211,10.7408451 14.1677746,4.80050704 16.8064225,4.54614085 Z"/>
    <path fill="#343944" d="M15.7032676,9.17070423 C15.6404132,9.46369572 15.7779293,9.76310332 16.0411388,9.90633559 C16.3043482,10.0495679 16.6304386,10.0024438 16.8423285,9.79055387 C17.0542185,9.57866393 17.1013425,9.25257356 16.9581102,8.98936412 C16.814878,8.72615467 16.5154704,8.58863852 16.2224789,8.65149296 C16.4197983,8.70546257 16.5501542,8.89298488 16.531995,9.0967443 C16.5138357,9.30050371 16.3523732,9.46201884 16.1486197,9.48024441 C15.9448662,9.49846998 15.7573014,9.36817504 15.7032676,9.17087324 L15.7032676,9.17070423 Z M20.5898028,11.171831 C21.1498662,11.171831 21.6038873,10.7178099 21.6038873,10.1577465 C21.6038873,9.59768307 21.1498662,9.14366197 20.5898028,9.14366197 C20.0297394,9.14366197 19.5757183,9.59768307 19.5757183,10.1577465 C20.2612394,10.6538028 21.2526761,10.5535775 20.5898028,11.171831 Z"/>
    <path fill="#343944" d="M16.2813894,15.764632 C15.6293611,18.3982506 13.7770706,21.0593285 11.3939155,22.0860845 C11.4643723,21.2802727 11.434673,20.6074214 11.316656,19.9940547 C10.2126449,20.6309275 9.01166059,21.0353502 7.82940845,21.0829859 L7.82923944,21.0829859 C8.18161478,20.3605809 8.39460081,19.7252753 8.50487602,19.1139499 C7.24935014,19.3109657 5.98704592,19.2573871 4.86929577,18.8792113 L4.86929577,18.8793803 C5.44783542,18.3398859 5.87008071,17.8307773 6.19025241,17.3084005 C4.94524084,17.0427207 3.78370152,16.539919 2.87425352,15.7850704 L2.87408451,15.7850704 C3.62827842,15.4803638 4.21669208,15.1464311 4.71135727,14.7600878 C3.63821932,14.064547 2.72869132,13.1756926 2.14766197,12.1406197 L2.14766197,12.1407887 C2.93957575,12.1269402 3.59468161,12.0308976 4.18274311,11.8565058 C3.43363594,10.8249132 2.90565051,9.67249474 2.73464789,8.50140845 C3.49660562,8.77871664 4.15558306,8.92421501 4.77997837,8.96857761 C4.45122225,7.73832663 4.37175189,6.47474374 4.63149296,5.32140845 C5.22951706,5.84117286 5.78081751,6.20820504 6.33470677,6.47209764 C6.468429,5.20479 6.84713227,3.99566055 7.50338028,3.01132394 C7.88352881,3.72623623 8.27531501,4.27475908 8.70890657,4.72515884 C9.28824522,3.5870683 10.0763435,2.59131881 11.0437183,1.90614085 C11.1416279,2.70387563 11.309018,3.35266042 11.5494948,3.9254074 C12.4946877,3.07725247 13.5817777,2.43537207 14.724338,2.14394366 C14.5305666,2.9211021 14.4541942,3.58486856 14.4727063,4.20389908 C15.6648802,3.74569366 16.9169797,3.53300345 18.0944789,3.67115493 L18.0944789,3.67098592 C14.4711549,6.41830986 16.5512113,8.40202817 16.5512113,13.6519437 C16.5512113,14.6002772 16.4577345,15.2887674 16.2813894,15.764632 Z"/>
    <path fill="#FFF" d="M16.5339718,12.42 C16.5226479,12.3459718 16.5023662,12.1213521 16.4888387,11.9209014 C16.4668732,11.592338 16.343493,10.5256901 16.284338,10.1535211 L16.2610141,10.0071549 L16.4506479,9.98569014 C16.9607324,9.92822535 17.2274366,9.32078873 16.9250704,8.90501408 C16.8255211,8.76828169 16.5278873,8.61819718 16.356,8.61819718 L16.2199437,8.61819718 L16.3646197,8.75476056 C16.4716056,8.85566197 16.5092958,8.92478873 16.5092958,9.02011268 C16.5092958,9.19267606 16.4168451,9.36185915 16.2910986,9.41915493 C16.1940845,9.46343662 16.1869859,9.45853521 16.1653521,9.336 C15.9941408,8.36247887 15.9392113,7.21014085 16.0372394,6.65290141 C16.0725634,6.45228169 16.1371268,6.18777465 16.1809014,6.06523944 L16.260338,5.84247887 L16.2637183,6.02467606 C16.2657465,6.12507042 16.3014085,6.37115493 16.3429859,6.57177465 C16.6191549,7.90276056 17.5242254,9.06709859 18.9812958,9.96608451 C19.368169,10.2047324 20.0499718,10.5294085 20.4338028,10.6578592 C20.5974085,10.7124507 20.748507,10.7744789 20.7692958,10.7952676 C20.8389296,10.8649014 20.7591549,10.9644507 20.5052958,11.1248451 C19.7291831,11.6149859 18.4811831,12.107831 17.3198873,12.3829859 C16.4934085,12.5787042 16.5578028,12.575662 16.5339718,12.42 L16.5339718,12.42 Z"/>
  </g>
</svg>
