<svg xmlns="http://www.w3.org/2000/svg" width="32" height="32" viewBox="0 0 32 32">
  <path fill="#3965BD" fill-rule="evenodd" d="M23.0218254,22.8057143 L23.7132937,26.9885714 C23.2748016,27.2285714 22.5664683,27.4514286 21.6220238,27.6571429 C20.6607143,27.88 19.530754,28 18.2321429,28 C14.5049603,27.9314286 11.7053571,26.8 9.83333333,24.64 C7.94444444,22.4628571 7,19.7028571 7,16.36 C7.0843254,12.4 8.21428571,9.36571429 10.3730159,7.24 C12.5992063,5.09714286 15.3650794,4 18.7043651,4 C19.969246,4 21.0654762,4.12 21.9761905,4.32571429 C22.8869048,4.53142857 23.5615079,4.75428571 24,5.01142857 L23.0218254,9.28 L21.234127,8.69714286 C20.5595238,8.52571429 19.7837302,8.44 18.889881,8.44 C16.9335317,8.42285714 15.3144841,9.05714286 14.0496032,10.3257143 C12.7678571,11.5771429 12.110119,13.4971429 12.0595238,16.0514286 C12.0595238,18.3828571 12.6835317,20.2 13.8809524,21.5371429 C15.078373,22.8571429 16.764881,23.5428571 18.9236111,23.56 L21.1666667,23.3542857 C21.8918651,23.2171429 22.4990079,23.0285714 23.0218254,22.8057143 L23.0218254,22.8057143 Z"/>
</svg>
