<svg xmlns="http://www.w3.org/2000/svg" width="32" height="32" viewBox="0 0 32 32">
  <g fill="none" fill-rule="evenodd" transform="translate(2 2)">
    <rect width="10" height="14" x="12" y="2" fill="#7ACCEE" rx="1.13" transform="scale(-1 1) rotate(31.47 0 -51.338)"/>
    <path fill="#6A6BD7" d="M13.981863,15 L22.018137,15 C22.5604049,15 23,15.4395951 23,15.981863 L23,25.018137 C23,25.5604049 22.5604049,26 22.018137,26 L13.981863,26 C13.4395951,26 13,25.5604049 13,25.018137 L13,15.981863 C13,15.4395951 13.4395951,15 13.981863,15 Z" transform="scale(-1 1) rotate(-30.988 0 85.431)"/>
    <path fill="#3965BD" d="M6.47750209,18.205664 C6.186243,18.0755967 3.18196244,18.6383541 3.01214385,18.3342626 C2.84232525,18.0301696 4.50941998,15.0729194 4.52590763,14.7109558 C4.54239528,14.3489922 3.1532689,11.203897 3.34976463,10.9223197 C3.54626036,10.6407424 6.48264203,11.5686336 6.78409061,11.4749957 C7.0855405,11.3813578 9.23129458,8.87482362 9.52255368,9.0048909 C9.81381277,9.13495969 9.96150196,12.6656787 10.1313192,12.9697702 C10.3011378,13.2738632 13.0164142,14.8698351 13,15.2317987 C12.9834376,15.5937623 10.1383341,16.8479745 9.94183706,17.1295518 C9.74534133,17.4111291 9.27772047,20.9040292 8.97627189,20.9976671 C8.67482201,21.091305 6.76876249,18.3357328 6.47750209,18.205664 Z" transform="scale(1 -1) rotate(40.17 49.023 0)"/>
  </g>
</svg>
