<svg xmlns="http://www.w3.org/2000/svg" width="32" height="32" viewBox="0 0 32 32">
  <g fill="none" transform="translate(5 5)">
    <path fill="#AEE33E" d="M11,13 L5,13 L5,11 L10,11 L10,6 L12,6 L12,12 C12,12.553 11.552,13 11,13 Z"/>
    <path fill="#7ACCEE" d="M20,12 C20,16.963 15.963,21 11,21 C6.037,21 2,16.963 2,12 C2,7.037 6.037,3 11,3 C12.989,3 14.873,3.65 16.43,4.833 L12.826,8.226 L21.993,9.209 L21.562,0 L17.907,3.442 C15.957,1.862 13.545,1 11,1 C4.935,1 0,5.935 0,12 C0,18.065 4.935,23 11,23 C17.065,23 22,18.065 22,12 L20,12 Z"/>
  </g>
</svg>
