<svg xmlns="http://www.w3.org/2000/svg" width="32" height="32" viewBox="0 0 32 32">
  <g fill="none" fill-rule="evenodd" transform="translate(4 7)">
    <path fill="#AB7558" d="M1.77336523,1.84963862 C2.53164569,1.3640011 2.84709036,1.30378205 2.59433021,1.72725797 C2.46693909,1.84963862 2.46693909,2.15267643 2.46693909,2.33527614 C2.65701472,3.00351337 5.24730077,3.85240776 7.64953325,4.09522652 C8.34512919,4.15544557 9.16609417,4.21760717 9.48153884,4.27782622 C10.1771348,4.33804528 14.664133,4.33804528 16.1159873,4.21760717 C20.0974652,3.97478841 23.2559561,2.94329432 22.9405114,1.97201928 C22.6877513,1.30378205 23.5087163,1.72920052 23.951552,2.51787585 C24.1416277,2.88307527 23.7614764,3.48915089 23.003196,3.85435031 C22.3702845,4.21954972 19.9073896,4.8858444 18.9590335,4.948006 C18.6435888,5.00822505 17.8853084,5.13060571 17.3150815,5.19082476 C16.0512807,5.37342447 9.22675661,5.37342447 7.83556473,5.19082476 C5.68609239,4.948006 5.05520305,4.82562535 3.60132665,4.40214943 C1.95737462,3.91651191 0.946334011,3.18805563 1.07372513,2.64219905 C1.07372513,2.39938029 1.3891698,2.03418088 1.76932107,1.85352372 L1.77336523,1.84963862 Z M1.33052944,5.24910126 C1.20313833,4.58086404 1.26784492,4.46042593 1.45792056,4.70324469 C1.71068071,5.06844411 3.86015305,5.91733849 4.74380254,6.03971915 C5.05924721,6.0999382 5.502083,6.1620998 5.75484315,6.22231886 C7.52416422,6.64773732 15.2343599,6.76817543 17.6345703,6.46513762 C20.6676921,6.0999382 22.8171645,5.49386257 23.5107383,4.8858444 C23.9535741,4.52064498 23.9535741,4.52064498 23.9535741,4.82562535 C23.9535741,5.49386257 23.005218,8.34746864 22.3743287,9.7422196 C21.9941774,10.4706759 21.1732125,11.7449887 20.4776165,12.6560447 C19.7820206,13.5671007 19.0864246,14.7209755 18.9610556,15.206613 C18.2027751,17.2715437 16.5588231,18 12.5793673,18 C8.66057386,18 7.08132843,17.3317628 6.32304797,15.3289936 C6.13297234,14.8433561 5.37469188,13.5690433 4.67909594,12.5977682 C3.92081549,11.6264932 3.16253503,10.4726184 2.90977488,10.0472 C2.71969924,9.6217815 2.46693909,9.25852463 2.46693909,9.25852463 C2.40425457,9.25852463 2.21417894,9.50134339 2.0241033,9.74416215 C1.58126751,10.4123994 1.518583,11.8090929 1.89671218,12.7182063 C2.33954797,13.7497004 3.66603325,14.8433561 4.61438934,14.9637942 C5.81550559,15.206613 5.24730077,15.5096508 3.66603325,15.5718124 C2.46491701,15.6320315 2.27484137,15.5718124 1.64395203,15.0861749 C0.317466752,14.1751189 8.17124146e-14,13.5690433 8.17124146e-14,11.98975 C8.17124146e-14,10.8358753 0.0626845178,10.5328375 0.505520305,9.86460026 C0.758280457,9.49940084 1.20111624,8.95354427 1.51656091,8.65050646 L2.08476574,8.22508799 L1.76932107,7.13143229 C1.57924543,6.58557572 1.3891698,5.73473878 1.32648528,5.24910126 L1.33052944,5.24910126 Z"/>
    <path fill="#F4BF75" d="M13.0828655,0.1499073 C14.0939061,-0.0929114599 16.1159873,-0.0326924074 17.0643434,0.272287955 C19.0237401,0.940525183 19.0237401,2.58003745 17.0643434,3.00351337 C15.3577069,3.30655118 13.3356256,2.94329432 13.3356256,2.21483804 C13.3356256,1.84963862 14.0312216,1.72920052 14.5367419,2.03223833 C15.1049467,2.4576568 16.4334541,2.39743774 16.9389744,1.97201928 C17.5071792,1.54660081 17.3191256,1.243563 16.2433784,1.06096329 C15.1676312,0.878363581 13.4630168,1.30378205 11.8190647,2.09245738 C10.6179485,2.63831395 10.1751127,2.76069461 9.10138757,2.82091366 C7.71019569,2.82091366 7.01662183,2.63831395 6.44639493,1.97007673 C6.13095026,1.66703891 6.13095026,1.54465826 6.25631929,1.11923979 C6.63647056,0.451002563 8.53116067,0.0877456977 9.35212564,0.573383218 C9.79496143,0.876421031 9.47951676,0.998801686 8.40376955,0.998801686 C7.13996879,0.938582633 6.63444848,1.24162045 7.07728427,1.66703891 C7.45743554,2.15267643 8.97399645,2.03223833 10.0477216,1.48443921 C12.0071183,0.513164166 12.3852475,0.330564458 13.0808434,0.14796475 L13.0828655,0.1499073 Z"/>
  </g>
</svg>
