<svg xmlns="http://www.w3.org/2000/svg" width="32" height="32" viewBox="0 0 32 32">
  <path fill="#3965BD" d="M10.7391304,12.5371429 L11.2026087,15.3257143 C10.9086957,15.4857143 10.433913,15.6342857 9.80086957,15.7714286 C9.15652174,15.92 8.39913043,16 7.52869565,16 C5.03043478,15.9542857 3.15391304,15.2 1.89913043,13.76 C0.633043478,12.3085714 0,10.4685714 0,8.24 C0.0565217391,5.6 0.813913043,3.57714286 2.26086957,2.16 C3.75304348,0.731428571 5.60695652,0 7.84521739,0 C8.69304348,0 9.42782609,0.08 10.0382609,0.217142857 C10.6486957,0.354285714 11.1008696,0.502857143 11.3947826,0.674285714 L10.7391304,3.52 L9.54086957,3.13142857 C9.08869565,3.01714286 8.56869565,2.96 7.96956522,2.96 C6.65826087,2.94857143 5.57304348,3.37142857 4.72521739,4.21714286 C3.86608696,5.05142857 3.42521739,6.33142857 3.39130435,8.03428571 C3.39130435,9.58857143 3.80956522,10.8 4.61217391,11.6914286 C5.41478261,12.5714286 6.54521739,13.0285714 7.99217391,13.04 L9.49565217,12.9028571 C9.98173913,12.8114286 10.3886957,12.6857143 10.7391304,12.5371429 L10.7391304,12.5371429 Z M11.3043478,6.85714286 L13.5652174,6.85714286 L13.5652174,4.57142857 L15.826087,4.57142857 L15.826087,6.85714286 L18.0869565,6.85714286 L18.0869565,9.14285714 L15.826087,9.14285714 L15.826087,11.4285714 L13.5652174,11.4285714 L13.5652174,9.14285714 L11.3043478,9.14285714 L11.3043478,6.85714286 L11.3043478,6.85714286 Z M19.2173913,6.85714286 L21.4782609,6.85714286 L21.4782609,4.57142857 L23.7391304,4.57142857 L23.7391304,6.85714286 L26,6.85714286 L26,9.14285714 L23.7391304,9.14285714 L23.7391304,11.4285714 L21.4782609,11.4285714 L21.4782609,9.14285714 L19.2173913,9.14285714 L19.2173913,6.85714286 Z" transform="translate(3 8)"/>
</svg>
