<svg xmlns="http://www.w3.org/2000/svg" width="32" height="32" viewBox="0 0 32 32">
  <path fill="#6A9FB5" fill-rule="evenodd" d="M7.51505289,26 L11.7097912,26 L12.8285869,20.2068966 L17.0233252,20.2068966 L15.9045294,26 L20.0992677,26 L21.2180635,20.2068966 L25.7857337,20.2068966 L25.7857337,17.2205517 L21.9639273,17.2205517 L22.7097912,13.5998621 L27,13.5998621 L27,10.6135172 L23.2706808,10.6135172 L24.4819637,5 L20.3797125,5 L19.1684296,10.6135172 L14.9736913,10.6135172 L16.1849742,5 L11.990236,5 L10.8714402,10.6135172 L6.30377,10.6135172 L6.30377,13.5998621 L10.2210469,13.5998621 L9.47518308,17.2205517 L5,17.2205517 L5,20.2068966 L8.72931923,20.2068966 L7.51505289,26 Z M17.7721725,17.2205517 L13.5774342,17.2205517 L14.3232981,13.5998621 L18.5180363,13.5998621 L17.7721725,17.2205517 Z"/>
</svg>
