<svg xmlns="http://www.w3.org/2000/svg" width="32" height="32" viewBox="0 0 32 32">
  <g fill="none" transform="translate(4 4)">
    <path fill="#2ECC71" d="M12.6498529,0.616015123 C12.3822796,0.616015123 12.1140204,0.720335365 11.9070851,0.922318639 C11.9039274,0.925400076 11.9000076,0.926837353 11.8968499,0.929973233 L4.94129603,4.9501048 L11.8789928,11.8878016 L11.8789928,11.8929192 L20.2179267,20.231853 L21.8080786,17.3679679 L16.0752998,3.60494336 L13.4003297,0.929973233 C13.1921748,0.721818374 12.9215528,0.616015123 12.6498964,0.616015123 L12.6498529,0.616015123 Z"/>
    <path fill="#3965BD" d="M4.95791183,4.9339572 L0.93930465,11.8834135 C0.936168771,11.8865712 0.934785936,11.890491 0.931650057,11.8936487 C0.729625406,12.1005514 0.624704105,12.3711407 0.624704105,12.6387031 C0.624704105,12.9103595 0.72988673,13.1786622 0.938008922,13.3868498 L4.26868265,16.72079 L17.2945579,21.8447946 L20.2390176,20.2086932 L20.1599673,20.1295232 L20.1395406,20.1321364 L11.9736245,11.9519564 L11.9633893,11.9519423 L4.95785739,4.9339572 L4.95791183,4.9339572 Z"/>
    <path fill="#3965BD" d="M4.93972809,4.93733263 L12.0370498,12.0420585 L12.047285,12.0420661 L20.2160321,20.2194151 L23.3252343,19.6263202 L23.3299164,10.4271973 L20.0466075,7.20932815 C19.327631,6.50447401 18.2224623,6.05025065 17.1120563,5.90096974 L17.1146695,5.86523487 L4.94027251,4.93733263 L4.93972809,4.93733263 Z"/>
    <path fill="#2ECC71" d="M4.94898329,4.94549898 L12.0500071,12.0465228 L12.0500071,12.056758 L20.2230007,20.2297515 L19.6282725,23.3386271 L10.4291496,23.3386271 L7.21302261,20.0535761 C6.50853868,19.3341096 6.05492507,18.2286687 5.90618858,17.1181538 L5.87045916,17.120767 L4.94898329,4.94528121 L4.94898329,4.94549898 Z"/>
  </g>
</svg>
