<svg xmlns="http://www.w3.org/2000/svg" width="32" height="32" viewBox="0 0 32 32">
  <g fill="none" fill-rule="evenodd" transform="translate(4 8)">
    <path fill="#3965BD" d="M14.9235844,5.05583946 L14.9235844,7.63478261 L16.1618701,7.63478261 C16.7337143,7.63478261 17.3218701,7.52979264 17.8634286,7.3407893 C18.1295584,7.24789298 18.4282078,7.11850167 18.6907532,6.9558796 C18.344987,6.49091639 18.1685195,5.90378595 18.1165195,5.32505686 C18.045974,4.53789967 18.2001039,3.51341806 18.7172468,2.89733779 L18.9747013,2.5906087 L19.2814545,2.84462876 C20.0537662,3.4838796 20.7033766,4.37709699 20.8179221,5.39526421 C21.7478442,5.11347157 22.8397922,5.18014716 23.6595325,5.66753177 L23.9958961,5.86734448 L23.8188571,6.22330435 C23.1256104,7.61707023 21.6762078,8.04874916 20.2591688,7.97244147 C18.1388052,13.412602 13.5225455,15.9881739 7.92524675,15.9881739 C5.03350649,15.9881739 2.38041558,14.8745953 0.86961039,12.2318127 L0.624675325,11.7273043 C0.114025974,10.5640134 -0.0555844156,9.28963211 0.0594805195,8.01621405 L0.093974026,7.63483612 L2.18825974,7.63483612 L2.18825974,5.05589298 L4.63724675,5.05589298 L4.63724675,2.53308361 L9.53553247,2.53308361 L9.53553247,0.0102207358 L12.4744416,0.0102207358 L12.4744416,5.05583946 L14.9235844,5.05583946 Z M8.5918961,15.5546221 C7.14171429,14.8457525 6.34571429,13.8820602 5.90280519,12.8300736 C5.3641039,12.9885217 4.71657143,13.0897124 3.96425974,13.1331639 C3.68077922,13.149592 3.38264935,13.1579933 3.06976623,13.1579933 C2.70914286,13.1579933 2.32898701,13.1470234 1.93002597,13.1251906 C3.2598961,14.4942876 4.89594805,15.5483612 7.92524675,15.5677324 C8.14888312,15.5676789 8.37090909,15.5631839 8.5918961,15.5546221 Z M2.59641558,5.47628094 L2.59641558,7.66276923 L4.71890909,7.66276923 L4.71890909,5.47628094 L2.59641558,5.47628094 Z M5.0454026,2.95347157 L5.0454026,5.13990635 L7.16815584,5.13990635 L7.16815584,2.95347157 L5.0454026,2.95347157 Z M5.0454026,5.47628094 L5.0454026,7.66276923 L7.16815584,7.66276923 L7.16815584,5.47628094 L5.0454026,5.47628094 Z M7.4945974,5.47628094 L7.4945974,7.66276923 L9.61724675,7.66276923 L9.61724675,5.47628094 L7.4945974,5.47628094 Z M7.4945974,2.95347157 L7.4945974,5.13990635 L9.61724675,5.13990635 L9.61724675,2.95347157 L7.4945974,2.95347157 Z M9.94368831,5.47628094 L9.94368831,7.66276923 L12.0663377,7.66276923 L12.0663377,5.47628094 L9.94368831,5.47628094 Z M9.94368831,2.95347157 L9.94368831,5.13990635 L12.0663377,5.13990635 L12.0663377,2.95347157 L9.94368831,2.95347157 Z M9.94368831,0.430662207 L9.94368831,2.6171505 L12.0663377,2.6171505 L12.0663377,0.430662207 L9.94368831,0.430662207 Z M12.3927792,5.47628094 L12.3927792,7.66276923 L14.5153766,7.66276923 L14.5153766,5.47628094 L12.3927792,5.47628094 Z M7.03522078,11.2077592 C6.71179221,11.2077592 6.44966234,11.4779398 6.44966234,11.8109431 C6.44966234,12.1440535 6.71179221,12.4140736 7.03522078,12.4140736 C7.3585974,12.4140736 7.62072727,12.1440535 7.62072727,11.8109431 C7.62072727,11.4779398 7.3585974,11.2077592 7.03522078,11.2077592 Z"/>
    <path fill="#6A9FB5" d="M7.03522078,11.3789431 C7.08877922,11.3789431 7.1398961,11.3893244 7.18706494,11.4081605 C7.13594805,11.4386087 7.10135065,11.4956522 7.10135065,11.5608829 C7.10135065,11.6582742 7.17802597,11.737097 7.27257143,11.737097 C7.33735065,11.737097 7.39355844,11.7000134 7.4227013,11.6453244 C7.44322078,11.6963211 7.45464935,11.7522943 7.45464935,11.8110502 C7.45464935,12.0496054 7.26685714,12.2430502 7.03527273,12.2430502 C6.80368831,12.2430502 6.61584416,12.0496054 6.61584416,11.8110502 C6.61579221,11.5723344 6.80368831,11.3789431 7.03522078,11.3789431"/>
  </g>
</svg>
