<svg xmlns="http://www.w3.org/2000/svg" width="32" height="32" viewBox="0 0 32 32">
  <g fill="none" fill-rule="evenodd">
    <path fill="#8251A8" fill-rule="nonzero" d="M7.4568672,23.3036535 C3.33855317,23.3036535 0,19.3328993 0,14.4347295 C0,10.4220212 2.95910304,5.51904371 5.24422613,2.53287273 C6.3261696,1.11900218 8.37073387,0 8.37073387,0 C8.37073387,0 7.32292693,5.71433378 10.1652427,7.98385549 C12.6882677,9.99843098 14.5447989,12.6194012 14.5447989,14.9249372 C14.5447989,19.5418444 11.5751797,23.3036535 7.4568672,23.3036535 Z" transform="translate(9 4)"/>
    <path fill="#F4BF75" fill-rule="nonzero" d="M10.5,5.33333333 L9.75,5.33333333 L9.75,3.80952381 C9.75,1.70666667 8.07,0 6,0 C3.93,0 2.25,1.70666667 2.25,3.80952381 L2.25,5.33333333 L1.5,5.33333333 C0.675,5.33333333 0,6.01904762 0,6.85714286 L0,14.4761905 C0,15.3142857 0.675,16 1.5,16 L10.5,16 C11.325,16 12,15.3142857 12,14.4761905 L12,6.85714286 C12,6.01904762 11.325,5.33333333 10.5,5.33333333 Z M6,12.1904762 C5.175,12.1904762 4.5,11.5047619 4.5,10.6666667 C4.5,9.82857143 5.175,9.14285714 6,9.14285714 C6.825,9.14285714 7.5,9.82857143 7.5,10.6666667 C7.5,11.5047619 6.825,12.1904762 6,12.1904762 Z M8.325,5.33333333 L3.675,5.33333333 L3.675,3.80952381 C3.675,2.50666667 4.7175,1.44761905 6,1.44761905 C7.2825,1.44761905 8.325,2.50666667 8.325,3.80952381 L8.325,5.33333333 Z" transform="translate(20 16)"/>
  </g>
</svg>
