<svg xmlns="http://www.w3.org/2000/svg" width="32" height="32" viewBox="0 0 32 32">
  <path fill="#D14748" fill-rule="evenodd" d="M7.7689008,23.9984108 C7.29919571,23.5184871 6.88042895,22.98877 6.51260054,22.4092595 C6.14477212,21.8297489 5.83485255,21.2089204 5.58284182,20.546774 C5.3308311,19.8846276 5.1383378,19.185401 5.00536193,18.4490942 C4.87238606,17.7127874 4.80536193,16.9473461 4.80428954,16.1527704 C4.80428954,14.7288908 5.01769437,13.4130734 5.44450402,12.2053184 C5.87131367,10.9975633 6.47882038,9.92965356 7.26702413,9.00158915 L7.26702413,9.00158915 L4,9.00158915 L4,24 L7.77050938,24 L7.7689008,23.9984108 Z M24.9855228,23.9984108 C25.3876676,23.5841721 25.7689008,23.1249073 26.1292225,22.6206166 C26.4895442,22.1163259 26.8289544,21.582371 27.1474531,21.018752 L23.5281501,19.2309567 C22.8911528,20.2575485 22.1034853,21.1681322 21.1651475,21.9627079 C20.2268097,22.7572836 19.1126005,23.1545715 17.8225201,23.1545715 C16.9013405,23.1545715 16.1093834,22.968111 15.4466488,22.5951902 C14.7839142,22.2222693 14.2434316,21.7089734 13.8252011,21.0553025 C13.4069705,20.4016315 13.1013405,19.6361903 12.908311,18.7589787 C12.7152815,17.8817671 12.6187668,16.9383409 12.6187668,15.9287001 L26.6182306,15.9287001 L26.6182306,15.0340078 C26.6514745,13.8251933 26.5174263,12.7117279 26.2160858,11.6936116 C25.9147453,10.6754953 25.4621984,9.77762475 24.858445,9 L24.858445,9 L28,9 L28,23.9984108 L24.9839142,23.9984108 L24.9855228,23.9984108 Z M12.8455764,12.4277996 C12.9292225,11.5177455 13.2938338,10.777201 13.9394102,10.2061659 C14.5849866,9.63513084 15.3431635,9.34961331 16.213941,9.34961331 C17.0686327,9.34961331 17.7806971,9.63513084 18.350134,10.2061659 C18.919571,10.777201 19.2128686,11.5177455 19.2300268,12.4277996 L12.8455764,12.4277996 L12.8455764,12.4277996 Z"/>
</svg>
