<svg xmlns="http://www.w3.org/2000/svg" width="32" height="32" viewBox="0 0 32 32">
  <g fill="none" transform="translate(4 6)">
    <path fill="#8251A8" d="M7.35141856,7.64833974 L11.8715443,5.04146528 C11.9846595,4.97620485 12.1240935,4.97620485 12.2372086,5.04146528 L16.7574278,7.64833974 C16.8704496,7.71360016 16.9402599,7.8341455 16.9402599,7.96466636 L16.9402599,13.1784153 C16.9402599,13.3088429 16.8704496,13.4294815 16.7574278,13.4948351 L12.2372086,16.1017096 C12.1240935,16.16697 11.9846595,16.16697 11.8715443,16.1017096 L7.35141856,13.4948351 C7.23830342,13.4295747 7.16858642,13.3089361 7.16858642,13.1784153 L7.16858642,7.96466636 C7.16858642,7.8341455 7.23839675,7.71360016 7.35141856,7.64833974"/>
    <path fill="#3965BD" d="M23.8071515,10.02326 L18.4064636,0.637877974 C18.2102853,0.298523742 17.8478876,0.048203382 17.4556244,0.048203382 L6.65368854,0.048203382 C6.26133207,0.048203382 5.89884097,0.298523742 5.70266274,0.637877974 L0.301974785,10.0027496 C0.105796547,10.342197 0.105796547,10.7705851 0.301974785,11.1100326 L5.70266274,20.418687 C5.89884097,20.7580412 6.26133207,20.9315407 6.65368854,20.9315407 L17.4556244,20.9315407 C17.8478876,20.9315407 18.2103787,20.763262 18.4064636,20.4238146 L23.8071515,11.0999638 C24.0035164,10.7607028 24.0035164,10.3628007 23.8072448,10.0234464 L23.8071515,10.02326 Z M19.3351837,14.5366713 C19.3351837,14.6746505 19.2520272,14.8022812 19.1322857,14.871364 L12.2529813,18.8361216 C12.1333331,18.9051112 11.9834462,18.9051112 11.863798,18.8361216 L4.97917382,14.871364 C4.85952563,14.8022812 4.77580923,14.6747437 4.77580923,14.5366713 L4.77580923,6.60706297 C4.77580923,6.46899055 4.85831235,6.34145303 4.97805387,6.2723702 L11.8570783,2.30761267 C11.9767265,2.23852984 12.1264267,2.23852984 12.2460749,2.30761267 L19.1311658,6.2723702 C19.2509073,6.34145303 19.3351837,6.46899055 19.3351837,6.60706297 L19.3351837,14.5366713 Z"/>
  </g>
</svg>
