<svg xmlns="http://www.w3.org/2000/svg" width="32" height="32" viewBox="0 0 32 32">
  <path fill="#F4BF75" d="M24.144,8.541 L17.063,7.512 L13.9,1.1 C13.7128967,0.782301055 13.3717008,0.587272657 13.003,0.587272657 C12.6342992,0.587272657 12.2931033,0.782301055 12.106,1.1 L8.937,7.512 L1.856,8.541 C1.47930492,8.59537284 1.16613267,8.85886572 1.04813497,9.22071117 C0.930137278,9.58255662 1.02777381,9.98001412 1.3,10.246 L6.425,15.24 L5.216,22.293 C5.15172134,22.6681497 5.30598224,23.0472626 5.61392913,23.2709538 C5.92187602,23.4946451 6.33010867,23.5241251 6.667,23.347 L13,20.018 L19.333,23.347 C19.6698913,23.5241251 20.078124,23.4946451 20.3860709,23.2709538 C20.6940178,23.0472626 20.8482787,22.6681497 20.784,22.293 L19.575,15.24 L24.7,10.246 C24.9721422,9.98028862 25.0699882,9.5831977 24.9524522,9.22146684 C24.8349162,8.85973599 24.5223496,8.59599908 24.146,8.541 L24.144,8.541 Z" transform="translate(3 4)"/>
</svg>
