<svg xmlns="http://www.w3.org/2000/svg" width="32" height="32" viewBox="0 0 32 32">
  <g fill="none" fill-rule="evenodd" transform="translate(7 4)">
    <path fill="#AC4142" d="M0.89,15.673 L3.255,0.461 C3.29011376,0.229715012 3.46965715,0.0470577576 3.70030425,0.00797273247 C3.93095134,-0.0311122926 4.16064847,0.0821958298 4.27,0.289 L6.813,5.06 L0.89,15.673 Z"/>
    <path fill="#F4BF75" d="M17.685,19.364 L15.433,5.365 C15.3992494,5.16497542 15.2568203,5.00044217 15.063695,4.93838121 C14.8705698,4.87632026 14.6589556,4.92708142 14.515,5.07 L0.315,19.364 L8.172,23.792 C8.66477667,24.0688548 9.26622333,24.0688548 9.759,23.792 L17.685,19.364 Z"/>
    <path fill="#EE9D5C" d="M11.3,7.148 L9.48,3.666 C9.38640653,3.4875299 9.20152249,3.37572207 9,3.37572207 C8.79847751,3.37572207 8.61359347,3.4875299 8.52,3.666 L0.53,17.984 L11.3,7.148 Z"/>
  </g>
</svg>
