<svg id="Layer_1" data-name="Layer 1" xmlns="http://www.w3.org/2000/svg" viewBox="0 0 24 24"><defs><style>.cls-1{fill:#80cbc4;}.cls-2{fill:#e53935;}</style></defs><title>folder_gulp_open</title><path class="cls-1" d="M13.81,18.75H3.2V7.5H17.54l.53-.32C19.94,6,20.2,6,20.46,6a1.9,1.9,0,0,1,1.75,1.84,1.93,1.93,0,0,1-.29,1c-.08.11-.2.28-1.12.87v1.62H23V7.5a2.23,2.23,0,0,0-2.2-2.25H12L9.8,3H3.2A2.23,2.23,0,0,0,1,5.25v13.5A2.23,2.23,0,0,0,3.2,21H14C14,20.28,13.88,19.5,13.81,18.75Z"/><path class="cls-2" d="M14.8,18.64c-.23-2.42-.42-4.42-.42-4.46s-.19-.07-.44-.07H13.5V12.39H17V9l1.63-1a9.54,9.54,0,0,1,1.87-1,.91.91,0,0,1,.75.84.94.94,0,0,1-.11.46,9.17,9.17,0,0,1-1.26.87l-1.15.71,0,1.24,0,1.25H22.1v1.72h-.86l-.43,4.46L20.38,23H15.23l-.43-4.38Z"/></svg>