<svg id="Layer_1" data-name="Layer 1" xmlns="http://www.w3.org/2000/svg" viewBox="0 0 24 24"><defs><style>.cls-1{fill:#f4bf75;}.cls-2{fill:#2ecc71;}.cls-3{fill:#80cbc4;}.cls-4{fill:#6a9fb5;}</style></defs><title>folder_assets_open</title><path class="cls-1" d="M23.5,20a.5.5,0,0,1-.5-.5V13H17.5a.5.5,0,0,1,0-1h6a.5.5,0,0,1,.5.5v7A.5.5,0,0,1,23.5,20Z"/><path class="cls-2" d="M19.5,24h-6a.5.5,0,0,1-.5-.5v-7a.5.5,0,0,1,.5-.5h6a.5.5,0,0,1,.5.5v7A.5.5,0,0,1,19.5,24ZM14,23h5V17H14Z"/><path class="cls-3" d="M12,18.75H3.2V7.5H20.8V11H23V7.5a2.23,2.23,0,0,0-2.2-2.25H12L9.8,3H3.2A2.23,2.23,0,0,0,1,5.25v13.5A2.23,2.23,0,0,0,3.2,21H12Z"/><path class="cls-4" d="M21.5,22a.5.5,0,0,1-.5-.5V15H15.5a.5.5,0,0,1,0-1h6a.5.5,0,0,1,.5.5v7A.5.5,0,0,1,21.5,22Z"/></svg>