<svg id="Layer_1" data-name="Layer 1" xmlns="http://www.w3.org/2000/svg" viewBox="0 0 24 24"><defs><style>.cls-1{fill:#4a616c;}.cls-2{fill:#e53935;}</style></defs><title>folder_gulp</title><path class="cls-1" d="M13.46,15.11h-1V11.39H16V8.48l2.1-1.3C19.94,6,20.2,6,20.46,6a1.88,1.88,0,0,1,1.45,2.89c-.07.11-.22.31-1.55,1.13l-.68.42,0,.93H23v-4a2.22,2.22,0,0,0-2.2-2.2H12L9.8,3H3.2A2.22,2.22,0,0,0,1,5.2V18.8a2,2,0,0,0,2.2,2H14C13.78,18.4,13.5,15.49,13.46,15.11Z"/><path class="cls-2" d="M14.8,18.64c-.23-2.42-.42-4.42-.42-4.46s-.19-.07-.44-.07H13.5V12.39H17V9l1.63-1a9.54,9.54,0,0,1,1.87-1,.91.91,0,0,1,.75.84.94.94,0,0,1-.11.46,9.17,9.17,0,0,1-1.26.87l-1.15.71,0,1.24,0,1.25H22.1v1.72h-.86l-.43,4.46L20.38,23H15.23l-.43-4.38Z"/></svg>