<svg id="Layer_1" data-name="Layer 1" xmlns="http://www.w3.org/2000/svg" viewBox="0 0 24 24"><defs><style>.cls-1{fill:#4a616c;}.cls-2{fill:#f4bf75;}.cls-3{fill:#9dbd58;}</style></defs><title>folder_ci</title><path class="cls-1" d="M8.4,17.92a5.27,5.27,0,0,1,4.25-5.17v-3l4.26,3.41v-.5h2.83A5.18,5.18,0,0,1,23,13.82V7.4a2.22,2.22,0,0,0-2.2-2.2H12L9.8,3H3.2A2.22,2.22,0,0,0,1,5.2V18.8a2,2,0,0,0,2.2,2H9.27A5.2,5.2,0,0,1,8.4,17.92Z"/><path class="cls-2" d="M19.74,13.66H17.91v1.21h1.83a3,3,0,0,1,0,6.09V19.13l-3,2.44,3,2.43V22.17a4.26,4.26,0,1,0,0-8.51Z"/><path class="cls-3" d="M10.61,17.92a3.05,3.05,0,0,1,3-3.05V16.7l3-2.44-3-2.43v1.83a4.26,4.26,0,0,0,0,8.51h1.83V21H13.65A3.05,3.05,0,0,1,10.61,17.92Z"/></svg>