<svg id="Layer_1" data-name="Layer 1" xmlns="http://www.w3.org/2000/svg" viewBox="0 0 24 24"><defs><style>.cls-1{fill:#80cbc4;}.cls-2{fill:#3965bd;}</style></defs><title>folder_vscode_open</title><path class="cls-1" d="M9.33,20.57l2-1.82H3.2V7.5H20.8V10L21,9.8l2,1V7.5a2.23,2.23,0,0,0-2.2-2.25H12L9.8,3H3.2A2.23,2.23,0,0,0,1,5.25v13.5A2.23,2.23,0,0,0,3.2,21h6.86Z"/><path class="cls-2" d="M23.05,11.89,21.22,11l-5.71,5.25-3.19-2.41L11,14.61l3.14,2.89L11,20.39,12,21l.36.21L12.6,21l2.91-2.2L17.9,21,21.22,24,24,22.65V12.35Zm-1.83,2.56v6.1l-4-3.05Z"/></svg>