<svg id="Layer_1" data-name="Layer 1" xmlns="http://www.w3.org/2000/svg" viewBox="0 0 24 24"><defs><style>.cls-1{fill:#f4bf75;}.cls-2{fill:#ee9d5c;}.cls-3{fill:#80cbc4;}</style></defs><title>folder_dist_open</title><path class="cls-1" d="M17.71,15.37l5.6-2.52L18,10.45a.74.74,0,0,0-.51,0l-5.35,2.4Z"/><path class="cls-2" d="M18.34,16.44V24l5.29-2.33A.62.62,0,0,0,24,21.1V13.92Z"/><path class="cls-3" d="M10.41,18.75H3.2V7.5H20.8v3.13l2.2,1V7.5a2.23,2.23,0,0,0-2.2-2.25H12L9.8,3H3.2A2.23,2.23,0,0,0,1,5.25v13.5A2.23,2.23,0,0,0,3.2,21h7.21Z"/><path class="cls-2" d="M17.08,16.44l-5.67-2.52V21.1a.55.55,0,0,0,.37.57L17.08,24Z"/></svg>