<svg id="Layer_1" data-name="Layer 1" xmlns="http://www.w3.org/2000/svg" xmlns:xlink="http://www.w3.org/1999/xlink" viewBox="0 0 24 24"><defs><style>.cls-1{fill:none;}.cls-2{clip-path:url(#clip-path);}.cls-3{clip-path:url(#clip-path-2);}.cls-4{fill:#f4bf75;}.cls-5{fill:#80cbc4;}.cls-6{fill:#9dbd58;}</style><clipPath id="clip-path"><circle class="cls-1" cx="16.19" cy="16.17" r="1.04"/></clipPath><clipPath id="clip-path-2"><rect class="cls-1" x="9.42" y="9.92" width="16.67" height="16.67"/></clipPath></defs><title>folder_images_open</title><g class="cls-2"><g class="cls-3"><rect class="cls-4" x="12.54" y="12.52" width="7.29" height="7.29"/></g></g><path class="cls-5" d="M10.5,18.75H3.2V7.5H20.8v4H23v-4a2.23,2.23,0,0,0-2.2-2.25H12L9.8,3H3.2A2.23,2.23,0,0,0,1,5.25v13.5A2.23,2.23,0,0,0,3.2,21h7.3Z"/><path class="cls-6" d="M23,13.56v6.25l-2.61-2.6-3.12,3.64-2.6-2.08-2.09,2.08V13.56Zm.52-1H12a.52.52,0,0,0-.52.52V23.46A.52.52,0,0,0,12,24H23.48a.52.52,0,0,0,.52-.52V13A.52.52,0,0,0,23.48,12.52Z"/></svg>