<svg id="Layer_1" data-name="Layer 1" xmlns="http://www.w3.org/2000/svg" viewBox="0 0 24 24"><defs><style>.cls-1{fill:#f4bf75;}.cls-2{fill:#80cbc4;}.cls-3{fill:#9dbd58;}</style></defs><title>folder_ci_open</title><path class="cls-1" d="M19.74,13.66H17.91v1.21h1.83a3,3,0,0,1,0,6.09V19.13l-3,2.44,3,2.43V22.17a4.26,4.26,0,1,0,0-8.51Z"/><path class="cls-2" d="M8.48,18.75H3.2V7.5H20.8v5.26A5.24,5.24,0,0,1,23,13.82V7.5a2.23,2.23,0,0,0-2.2-2.25H12L9.8,3H3.2A2.23,2.23,0,0,0,1,5.25v13.5A2.23,2.23,0,0,0,3.2,21H9.42A5.12,5.12,0,0,1,8.48,18.75Z"/><path class="cls-3" d="M10.61,17.92a3.05,3.05,0,0,1,3-3.05V16.7l3-2.44-3-2.43v1.83a4.26,4.26,0,0,0,0,8.51h1.83V21H13.65A3.05,3.05,0,0,1,10.61,17.92Z"/></svg>