<svg id="Layer_1" data-name="Layer 1" xmlns="http://www.w3.org/2000/svg" viewBox="0 0 24 24"><defs><style>.cls-1{fill:#4a616c;}.cls-2{fill:#f4bf75;}.cls-3{fill:#2ecc71;}.cls-4{fill:#6a9fb5;}</style></defs><title>folder_assets</title><rect class="cls-1" x="15.31" y="14.91" width="5.69"/><path class="cls-2" d="M23.5,20a.5.5,0,0,1-.5-.5V13H17.5a.5.5,0,0,1,0-1h6a.5.5,0,0,1,.5.5v7A.5.5,0,0,1,23.5,20Z"/><path class="cls-3" d="M19.5,24h-6a.5.5,0,0,1-.5-.5v-7a.5.5,0,0,1,.5-.5h6a.5.5,0,0,1,.5.5v7A.5.5,0,0,1,19.5,24ZM14,23h5V17H14Z"/><path class="cls-4" d="M21.5,22a.5.5,0,0,1-.5-.5V15H15.5a.5.5,0,0,1,0-1h6a.5.5,0,0,1,.5.5v7A.5.5,0,0,1,21.5,22Z"/><path class="cls-1" d="M12,16.5A1.5,1.5,0,0,1,13.5,15h.59a1.64,1.64,0,0,1-.09-.5A1.5,1.5,0,0,1,15.5,13h.59a1.64,1.64,0,0,1-.09-.5A1.5,1.5,0,0,1,17.5,11H23V7.4a2.22,2.22,0,0,0-2.2-2.2H12L9.8,3H3.2A2.22,2.22,0,0,0,1,5.2V18.8a2,2,0,0,0,2.2,2H12Z"/></svg>