<svg id="Layer_1" data-name="Layer 1" xmlns="http://www.w3.org/2000/svg" xmlns:xlink="http://www.w3.org/1999/xlink" viewBox="0 0 24 24"><defs><style>.cls-1{fill:none;}.cls-2{fill:#4a616c;}.cls-3{clip-path:url(#clip-path);}.cls-4{clip-path:url(#clip-path-2);}.cls-5{fill:#f4bf75;}.cls-6{fill:#9dbd58;}</style><clipPath id="clip-path"><circle class="cls-1" cx="16.19" cy="16.19" r="1.04"/></clipPath><clipPath id="clip-path-2"><rect class="cls-1" x="9.42" y="9.94" width="16.67" height="16.67"/></clipPath></defs><title>folder_images</title><path class="cls-2" d="M10.5,13.06A1.52,1.52,0,0,1,12,11.54H23V7.4a2.22,2.22,0,0,0-2.2-2.2H12L9.8,3H3.2A2.22,2.22,0,0,0,1,5.2V18.8a2,2,0,0,0,2.2,2h7.3Z"/><g class="cls-3"><g class="cls-4"><rect class="cls-5" x="12.54" y="12.54" width="7.29" height="7.29"/></g></g><path class="cls-6" d="M23,13.58v6.25l-2.61-2.6-3.12,3.65-2.6-2.09-2.09,2.09v-7.3Zm.52-1H12a.52.52,0,0,0-.52.52V23.48A.52.52,0,0,0,12,24H23.48a.52.52,0,0,0,.52-.52V13.06A.52.52,0,0,0,23.48,12.54Z"/></svg>