<svg id="Layer_1" data-name="Layer 1" xmlns="http://www.w3.org/2000/svg" viewBox="0 0 24 24"><defs><style>.cls-1{fill:#4a616c;}.cls-2{fill:#3965bd;}</style></defs><title>folder_vscode</title><path class="cls-1" d="M9.33,20.57l3.34-3.07L9.32,14.43l3.07-1.79,3,2.31L21,9.8l2,1V7.49a2.22,2.22,0,0,0-2.2-2.2H12L9.8,3.09H3.2A2.22,2.22,0,0,0,1,5.29v13.6a2,2,0,0,0,2.2,2H9.88Z"/><path class="cls-2" d="M23.05,11.89,21.22,11l-5.71,5.25-3.19-2.41L11,14.61l3.14,2.89L11,20.39,12,21l.36.21L12.6,21l2.91-2.2L17.9,21,21.22,24,24,22.65V12.35Zm-1.83,2.56v6.1l-4-3.05Z"/></svg>