<svg id="Layer_1" data-name="Layer 1" xmlns="http://www.w3.org/2000/svg" xmlns:xlink="http://www.w3.org/1999/xlink" viewBox="0 0 24 24"><defs><style>.cls-1,.cls-2{fill:none;}.cls-1{clip-rule:evenodd;}.cls-3{clip-path:url(#clip-path);}.cls-4{clip-path:url(#clip-path-2);}.cls-5{isolation:isolate;}.cls-6{clip-path:url(#clip-path-3);}.cls-7{clip-path:url(#clip-path-4);}.cls-8{fill:#9dbd58;}.cls-9{clip-path:url(#clip-path-5);}.cls-10{fill:#aee33e;}.cls-11{fill:#4a616c;}</style><clipPath id="clip-path"><path class="cls-1" d="M17.31,9a.8.8,0,0,0-.36.09l-6,3.39a.73.73,0,0,0-.36.63v6.81a.7.7,0,0,0,.36.62l6,3.4a.71.71,0,0,0,.72,0l6-3.4a.72.72,0,0,0,.36-.62V13.07a.75.75,0,0,0-.36-.63l-6-3.39A.74.74,0,0,0,17.31,9"/></clipPath><clipPath id="clip-path-2"><rect class="cls-2" x="8.4" y="7.28" width="17.83" height="17.83"/></clipPath><clipPath id="clip-path-3"><rect class="cls-2" x="7.84" y="6.17" width="18.94" height="20.62"/></clipPath><clipPath id="clip-path-4"><rect class="cls-2" x="10.63" y="8.96" width="13.37" height="15.04"/></clipPath><clipPath id="clip-path-5"><rect class="cls-2" x="13.38" y="8.57" width="7.74" height="15.6" transform="translate(-5.87 10.82) rotate(-30)"/></clipPath></defs><title>folder_node</title><g class="cls-3"><g class="cls-4"><g class="cls-5"><g class="cls-6"><g class="cls-7"><rect class="cls-8" x="7.84" y="6.17" width="18.94" height="20.62"/></g><g class="cls-9"><g class="cls-7"><rect class="cls-10" x="10.59" y="5.78" width="13.31" height="21.17" transform="translate(-5.87 10.82) rotate(-30)"/></g></g></g></g></g></g><path class="cls-11" d="M9.63,19.88V13.07a1.71,1.71,0,0,1,.86-1.49l6-3.4a1.76,1.76,0,0,1,1.71,0L23,10.93V7.4a2.22,2.22,0,0,0-2.2-2.2H12L9.8,3H3.2A2.22,2.22,0,0,0,1,5.2V18.8a2,2,0,0,0,2.2,2H9.91A1.64,1.64,0,0,1,9.63,19.88Z"/></svg>