<svg id="Layer_1" data-name="Layer 1" xmlns="http://www.w3.org/2000/svg" viewBox="0 0 24 24"><defs><style>.cls-1{fill:#f4bf75;}.cls-2{fill:#ee9d5c;}.cls-3{fill:#4a616c;}</style></defs><title>folder_dist</title><path class="cls-1" d="M17.71,15.37l5.6-2.52L18,10.45a.74.74,0,0,0-.51,0l-5.35,2.4Z"/><path class="cls-2" d="M18.34,16.44V24l5.29-2.33A.62.62,0,0,0,24,21.1V13.92Z"/><path class="cls-2" d="M17.08,16.44l-5.67-2.52V21.1a.55.55,0,0,0,.37.57L17.08,24Z"/><path class="cls-3" d="M17.05,9.54a1.47,1.47,0,0,1,.63-.13,1.8,1.8,0,0,1,.6.1L23,11.61V7.4a2.22,2.22,0,0,0-2.2-2.2H12L9.8,3H3.2A2.22,2.22,0,0,0,1,5.2V18.8a2,2,0,0,0,2.2,2h7.21V12.51"/></svg>