<svg id="Layer_1" data-name="Layer 1" xmlns="http://www.w3.org/2000/svg" viewBox="0 0 24 24"><defs><style>.cls-1{fill:#3965bd;}.cls-2{fill:#7accee;}.cls-3{fill:#4a616c;}</style></defs><title>folder_css</title><path class="cls-1" d="M11.74,10l1.12,12.6,5,1.4,5-1.4L24,10Zm9.69,5.7,0,.42L21,20.19l0,.26-3.14.87h0l-3.14-.88L14.51,18h1.54l.11,1.23,1.7.47h0l1.71-.47.18-2H14.44L14.3,15.7h5.59L20,14.12H14.16L14,12.58h7.69Z"/><polygon class="cls-2" points="19.75 17.25 17.89 17.25 17.88 19.71 19.58 19.25 19.75 17.25"/><polygon class="cls-2" points="17.92 10 17.91 12.58 21.71 12.58 21.43 15.7 21.39 16.12 21.04 20.19 21.01 20.45 17.88 21.32 17.86 24 22.88 22.6 24 10 17.92 10"/><polygon class="cls-2" points="20.03 14.12 17.9 14.12 17.9 15.7 19.89 15.7 20.03 14.12"/><path class="cls-3" d="M10.65,9H23V7.4a2.22,2.22,0,0,0-2.2-2.2H12L9.8,3H3.2A2.22,2.22,0,0,0,1,5.2V18.8a2,2,0,0,0,2.2,2h8.49Z"/></svg>