<svg xmlns="http://www.w3.org/2000/svg" width="32" height="32" viewBox="0 0 32 32">
  <g fill="#D14748" transform="translate(4 6)">
    <path d="M4,20 L4,18.39583 L6.62927,18.24086 C6.93922,18.2183 7,18.13002 7,17.7985 L7,2 L2.18826,2 C1.94501,2 1.87831,2.02207 1.83418,2.24325 L1.48107,4 L0,4 L0,0 L16,0 L16,4 L14.51893,4 L14.16583,2.24325 C14.12169,2.02207 14.05499,2 13.81174,2 L9,2 L9,17.7985 C9,18.10845 9.03822,18.19672 9.36975,18.2183 L12,18.39583 L12,20 L4,20 Z"/>
    <path d="M15,20 L15,18.39583 L16.62927,18.24086 C16.93922,18.2183 17,18.13002 17,17.7985 L17,9 L14.18826,9 C13.94501,9 13.87831,9.02207 13.83418,9.24325 L13.48107,11 L12,11 L12,7 L24,7 L24,11 L22.51893,11 L22.16583,9.24325 C22.12169,9.02207 22.05499,9 21.81174,9 L19,9 L19,17.7985 C19,18.10845 19.03822,18.19672 19.36975,18.2183 L21,18.39583 L21,20 L15,20 Z"/>
  </g>
</svg>
