<svg xmlns="http://www.w3.org/2000/svg" width="32" height="32" viewBox="0 0 32 32">
  <path fill="#D14748" fill-rule="evenodd" d="M27.525616,14.9344204 L17.0551321,4.46579227 C16.7672399,4.15526409 16.40702,4 15.9744726,4 C15.5419252,4 15.171069,4.15526409 14.8619039,4.46579227 L12.700585,6.62672811 L15.4596703,9.38532435 C15.7702535,9.27472527 16.0971459,9.258419 16.4403475,9.33640553 C16.783549,9.41439206 17.0884595,9.58596242 17.3550789,9.85111663 C17.5990073,10.0950018 17.7599716,10.3885147 17.837972,10.7316554 C17.9159723,11.0747962 17.8996632,11.4129741 17.7890445,11.7461893 L20.4481475,14.404821 C20.7587307,14.2942219 21.0856231,14.2722439 21.4288247,14.3388869 C21.7720262,14.40553 22.0769367,14.5714286 22.3435561,14.8365828 C22.6981032,15.191067 22.8753767,15.6228288 22.8753767,16.1318681 C22.8753767,16.6409075 22.6981032,17.0726693 22.3435561,17.4271535 C21.989009,17.7816377 21.5571707,17.9588798 21.0480411,17.9588798 C20.5389115,17.9588798 20.1070732,17.7816377 19.7525261,17.4271535 C19.4859068,17.1605814 19.3199787,16.8450904 19.2547421,16.4806806 C19.1895054,16.1162708 19.2228328,15.7674583 19.3547243,15.4342432 L16.8615494,12.9415101 L16.8615494,19.4881248 C16.9508952,19.5320808 17.0338592,19.5817086 17.1104414,19.6370082 C17.1870236,19.6923077 17.2699876,19.753279 17.3593335,19.819922 C17.7138805,20.1744062 17.8911541,20.606168 17.8911541,21.1152074 C17.8911541,21.6242467 17.7138805,22.0560085 17.3593335,22.4104927 C17.0047864,22.7876639 16.5729481,22.9762496 16.0638185,22.9762496 C15.5546889,22.9762496 15.1228506,22.7876639 14.7683035,22.4104927 C14.3910654,22.0560085 14.2024464,21.6242467 14.2024464,21.1152074 C14.2024464,20.606168 14.3910654,20.1744062 14.7683035,19.819922 C14.8576494,19.730592 14.9519589,19.6533144 15.0512321,19.5880893 C15.1505052,19.5228642 15.2554512,19.4675647 15.3660698,19.4221907 L15.3660698,12.8415456 C15.2554512,12.7975895 15.1505052,12.74229 15.0512321,12.6756469 C14.9519589,12.6090039 14.8576494,12.5317263 14.7683035,12.4438143 C14.4804113,12.1772421 14.3031377,11.8560794 14.2364829,11.4803261 C14.169828,11.1045728 14.214501,10.7500886 14.3705017,10.4168734 L11.6454529,7.69230769 L4.46587484,14.9046437 C4.15529161,15.1924849 4,15.5526409 4,15.9851117 C4,16.4175824 4.15529161,16.7777384 4.46587484,17.0655796 L14.9363588,27.5342077 C15.224251,27.8447359 15.5844708,28 16.0170183,28 C16.4495657,28 16.8204219,27.8447359 17.129587,27.5342077 L27.5341252,17.1315136 C27.8447084,16.8209855 28,16.4551577 28,16.0340305 C28,15.6129032 27.8447084,15.2470755 27.5341252,14.9365473 L27.5341252,14.9365473 L27.525616,14.9344204 Z"/>
</svg>
