<svg xmlns="http://www.w3.org/2000/svg" width="32" height="32" viewBox="0 0 32 32">
  <path fill="#78909C" d="M12.5005571,0 C5.5967821,0 0,5.50824216 0,12.3028009 C0,17.7386672 3.5811383,22.3498872 8.54949414,23.976151 C9.17457771,24.0891013 9.40299505,23.7085797 9.40299505,23.3839849 C9.40299505,23.0911916 9.39185274,22.120697 9.38516736,21.0942756 C5.90876677,21.8377731 5.17448857,19.6434684 5.17448857,19.6434684 C4.60511655,18.2222696 3.78615679,17.8439412 3.78615679,17.8439412 C2.64964122,17.0807047 3.87195258,17.0960572 3.87195258,17.0960572 C5.12657664,17.1815923 5.78842983,18.3637315 5.78842983,18.3637315 C6.90377501,20.2444074 8.71551455,19.7004918 9.4263939,19.3846699 C9.54004546,18.5918251 9.86317244,18.0479095 10.2197263,17.741957 C7.44529126,17.431618 4.52600615,16.3755883 4.52600615,11.6612875 C4.52600615,10.3168509 5.01403931,9.22134349 5.81182868,8.35941271 C5.68480635,8.04688055 5.25359897,6.79565532 5.93550831,5.10249866 C5.93550831,5.10249866 6.98399964,4.77242084 9.37291082,6.36359333 C10.3690333,6.08944231 11.438695,5.95456001 12.5005571,5.9501736 C13.5624192,5.95456001 14.6320809,6.09163552 15.6304319,6.36578653 C18.0148861,4.77242084 19.0656059,5.10469187 19.0656059,5.10469187 C19.7486295,6.79894514 19.3185363,8.04907376 19.1903998,8.36050931 C19.9915318,9.22134349 20.4751081,10.3179475 20.4751081,11.6623841 C20.4751081,16.3887476 17.551366,17.4294248 14.7669029,17.7342808 C15.2170522,18.115899 15.6148326,18.8637829 15.6148326,20.0108308 C15.6148326,21.6557369 15.5981192,22.9815312 15.5981192,23.3872747 C15.5981192,23.7151593 15.8254223,24.0978741 16.4583055,23.9772476 C21.4222044,22.347694 25,17.7375706 25,12.3038975 C25,5.51043537 19.4032179,0.00109660405 12.4994429,0.00109660405 L12.5005571,0 Z" transform="translate(4 4)"/>
</svg>
