<svg xmlns="http://www.w3.org/2000/svg" width="32" height="32" viewBox="0 0 32 32">
  <g fill="#7ACCEE" transform="translate(2 11)">
    <path d="M2.39255499 2.96876006C2.33333333 2.96876006 2.31852792 2.94041868 2.34813875 2.8979066L2.65905245 2.51529791C2.68866328 2.47278583 2.76269036 2.44444444 2.82191201 2.44444444L8.10744501 2.44444444C8.16666667 2.44444444 8.18147208 2.48695652 8.15186125 2.5294686L7.9001692 2.8979066C7.87055838 2.94041868 7.7965313 2.98293076 7.75211506 2.98293076L2.39255499 2.96876006zM.0566509381 4.19098229C0 4.19098229-.0141627345 4.1626409.0141627345 4.12012882L.311580159 3.73752013C.339905629 3.69500805.410719301 3.66666667.467370239 3.66666667L6.92557718 3.66666667C6.98222812 3.66666667 7.01055359 3.70917874 6.99639085 3.75169082L6.88308898 4.09178744C6.86892624 4.14847021 6.8122753 4.17681159 6.75562437 4.17681159L.0566509381 4.19098229zM3.56060606 5.41320451C3.5 5.41320451 3.48484848 5.37069243 3.51515152 5.32818035L3.72727273 4.97391304C3.75757576 4.93140097 3.81818182 4.88888889 3.87878788 4.88888889L6.90909091 4.88888889C6.96969697 4.88888889 7 4.93140097 7 4.98808374L6.96969697 5.32818035C6.96969697 5.38486312 6.90909091 5.4273752 6.86363636 5.4273752L3.56060606 5.41320451z"/>
    <g transform="translate(7)">
      <path d="M10.2375,3.14487179 C9.36710526,3.37051282 8.77302632,3.53974359 7.91644737,3.76538462 C7.70921053,3.82179487 7.69539474,3.83589744 7.51578947,3.62435897 C7.30855263,3.38461538 7.15657895,3.22948718 6.86644737,3.08846154 C5.99605263,2.65128205 5.15328947,2.77820513 4.36578947,3.3 C3.42631579,3.92051282 2.94276316,4.83717949 2.95657895,5.97948718 C2.97039474,7.10769231 3.73026316,8.03846154 4.82171053,8.19358974 C5.76118421,8.32051282 6.54868421,7.98205128 7.17039474,7.26282051 C7.29473684,7.10769231 7.40526316,6.93846154 7.54342105,6.74102564 C7.04605263,6.74102564 6.42434211,6.74102564 4.87697368,6.74102564 C4.58684211,6.74102564 4.51776316,6.55769231 4.61447368,6.31794872 C4.79407895,5.88076923 5.12565789,5.1474359 5.31907895,4.78076923 C5.36052632,4.69615385 5.45723684,4.55512821 5.66447368,4.55512821 C6.36907895,4.55512821 8.96644737,4.55512821 10.6934211,4.55512821 C10.6657895,4.93589744 10.6657895,5.31666667 10.6105263,5.6974359 C10.4585526,6.71282051 10.0855263,7.64358974 9.47763158,8.46153846 C8.48289474,9.80128205 7.18421053,10.6333333 5.54013158,10.8589744 C4.18618421,11.0423077 2.92894737,10.774359 1.82368421,9.92820513 C0.801315789,9.13846154 0.221052632,8.09487179 0.0690789474,6.7974359 C-0.110526316,5.26025641 0.331578947,3.87820513 1.24342105,2.66538462 C2.22434211,1.35384615 3.52302632,0.521794872 5.11184211,0.225641026 C6.41052632,-0.0141025641 7.65394737,0.141025641 8.77302632,0.916666667 C9.50526316,1.41025641 10.0302632,2.08717949 10.3756579,2.90512821 C10.4585526,3.03205128 10.4032895,3.1025641 10.2375,3.14487179 Z"/>
      <path d="M14.8105263,10.9435897 C13.5532895,10.9153846 12.4065789,10.5487179 11.4394737,9.7025641 C10.6243421,8.98333333 10.1131579,8.06666667 9.94736842,6.98076923 C9.69868421,5.38717949 10.1269737,3.97692308 11.0664474,2.72179487 C12.075,1.36794872 13.2907895,0.662820513 14.9348684,0.366666667 C16.3440789,0.112820513 17.6703947,0.253846154 18.8723684,1.08589744 C19.9638158,1.8474359 20.6407895,2.87692308 20.8203947,4.23076923 C21.0552632,6.13461538 20.5164474,7.68589744 19.2315789,9.01153846 C18.3197368,9.95641026 17.2006579,10.5487179 15.9157895,10.8166667 C15.5427632,10.8871795 15.1697368,10.9012821 14.8105263,10.9435897 Z M18.0986842,5.24615385 C18.0848684,5.06282051 18.0848684,4.92179487 18.0572368,4.78076923 C17.8085526,3.38461538 16.5513158,2.59487179 15.2388158,2.90512821 C13.9539474,3.20128205 13.125,4.03333333 12.8210526,5.35897436 C12.5723684,6.45897436 13.0973684,7.57307692 14.0921053,8.02435897 C14.8519737,8.36282051 15.6118421,8.32051282 16.3440789,7.93974359 C17.4355263,7.36153846 18.0296053,6.45897436 18.0986842,5.24615385 Z"/>
    </g>
  </g>
</svg>
