<svg xmlns="http://www.w3.org/2000/svg" width="32" height="32" viewBox="0 0 32 32">
  <path fill="#3965BD" d="M22.5927273,2.84366667 C21.79476,1.38166667 20.3680364,0.945 19.3603636,0.924111111 C18.1239273,0.899036667 17.1079636,1.59634444 17.3002909,2.05444444 C17.34132,2.15264111 17.5731164,2.66556667 17.7156873,2.87763333 C17.9218473,3.18372222 18.2900509,2.94867222 18.4198036,2.87867856 C18.8054509,2.66974522 19.2172582,2.60184522 19.6849309,2.65773411 C20.1316036,2.71048633 20.7259745,2.99097856 21.1239491,3.77028967 C22.0614,5.60517856 19.1675127,9.38117856 15.5453673,6.76640078 C11.9237673,4.151623 8.40165818,5.01817856 6.80674909,5.54517856 C5.21184,6.07168967 4.47853091,6.60184522 5.10929455,7.82717856 C5.96572364,9.49240078 5.68161818,8.98151189 6.51187636,10.3605119 C7.83089455,12.5490674 10.7175491,9.352423 10.7175491,9.352423 C8.56725818,12.581423 6.72362182,11.8010897 6.01638545,10.6723119 C5.37893455,9.65533411 4.88402182,8.48220078 4.88402182,8.48220078 C-0.563214545,10.4388674 0.910603636,19.0765341 0.910603636,19.0765341 L3.61573091,19.0765341 C4.30549091,15.8960897 6.77118545,16.0136452 7.19380364,19.0765341 L9.25791273,19.0765341 C11.0835491,12.8660897 15.7098764,19.0765341 15.7098764,19.0765341 L18.4007127,19.0765341 C17.6468509,14.840423 19.9140218,13.5090897 21.3427855,11.0258674 C22.7715491,8.54220078 24.1253673,5.50431189 22.5925309,2.84364522 L22.5927273,2.84366667 Z M15.6525818,11.0233333 C14.2300364,10.5501111 14.7392291,9.10844444 14.7392291,9.10844444 C14.7392291,9.10844444 15.9813382,9.51742222 17.6618836,10.0758 C17.5649673,10.5229111 16.7290473,11.3805778 15.6526473,11.0227778 L15.6525818,11.0233333 Z" transform="translate(4 6)"/>
</svg>
