<svg xmlns="http://www.w3.org/2000/svg" width="32" height="32" viewBox="0 0 32 32">
  <path fill="#EE9D5C" fill-rule="evenodd" d="M28,25.8917596 C28,26.4588886 27.7904278,26.9520442 27.3712835,27.3712265 C26.9521392,27.7904088 26.4590283,28 25.8919507,28 L6.10804931,28 C5.54097172,28 5.04786077,27.7904088 4.62871646,27.3712265 C4.20957215,26.9520442 4,26.4588886 4,25.8917596 L4,6.14087571 C4,5.55198985 4.20957215,5.04795576 4.62871646,4.62877346 C5.04786077,4.20959115 5.54097172,4 6.10804931,4 L25.8919507,4 C26.4590283,4 26.9521392,4.20959115 27.3712835,4.62877346 C27.7904278,5.04795576 28,5.55198985 28,6.14087571 L28,25.8917596 L28,25.8917596 Z M28,11.5452815 L25.8245105,10.08322 C25.8477157,9.99184117 25.8643945,9.89538573 25.8745468,9.79385369 C25.8846991,9.69232164 25.8905004,9.5958662 25.8919507,9.50448735 C25.8919507,8.80246578 25.6424946,8.20197625 25.1435823,7.70301877 C24.6446701,7.20406128 24.044235,6.95458254 23.342277,6.95458254 C22.6403191,6.95458254 22.039884,7.20406128 21.5409717,7.70301877 C21.0420595,8.20197625 20.7926033,8.80246578 20.7926033,9.50448735 C20.7926033,9.77717342 20.8382886,10.0375306 20.9296592,10.2855589 C21.0210297,10.5335872 21.1341552,10.7714622 21.2690355,10.9991841 L16.5786802,18.1376122 C16.4873096,18.1144049 16.3966642,18.0977246 16.306744,18.0875714 C16.2168238,18.0774182 16.1145758,18.0716164 16,18.0701659 C15.6823785,18.0701659 15.382161,18.1267338 15.0993474,18.2398695 C14.8165337,18.3530052 14.5728789,18.5002266 14.3683829,18.6815339 L11.2073967,16.8800653 C11.2306019,16.8118938 11.2422045,16.7495241 11.2422045,16.6929562 L11.2422045,16.5058472 C11.2422045,15.8038256 10.9927484,15.2033361 10.4938361,14.7043786 C9.99492386,14.2054211 9.39448876,13.9559423 8.69253082,13.9559423 C7.99057288,13.9559423 7.39013778,14.2054211 6.89122553,14.7043786 C6.39231327,15.2033361 6.14285714,15.8038256 6.14285714,16.5058472 C6.14285714,16.6871544 6.1595359,16.8626598 6.1928934,17.0323633 C6.22625091,17.2020669 6.27701233,17.3550902 6.34517766,17.4914332 L4,19.6671199 L4,21.9798749 L7.46773024,18.7511558 C7.64902103,18.8642915 7.84191443,18.9433415 8.04641044,18.9883057 C8.25090645,19.0332699 8.46627991,19.055752 8.69253082,19.055752 C9.03190718,19.055752 9.34952864,18.9991841 9.64539521,18.8860484 C9.94126178,18.7729127 10.2015954,18.6032091 10.4263959,18.3769377 L13.4851342,20.145771 C13.4851342,20.2139425 13.4793328,20.2879159 13.4677302,20.3676911 C13.4561276,20.4474662 13.4503263,20.532318 13.4503263,20.6222464 C13.4503263,21.324268 13.6997825,21.9247575 14.1986947,22.423715 C14.697607,22.9226725 15.2980421,23.1721512 16,23.1721512 C16.7019579,23.1721512 17.302393,22.9226725 17.8013053,22.423715 C18.3002175,21.9247575 18.5496737,21.324268 18.5496737,20.6222464 C18.5496737,20.3278035 18.5039884,20.0500408 18.4126178,19.7889584 C18.3212473,19.527876 18.1849166,19.2841991 18.0036258,19.0579277 L22.6613488,11.9521349 L23.0007252,12.0195812 C23.0007252,12.0195812 23.1138506,12.0311848 23.3401015,12.0543922 C23.6345178,12.0543922 23.9180566,12.0036261 24.1907179,11.9020941 C24.4633793,11.8005621 24.7012328,11.6700209 24.9042785,11.5104705 L27.9978245,13.5838999 L27.9978245,11.5431058 L28,11.5452815 Z"/>
</svg>
