<svg xmlns="http://www.w3.org/2000/svg" width="32" height="32" viewBox="0 0 32 32">
  <g fill="none" transform="translate(7 4)">
    <path fill="#F4BF75" d="M1.21619531,5.81672093 C1.21619531,5.81672093 1.62928125,7.39751163 1.68820313,7.92453488 C1.74726563,8.4514186 0.626132813,9.62239535 0.626132813,10.2078837 C0.626132813,10.7934419 0.861820313,11.8472791 2.16014063,12.3743023 C3.45846094,12.9012558 3.63529688,14.2477674 3.63529688,15.0676744 C3.63529688,15.8873023 3.16328906,17.4679535 3.16328906,17.4679535 C3.16328906,17.4679535 2.86839844,21.3906977 4.46139844,22.0932558 C6.05439844,22.7957442 5.70051563,22.7957442 6.05439844,22.7957442 C6.40835156,22.7957442 9.00471094,23.8499302 10.5387891,23.4399767 C12.0730078,23.0301628 12.4857422,22.561814 12.4857422,22.561814 C12.4857422,22.561814 14.0200313,22.678814 14.4920391,21.3320233 C14.9642578,19.9855116 15.2591484,17.1752791 15.0820312,15.8871628 C14.9049844,14.598907 14.6690859,12.9013256 15.7310156,12.3157674 C16.7934375,11.7302093 17.9143594,11.0278605 17.7373125,10.4422326 C17.5602656,9.85667442 16.6164609,9.03697674 16.6164609,9.03697674 C16.6164609,9.03697674 16.3803516,7.57339535 16.5572578,7.22204651 C16.7341641,6.87076744 17.796375,5.99232558 17.2062422,5.34844186 C16.6165312,4.70448837 15.5541094,4.70448837 15.5541094,4.70448837 L14.1970781,4.8214186 C14.1970781,4.8214186 11.8958906,2.77234884 8.88658594,2.8894186 C5.87742188,3.00648837 3.98910938,4.8214186 3.98910938,4.8214186 C3.98910938,4.8214186 2.98610156,4.47013953 2.1009375,4.8214186 C1.21577344,5.17283721 1.03928906,4.82134884 1.21619531,5.81672093 Z"/>
    <path fill="#EE9D5C" d="M6.60782812,14.5339535 C6.60782812,14.5339535 5.43930469,16.3067442 4.58219531,17.5648605 C4.44958594,17.7595116 5.43930469,17.7729767 5.43930469,17.7729767 L6.60782812,14.5338837 L6.60782812,14.5339535 Z M7.16414062,10.8583953 C7.16414062,10.8583953 6.811875,11.7303488 6.6189375,12.1925581 C6.40954687,12.695093 5.6109375,12.9450698 5.6109375,12.9450698 C5.6109375,12.9450698 6.02486719,12.5142558 6.02486719,11.4228837 C6.02486719,10.9650698 6.620625,10.7829767 6.620625,10.7829767 L7.16414062,10.8583256 L7.16414062,10.8583953 Z"/>
    <path fill="#AB7558" d="M6.80835938,11.3513721 C6.80835938,11.3513721 6.08667188,12.2037907 4.74679687,11.7263721 C3.40657031,11.2491628 3.26917969,9.54418605 3.26917969,9.06683721 C3.26917969,8.58948837 5.81196094,9.54418605 6.15571875,9.74881395 C6.49940625,9.95344186 7.15190625,10.7716047 6.80828906,11.3513721 L6.80835938,11.3513721 Z M1.74677344,2.24323256 C1.74677344,2.24323256 2.98378125,2.00434884 3.80833594,2.65227907 C4.6333125,3.30006977 4.87357031,3.81160465 4.87357031,3.81160465 L3.4835625,4.90486047 C3.4835625,4.90486047 2.8119375,4.59593023 2.60578125,3.70932558 C2.399625,2.8227907 2.53708594,2.41374419 1.74677344,2.24323256 Z"/>
    <path fill="#EE9D5C" d="M6.44751562,8.88927907 C5.91496875,8.13913953 5.03725781,7.81193023 4.33645312,7.75772093 C3.1415625,7.665 2.57428125,8.08416279 2.57428125,8.08416279 C2.57428125,8.08416279 4.53121875,8.16634884 5.09526562,8.9014186 C6.1453125,10.2695581 7.67721094,10.3806977 7.92217969,10.0802093 C7.63889062,10.0942326 7.32733594,9.95497674 6.99377344,9.64206977 C6.7854375,9.44630233 6.61654687,9.12739535 6.44751562,8.88927907 L6.44751562,8.88927907 Z M3.14395312,11.5416977 C3.14395312,11.5416977 0.972703125,10.8010465 1.38536719,10.0511163 C1.79760937,9.30090698 1.46946094,8.89213953 1.46946094,8.89213953 C1.46946094,8.89213953 0.2570625,9.79018605 0.565945312,10.7448837 C0.755859375,11.3307907 1.074375,11.7550465 2.82346875,12.5683953 C3.6624375,14.1146512 2.99671875,16.897814 3.03658594,16.9108605 C3.10303125,16.9327674 4.21453125,16.3657674 4.13866406,13.761907 C4.11546094,12.9623721 4.05105469,11.8707907 3.14395312,11.5417674 L3.14395312,11.5416977 Z M5.98921875,3.57739535 C5.0788125,4.03632558 3.83153906,4.67546512 3.83153906,4.67546512 L4.32246094,4.91916279 C4.2755625,4.99444186 4.25299219,5.03937209 4.25299219,5.03937209 L4.75685156,5.26667442 C4.75685156,5.26667442 5.98682812,6.15076744 6.74036719,6.71923256 C6.48914062,5.95137209 5.7515625,4.74530233 5.7515625,4.74530233 C5.7515625,4.74530233 5.54259375,4.19113953 5.98921875,3.57732558 L5.98921875,3.57739535 Z M9.01378125,22.2851163 C6.21534375,22.2851163 5.26753125,20.8755349 5.26753125,20.8755349 L5.704875,21.9322326 C5.87010937,22.3893488 7.63354687,23.811907 9.0095625,23.811907 L9.01378125,22.2851163 Z"/>
    <path fill="#EE9D5C" d="M5.57416406,19.9230698 C5.57416406,19.9230698 5.83164844,21.4843256 6.86257031,21.4843256 C7.73859375,21.4843256 7.99671094,20.1655116 7.99671094,19.8929302 L5.57416406,19.9230698 L5.57416406,19.9230698 Z M3.85860938,17.5684186 C3.95022656,17.3182326 4.27092187,16.3067442 4.37392969,15.3862326 C4.49739844,14.2836977 4.45239844,12.6712326 4.45239844,12.6712326 C4.45239844,12.6712326 4.17733594,13.7282093 3.93679688,13.899 C3.69639844,14.0693721 3.2495625,15.2285581 3.2495625,15.2285581 C3.2495625,15.2285581 3.01021875,16.9543256 2.8963125,17.5343721 C3.21159375,17.5969535 3.47695313,17.4126977 3.85860938,17.5684186 L3.85860938,17.5684186 Z M1.369125,10.7278605 C1.369125,10.7278605 1.95314062,10.523093 2.125125,9.26169767 C2.29689844,8.00009302 1.91882813,6.909 1.91882813,6.909 C1.91882813,6.909 1.95314063,8.64788372 1.74705469,8.98897674 C1.54075781,9.3297907 1.369125,9.43213953 1.12844531,9.87551163 C0.887765625,10.3189535 1.23145312,10.5913953 1.369125,10.7278605 L1.369125,10.7278605 Z"/>
    <path fill="#FDC168" d="M2.19186347,2.84169767 L2.01271682,2.46669767 C1.48457219,2.52570605 2.19186347,2.84169767 2.19186347,2.84169767 Z"/>
    <path fill="#F4BF75" d="M6.46453125,3.20386047 C6.46453125,3.20386047 5.91496875,3.11302326 5.63990625,2.70390698 C5.36484375,2.29472093 4.58613281,1.47627907 3.344625,1.4672093 C2.1031875,1.458 0.87496875,1.79462791 0.87496875,1.79462791 L1.94709375,2.46683721 C2.06050781,2.46313953 2.25878906,2.46467442 2.58665625,2.47555814 C3.93222656,2.51993023 4.13936719,3.84048837 4.13936719,3.84048837 L8.88138281,3.19255814"/>
    <path fill="#FFF" d="M6.92289844,10.4978372 C6.92289844,10.4978372 6.28136719,11.1343256 5.29614844,10.9296279 C4.311,10.7251395 3.71524219,10.2932093 3.66946875,9.543 C3.62369531,8.79286047 3.87583594,8.49739535 3.87583594,8.49739535 C3.87583594,8.49739535 4.9753125,8.83855814 5.50251563,9.29323256 C6.0294375,9.74776744 6.41882813,10.4751628 6.92282813,10.4978372 L6.92289844,10.4978372 Z"/>
    <path fill="#C9C9C9" d="M6.14650781,10.2704651 C6.14650781,10.2704651 5.590125,10.5226047 4.96828125,10.3172093 C4.15427344,10.0477674 4.1000625,9.20776744 4.1000625,9.20776744 C4.1000625,9.20776744 3.60063281,10.6619302 5.00076562,10.9418372 C6.12372656,11.1662791 6.78789844,10.5205814 6.78789844,10.5205814 L6.14650781,10.2703953 L6.14650781,10.2704651 Z"/>
    <path fill="#463014" d="M6.541875,2.89534884 C6.48203906,1.64832558 7.51232813,0.655116279 7.869375,0.612767442 C7.8890625,0.824093023 7.84940625,1.64839535 8.2063125,1.90186047 C8.31023438,1.22860465 8.66158594,0.48627907 10.0490625,0 C9.75192187,0.782023256 10.0093359,1.43706977 10.1320312,1.74069767 C11.0794219,0.88744186 11.7177891,1.02837209 11.7177891,1.02837209 C11.7177891,1.02837209 11.0594531,2.15553488 11.3170078,2.89513953 C9.41505469,2.74716279 6.55115625,3.09565116 6.541875,2.8954186 L6.541875,2.89534884 Z M2.50973437,4.79497674 C2.05586719,4.42137209 2.39414062,4.07469767 2.35828125,3.65023256 C2.33880469,3.42439535 2.32080469,3.21132558 2.24578125,3.09376744 C1.828125,2.43948837 0.842976562,2.24093023 0.833132812,2.23883721 L0.370757812,2.14897674 L0.676828125,1.79372093 C0.716484375,1.74767442 1.97339062,0.557651163 3.91858594,1.18081395 C5.27927344,1.61623256 6.28657031,3.0927907 6.32404687,3.15244186 L5.64180469,3.4707907 C5.63378906,3.45823256 4.83742969,2.07027907 3.67010156,1.69681395 C2.72650781,1.39472093 1.85674219,1.68216279 1.48429687,1.87053488 C1.88029687,2.02737209 2.39800781,2.31306977 2.70998437,2.8017907 C2.85714844,3.03265116 2.88203906,3.32323256 2.90601562,3.60467442 C2.93765625,3.97723256 2.9671875,4.32893023 3.24351562,4.55672093 L2.50973437,4.79497674 L2.50973437,4.79497674 Z M1.2976875,10.2483488 C1.2976875,10.2483488 1.86939844,9.54481395 2.03878125,8.17597674 C2.10529687,7.63674419 1.98710156,6.57327907 1.79803125,6.16416279 C1.83241406,7.17 1.57471875,8.17597674 1.57471875,8.17597674 C1.57471875,8.17597674 1.40097656,10.0437209 1.2976875,10.2483488 Z"/>
    <path fill="#463014" d="M4.31254687,4.08446512 C4.31219531,4.083 4.12903125,3.28876744 3.62123437,2.88781395 C2.90489062,2.3224186 2.03027344,2.62318605 2.02183594,2.62583721 L1.89485156,2.23653488 C1.93717969,2.22293023 2.93688281,1.91037209 3.8581875,2.553 C4.78504687,3.19925581 4.89628125,3.78509302 4.90591406,3.84976744 L4.31247656,4.08446512 L4.31254687,4.08446512 Z M3.09339844,9.7437907 C3.09339844,9.7437907 2.79344531,9.31772093 2.847375,8.84916279 C2.87423437,8.61774419 2.982375,8.38018605 3.17524219,8.29590698 C3.53383594,8.13962791 3.69274219,8.54288372 3.69274219,8.54288372 C3.69274219,8.54288372 3.18810937,8.66644186 3.09339844,9.7437907 L3.09339844,9.7437907 Z"/>
    <path fill="#463014" d="M6.38690625,10.3932558 C6.39942187,10.4164186 6.40589062,10.4294651 6.40589062,10.4294651 C6.40589062,10.4294651 5.47024219,11.1261628 4.51146094,10.4191395 C3.99817969,10.0403023 4.04669531,9.10339535 4.20391406,8.70606977 C4.61285156,8.79802326 4.95963281,8.96372093 5.24946094,9.15725581 C4.88313281,8.83283721 4.56250781,8.59402326 4.56335156,8.58851163 L4.14696094,8.4715814 L3.33766406,8.1962093 C3.32732812,8.25746512 3.03215625,9.63034884 3.88420312,10.5657907 C4.26178125,10.9806279 6.03225,11.9095116 6.87290625,10.321186 L6.38690625,10.393186 L6.38690625,10.3932558 Z"/>
    <path fill="#463014" d="M6.29929687,10.4953256 C6.82600781,11.290814 8.15505469,10.8362093 8.13220313,9.99523256 C8.13220313,9.99523256 7.24415625,10.4815116 6.45953906,9.58611628 C6.00145312,9.0634186 4.53367969,7.62209302 2.54313281,8.10104651 C3.91774219,8.40104651 5.73764063,9.64709302 6.29922656,10.4953256 L6.29929687,10.4953256 Z"/>
    <path fill="#463014" d="M2.35722656,12.7404419 C2.48392969,12.8130698 2.93083594,13.2723488 2.93111719,13.9591395 C2.93111719,14.3035814 2.89659375,16.033814 2.72475,17.0908605 C2.98314844,17.2574651 3.16314844,17.292907 3.42049219,17.4627209 C3.54930469,16.2385116 3.64169531,14.464186 3.59866406,13.7478837 C3.54944531,12.9313953 3.10879687,12.3834419 2.70021094,12.1497907 C2.57224219,12.0767442 2.43857812,12.0049535 2.30392969,11.9327442 C1.60410937,11.5575349 0.880382812,11.1693488 0.880382812,10.5066279 C0.880382812,9.98811628 1.08358594,9.82597674 1.29860156,9.65406977 L1.32180469,9.63544186 C1.46453906,9.52102326 1.62597656,9.39125581 1.72167187,9.17825581 C1.98274219,8.59583721 2.02542187,7.11209302 1.72167187,6.73548837 C1.57021875,6.54781395 1.16451562,5.91669767 1.28116406,5.4925814 C1.32560156,5.33072093 1.42832812,5.21072093 1.59560156,5.12574419 C1.77257812,5.03574419 2.01171094,4.99018605 2.30603906,4.99018605 C2.88414844,4.99018605 3.52539844,5.16481395 3.85621875,5.26876744 C5.03838281,5.64055814 6.46488281,6.71246512 6.87375,7.03213953 C6.88549219,7.04106977 6.89238281,7.04630233 6.89364844,7.04713953 L7.15528125,7.22769767 L6.99166406,6.95602326 C6.98153906,6.93906977 5.94520312,5.24818605 4.09211719,4.62823256 C3.731625,4.50760465 3.02336719,4.3052093 2.32727344,4.3052093 C1.91292187,4.3052093 1.56121875,4.37706977 1.28285156,4.51848837 C0.943453125,4.69074419 0.713671875,4.96555814 0.6181875,5.313 C0.3841875,6.16465116 1.14630469,7.11286047 1.17225,7.1432093 C1.261125,7.30060465 1.2988125,8.44388372 1.0935,8.9014186 C1.065375,8.96462791 0.987890625,9.02665116 0.889945312,9.10513953 C0.85921875,9.12976744 0.82490625,9.15537209 0.788554687,9.18272093 C0.4989375,9.39962791 0.06103125,9.72732558 0.06103125,10.4826977 C0.06103125,11.5162326 1.11670312,12.0766047 1.96509375,12.5271628 C2.1043125,12.6014651 2.23713281,12.6717907 2.35722656,12.7404419 Z"/>
    <path fill="#463014" d="M2.50973437,4.79497674 C2.05586719,4.42137209 2.39414063,4.07469767 2.35828125,3.65023256 C2.33880469,3.42439535 2.32080469,3.21132558 2.24578125,3.09376744 C1.828125,2.43948837 0.842976563,2.24093023 0.833132813,2.23883721 L0.370757813,2.14897674 L0.676828125,1.79372093 C0.716484375,1.74767442 1.97339063,0.557651163 3.91858594,1.18081395 C5.27927344,1.61623256 6.28657031,3.0927907 6.32404688,3.15244186 L5.64180469,3.4707907 C5.63378906,3.45823256 4.83742969,2.07027907 3.67010156,1.69681395 C2.72650781,1.39472093 1.85674219,1.68216279 1.48429687,1.87053488 C1.88029687,2.02737209 2.39800781,2.31306977 2.70998437,2.8017907 C2.85714844,3.03265116 2.88203906,3.32323256 2.90601562,3.60467442 C2.93765625,3.97723256 2.9671875,4.32893023 3.24351562,4.55672093 L2.50973437,4.79497674 L2.50973437,4.79497674 Z"/>
    <path fill="#463014" d="M2.49496875,4.87151163 L2.46564844,4.84737209 C2.12913281,4.57025581 2.18882813,4.29732558 2.246625,4.03318605 C2.27292188,3.91130233 2.300625,3.78530233 2.289375,3.65602326 C2.27102344,3.43869767 2.253375,3.23365116 2.18742188,3.13018605 C1.78980469,2.50716279 0.828773437,2.30762791 0.81928125,2.30567442 L0.241875,2.19327907 L0.62465625,1.7492093 C0.6316875,1.74083721 1.43873438,0.932511628 2.80553906,0.932511628 C3.17819531,0.932511628 3.55992188,0.994046512 3.93967969,1.1157907 C5.35985156,1.57011628 6.37291406,3.10109302 6.38247656,3.11623256 L6.42346875,3.18125581 L5.61642188,3.55786047 L5.58407813,3.50693023 C5.49717188,3.36 4.73196094,2.10781395 3.64942969,1.76134884 C3.38357813,1.67623256 3.10345313,1.63318605 2.81714063,1.63318605 C2.29851563,1.63318605 1.87797656,1.7734186 1.65417188,1.86760465 C2.02816406,2.03469767 2.48175,2.31593023 2.768625,2.76502326 C2.92471875,3.00962791 2.95003125,3.3085814 2.97478125,3.59748837 C3.00515625,3.95665116 3.03384375,4.29446512 3.2878125,4.50362791 L3.38364844,4.58246512 L2.49503906,4.87151163 L2.49496875,4.87151163 Z"/>
    <path fill="#463014" d="M4.31254687,4.08446512 C4.31219531,4.083 4.12903125,3.28876744 3.62123437,2.88781395 C2.90489062,2.3224186 2.03027344,2.62318605 2.02183594,2.62583721 L1.89485156,2.23653488 C1.93717969,2.22293023 2.93688281,1.91037209 3.8581875,2.553 C4.78504687,3.19925581 4.89628125,3.78509302 4.90591406,3.84976744 L4.31247656,4.08446512 L4.31254687,4.08446512 Z"/>
    <path fill="#463014" d="M4.26325781,4.17732558 L4.24539844,4.09918605 C4.24357031,4.09151163 4.06392188,3.32448837 3.57827344,2.94132558 C3.30145313,2.72267442 2.96767969,2.61160465 2.58672656,2.61160465 C2.289375,2.61160465 2.06838281,2.68206977 2.04426562,2.69037209 L1.97866406,2.712 L1.80829687,2.19272093 L1.87361719,2.1717907 C1.90286719,2.16251163 2.16822656,2.08039535 2.54355469,2.08039535 C3.03869531,2.08039535 3.50683594,2.22460465 3.89791406,2.49711628 C4.84804687,3.15955814 4.9640625,3.77218605 4.97390625,3.8397907 L4.98227344,3.89323256 L4.26325781,4.17732558 Z M2.58679687,2.47548837 C2.99376562,2.47548837 3.3665625,2.59967442 3.66398437,2.83437209 C4.09521094,3.17518605 4.2980625,3.7767907 4.359375,3.99251163 L4.8268125,3.80762791 C4.78448437,3.64388372 4.59815625,3.15244186 3.8188125,2.60881395 C3.44594531,2.3487907 3.01703906,2.21706977 2.543625,2.21706977 C2.28382031,2.21706977 2.08202344,2.25809302 1.98232031,2.28306977 L2.066625,2.54162791 C2.16435938,2.51553488 2.35251562,2.47548837 2.58679687,2.47548837 Z M6.81946875,21.109814 C6.61640625,21.109814 6.40919531,21.0366977 6.26561719,20.9133488 C6.15564844,20.8193023 5.78383594,20.4804419 5.61986719,20.0653256 C5.55869531,19.910093 5.57240625,19.785907 5.66121094,19.6965349 C5.72238281,19.6352791 5.8494375,19.562093 6.10727344,19.562093 L6.29071875,19.561814 C6.50932031,19.5615349 6.87733594,19.5615349 7.19191406,19.5615349 L7.49355469,19.5615349 C7.68972656,19.5615349 7.83035156,19.6036744 7.91114062,19.6857209 C8.01499219,19.7915581 7.98173437,19.9262093 7.952625,19.997093 C7.90214062,20.1212791 7.69296094,20.5253023 7.33886719,20.9009302 C7.21209375,21.0355814 7.02759375,21.109814 6.81946875,21.109814 L6.81946875,21.109814 Z M7.03230469,10.5420698 L6.29922656,10.4953256 C6.29922656,10.4953256 6.48660937,10.823093 6.60803906,11.247 C6.74514844,11.7265116 6.48267187,12.4273256 6.48267187,12.4273256 C6.48267187,12.4273256 7.46015625,11.329186 7.03230469,10.5420698 L7.03230469,10.5420698 Z M6.1171875,23.0305116 C3.50796094,22.8315349 2.58996094,20.3851395 2.58996094,19.8756279 L3.27135937,19.875907 L2.93069531,19.8756279 L3.27135937,19.8756279 C3.27480469,20.0958837 3.96815625,22.1885581 6.16935937,22.3565581 L6.1171875,23.0305116 L6.1171875,23.0305116 Z"/>
    <path fill="#FFF" d="M5.38396875,18.6474419 C5.3431875,18.4136512 5.33896875,18.1918605 5.38867969,17.9739767 C5.19039844,17.8260698 4.83461719,17.7711628 4.56764063,17.6852791 C4.34932031,17.548186 3.232125,17.8257907 2.42170313,16.8525349 C1.40617969,15.6338372 1.61985937,14.9062326 1.61985937,14.9062326 C1.35949219,15.1932558 1.10714062,15.0838605 0.710296875,16.4222791 C0.312820312,17.7609767 0.896835937,18.694186 1.98527344,19.631093 C2.49946875,20.0736279 3.22635938,20.256 3.85164844,20.3257674 C3.6421875,20.1171628 4.20939844,20.0962326 4.60033594,19.9511163 C4.5691875,19.6378605 4.62142969,19.333814 4.85676563,19.089 C4.99865625,18.9413721 5.18125781,18.853186 5.37075,18.7828605 C5.38129688,18.7585814 5.39022656,18.7361163 5.40028125,18.712814 C5.39361143,18.6913443 5.38816531,18.6695191 5.38396875,18.6474419 L5.38396875,18.6474419 Z"/>
    <path fill="#C9C9C9" d="M4.59513281,19.9429535 C4.57249219,19.8771628 4.55540625,19.810186 4.53867187,19.7427209 C4.52060156,19.6691163 4.43060156,19.4603721 4.54148438,19.6986977 C4.51300781,19.6376512 4.494375,19.5747907 4.48066406,19.5114419 C2.71792969,19.5092093 1.18441406,18.3083023 1.48071094,15.7836279 C1.24994531,15.4796512 0.926789062,16.3966047 0.926789062,16.3966047 C0.926789062,16.3966047 0.044296875,18.9390698 2.32340625,19.9244651 C3.08278125,20.2530698 3.75391406,20.4886744 3.91225781,20.3935814 C4.24209375,20.4600698 4.53979687,20.2319302 4.65145312,20.0818605 C4.63057031,20.035814 4.61144531,19.9896279 4.59513281,19.9429535 Z"/>
    <path fill="#463014" d="M5.3521875,18.2813721 C5.35492969,18.0683023 5.39880469,17.8618605 5.50265625,17.6562558 C5.50989844,17.642093 5.51826563,17.6284884 5.52607031,17.6146744 C4.84776563,17.6088837 4.06659375,17.5444884 3.40136719,17.2802791 C2.6701875,16.9900465 1.7555625,15.9972558 1.59841406,14.8307442 C1.59841406,14.8307442 0.221414062,15.8850698 0.625992187,18.1418372 C1.00582031,20.2608837 2.79295313,20.9517209 4.83110156,21.0685814 C4.83222656,21.054907 4.60188281,20.5828605 4.67465625,20.293814 C3.5173125,20.3772558 2.22314063,19.9336047 1.59841406,18.9136047 C1.02642188,17.9799767 1.186875,16.3860698 1.42192969,16.1524884 C1.99532813,17.9477442 4.05857813,18.3126977 5.3521875,18.2813721 L5.3521875,18.2813721 Z"/>
    <path fill="#463014" d="M5.56572656,16.996186 C5.19897656,18.0641163 4.44986719,18.9284651 4.44986719,18.9284651 C4.44986719,18.9284651 5.48036719,18.8819302 5.53725,18.7010233 C5.57936719,18.5676279 6.46776562,16.5040465 6.80878125,14.0866047 C6.48801562,14.6095116 5.59715625,16.9047209 5.56572656,16.996186 L5.56572656,16.996186 Z"/>
    <path fill="#EE9D5C" d="M11.4042656,14.5339535 C11.4042656,14.5339535 12.5725078,16.3067442 13.4298984,17.5648605 C13.5625078,17.7595116 12.5725078,17.7729767 12.5725078,17.7729767 L11.4042656,14.5338837 L11.4042656,14.5339535 Z M10.8478125,10.8583953 C10.8478125,10.8583953 11.2000781,11.7303488 11.3927344,12.1925581 C11.6022656,12.695093 12.4007344,12.9450698 12.4007344,12.9450698 C12.4007344,12.9450698 11.986875,12.5142558 11.986875,11.4228837 C11.986875,10.9650698 11.3911875,10.7829767 11.3911875,10.7829767 L10.8478125,10.8583256 L10.8478125,10.8583953 Z"/>
    <path fill="#AB7558" d="M11.2035938,11.3513721 C11.2035938,11.3513721 11.9252109,12.2037907 13.2655078,11.7263721 C14.6058047,11.2490233 14.7430547,9.54418605 14.7430547,9.06683721 C14.7430547,8.58948837 12.2002734,9.54418605 11.8565156,9.74881395 C11.5128281,9.95344186 10.8600469,10.7716047 11.2035938,11.3513721 Z M16.26525,2.24323256 C16.26525,2.24323256 15.0282422,2.00434884 14.2033359,2.65227907 C13.3787813,3.30006977 13.1381016,3.81160465 13.1381016,3.81160465 L14.5281797,4.90486047 C14.5281797,4.90486047 15.2000859,4.5957907 15.4062422,3.70925581 C15.6123281,2.8227907 15.4749375,2.41367442 16.26525,2.24323256 L16.26525,2.24323256 Z"/>
    <path fill="#EE9D5C" d="M11.5645078,8.88927907 C12.0970547,8.13913953 12.9744844,7.81193023 13.6755703,7.75772093 C14.8705313,7.665 15.4375313,8.08416279 15.4375313,8.08416279 C15.4375313,8.08416279 13.4805938,8.16634884 12.9164063,8.9014186 C11.8662891,10.2695581 10.3349531,10.3806977 10.0899844,10.0802093 C10.3732031,10.0942326 10.6849687,9.95497674 11.01825,9.64206977 C11.2265156,9.44630233 11.3955469,9.12739535 11.5645078,8.88927907 L11.5645078,8.88927907 Z M14.8680703,11.5416977 C14.8680703,11.5416977 17.0391094,10.8010465 16.6267266,10.0511163 C16.2144844,9.30090698 16.5423516,8.89213953 16.5423516,8.89213953 C16.5423516,8.89213953 17.7550313,9.79018605 17.4458672,10.744814 C17.2559531,11.3307209 16.9374375,11.7549767 15.1883438,12.5683256 C14.349375,14.1145814 15.0150938,16.8977442 14.9754375,16.9107907 C14.9089219,16.9326977 13.7975625,16.3656977 13.8734297,13.7618372 C13.8964922,12.9623023 13.9609688,11.8707209 14.8680703,11.5416977 Z M12.022875,3.57739535 C12.933,4.03632558 14.1804844,4.67546512 14.1804844,4.67546512 L13.6897031,4.91916279 C13.7365313,4.99444186 13.7591719,5.03937209 13.7591719,5.03937209 L13.2553125,5.26667442 C13.2553125,5.26667442 12.0252656,6.15076744 11.2716563,6.71923256 C11.5226719,5.95144186 12.26025,4.74537209 12.26025,4.74537209 C12.26025,4.74537209 12.4696406,4.1912093 12.022875,3.57739535 L12.022875,3.57739535 Z M8.99838281,22.2851163 C11.7963281,22.2851163 12.7442109,20.8755349 12.7442109,20.8755349 L12.3071484,21.9322326 C12.1419141,22.3893488 10.3782656,23.811907 9.00267187,23.811907 L8.99838281,22.2851163 Z"/>
    <path fill="#EE9D5C" d="M12.4378594 19.9230698C12.4378594 19.9230698 12.1800938 21.4843256 11.1494531 21.4843256 10.2736406 21.4843256 10.0153828 20.1655116 10.0153828 19.8929302L12.4378594 19.9230698zM14.1534141 17.5684186C14.0617969 17.3182326 13.7411016 16.3067442 13.6378125 15.3862326 13.5143438 14.2836977 13.559625 12.6712326 13.559625 12.6712326 13.559625 12.6712326 13.8345469 13.7282093 14.074875 13.899 14.315625 14.0693721 14.7621797 15.2285581 14.7621797 15.2285581 14.7621797 15.2285581 15.0014531 16.9543256 15.1153594 17.5343721 14.8002188 17.5969535 14.5351406 17.4126977 14.1534141 17.5684186L14.1534141 17.5684186zM16.6431094 10.7278605C16.6431094 10.7278605 16.0588125 10.523093 15.8871094 9.26169767 15.7153359 8.00009302 16.0933359 6.909 16.0933359 6.909 16.0933359 6.909 16.0588125 8.64788372 16.2651094 8.98897674 16.4714063 9.32993023 16.6431094 9.43213953 16.8837187 9.87551163 17.1240469 10.318814 16.7804297 10.5913953 16.6431094 10.7278605L16.6431094 10.7278605zM15.9454687 2.84169767L16.1247864 2.46669767C16.6526073 2.52570605 15.9454687 2.84169767 15.9454687 2.84169767z"/>
    <path fill="#F4BF75" d="M11.5472109,3.20386047 C11.5472109,3.20386047 12.097125,3.11302326 12.3719063,2.70390698 C12.6468281,2.29472093 13.4258906,1.47627907 14.6674688,1.46713953 C15.9089063,1.45793023 17.137125,1.79455814 17.137125,1.79455814 L16.0649297,2.46676744 C15.9515156,2.46306977 15.7532344,2.46460465 15.4250859,2.47548837 C14.0797266,2.51986047 13.8725859,3.8404186 13.8725859,3.8404186 L9.13071094,3.19248837"/>
    <path fill="#FFF" d="M11.089125,10.4978372 C11.089125,10.4978372 11.7306562,11.1343256 12.7156641,10.9296279 C13.7008828,10.7251395 14.2965703,10.2932093 14.3424141,9.543 C14.3881172,8.79286047 14.1362578,8.49739535 14.1362578,8.49739535 C14.1362578,8.49739535 13.0364297,8.83855814 12.5095781,9.29323256 C11.9826563,9.74790698 11.5932656,10.4751628 11.089125,10.4978372 L11.089125,10.4978372 Z"/>
    <path fill="#C9C9C9" d="M11.8653047,10.2704651 C11.8653047,10.2704651 12.4218984,10.5226047 13.0435312,10.3172093 C13.85775,10.0477674 13.9119609,9.20776744 13.9119609,9.20776744 C13.9119609,9.20776744 14.4111094,10.6619302 13.0109766,10.9418372 C11.8882266,11.1662791 11.2239141,10.5205814 11.2239141,10.5205814 L11.8653047,10.2703953 L11.8653047,10.2704651 Z"/>
    <path fill="#463014" d="M15.5022188,4.79497674 C15.9560859,4.42137209 15.6180938,4.07469767 15.6539531,3.65023256 C15.6730781,3.42439535 15.6910781,3.21132558 15.7661719,3.09376744 C16.1838281,2.43948837 17.1689766,2.24093023 17.1791016,2.23883721 L17.6416172,2.14897674 L17.3354063,1.79372093 C17.29575,1.74767442 16.0388438,0.557651163 14.0932969,1.18081395 C12.7328906,1.61623256 11.7256641,3.0927907 11.6881875,3.15244186 L12.3702187,3.4707907 C12.3784453,3.45823256 13.174875,2.07027907 14.3422031,1.69681395 C15.2857969,1.39472093 16.1554219,1.68216279 16.5277266,1.87053488 C16.1319375,2.02737209 15.6140156,2.31306977 15.3020391,2.8017907 C15.154875,3.03265116 15.1301953,3.32323256 15.1062891,3.60467442 C15.0746484,3.97723256 15.0448359,4.32893023 14.7684375,4.55672093 L15.5022188,4.79497674 L15.5022188,4.79497674 Z M16.7140547,10.2483488 C16.7140547,10.2483488 16.142625,9.54481395 15.9732422,8.17597674 C15.9067266,7.63674419 16.0247109,6.57327907 16.2137109,6.16416279 C16.1793281,7.17 16.4373047,8.17597674 16.4373047,8.17597674 C16.4373047,8.17597674 16.6110469,10.0437209 16.7140547,10.2483488 Z"/>
    <path fill="#463014" d="M13.6995469,4.08446512 C13.6998281,4.083 13.8829922,3.28876744 14.3908594,2.88781395 C15.1071328,2.3224186 15.9818203,2.62318605 15.9899766,2.62583721 L16.1173125,2.23653488 C16.0748437,2.22293023 15.0752813,1.91037209 14.1536953,2.553 C13.2268359,3.19925581 13.1158828,3.78509302 13.1059688,3.84976744 L13.6995469,4.08446512 L13.6995469,4.08446512 Z M14.918625,9.7437907 C14.918625,9.7437907 15.2185781,9.31772093 15.1643672,8.84916279 C15.1377891,8.61774419 15.0297188,8.38018605 14.8367109,8.29590698 C14.4781875,8.13962791 14.3192109,8.54288372 14.3192109,8.54288372 C14.3192109,8.54288372 14.8239141,8.66644186 14.918625,9.7437907 Z"/>
    <path fill="#463014" d="M11.6251875,10.3932558 C11.6126719,10.4164186 11.6062031,10.4294651 11.6062031,10.4294651 C11.6062031,10.4294651 12.5414297,11.1261628 13.5002812,10.4191395 C14.0138437,10.0403023 13.9653281,9.10339535 13.8078281,8.70606977 C13.3991016,8.79802326 13.0523906,8.96372093 12.7623516,9.15725581 C13.12875,8.83283721 13.4494453,8.59402326 13.4483203,8.58851163 L13.8649922,8.4715814 L14.6741484,8.19634884 C14.6845547,8.25760465 14.9796562,9.63048837 14.1273281,10.566 C13.74975,10.9807674 11.9792812,11.9096512 11.1389062,10.3213256 L11.6251875,10.393186 L11.6251875,10.3932558 Z"/>
    <path fill="#463014" d="M11.7125156,10.4953256 C11.1858047,11.290814 9.85710937,10.8362093 9.88003125,9.99523256 C9.88003125,9.99523256 10.7677969,10.4815116 11.5524141,9.58611628 C12.0104297,9.0634186 13.4785547,7.62209302 15.4689609,8.10104651 C14.0944219,8.40104651 12.2744531,9.64709302 11.7125156,10.4953256 L11.7125156,10.4953256 Z"/>
    <path fill="#463014" d="M15.6550781,12.7404419 C15.5282344,12.8130698 15.0811172,13.2723488 15.0811172,13.9591395 C15.0808359,14.3035814 15.1154297,16.033814 15.2874844,17.0908605 C15.0290156,17.2574651 14.8490156,17.292907 14.5916719,17.4627209 C14.4628594,16.2385116 14.3701875,14.464186 14.4135703,13.7478837 C14.4627187,12.9313953 14.9031562,12.3834419 15.3116719,12.1497907 C15.4396406,12.0767442 15.573375,12.0049535 15.7083047,11.9327442 C16.408125,11.5575349 17.1318516,11.1693488 17.1318516,10.5066279 C17.1318516,9.98811628 16.9285078,9.82597674 16.7134922,9.65406977 L16.6905703,9.63544186 C16.5478359,9.52102326 16.3860469,9.39125581 16.2906328,9.17825581 C16.0294922,8.59583721 15.9866719,7.11209302 16.2903516,6.73548837 C16.4418047,6.54781395 16.8477891,5.91669767 16.7311406,5.4925814 C16.6864219,5.33072093 16.583625,5.21072093 16.4164219,5.12574419 C16.239375,5.03574419 16.0006641,4.99018605 15.7059844,4.99018605 C15.1282266,4.99018605 14.486625,5.16481395 14.1560859,5.26876744 C12.9739219,5.64055814 11.5474922,6.71246512 11.1382734,7.03213953 C11.1266016,7.04106977 11.1198516,7.04630233 11.1185859,7.04713953 L10.8567422,7.22769767 L11.0203594,6.95602326 C11.0307656,6.93906977 12.0668906,5.24818605 13.9199063,4.62823256 C14.2804688,4.50760465 14.9886562,4.3052093 15.68475,4.3052093 C16.0991719,4.3052093 16.4504531,4.37706977 16.7291719,4.51848837 C17.0686406,4.69074419 17.2982812,4.96555814 17.3939063,5.313 C17.6279062,6.16465116 16.8657187,7.11286047 16.8397031,7.1432093 C16.7508984,7.30060465 16.7132812,8.44388372 16.9182422,8.9014186 C16.9465078,8.96462791 17.0239219,9.02665116 17.1221484,9.10513953 C17.1528047,9.12976744 17.1868359,9.15537209 17.2234687,9.18272093 C17.5131562,9.39962791 17.9508516,9.72732558 17.9508516,10.4826977 C17.9508516,11.5162326 16.8951797,12.0766047 16.0470703,12.5271628 C15.9077812,12.6014651 15.77475,12.6717907 15.6550078,12.7404419 L15.6550781,12.7404419 Z"/>
    <path fill="#463014" d="M14.3957109,4.67337209 C14.2278047,4.39116279 13.7983359,3.84627907 12.8086875,3.36746512 C11.7041484,2.83332558 10.4258672,2.5622093 9.00871875,2.5615814 L9.00871875,2.56123256 L9.00323438,2.56123256 L9.00323438,2.56137209 C7.585875,2.56206977 6.3073125,2.83325581 5.203125,3.36732558 C4.21340625,3.8462093 3.78421875,4.39102326 3.61617188,4.67323256 L3.54403125,4.76790698 L4.39157813,4.95509302 L4.4184375,4.92139535 L4.43264063,4.89055814 C4.44571875,4.83495349 4.55934375,4.53488372 5.50420313,4.07769767 C6.51438281,3.58883721 7.69260938,3.34095349 9.00576563,3.34053488 C10.3192031,3.34095349 11.4969375,3.58883721 12.5069766,4.07769767 C13.4519766,4.53488372 13.5659531,4.83495349 13.5788906,4.89048837 L13.5930234,4.92139535 L13.6196016,4.95509302 L14.4673594,4.76790698 L14.3956406,4.67337209 L14.3957109,4.67337209 Z"/>
    <path fill="#463014" d="M15.5022188,4.79497674 C15.9560859,4.42137209 15.6180938,4.07469767 15.6539531,3.65023256 C15.6730781,3.42439535 15.6910781,3.21132558 15.7661719,3.09376744 C16.1838281,2.43948837 17.1689766,2.24093023 17.1791016,2.23883721 L17.6416172,2.14897674 L17.3354063,1.79372093 C17.29575,1.74767442 16.0388438,0.557651163 14.0932969,1.18081395 C12.7328906,1.61623256 11.7256641,3.0927907 11.6881875,3.15244186 L12.3702187,3.4707907 C12.3784453,3.45823256 13.174875,2.07027907 14.3422031,1.69681395 C15.2857969,1.39472093 16.1554219,1.68216279 16.5277266,1.87053488 C16.1319375,2.02737209 15.6140156,2.31306977 15.3020391,2.8017907 C15.154875,3.03265116 15.1301953,3.32323256 15.1062891,3.60467442 C15.0746484,3.97723256 15.0448359,4.32893023 14.7684375,4.55672093 L15.5022188,4.79497674 L15.5022188,4.79497674 Z"/>
    <path fill="#463014" d="M14.6287969,4.58281395 L14.7242813,4.50390698 C14.9784609,4.29474419 15.0069375,3.95693023 15.0376641,3.59776744 C15.0622734,3.3087907 15.0876563,3.00976744 15.2436797,2.76530233 C15.5304141,2.31634884 15.9842812,2.03504651 16.3581328,1.86774419 C16.1343281,1.77369767 15.7137188,1.63346512 15.1950234,1.63346512 C14.9085703,1.63346512 14.6290078,1.67644186 14.3630156,1.76162791 C13.2802031,2.10809302 12.5150625,3.36027907 12.4284375,3.5072093 L12.3959531,3.55813953 L11.5889063,3.18153488 L11.6299688,3.11651163 C11.6394609,3.10137209 12.6523125,1.57046512 14.0724844,1.11606977 C14.4522422,0.994325581 14.8339688,0.932860465 15.2069063,0.932860465 C16.5737109,0.932860465 17.3808281,1.74139535 17.3877187,1.74955814 L17.7705703,2.19362791 L17.1929531,2.30595349 C17.1833906,2.30790698 16.2224297,2.50737209 15.8245312,3.13053488 C15.7585781,3.23406977 15.7412813,3.43890698 15.7225781,3.65637209 C15.7116797,3.78572093 15.7390313,3.91172093 15.7656797,4.03353488 C15.8234063,4.29767442 15.8831016,4.57088372 15.546375,4.84772093 L15.517125,4.87186047 L14.6287969,4.58281395 L14.6287969,4.58281395 Z"/>
    <path fill="#463014" d="M13.6995469,4.08446512 C13.6998281,4.083 13.8829922,3.28876744 14.3908594,2.88781395 C15.1071328,2.3224186 15.9818203,2.62318605 15.9899766,2.62583721 L16.1173125,2.23653488 C16.0748437,2.22293023 15.0752813,1.91037209 14.1536953,2.553 C13.2268359,3.19925581 13.1158828,3.78509302 13.1059688,3.84976744 L13.6995469,4.08446512 L13.6995469,4.08446512 Z"/>
    <path fill="#463014" d="M13.0301719,3.89323256 L13.0381875,3.8397907 C13.0482422,3.77218605 13.1643281,3.15969767 14.11425,2.49711628 C14.5050469,2.22460465 14.9733281,2.08046512 15.4684688,2.08046512 C15.8440078,2.08046512 16.1093672,2.16237209 16.1387578,2.1717907 L16.2039375,2.19272093 L16.0337109,2.712 L15.9679688,2.69037209 C15.9433594,2.68213953 15.7225078,2.61160465 15.4252969,2.61160465 C15.0444141,2.61160465 14.7108516,2.72253488 14.4340313,2.94132558 C13.9483125,3.32462791 13.7685938,4.09165116 13.7669063,4.09918605 L13.7490469,4.17718605 L13.0301719,3.89323256 Z M15.9454688,2.54162791 L16.0300547,2.28306977 C15.9302813,2.25795349 15.7282734,2.21706977 15.4684688,2.21706977 C14.995125,2.21706977 14.5660781,2.34893023 14.1934219,2.60881395 C13.4137969,3.1525814 13.2274688,3.64388372 13.1852109,3.80762791 L13.653,3.99251163 C13.7141719,3.77665116 13.9168125,3.17504651 14.34825,2.83437209 C14.6459531,2.59960465 15.0183281,2.47548837 15.4252266,2.47548837 C15.6592266,2.47548837 15.8477344,2.51553488 15.9455391,2.54162791 L15.9454688,2.54162791 Z M10.6734375,20.9009302 C10.3194141,20.5253721 10.1099531,20.1212093 10.0593281,19.997093 C10.0303594,19.9263488 9.99745312,19.7915581 10.1012344,19.6856512 C10.1821641,19.6036744 10.3224375,19.5615349 10.5185391,19.5615349 L10.8203906,19.5615349 C11.1349687,19.5615349 11.5027734,19.5615349 11.7215156,19.561814 L11.9050312,19.562093 C12.1626562,19.562093 12.2896406,19.6352093 12.3507422,19.6965349 C12.4396172,19.7857674 12.4534687,19.9098837 12.3922266,20.0653256 C12.2283984,20.4805116 11.8564453,20.8193721 11.7465469,20.9133488 C11.6025469,21.0366977 11.3958281,21.109814 11.1927656,21.109814 C10.9846406,21.109814 10.8002109,21.0355814 10.6734375,20.9009302 L10.6734375,20.9009302 Z M10.9798594,10.5420698 L11.7125156,10.4953256 C11.7125156,10.4953256 11.5254141,10.823093 11.4039844,11.247 C11.266875,11.7265116 11.5293516,12.4273256 11.5293516,12.4273256 C11.5293516,12.4273256 10.5517969,11.329186 10.9798594,10.5420698 L10.9798594,10.5420698 Z"/>
    <path fill="#E78724" d="M9.00611719,7.94511628 C8.53889063,7.94511628 7.92970313,7.9324186 7.47260156,7.60646512 C7.47260156,7.60646512 8.07110156,8.64746512 9.00534375,8.64746512 L9.00611719,8.51574419 L9.00689063,8.64746512 C9.94120313,8.64746512 10.5395625,7.60653488 10.5395625,7.60653488 C10.0825313,7.93234884 9.47292188,7.94511628 9.00611719,7.94511628 Z"/>
    <path fill="#463014" d="M10.2925547,7.94009302 C9.82392187,8.22153488 9.40535156,8.31906977 9.00611719,8.32772093 C8.60674219,8.31906977 8.18838281,8.22153488 7.71967969,7.94009302 C7.71967969,7.94009302 8.40220312,8.76648837 9.00267187,8.77283721 L9.00267187,8.77332558 C9.00372656,8.77332558 9.00478125,8.77304651 9.00604687,8.77304651 C9.00710156,8.77304651 9.00815625,8.77332558 9.00942187,8.77332558 L9.00942187,8.77283721 C9.60975,8.76648837 10.2925547,7.94009302 10.2925547,7.94009302 L10.2925547,7.94009302 Z M11.8949062,23.0305116 L11.8426641,22.3564186 C14.0433047,22.1884884 14.7367266,20.095814 14.7403125,19.8754884 L15.4217813,19.8754884 C15.4220625,20.385 14.5037812,22.8315349 11.8949062,23.0305116 Z"/>
    <path fill="#FFF" d="M12.6279844,18.6474419 C12.6689766,18.4136512 12.6729844,18.1918605 12.6232734,17.9739767 C12.8218359,17.8260698 13.1773359,17.7711628 13.4443125,17.6852791 C13.6626328,17.548186 14.7801094,17.8257907 15.5906016,16.8525349 C16.6060547,15.6338372 16.3920937,14.9062326 16.3920937,14.9062326 C16.6526719,15.1932558 16.9048125,15.0838605 17.3019375,16.4222791 C17.6994141,17.7609767 17.1151172,18.694186 16.0266797,19.631093 C15.5125547,20.0736279 14.7855937,20.256 14.1603047,20.3257674 C14.3697656,20.1171628 13.8025547,20.0962326 13.4118281,19.9511163 C13.4430469,19.6378605 13.3905937,19.333814 13.1552578,19.089 C13.0136484,18.9413721 12.8307656,18.853186 12.6414844,18.7828605 C12.6307969,18.7585814 12.6216562,18.7361163 12.6118828,18.712814 C12.6181406,18.6915349 12.6240469,18.6700465 12.6280547,18.6474419 L12.6279844,18.6474419 Z"/>
    <path fill="#C9C9C9" d="M13.4166094,19.9429535 C13.4395312,19.8771628 13.4562656,19.810186 13.4730703,19.7427209 C13.4914219,19.6691163 13.5814219,19.4603721 13.4703281,19.6986977 C13.498875,19.6376512 13.5174375,19.5747907 13.5312188,19.5114419 C15.2939531,19.5092093 16.8274688,18.3083023 16.5308906,15.7836279 C16.7616563,15.4796512 17.0850234,16.3966047 17.0850234,16.3966047 C17.0850234,16.3966047 17.9675156,18.9390698 15.6884063,19.9244651 C14.9290313,20.2530698 14.2580391,20.4886744 14.099625,20.3935814 C13.7695078,20.4600698 13.4717344,20.2319302 13.3603594,20.0818605 C13.3811719,20.035814 13.4007188,19.9896279 13.4166094,19.9429535 L13.4166094,19.9429535 Z"/>
    <path fill="#463014" d="M12.6595547,18.2813721 C12.6570937,18.0683023 12.6129375,17.8618605 12.5094375,17.6562558 C12.5020547,17.642093 12.4936875,17.6284884 12.4859531,17.6146744 C13.1641875,17.6088837 13.9454297,17.5444884 14.6106562,17.2802791 C15.3417656,16.9900465 16.2563906,15.9972558 16.4136094,14.8307442 C16.4136094,14.8307442 17.7906094,15.8850698 17.3860313,18.1418372 C17.0059219,20.2608837 15.219,20.9517209 13.1809219,21.0685814 C13.1797969,21.054907 13.4102109,20.5828605 13.3373672,20.293814 C14.4943594,20.3772558 15.7886016,19.9336047 16.4136797,18.9136047 C16.9853203,17.9799767 16.8250078,16.3860698 16.5898828,16.1524884 C16.0166953,17.9477442 13.9532344,18.3126977 12.6595547,18.2813721 L12.6595547,18.2813721 Z"/>
    <path fill="#463014" d="M13.4825625,18.8129302 C13.2390703,18.5517209 12.7913906,18.2404186 11.7591328,18.2404186 L9.0095625,18.2387442 L9.0028125,18.2387442 C8.21039063,18.2393023 6.25289063,18.2404186 6.25289063,18.2404186 C5.22084375,18.2404186 4.77316406,18.5517907 4.52953125,18.8129302 C4.17466406,19.193093 4.11897656,19.7218605 4.36450781,20.3828372 C5.01686719,22.1421628 5.93367188,23.9296047 9.00267188,23.9321163 L9.00267188,23.9323953 C9.00379688,23.9323953 9.00478125,23.9321163 9.00604688,23.9321163 C9.00710156,23.9321163 9.00815625,23.9323953 9.00942188,23.9323953 L9.00942188,23.9321163 C12.0781406,23.9294651 12.9949453,22.1421628 13.6475156,20.3828372 C13.8930469,19.7218605 13.8372188,19.193093 13.4825625,18.8129302 Z M13.0047891,20.2594884 C12.6940078,21.1429535 11.858625,23.2813256 9.00597656,23.2850233 C6.15297656,23.2813256 5.31794531,21.1430233 5.00709375,20.2594884 C4.83510938,19.7693023 4.8481875,19.4065814 5.0473125,19.1813023 C5.18336719,19.0272558 5.49583594,18.8434186 6.20796094,18.8434186 L6.9519375,18.8431395 C7.50079688,18.8426512 8.18992969,18.842093 9.00604688,18.8417442 C9.82188281,18.842093 10.5113672,18.8426512 11.0600859,18.8431395 L11.8037813,18.8434186 C12.5161172,18.8434186 12.8285156,19.027186 12.9646406,19.1813023 C13.1635547,19.4067907 13.1767734,19.7693023 13.0047188,20.2594884 L13.0047891,20.2594884 Z"/>
    <path fill="#463014" d="M12.4461562,16.996186 C12.8129062,18.0641163 13.5620156,18.9284651 13.5620156,18.9284651 C13.5620156,18.9284651 12.5315156,18.8819302 12.4745625,18.7010233 C12.4327266,18.5676279 11.5443281,16.5040465 11.2033125,14.0866047 C11.5237969,14.6095116 12.4146563,16.9047209 12.4461562,16.996186 L12.4461562,16.996186 Z"/>
  </g>
</svg>
