<svg xmlns="http://www.w3.org/2000/svg" width="32" height="32" viewBox="0 0 32 32">
  <path fill="#E53935" d="M2.03112,17.3893333 C1.684735,13.7910667 1.403311,10.8012 1.405742,10.7452 C1.408212,10.6892667 1.112683,10.6435067 0.749125,10.6435067 L0.088101,10.6435067 L0.088101,8.06724 L5.244031,8.06724 L5.244031,3.06617333 L7.676851,1.56670667 C9.158461,0.65348 10.247991,0.06724 10.463271,0.06724 C10.983271,0.06724 11.589747,0.741173333 11.589747,1.31902667 C11.589747,1.57153333 11.515387,1.88186667 11.424491,2.00868 C11.333608,2.13549067 10.485852,2.71478667 9.540531,3.296 L7.821931,4.35276 L7.785154,6.20996 L7.748377,8.06716 L12.911717,8.06716 L12.911717,10.6434267 L11.638159,10.6434267 L10.994763,17.28756 L10.351367,23.9316933 L2.660827,23.9316933 L2.031042,17.3892933 L2.03112,17.3893333 Z" transform="translate(10 4)"/>
</svg>
