<svg xmlns="http://www.w3.org/2000/svg" width="32" height="32" viewBox="0 0 32 32">
  <path fill="#EE9D5C" d="M2.67815165,0.00109445491 C1.47987285,-0.0303600057 0,0.626626335 0,0.626626335 L4.89342386,11.0338884 L2.29861615,22.6645002 C4.66696504,24.7642563 7.27913196,23.7599307 7.27913196,23.7599307 L8.48115878,14.7600895 C8.63299271,14.9108624 8.79405858,15.0490089 8.95635735,15.1766282 C9.47798196,15.5640153 10.0430835,15.8600701 10.608047,16.0879461 C11.1731386,16.3158221 11.760166,16.4981354 12.3470258,16.6348548 C12.7382393,16.7260031 13.1074973,16.7943969 13.4986517,16.8399701 C13.3247834,17.2501386 13.2161996,17.6829852 13.2379282,18.16156 C13.2379282,18.2071352 13.2597337,18.252637 13.3032047,18.2754256 L13.3247834,18.2754256 C13.7377255,18.5033016 14.1723864,18.6857803 14.6504946,18.7997287 C15.1069137,18.890876 15.6068886,18.9365205 16.0850954,18.868168 C16.5849815,18.7998073 17.0848282,18.5946258 17.4761009,18.2528117 C17.8673145,17.9109977 18.1498652,17.455225 18.3237335,16.9767226 L18.3455006,16.9539081 L18.3455006,16.9312983 L18.4107771,16.3161592 L18.4107771,16.2931441 C18.6281224,16.1564247 18.8454281,16.0197777 19.0627734,15.8374955 C19.3235758,15.6096195 19.5626595,15.3588587 19.7365278,15.0398467 C19.9103961,14.7208244 20.0189799,14.3334062 19.9972415,13.9460708 C19.9755119,13.5814753 19.8449538,13.2170971 19.6928043,12.8981058 C19.5406646,12.5790835 19.3451861,12.2826461 19.1278408,12.0092073 C18.6931504,11.4851007 18.1715455,11.0522852 17.606444,10.7104712 C17.0630907,10.3458757 16.4545221,10.0494591 15.8459634,9.84437477 L15.6068107,9.77593544 L15.411559,9.7076988 C15.2811479,9.66212463 15.1722681,9.59378147 15.0636054,9.54820833 C14.8462602,9.41147858 14.6939627,9.27464542 14.5852999,9.09235288 C14.3679547,8.75053885 14.3462754,8.22664944 14.454948,7.67976146 C14.4766776,7.54304206 14.5202768,7.40625026 14.5637488,7.26953085 C14.607213,7.1328011 14.6506386,6.99599897 14.6941007,6.83648782 C14.7253049,6.68922051 14.7447443,6.54146717 14.7535501,6.37737493 L17.6583579,3.71247882 C17.4319681,2.83607236 14.9240847,1.92305848 14.9240847,1.92305848 L7.47057153,8.56916666 L3.16923489,0.0608369376 C3.01467872,0.0243215529 2.84909551,0.00585341955 2.67790014,0.00135918654 L2.67815165,0.00109445491 Z M13.3895747,7.6289847 C13.3449793,7.87253779 13.3252726,8.12904826 13.3252726,8.38589999 C13.3470022,8.77328715 13.4557133,9.20657837 13.6947871,9.57119448 C13.9338708,9.93578991 14.2597407,10.2091357 14.5857388,10.3686468 C14.7596071,10.459792 14.9336727,10.528189 15.0858222,10.5737621 L15.3467332,10.6419988 L15.5639403,10.6876257 C16.129032,10.8471368 16.6722668,11.0749818 17.1721332,11.3712124 C17.6720095,11.6674429 18.1501868,12.0320487 18.5414397,12.4422379 C18.9326533,12.8524065 19.2370017,13.3765544 19.2804786,13.9006403 C19.3022082,14.2652358 19.2585981,14.5386642 19.1499196,14.7665299 C19.041247,15.0171873 18.8674083,15.2450323 18.6718114,15.4501166 C18.5848723,15.541265 18.4762638,15.6322954 18.3893296,15.7006603 C18.3893296,15.495576 18.3677115,15.2905951 18.3242474,15.0855212 C18.3025188,14.9715832 18.2806787,14.8804783 18.2372126,14.7665403 C18.1937446,14.6753919 18.1504383,14.561549 18.0417735,14.4931842 C18.020044,14.4931842 17.9980609,14.4930808 17.9980609,14.5157929 C17.8676597,14.8576069 17.6504131,15.1539822 17.4113491,15.3590665 C17.1722753,15.5641508 16.8679959,15.6552557 16.5637165,15.6780474 C16.2594371,15.700834 15.9332911,15.6325188 15.607293,15.5413694 C15.2812751,15.45022 14.9555039,15.33613 14.6294959,15.222192 L14.5857803,15.1993785 C14.5205787,15.176592 14.4339956,15.1995854 14.3905286,15.2452081 C14.2166603,15.4730842 14.0861111,15.6779099 13.9339813,15.9057756 C13.8253087,16.0880785 13.7384436,16.2477861 13.6514996,16.4300683 C13.260286,16.2705572 12.8906433,16.1337137 12.4994791,15.9742128 C11.956116,15.7463368 11.4126543,15.5186573 10.9127879,15.2452081 C10.3911633,14.9945507 9.89155335,14.698103 9.45688262,14.3563096 C9.14346994,14.109861 8.85385712,13.8509825 8.64267639,13.5551966 L8.88182913,11.7643285 L13.3895747,7.6289847 Z" transform="translate(7 3)"/>
</svg>
