<svg xmlns="http://www.w3.org/2000/svg" width="32" height="32" viewBox="0 0 32 32">
  <path fill="#AB7558" fill-rule="evenodd" d="M8.86231579,0.0475782245 C9.69501754,0.043952381 10.5489591,0.287142857 11.1961637,0.835095238 C11.5278129,1.10833333 11.7956959,1.45114286 12.0232047,1.81614286 C12.4325614,1.14261905 13.0305029,0.570333333 13.7678596,0.29447619 C14.666386,-0.0488571429 15.6820117,-0.0251428571 16.5789942,0.311380952 C17.3624795,0.60252381 18.0475322,1.10990476 18.6688187,1.66790476 C19.1548538,2.10461905 19.6046316,2.58247619 20.1051696,3.00285714 C20.3689357,3.22066667 20.6523509,3.4247619 20.9767485,3.53761905 C21.4078596,3.68742857 21.9177544,3.54609524 22.2260585,3.208 C22.5115789,2.89157143 22.4939415,2.34461905 22.1794152,2.05561905 C21.9794152,1.87995238 21.6374269,1.91528571 21.4959064,2.14942857 C21.372117,2.33514286 21.4415439,2.56666667 21.5384795,2.74652381 C21.2808889,2.55509524 21.0228772,2.28819048 21.0238596,1.94009524 C20.9705263,1.53766667 21.2638129,1.18266667 21.6151111,1.04185714 C22.3006784,0.762809524 23.1603275,1.00338095 23.5930292,1.61780952 C24.0091228,2.19114286 24.0422456,2.94480952 23.969731,3.62780952 C23.882152,4.27657143 23.5256608,4.88209524 22.9970994,5.25761905 C22.2551111,5.79666667 21.3145731,5.96380952 20.4196959,5.9522381 C19.5595322,5.92847619 18.7081637,5.73071429 17.9112047,5.40366667 C16.5784795,4.85833333 15.3312281,4.10461905 13.9549474,3.669 C13.4984327,3.48861905 13.0129123,3.39104762 12.5247719,3.36095238 C12.1361404,3.35833333 11.7677193,3.33985714 11.4008421,3.36519048 C10.9531228,3.409 10.5080234,3.50233333 10.0888421,3.66947619 C8.68926316,4.11257143 7.42334503,4.8852381 6.06521637,5.43166667 C4.91845614,5.8857619 3.64790643,6.0967619 2.43073684,5.84461905 C1.74984795,5.70433333 1.07204678,5.39790476 0.612444444,4.852 C0.219134503,4.38785714 0.0305497076,3.76657143 0.049122807,3.15790476 C0.0273684211,2.58352381 0.151204678,1.97328571 0.524304094,1.526 C0.871438596,1.102 1.43059649,0.886809524 1.9674386,0.934285714 C2.31302924,0.950619048 2.66334503,1.10409524 2.87681871,1.38733333 C3.04472515,1.61147619 3.05506433,1.91847619 2.98147368,2.18057143 C2.89183626,2.41633333 2.7068538,2.60042857 2.50582456,2.7417619 C2.60842105,2.56557143 2.67059649,2.333 2.54933333,2.14890476 C2.40009357,1.90366667 2.03270175,1.87890476 1.83840936,2.08033333 C1.59901754,2.33090476 1.54872515,2.74019048 1.70938012,3.04714286 C1.88346199,3.36890476 2.24364912,3.55242857 2.59232749,3.58985714 C3.11985965,3.63628571 3.57740351,3.30347619 3.96449123,2.98071429 C4.76556725,2.27866667 5.48683041,1.47542857 6.37553216,0.88152381 C7.10825731,0.38152381 7.97150877,0.0434285714 8.86226901,0.0476666667 L8.86231579,0.0475782245 Z" transform="translate(4 14)"/>
</svg>
