<svg xmlns="http://www.w3.org/2000/svg" width="32" height="32" viewBox="0 0 32 32">
  <g fill="none" transform="translate(4 4)">
    <path fill="#7ACCEE" d="M21.6687692,4.89253846 C21.8657308,4.59888462 21.9807692,4.24557692 21.9807692,3.86538462 C21.9807692,2.84567308 21.1540385,2.01923077 20.1346154,2.01923077 C19.7544231,2.01923077 19.4011154,2.13426923 19.1074038,2.33128846 C17.1178269,0.86625 14.6601923,0 12,0 C5.37259615,0 0,5.37259615 0,12 C0,18.6275192 5.37259615,24 12,24 C18.6272885,24 24,18.6275192 24,12 C24,9.33975 23.1336923,6.88211538 21.6687692,4.89253846 Z M19.8363462,19.8364615 C18.8183077,20.8545 17.6330192,21.6537115 16.3134231,22.2118846 C14.9477308,22.7895 13.4965385,23.0824038 12,23.0824038 C10.5034615,23.0824038 9.05221154,22.7895 7.68651923,22.2118846 C6.36692308,21.6537115 5.18169231,20.8545577 4.16359615,19.8364615 C3.1455,18.8183654 2.34628846,17.6331346 1.78817308,16.3135385 C1.2105,14.9478462 0.917596154,13.4965385 0.917596154,12 C0.917596154,10.5034615 1.2105,9.05221154 1.78811538,7.68651923 C2.34623077,6.36692308 3.14544231,5.18169231 4.16353846,4.16359615 C5.18163462,3.1455 6.36686538,2.34628846 7.68646154,1.78817308 C9.05221154,1.2105 10.5034615,0.917596154 12,0.917596154 C13.4964808,0.917596154 14.9477308,1.2105 16.3134231,1.78811538 C17.0891538,2.11621154 17.8180385,2.52830769 18.4943077,3.01851923 C18.3630577,3.27225 18.2884615,3.56001923 18.2884615,3.86538462 C18.2884615,4.88509615 19.1150192,5.71153846 20.1346154,5.71153846 C20.4399808,5.71153846 20.7276923,5.63694231 20.9814231,5.50569231 C21.4716923,6.18190385 21.8837885,6.91078846 22.2118269,7.68651923 C22.7895,9.05221154 23.0824038,10.5034615 23.0824038,12 C23.0824038,13.4964808 22.7895,14.9478462 22.2118269,16.3135385 C21.6536538,17.6331346 20.8545,18.8184231 19.8363462,19.8364615 Z"/>
    <circle cx="12" cy="12" r="5.538" fill="#3965BD"/>
  </g>
</svg>
