<svg xmlns="http://www.w3.org/2000/svg" width="32" height="32" viewBox="0 0 32 32">
  <g fill="none" fill-rule="evenodd" transform="translate(6 1)">
    <path fill="#6A9FB5" d="M6.93005915 19.9691188C6.93005915 19.9691188 5.9087493 20.5431298 7.65772394 20.7368279 9.77689014 20.9704536 10.8597803 20.9368092 13.1943887 20.510685 13.1943887 20.510685 13.8094225 20.8822014 14.6668732 21.2039652 9.43160282 23.3698302 2.81837746 21.0784698 6.93005915 19.9691188L6.93005915 19.9691188zM6.29000282 17.1423042C6.29000282 17.1423042 5.1443493 17.9613653 6.89462535 18.136042 9.15854366 18.3617279 10.9457324 18.3802352 14.0400676 17.8051959 14.0400676 17.8051959 14.4670479 18.2240086 15.139462 18.4528933 8.81071268 20.2404445 1.76175211 18.5935258 6.29000282 17.1423042L6.29000282 17.1423042z"/>
    <path fill="#D14748" d="M11.6827437,12.3464644 C12.9733859,13.7810636 11.3443183,15.0709748 11.3443183,15.0709748 C11.3443183,15.0709748 14.6195493,13.438622 13.1157127,11.3935112 C11.7106648,9.487205 10.6334535,8.54024955 16.4652423,5.27445848 C16.4652423,5.27445848 7.31078028,7.48167924 11.6827437,12.3464644 L11.6827437,12.3464644 Z"/>
    <path fill="#6A9FB5" d="M18.6067099 22.0603264C18.6067099 22.0603264 19.362769 22.6621555 17.7739859 23.1275791 14.7528845 24.0111871 5.19741127 24.2777147 2.5433662 23.1629371 1.5899662 22.7619462 3.37869296 22.2061568 3.94149296 22.0887727 4.52830986 21.9661906 4.86336338 21.9885821 4.86336338 21.9885821 3.80230141 21.2670841-1.99476338 23.405588 1.91910423 24.0188985 12.592369 25.6894655 21.3748648 23.2664408 18.6067099 22.0603264L18.6067099 22.0603264zM7.42157746 14.2130142C7.42157746 14.2130142 2.56170423 15.3279632 5.70064225 15.7331811 7.02642254 15.9044876 9.6677493 15.8650739 12.1298958 15.6656067 14.1415183 15.5025827 16.1602986 15.1539148 16.1602986 15.1539148 16.1602986 15.1539148 15.4515042 15.4475179 14.9383352 15.7856755 10.0022113 17.0393147.468329577 16.4554788 3.21341408 15.173793 5.53388451 14.0898038 7.42157746 14.2130142 7.42157746 14.2130142L7.42157746 14.2130142zM16.1401859 18.9184312C21.1575887 16.4014992 18.8374732 13.982473 17.2181662 14.3082924 16.8221831 14.3880908 16.6445408 14.4572074 16.6445408 14.4572074 16.6445408 14.4572074 16.7920732 14.2340348 17.073 14.1380141 20.2765352 13.0509974 22.7396873 17.3451417 16.0399182 19.0458115 16.0398592 19.0458115 16.116938 18.9784085 16.1401859 18.9184312L16.1401859 18.9184312z"/>
    <path fill="#D14748" d="M13.1157718,0 C13.1157718,0 15.8938648,2.68412576 10.4800056,6.81039076 C6.13844789,10.1216503 9.49010704,12.0089352 10.4784676,14.1663462 C7.94397465,11.95844 6.08497183,10.014548 7.33189859,8.20563348 C9.16298028,5.55069667 14.2364028,4.2630703 13.1157718,0 L13.1157718,0 Z"/>
    <path fill="#6A9FB5" d="M7.91487042,25.7409317 C12.7299042,26.0381905 20.1259859,25.5755086 20.3010254,23.3752567 C20.3010254,23.3752567 19.9645521,24.2093406 16.3213183,24.871147 C12.2111746,25.6183495 7.1406507,25.5313539 4.13445634,25.0520498 C4.13445634,25.0520498 4.75031831,25.5442633 7.91487042,25.7409317 L7.91487042,25.7409317 Z"/>
  </g>
</svg>
