<svg xmlns="http://www.w3.org/2000/svg" xmlns:xlink="http://www.w3.org/1999/xlink" width="32" height="32" viewBox="0 0 32 32">
  <defs>
    <rect id="jenkins-a" width="22.708" height="22.814" x=".141" y="0"/>
  </defs>
  <g fill="none" fill-rule="evenodd" transform="matrix(1 0 0 -1 4.872 26)">
    <mask id="jenkins-b" fill="#fff">
      <use xlink:href="#jenkins-a"/>
    </mask>
    <g mask="url(#jenkins-b)">
      <g transform="translate(1.99 -10.543)">
        <g transform="translate(.403 3.918)">
          <polyline fill="#F0D6B7" fill-rule="nonzero" points="13.308 12.519 11.626 12.266 9.356 12.012 7.884 11.97 6.455 12.012 5.362 12.35 4.395 13.406 3.638 15.56 3.47 16.025 2.461 16.363 1.872 17.334 1.452 18.728 1.914 19.953 3.007 20.333 3.89 19.911 4.311 18.982 4.815 19.066 4.983 19.277 4.815 20.249 4.773 21.474 5.025 23.163 5.015 24.129 5.782 25.36 7.127 26.331 9.482 27.345 12.089 26.965 14.359 25.318 15.41 23.628 16.083 22.403 16.251 19.362 15.746 16.743 14.821 14.42 13.939 13.195"/>
          <polyline fill="#335061" fill-rule="nonzero" points="11.879 5.212 5.867 4.958 5.867 3.945 6.371 .396 6.119 .101 1.915 1.537 1.62 2.044 1.2 6.817 .233 9.689 .023 10.365 3.386 12.688 4.437 13.11 5.362 11.97 6.161 11.252 7.086 10.956 7.506 10.83 8.011 8.633 8.389 8.168 9.356 8.506 8.683 7.197 12.341 5.465 11.879 5.212"/>
          <polyline fill="#6D6B6D" fill-rule="nonzero" points="1.915 19.953 3.008 20.334 3.891 19.911 4.311 18.982 4.816 19.066 4.942 19.573 4.69 20.545 4.942 22.868 4.732 24.135 5.488 25.022 7.128 26.332 6.666 26.965 4.353 25.825 3.386 25.064 2.84 23.882 1.999 22.741 1.746 21.39 1.915 19.953"/>
          <path fill="#DCD9D8" fill-rule="nonzero" d="M3.63830195 23.9232272C3.63830195 23.9232272 4.26894992 25.4859988 6.7915418 26.2463756 9.31421436 27.0066984 6.91767274 26.7955817 6.91767274 26.7955817L4.18494556 25.7394983 3.13377147 24.6835365 2.67138236 23.8386914 3.63830598 23.9232137M2.37703291 20.2490183C2.37703291 20.2490183 1.49411768 23.2059492 4.85761386 23.6282907L4.73148292 24.1351681 2.41913393 23.585962 1.74635401 21.389543 1.91461286 19.9533658 2.37700198 20.2490048"/>
        </g>
        <g transform="translate(1.748 15.943)">
          <path fill="#F7E4CD" fill-rule="nonzero" d="M2.3777053 4.29623709L2.92820438 4.83213522C2.92820438 4.83213522 3.17666591 4.80311714 3.21864994 4.50747539 3.2606259 4.21171475 3.38676087 1.55054451 5.19466949.114367266 5.3595664-.0166612773 3.8493517.325740672 3.8493517.325740672L2.50389944 2.43758325M10.113955 5.09876699C10.113955 5.09876699 10.2119585 6.37913995 10.5551638 6.28067467 10.8983651 6.18221343 10.8983651 5.83740525 10.8983651 5.83740525 10.8983651 5.83740525 10.0648974 5.29568405 10.113955 5.09875348M13.6037932 9.78735204C13.6037932 9.78735204 12.9108281 9.64035666 12.8470049 9.02702926 12.783183 8.41358027 13.6037932 8.90030925 13.7299201 8.94250692M8.51608751 9.74506384C8.51608751 9.74506384 7.59104033 9.61834383 7.59104033 9.0270698 7.59104033 8.43567011 8.64224131 8.47786373 8.93649259 8.73130915"/>
          <g fill="#F7E4CD" fill-rule="nonzero" transform="translate(0 4.458)">
            <path d="M2.79808617 2.54107447C2.79808617 2.54107447 1.20035052 3.51263555 1.03225303 2.58327215.864101756 1.6540398.485600013.978077237 1.28452029.00666478115L.737974852.175587868.233453786 1.4849816.0653428541 2.75218172 1.03226648 3.76607152 2.12541114 3.68154918 2.75605911 3.17467183 2.79808617 2.54107853M3.5549256 5.20212312C3.5549256 5.20212312 4.2696761 8.9191606 7.88552023 9.63724922 10.862325 10.2283922 12.4261695 9.51053056 13.0147796 8.83473283 13.0147796 8.83473283 10.3661012 12.0025642 7.84342862 11.0311518 5.32075605 10.0595907 3.47101133 8.28552676 3.51296847 7.14523175 3.58456051 5.20281216 3.55499553 5.20212312 3.55499553 5.20212312M13.3092864 8.41305336C13.3092864 8.41305336 12.090109 8.45525103 12.047977 7.35696994 12.047977 7.35696994 12.0478506 7.18804686 12.13198 7.01913728 12.13198 7.01913728 13.0991457 8.11741431 13.6876214 7.52601463"/>
            <path d="M7.97024136,6.90391885 C7.97024136,6.90391885 7.76034812,8.58963696 6.32974439,7.60961825 C5.40480479,6.97602494 5.48896112,6.08899972 5.6570586,5.92011717 C5.82520988,5.75107248 5.77949408,5.41083493 5.90749696,5.64437924 C6.03544335,5.87792355 5.99331677,6.63824632 6.45585785,6.84936303 C6.91835454,7.06060133 7.67651454,7.29656403 7.97021446,6.90397964"/>
          </g>
        </g>
        <g transform="translate(.403 5.404)">
          <path fill="#49728B" d="M5.36217527 10.4838237L1.41013618 8.70974623C1.41013618 8.70974623 3.04982628 2.16250734 2.20889508.134970938L1.62027148.346087642 1.57824442 2.83825373.48524768 7.56899186.0226971947 8.87850719 4.14283377 11.6661502 5.36211879 10.4836075M5.76856775 6.86254667L6.32926027 6.17524872 6.32926027 3.64079444 5.65648035 3.64079444C5.65648035 3.64079444 5.57247733 5.4148719 5.57247733 5.62617775 5.57247733 5.83738903 5.65648035 6.59771181 5.65648035 6.59771181"/>
          <polyline fill="#49728B" points="5.783 3.261 3.891 3.176 4.437 2.796 5.783 2.585"/>
        </g>
        <g transform="translate(6.186 .27)">
          <polyline fill="#335061" fill-rule="nonzero" points="6.475 8.817 8.031 8.859 8.409 4.973 6.811 4.762 6.475 8.817"/>
          <path fill="#335061" fill-rule="nonzero" d="M6.89464607,8.81715553 L9.24912702,8.94387555 C9.24912702,8.94387555 10.2160506,11.3937534 10.2160506,11.5204829 C10.2160506,11.6472029 11.0569684,15.0686378 11.0569684,15.0686378 L9.16499759,17.053886 L8.78660343,17.3918538 L7.7775613,16.3780991 L7.7775613,12.4497558 L6.89464607,8.81715553"/>
          <path fill="#49728B" fill-rule="nonzero" d="M7.94630428,9.11290266 L6.47484614,8.8172366 L6.68498144,7.63443723 C7.23149998,7.3809918 8.15657406,8.05691383 8.15657406,8.05691383"/>
          <polyline fill="#49728B" fill-rule="nonzero" points="7.988 16.505 10.931 14.308 11.015 15.322 8.787 17.392 7.988 16.505"/>
          <polyline fill="#FFF" fill-rule="nonzero" points="1.459 .496 .589 4.044 .156 6.663 .084 8.606 4.024 8.817 6.475 8.817 6.252 4.382 6.63 .96 6.588 .327 3.393 .073 1.459 .496"/>
          <path fill="#DCD9D8" fill-rule="nonzero" d="M5.92819312,8.85944373 C5.92819312,8.85944373 5.71805782,4.46647071 6.34870579,1.34079238 C6.34870579,1.34079238 5.0873964,0.538140884 3.23742307,0.32703769 L6.76908397,0.453757702 L7.18947561,0.70720313 L6.68495455,7.63449532 L6.55882361,9.11309587"/>
          <polyline fill="#FFF" fill-rule="nonzero" points="8.48 5.311 10.12 5.776 13.231 5.944 13.694 7.381 12.853 9.873 11.886 9.999 10.54 9.577 9.249 8.944 8.564 9.07 8.03 8.859"/>
          <path fill="#DCD9D8" fill-rule="nonzero" d="M8.45059673,6.15610689 C8.45059673,6.15610689 9.54364726,6.66288966 9.71190612,6.62065551 L9.24951701,8.94393905 L9.79603555,9.15505575 C9.79603555,9.15505575 10.1744297,6.95863679 10.1744297,6.70517786 C10.1744297,6.70517786 12.5287358,6.57845784 12.7390594,6.57845784 C12.7390594,6.57845784 13.2435805,7.5499919 13.1174536,8.56370605 L13.5799772,7.21197008 L13.6219787,6.45164731 L12.9493198,5.43789262 L12.1925315,5.26895602 L10.9312221,5.31117936 L10.5108304,5.86023682 L9.03923781,5.64912011 L8.57671422,5.48007543"/>
        </g>
        <path fill="#FFF" fill-rule="nonzero" d="M12.9851945,9.42486252 L12.0602818,11.7902991 L11.0932371,13.1841882 C11.0932371,13.1841882 11.3033724,13.7755879 11.5977582,13.7755879 L12.5648028,13.7755879 L13.4897155,13.4376201 L13.4057125,11.8747134 L12.9851998,9.42470039"/>
        <polyline fill="#FFF" fill-rule="nonzero" points="8.023 15.803 6.859 15.93 5.766 16.268 5.766 15.888 6.3 15.296 7.981 14.536"/>
        <path fill="#DCD9D8" d="M6.14416477,15.6764894 C6.14416477,15.6764894 7.44759266,15.1272833 7.86803809,15.2540128 L7.90986343,14.7476353 L6.73285829,15.0005674 L6.018054,15.5074447 L6.14418494,15.6764894"/>
        <path fill="#D33833" d="M14.662135,13.631835 C13.9487427,13.6528711 13.3041763,13.7380257 12.7399066,13.8979399 C12.7782503,14.1303493 12.7064821,14.3584354 12.7641234,14.5258317 C12.9214089,14.6396262 13.1850261,14.6378522 13.4227831,14.6645856 C13.2171932,14.7660881 12.9283479,14.8062578 12.6911019,14.7475867 C12.6855479,14.9089033 12.6135309,15.0088818 12.5698901,15.1350979 C12.9709842,15.2789182 13.9178975,16.2218503 14.4504303,15.9096068 C14.7042037,15.7610847 14.8120416,14.9128349 14.8317292,14.5003156 C14.8481261,14.1581731 14.8008275,13.8129906 14.6620852,13.6317729"/>
        <path stroke="#D33833" stroke-width=".522" d="M14.662135,13.631835 C13.9487427,13.6528711 13.3041763,13.7380257 12.7399066,13.8979399 C12.7782503,14.1303493 12.7064821,14.3584354 12.7641234,14.5258317 C12.9214089,14.6396262 13.1850261,14.6378522 13.4227831,14.6645856 C13.2171932,14.7660881 12.9283479,14.8062578 12.6911019,14.7475867 C12.6855479,14.9089033 12.6135309,15.0088818 12.5698901,15.1350979 C12.9709842,15.2789182 13.9178975,16.2218503 14.4504303,15.9096068 C14.7042037,15.7610847 14.8120416,14.9128349 14.8317292,14.5003156 C14.8481261,14.1581731 14.8008275,13.8129906 14.6620852,13.6317729 L14.662135,13.631835 Z"/>
        <path fill="#D33833" d="M11.2504284,14.8034341 C11.2485363,14.7491985 11.2462663,14.6945819 11.2441214,14.6398342 C11.0213721,14.4928388 10.6617779,14.4946087 10.4173373,14.3710678 C10.777698,14.3552279 11.0613658,14.268044 11.306815,14.1451299 C11.3013916,14.0085242 11.2962195,13.8720536 11.2909224,13.7354479 C10.8826338,13.4546435 10.5096726,13.0364632 10.0289676,12.7731281 C9.80168631,12.6485873 9.00400323,12.3281293 8.76218492,12.3847522 C8.62536701,12.4166724 8.61304883,12.5872492 8.55835663,12.7480389 C8.44183683,13.0923431 8.17356132,13.6404143 8.15016215,14.1586811 C8.12035779,14.8133104 8.05458057,15.910466 8.7567789,15.7756302 C9.32328087,15.667032 9.98216922,15.4048452 10.4208095,15.1640862 C10.6888376,15.0168341 10.8438504,14.8348733 11.2504984,14.8034476"/>
        <path stroke="#D33833" stroke-width=".522" d="M11.2504284,14.8034341 C11.2485363,14.7491985 11.2462663,14.6945819 11.2441214,14.6398342 C11.0213721,14.4928388 10.6617779,14.4946087 10.4173373,14.3710678 C10.777698,14.3552279 11.0613658,14.268044 11.306815,14.1451299 C11.3013916,14.0085242 11.2962195,13.8720536 11.2909224,13.7354479 C10.8826338,13.4546435 10.5096726,13.0364632 10.0289676,12.7731281 C9.80168631,12.6485873 9.00400323,12.3281293 8.76218492,12.3847522 C8.62536701,12.4166724 8.61304883,12.5872492 8.55835663,12.7480389 C8.44183683,13.0923431 8.17356132,13.6404143 8.15016215,14.1586811 C8.12035779,14.8133104 8.05458057,15.910466 8.7567789,15.7756302 C9.32328087,15.667032 9.98216922,15.4048452 10.4208095,15.1640862 C10.6888376,15.0168341 10.8438504,14.8348733 11.2504984,14.8034476 L11.2504284,14.8034341 Z"/>
        <path fill="#D33833" d="M11.6558796,14.0223861 C11.5935705,14.3789715 11.5215508,14.4807333 11.5494254,14.7918285 C12.4960294,15.4259352 12.6737555,13.7026711 11.6558796,14.0223861"/>
        <path stroke="#D33833" stroke-width=".522" d="M11.6558796,14.0223861 C11.5935705,14.3789715 11.5215508,14.4807333 11.5494254,14.7918285 C12.4960294,15.4259352 12.6737555,13.7026711 11.6558796,14.0223861 Z"/>
        <path fill="#EF3D3A" fill-rule="nonzero" d="M13.0268826 13.7333943C13.0268826 13.7333943 12.7324969 14.1558709 12.9427532 14.2826003 13.1530095 14.4093203 13.3632659 14.2824736 13.4894062 14.493717 13.6155466 14.7049605 13.4894062 14.8316848 13.5314077 15.0851167 13.5734093 15.3385486 13.783796 15.3808774 13.9939313 15.4230845 14.2040666 15.4652822 14.7928382 15.5498045 14.8768466 15.3385621L14.6245927 16.0988849 14.1200717 16.267808 12.5223387 15.3385757 12.4382093 14.8738919 12.4382093 13.9446596M8.61210479 12.339412C8.56160158 12.9986214 8.50814793 13.6569256 8.44867369 14.315473 8.35968827 15.2988153 8.68378156 15.1272441 9.53221663 15.1272441 9.66180365 15.1272441 10.3301014 14.9720073 10.3779083 14.8737987 10.6072202 14.4032919 9.99447126 14.507837 10.6420231 14.1530215 11.1886761 13.8535859 12.1543626 14.3348607 11.933469 15.0005282 11.8098609 15.1485368 11.2894405 15.0466547 11.1028926 15.1438487 10.7744436 15.3149199 10.446008 15.4859912 10.1175186 15.6570625 9.69962828 15.874894 8.73374013 16.1924472 8.28821456 15.8880668 7.15929875 15.1167194 8.35946638 13.1894587 8.76218223 12.3847671"/>
        <path fill="#231F20" fill-rule="nonzero" d="M7.16337343 9.33582764C6.01744616 9.60395909 5.4481067 8.85403948 5.10075006 8.07623399 4.79059003 8.15175827 4.91401393 8.57550486 4.99235274 8.79144485 5.19747201 9.35813365 6.02406786 10.1124982 6.69941631 10.0102365 6.99006358 9.96626486 7.38337135 9.6992629 7.16339226 9.33584115M12.7471684 8.02529901C12.7652046 8.02448837 12.7834936 8.02390742 12.8015298 8.02315082 13.0604806 7.48268612 13.2846151 6.91017426 13.611289 6.43308779 13.392453 5.92100887 11.9542512 5.46786319 11.9764401 6.38734224 12.2874743 6.52394796 12.824418 6.41522002 13.1001382 6.58971758 12.9407145 7.02931212 12.7106496 7.40351533 12.7472276 8.0253544M7.74996642 8.01043735C7.99567115 7.55792667 8.07563176 7.08247499 8.42488454 6.74045404 8.58216999 6.5864872 8.88804017 6.39881139 8.73642969 5.97063332 8.70098667 5.86963749 8.44204393 5.6444603 8.29257165 5.60022659 7.74655067 5.43827497 6.47429478 5.56677298 6.90516225 6.25068112 7.35672588 6.22951946 7.96367883 5.95605537 8.30117824 6.28540203 8.04198536 6.70167726 7.5798921 7.52522966 7.74999331 8.01043735M12.5414171 3.41183293C11.7192994 2.88125798 10.8026167 2.30430113 9.45555073 2.43812367 9.16771405 2.689529 9.05799346 3.24900312 9.33761891 3.61851815 9.48317789 3.36711283 9.39172882 2.90471239 9.79735881 2.83513278 10.5617048 2.70372459 11.4513036 3.30488298 12.0010496 3.51498639 12.3419782 4.09244314 11.9716621 4.30482984 11.6645319 4.67649305 11.0357666 5.43795072 10.1924013 6.38180154 10.2229278 7.52169123 10.4770778 7.70682704 10.4990246 7.23910343 10.5354816 7.15394609 10.8637961 6.38196367 11.6900827 5.39473029 12.2931089 4.73392663 12.4411826 4.57121842 12.6849912 4.41510339 12.7121154 4.30751845 12.7903157 3.99465338 12.5086636 3.61981517 12.5413284 3.41173835M1.70356714 3.97036131C1.44588043 4.11811328 1.38454502 4.76894612 1.08202333 4.78745565.649690053 4.81381348.728521049 3.94312394.730242367 3.4339633.432656029 3.70539134.380317196 4.5411168.59894075 4.97025412.349779935 5.09317225.238526296 4.8346617.100323268 4.74354618.277941794 6.03988867 1.9878563 5.34483563 1.70356983 3.97030727M13.0645365 2.87194918C12.6818525 2.14014729 12.1405113 1.33417218 11.0175126 1.31079884 10.9946822 1.54712633 10.9771503 1.90676511 11.0187229 2.04907231 11.8771631 2.13194635 12.4072081 2.57090589 13.064402 2.87198971M7.68527309 2.39745675C8.40149882 2.01906525 9.71778281 1.97839833 10.691269 2.0070273 10.7434868 1.79274912 10.7422254 1.52802234 10.7442439 1.26672725 9.4928993 1.20400156 8.01339938 1.51509269 7.68527309 2.39744324M7.5490563 1.69193299C8.04433873.4426074 9.74656109.586427784 11.1821136.620893336 11.1189224.45869853 10.9819431.267091138 10.8116671.197781738 10.3516717.00972763516 9.08295257-.132957858 8.44431661.207793096 8.03930925.424097872 7.77910779.912857497 7.55720567 1.19937688 7.45004554 1.33775249 6.91644495 1.69117639 7.5490832 1.69193299" transform="translate(2.555 17.97)"/>
        <path fill="#81B0C4" fill-rule="nonzero" d="M15.0373286,12.7696693 C14.4561147,11.7695739 13.9000079,10.7424032 13.2104451,9.86029579 C13.4995324,10.7142741 13.6232656,12.1435879 13.6669172,13.2332182 C14.2717185,13.5175759 14.7896067,13.1692252 15.0373823,12.7696964"/>
        <path fill="#231F20" fill-rule="nonzero" d="M1.7576273 2.01456622C1.10691521 1.88369035.649690053 1.24831229.0149270566 1.28910081.363803299 1.78322414.975153678 1.99150362 1.7576273 2.01456622M2.04541019.992076553C1.51502901.935528969.892073177.848823941.354080541.893496708.608741506 1.28619241 1.58990635 1.15069162 2.04541019.992076553M2.22964503.109459524C1.6335579.0964212555.892664881.108414182.326109119.15640625.661241712.519805219 1.84302082.291251324 2.22964503.109459524" transform="translate(16.406 7.16)"/>
        <path fill="#DCD9D8" fill-rule="nonzero" d="M13.9157821,4.85611654 C14.001298,4.10400821 14.2980762,3.3419831 14.2608795,2.51824155 C13.9313009,2.40657641 13.7419828,2.30890825 13.3003974,2.30950002 C13.2692429,3.00952766 13.1760322,4.0796621 13.2039068,4.74695085 C13.4211022,4.73250532 13.7413481,4.9028227 13.9157929,4.85605709"/>
        <path fill="#F0D6B7" fill-rule="nonzero" d="M12.9542645,15.940492 C12.6549569,15.7442045 12.4000404,15.4991222 12.1125937,15.2895322 C11.4751277,15.2578525 11.12726,15.3338834 10.6588867,15.7016191 C10.6665801,15.7311452 10.7136273,15.7179656 10.715393,15.7542078 C11.3977612,15.4486925 12.2651173,15.8786459 12.9541825,15.940492"/>
        <path fill="#81B0C4" fill-rule="nonzero" d="M9.37230886,11.2673847 C9.55978462,12.0835873 10.2943975,12.5063071 10.9614352,12.9558049 C11.649976,12.0778724 12.0687404,10.9488047 12.529852,9.85930952 C11.4403382,10.189279 10.3271026,10.7246637 9.37217438,11.2673847"/>
        <path fill="#231F20" fill-rule="nonzero" d="M13.2030488,4.74695085 C13.1751742,4.07964859 13.2683849,3.00948713 13.2995395,2.30950002 C13.7411248,2.30890825 13.9304429,2.40656965 14.2600216,2.51824155 C14.2972289,3.34191555 14.0004387,4.10398119 13.9149242,4.85611654 C13.7404793,4.9028889 13.4202334,4.73256476 13.203038,4.7470103 L13.2030488,4.74695085 Z M6.32718931,8.54207963 C6.61837449,5.85265872 7.04011091,3.59192928 7.81370898,1.21041505 C9.53045497,0.68670349 11.6002057,0.641064668 13.1176553,1.11364264 C12.8390303,2.45777214 12.9607464,4.09421708 12.7979204,5.52850284 C12.6751958,6.60660854 12.7377563,7.6914155 12.5694961,8.7913138 C10.7307786,9.17562294 8.13172253,8.88115797 6.32729689,8.54202964 L6.32718931,8.54207963 Z M13.0041559,8.77448905 C12.9886425,7.61946748 13.0556179,6.48011821 13.1434078,5.32361047 C13.5848722,5.39018938 13.8844219,5.43464197 14.2946066,5.52498603 C14.1614129,6.63832738 14.1778098,7.89109818 13.9065032,8.87602124 C13.5929408,8.87300567 13.3168441,8.87968396 13.0041693,8.7744931 L13.0041559,8.77448905 Z M15.2436178,8.96066517 C15.0341145,9.00891965 14.7901849,8.96254045 14.5900144,8.95863723 C14.6841087,8.01709672 14.912412,6.97811773 14.9927491,5.98981702 C15.3076965,5.97997049 15.4759554,6.12920593 15.7350272,6.17939782 C15.7489013,7.04692724 15.6596012,8.2421969 15.2436178,8.96069084 L15.2436178,8.96066517 Z M18.6344802,5.84809213 C19.2909883,6.00826035 19.7038089,6.81609992 19.5201657,7.64567805 C19.3969368,8.20324718 19.177462,9.25316976 18.9426097,9.60984972 C18.7690524,9.8736848 18.2984601,10.2190969 17.9227151,9.97733816 C17.3114858,9.58411201 16.2347474,9.46996092 15.7889529,8.99398232 C16.0124553,8.2463325 16.0818325,7.21936444 16.1740306,6.27213596 C16.9376235,6.22431248 17.8771943,6.48325267 18.5121994,6.20847129 C18.0688524,6.06419155 17.493569,6.06304315 17.1105353,5.8527641 C17.4235866,5.70085087 18.156532,5.73154426 18.6344399,5.84811375 L18.6344802,5.84809213 Z M12.5293141,9.85925547 C12.0681756,10.9487911 11.6494246,12.0778318 10.9608973,12.9557509 C10.2938058,12.5062801 9.55923326,12.0835468 9.37177094,11.2673307 C10.3266453,10.7245692 11.4399079,10.1891709 12.5294486,9.85925547 L12.5293141,9.85925547 Z M13.6660027,13.2331236 C13.6223606,12.1434798 13.4986314,10.7142065 13.2095306,9.86020122 C13.89908,10.7423356 14.4552002,11.7695198 15.0364141,12.7695748 C14.7886922,13.1690968 14.270804,13.5174543 13.6659489,13.2330966 L13.6660027,13.2331236 Z M12.3774481,13.6931192 C12.1162381,13.7213779 11.8944973,13.3914003 11.5548194,13.5340858 C11.4769969,13.4476625 11.4062346,13.3540165 11.3269061,13.2696157 C12.0771319,12.3612708 12.4180604,11.0725213 12.9975261,10.0050484 C13.3084392,11.0304357 13.2726143,12.1537749 13.3411039,13.2729934 C12.9138942,13.2457493 12.6769037,13.6611395 12.3774615,13.6930651 L12.3774481,13.6931192 Z M11.5489023,14.7917745 C11.5210277,14.4806793 11.5930488,14.3789174 11.6553564,14.022332 C12.6732338,13.7026171 12.4955077,15.4258136 11.5489023,14.7917745 Z M10.4201613,15.1640727 C9.98156138,15.4048452 9.32268648,15.6670185 8.75613072,15.7756167 C8.05394046,15.9105728 8.11971364,14.8133104 8.14951396,14.1586676 C8.17291044,13.6403873 8.44119672,13.0923161 8.55770845,12.7480254 C8.61239795,12.5872492 8.62472152,12.4166643 8.76153673,12.3847387 C9.00335505,12.3281077 9.80102468,12.6485738 10.0283194,12.7731145 C10.5090244,13.0364497 10.8819991,13.45463 11.2902877,13.7354344 C11.2955848,13.8720401 11.3007568,14.0085107 11.3061803,14.1451164 C11.0607311,14.2680345 10.7770632,14.3552198 10.4167026,14.3710543 C10.6611432,14.494606 11.0207373,14.4928321 11.2434867,14.6398207 C11.2456316,14.694563 11.2479016,14.7491796 11.2497937,14.8034206 C10.8431457,14.8348476 10.6881329,15.0168206 10.4201049,15.1640592 L10.4201613,15.1640727 Z M6.23090307,15.9285702 C5.86688461,15.5572853 7.2518734,15.0511646 7.69281327,15.0239137 C7.69035367,15.2588496 7.8260823,15.4803559 7.79873755,15.6489007 C7.27499958,15.7412795 6.58671434,15.6803277 6.23085869,15.9285702 L6.23090307,15.9285702 Z M10.7150716,15.7542024 C10.7133059,15.7179602 10.6662587,15.7311398 10.6585653,15.7016137 C11.1268848,15.3338686 11.4747525,15.2578444 12.1122723,15.2895268 C12.399719,15.4991168 12.6546355,15.7441991 12.9539431,15.9404812 C12.2648914,15.8786418 11.3974949,15.4486817 10.7151536,15.754197 L10.7150716,15.7542024 Z M14.8309048,14.5003102 C14.8112294,14.912789 14.7033874,15.7610387 14.449606,15.9096014 C13.9169521,16.2219665 12.9700791,15.2789128 12.5690658,15.1350924 C12.6127066,15.0088791 12.6847276,14.9088979 12.6902775,14.7475813 C12.9275236,14.8062524 13.2163688,14.7660827 13.4219588,14.6645802 C13.1842017,14.6378428 12.9205845,14.6396167 12.7632991,14.5258263 C12.7056578,14.3584299 12.777426,14.1303304 12.7390823,13.8979345 C13.3033922,13.7380095 13.9479183,13.6528521 14.6613106,13.6318296 C14.8000516,13.8130339 14.8473475,14.1582298 14.8309546,14.5003724 L14.8309048,14.5003102 Z M5.61808688,15.5694449 C5.50377521,15.6513056 4.73049182,16.662142 4.62455006,16.6202051 C3.2253066,16.065811 1.91697026,15.1071525 0.74781864,14.2004559 C1.86254702,11.7973247 2.31247002,8.85309374 2.39208099,6.0154615 C3.66905707,5.41541503 4.79063038,4.55037156 6.52351372,4.46012072 C6.32299359,5.88548949 6.13995561,7.15710757 6.02613344,8.49911591 C5.59074751,8.68350864 4.96609725,8.49075284 4.55857516,8.55629143 C4.55511908,9.04960413 5.1808586,8.77231249 5.23296882,9.10405187 C5.27224581,9.35497081 4.88867828,9.37398023 5.01358143,9.76908435 C5.33210599,9.65275534 5.49938316,9.39579986 5.83908801,9.29932063 C6.1494901,9.98157913 5.83474975,11.1887787 5.87948788,11.7589262 C5.88796403,11.8659909 5.93270217,12.3520822 6.1714127,12.2667898 C6.38267762,12.1913033 6.15934195,10.9740141 6.18249906,10.4343465 C6.2035879,9.93711573 6.12272629,9.45597609 6.32316304,9.14382709 C7.99754846,9.37280481 9.69909843,9.52081348 11.5107859,9.57076219 C11.1122066,9.74257654 10.638723,9.90519018 10.1196111,10.1991674 C9.83818902,10.358552 8.95109152,10.6902103 8.86988027,10.9587471 C8.74030669,11.3866685 9.20984062,11.6146059 9.29015087,11.9814593 C8.44494327,11.5183428 8.28003292,12.4253773 8.08009105,13.0679686 C7.89893575,13.649992 7.79580458,14.0847632 7.75135961,14.4203801 C7.02325544,14.7691158 6.24480271,15.122283 5.61813529,15.5694705 L5.61808688,15.5694449 Z M14.0914104,16.4979206 C15.2572404,17.0658794 15.4673892,14.3752696 15.0103926,13.5084292 C15.0810258,13.2499173 15.3239549,13.1509521 15.4230921,12.9185427 C14.7725145,11.7476597 14.0499374,10.6547058 13.3860196,9.49765766 C13.8798227,9.80648305 14.5851463,9.55289441 15.1662392,9.78405545 C15.3786471,9.86845079 15.5323958,10.3569726 15.693218,10.7477669 C16.1355565,11.8229543 16.5999762,13.1784597 16.8065747,14.2045901 C16.8532426,14.4383911 16.9803875,14.9477949 16.9518782,15.1558718 C16.9010482,15.5284267 16.3979096,15.804678 16.141998,16.0350473 C15.6705182,16.4605773 15.3736042,16.8350237 14.8818317,17.2329245 C14.6824142,16.9371639 14.2544515,16.7384634 14.09137,16.4979476 L14.0914104,16.4979206 Z M2.95179182,26.8848733 C2.39627671,26.2707893 2.51255982,25.1201181 2.57981226,24.3015106 C3.58391905,24.9361172 4.91663625,24.2513295 4.9041298,23.1719295 C5.38353037,23.1847281 5.08322758,23.7734622 4.99650811,24.1527454 C4.71312264,25.3915597 5.47393186,26.7374591 5.0310044,27.8703233 C4.17099077,27.804809 3.46447032,27.4518998 2.95184024,26.8848192 L2.95179182,26.8848733 Z M6.92669218,30.4489707 C5.66908093,30.0908586 4.05733536,29.1727725 3.54053645,28.0377332 C3.9407026,28.0961517 4.21849378,28.2989066 4.61324046,28.3239958 C4.76243034,28.3337505 4.95788065,28.2611432 5.12934008,28.3039745 C5.47102175,28.3891305 5.75939635,29.1588309 6.0171772,29.4452152 C6.26844932,29.7248847 6.57047344,29.844386 6.7771661,30.0993447 C6.90995639,30.1637173 7.10628753,30.1592831 7.11383174,30.3596264 C7.05627785,30.4214658 6.99567266,30.4686057 6.92670562,30.448964 L6.92669218,30.4489707 Z M13.4732151,30.1121514 C12.167891,30.8520731 9.9584984,31.4086154 8.5698787,30.7131841 C7.4494888,30.1519401 5.9350515,29.2233698 5.41865603,28.0465961 C5.90100167,26.9110568 5.27577316,25.8705782 5.23587354,24.7177183 C5.21468385,24.1042693 5.52336059,23.5687495 5.54701526,22.9009473 C5.38195698,22.6273576 4.87767798,22.5936486 4.52860002,22.6124013 C4.41109719,23.203166 4.20539562,23.8671852 3.59988159,23.933833 C2.74308199,24.0279857 2.11658939,23.3155743 2.07772525,22.5711535 C2.0316625,21.6956528 2.74704909,20.2446274 3.76098622,20.3452814 C4.15268025,20.3841838 4.2489127,20.7786611 4.67567859,20.7746079 C4.90699418,20.3109374 4.31886815,20.1653337 4.2583665,19.8337159 C4.2426003,19.7480532 4.30714167,19.4132659 4.34467716,19.2562591 C4.52885822,18.4917616 4.93941951,17.5023125 5.34352586,16.9202756 C5.85642491,16.1820022 6.86406847,16.0707423 7.94823,15.998393 C8.14185141,16.4174515 8.8551361,16.3829859 9.31990547,16.2733744 C8.7629111,16.4950023 8.24509016,17.032292 7.81590366,17.5078788 C7.32296115,18.0535316 6.82361749,18.6388515 6.79838942,19.3520763 C7.72993188,18.0537073 8.49953596,16.9197622 10.1934207,16.348669 C11.4751304,15.9168025 12.9720049,16.5465993 13.9569216,17.2414092 C14.3655868,17.5301984 14.6095164,17.988424 14.9000023,18.4078607 C15.9868669,19.9786036 16.4941044,22.2204182 16.3824877,24.3934638 C16.3365755,25.2896222 16.338594,26.1828082 16.0392864,26.7856514 C15.7264771,27.4160832 14.6685523,27.9801104 14.0491466,27.4098683 C13.934367,28.022939 14.5641435,28.4020871 15.3038935,28.181459 C14.7764171,28.8653658 14.222825,29.6870807 13.4731102,30.1121243 L13.4732151,30.1121514 Z M15.905115,9.89218082 C16.9251305,10.4016387 18.8309526,11.2633721 19.4703954,9.89030554 C19.7063908,9.38415777 19.9832407,8.52857173 20.1054677,8.00611665 C20.2781374,7.26901861 19.9182878,5.71971707 19.1641487,5.47233791 C18.4980523,5.25389845 17.7207964,5.2672064 16.9185008,5.42912694 C16.8240286,5.50807346 16.7188413,5.64568842 16.6452953,5.78914402 C16.0724056,5.81147164 15.5359729,5.75824932 15.083468,5.52164756 C15.126353,5.09599597 14.8397804,5.02768635 14.5711203,4.94001604 C14.3719584,4.14663282 14.9695651,3.1105451 14.8265343,2.38705223 C14.7244951,1.87166321 14.0933334,1.79196415 13.6294247,1.69553897 C13.6142892,1.40912767 13.6497322,1.17004401 13.681391,0.927744832 C13.5753148,0.535059115 13.0995451,0.311526165 12.6487615,0.256767685 C11.1656037,0.0775765394 8.91363537,-0.00290613101 7.4869584,0.512482895 C7.08886322,1.4935149 6.7752471,2.68674446 6.44366473,3.80690867 C5.05235547,3.65761649 3.92690919,4.41006258 2.86614683,4.90303752 C2.4988471,5.07410879 1.99072203,5.16834525 1.85350069,5.46209282 C1.72047103,5.74647753 1.77490906,6.29150882 1.74190009,6.80635742 C1.65789708,8.12133104 1.58595942,9.38972009 1.2403241,10.7360518 C1.0851365,11.3402325 0.814634028,11.873361 0.625934516,12.4555464 C0.451516567,12.9951059 0.146789447,13.6619083 0.0673129566,14.1999006 C-0.0505314486,14.9973505 0.696885103,15.0417058 1.17480642,15.3872665 C1.91360159,15.921638 2.49351101,16.2171554 3.29364159,16.6994434 C3.53063215,16.8422505 4.24530197,17.2037943 4.32659391,17.370299 C4.48819611,17.7004036 4.04920616,18.1658439 3.93184722,18.4246125 C3.74620036,18.8337947 3.64937621,19.181382 3.62277647,19.5851059 C2.95156994,19.6916775 2.44275902,20.0929965 2.13544993,20.5455207 C1.62704245,21.2944405 1.27445461,22.679926 1.71433211,23.7338882 C1.7488284,23.8168893 1.92087685,23.9801055 1.94625284,24.107578 C1.99631362,24.3586051 1.85204564,24.6923846 1.84307864,24.9593811 C1.79686394,26.3292213 2.07377563,27.5095077 2.99165513,27.9225269 C3.36428019,29.4138274 4.69791184,29.9098017 5.95447415,30.6509934 C6.42416542,30.9280014 6.94193257,31.1050308 7.47663049,31.302718 C9.3948245,32.0119707 12.3380097,31.8784048 13.9299602,30.6687464 C14.6050128,30.1557893 15.684091,29.0727387 16.0700428,28.2885832 C17.0894263,26.2183533 17.0170368,22.7585577 16.3040211,20.2401811 C16.2081612,19.9020917 16.0691687,19.4051041 15.8750498,18.9989618 C15.7397111,18.7153607 15.319064,18.1479153 15.3701522,17.8975098 C15.4227492,17.6386196 16.3292492,16.9471063 16.5236236,16.758809 C16.873643,16.4195848 17.5385963,15.9693439 17.5924547,15.5412874 C17.6503488,15.0857369 17.3926607,14.4625197 17.262123,14.0229657 C16.825715,12.5559843 16.3998905,11.1999249 15.9051056,9.8919633 L15.905115,9.89218082 Z"/>
        <path fill="#F7E4CD" fill-rule="nonzero" d="M9.10066332,20.0470348 C9.15599698,20.1210391 9.46023056,20.2334406 9.88592063,20.0275201 C9.88592063,20.0275201 9.38139957,19.9429977 9.42337015,19.0979094 L9.21314071,19.1402341 C9.21314071,19.1402341 8.99586463,19.9065015 9.10065794,20.0470389"/>
        <path fill="#1D1919" fill-rule="nonzero" d="M12.7875118 12.7844505C12.7875118 12.6555775 12.6839584 12.5510813 12.5561828 12.5510813 12.428539 12.5510813 12.3249882 12.6555829 12.3249882 12.7844505 12.3249882 12.91331 12.4285417 13.0179827 12.5561828 13.0179827 12.683953 13.0179827 12.7875118 12.9133154 12.7875118 12.7844505M13.018814 11.7073311C13.018814 11.5784581 12.9152605 11.4739618 12.7874849 11.4739618 12.6598411 11.4739618 12.5562904 11.5784635 12.5562904 11.7073311 12.5562904 11.8362042 12.6598438 11.9408633 12.7874849 11.9408633 12.9152552 11.9408633 13.018814 11.8362096 13.018814 11.7073311"/>
      </g>
    </g>
  </g>
</svg>
