<svg xmlns="http://www.w3.org/2000/svg" width="32" height="32" viewBox="0 0 32 32">
  <g fill="none" transform="translate(4 4)">
    <polygon fill="#EE9D5C" points="18.965 7.002 18.965 9.388 21.35 9.388 21.35 21.313 9.425 21.313 9.425 18.928 7.04 18.928 7.04 23.698 23.735 23.698 23.735 7.002"/>
    <path fill="#F4BF75" d="M0.413777888,0.451044969 L17.2716164,0.451044969 L17.2716164,17.3088835 L0.413777888,17.3088835 L0.413777888,0.451044969 L0.413777888,0.451044969 Z M4.84349217,14.5362127 C5.21809491,15.3322494 5.95795081,15.9877804 7.22226484,15.9877804 C8.62708472,15.9877804 9.5916164,15.238563 9.5916164,13.5997058 L9.5916164,8.18661764 L7.99956671,8.18661764 L7.99956671,13.5622599 C7.99956671,14.3676701 7.67178335,14.5737063 7.15669863,14.5737063 C6.61351752,14.5737063 6.38874634,14.1991036 6.13589068,13.7589347 L4.84349217,14.5362484 L4.84349217,14.5362127 Z M10.4439652,14.3676701 C10.9122306,15.2854539 11.858087,15.9878639 13.3377988,15.9878639 C14.8362335,15.9878639 15.9600894,15.2105501 15.9600894,13.7777173 C15.9600894,12.4572104 15.2015106,11.8672576 13.8528596,11.2866067 L13.459522,11.1180283 C12.7758589,10.8277029 12.4855453,10.63104 12.4855453,10.1627747 C12.4855453,9.77879851 12.7758708,9.47911155 13.2441242,9.47911155 C13.6936547,9.47911155 13.9933416,9.67578634 14.2649322,10.1627747 L15.4918241,9.34800298 C14.9767394,8.44894211 14.2462092,8.10238807 13.2442316,8.10238807 C11.8301098,8.10238807 10.9216278,9.00144894 10.9216278,10.1907757 C10.9216278,11.4831384 11.6802067,12.0919334 12.8227856,12.5788502 L13.2161232,12.7474286 C13.9466057,13.0658504 14.3774132,13.2625133 14.3774132,13.8056944 C14.3774132,14.2552248 13.9559791,14.5830082 13.3004124,14.5830082 C12.5230986,14.5830082 12.0735205,14.1803091 11.7363876,13.618393 L10.4439652,14.3676701 Z"/>
  </g>
</svg>
