<svg xmlns="http://www.w3.org/2000/svg" width="32" height="32" viewBox="0 0 32 32">
  <g fill="none" fill-rule="evenodd" transform="translate(6.452 4)">
    <path fill="#78909C" d="M17.3929397,1.58117633 C17.3929397,1.85223513 17.3477632,2.12329393 17.2122338,2.34917627 C17.0767044,2.5750586 16.8508221,2.75576447 16.6249397,2.89129387 C16.3990574,3.02682327 16.1279986,3.07199974 15.8569398,3.02682327 C15.585881,2.9816468 15.3599987,2.89129387 15.1341163,2.710588 C14.908234,2.52988214 14.7727046,2.25882333 14.7275281,1.98776453 C14.6823517,1.71670573 14.6823517,1.44564693 14.7727046,1.17458813 C14.8630575,0.903529334 15.0437634,0.677647 15.2696457,0.5421176 C15.4955281,0.361411734 15.7665869,0.2710588 16.0376457,0.2710588 C16.2183515,0.2710588 16.3990574,0.2710588 16.5797633,0.361411734 C16.7604691,0.4065882 16.8959985,0.496941134 17.0315279,0.632470534 C17.1670573,0.767999934 17.2574103,0.903529334 17.3477632,1.03905873 C17.4381161,1.17458813 17.3929397,1.40047047 17.3929397,1.58117633 L17.3929397,1.58117633 Z"/>
    <path fill="#EE9D5C" d="M9.44188154 17.3477632C5.8277642 17.3477632 2.62023507 16.0376457.993882267 14.1402341 1.6263528 15.8569398 2.80094094 17.3477632 4.29176434 18.3868219 5.78258774 19.4258807 7.58964641 20.0131747 9.44188154 20.0131747 11.2941167 20.0131747 13.0559989 19.4710571 14.5919987 18.3868219 16.0828221 17.3477632 17.2574103 15.8569398 17.8898808 14.1402341 16.263528 16.0376457 13.1011753 17.3477632 9.44188154 17.3477632zM9.44188154 4.8790584C13.0559989 4.8790584 16.263528 6.18917594 17.8898808 8.08658754 17.2574103 6.3698818 16.0828221 4.8790584 14.5919987 3.83999967 13.1011753 2.75576447 11.2941167 2.21364687 9.44188154 2.21364687 7.58964641 2.21364687 5.8277642 2.75576447 4.29176434 3.83999967 2.80094094 4.8790584 1.6263528 6.3698818.993882267 8.08658754 2.66541154 6.14399947 5.8277642 4.8790584 9.44188154 4.8790584z"/>
    <path fill="#6A9FB5" d="M4.4724702,21.0974099 C4.4724702,21.4588217 4.42729374,21.7750569 4.24658787,22.0912922 C4.065882,22.362351 3.7948232,22.5882333 3.47858794,22.7237627 C3.16235267,22.8592921 2.8461174,22.9044686 2.48470567,22.8592921 C2.1684704,22.8141157 1.85223513,22.6785863 1.58117633,22.4527039 C1.31011753,22.2268216 1.12941167,21.9105863 1.0842352,21.5943511 C0.993882267,21.2781158 1.03905873,20.9167041 1.12941167,20.6004688 C1.26494107,20.2842335 1.44564693,20.0131747 1.71670573,19.7872924 C1.98776453,19.6065865 2.3039998,19.4710571 2.66541154,19.4710571 C2.89129387,19.4710571 3.1171762,19.4710571 3.34305854,19.5614101 C3.56894087,19.651763 3.74964674,19.7421159 3.9303526,19.9228218 C4.11105847,20.1035277 4.24658787,20.2390571 4.3369408,20.4649394 C4.38211727,20.6456453 4.42729374,20.8715276 4.4724702,21.0974099 L4.4724702,21.0974099 Z"/>
    <path fill="#343944" d="M1.40047047,4.42729374 C1.2197646,4.42729374 0.993882267,4.38211727 0.858352867,4.29176434 C0.677647,4.2014114 0.5421176,4.02070554 0.496941134,3.83999967 C0.4065882,3.6592938 0.361411734,3.47858794 0.4065882,3.29788207 C0.451764667,3.1171762 0.5421176,2.93647034 0.677647,2.80094094 C0.813176401,2.66541154 0.993882267,2.5750586 1.17458813,2.52988214 C1.355294,2.4395292 1.53599987,2.4395292 1.71670573,2.52988214 C1.8974116,2.62023507 2.07811747,2.710588 2.1684704,2.89129387 C2.3039998,3.02682327 2.34917627,3.2527056 2.34917627,3.43341147 C2.34917627,3.70447027 2.25882333,3.97552907 2.07811747,4.15623494 C1.94258807,4.29176434 1.67152927,4.42729374 1.40047047,4.42729374 Z"/>
  </g>
</svg>
