<svg xmlns="http://www.w3.org/2000/svg" width="32" height="32" viewBox="0 0 32 32">
  <path fill="#2ECC71" d="M27,4 L22,4 C21.734,4 21.48,4.105 21.293,4.293 L13.448,12.138 C8.442,11.198 4,15.113 4,20 C4,24.411 7.589,28 12,28 C16.411,28 20,24.411 20,20 C20,19.236 19.89,18.48 19.671,17.744 L21.707,15.707 C21.895,15.52 22,15.265 22,15 L22,12 L25,12 C25.266,12 25.52,11.895 25.707,11.707 L27.707,9.707 C27.895,9.52 28,9.265 28,9 L28,5 C28,4.448 27.553,4 27,4 Z M11,23 C9.895,23 9,22.105 9,21 C9,19.895 9.895,19 11,19 C12.105,19 13,19.895 13,21 C13,22.105 12.105,23 11,23 Z"/>
</svg>
