<svg xmlns="http://www.w3.org/2000/svg" width="32" height="32" viewBox="0 0 32 32">
  <g fill="none" fill-rule="evenodd">
    <path fill="#6A9FB5" fill-rule="nonzero" d="M14.5993432,3.29942418 C13.9589491,3.04606526 13.3612479,2.89827255 13.3612479,2.47600768 C13.3612479,2.15930902 13.6174056,1.96928983 14.0870279,1.96928983 C14.5566502,1.96928983 14.9835796,2.15930902 15.453202,2.49712092 L16.3070608,1.378119 C15.773399,0.97696737 15.047619,0.554702495 14.0656814,0.554702495 C12.6141215,0.554702495 11.6321839,1.378119 11.6321839,2.53934741 C11.6321839,3.57389635 12.5500821,4.10172745 13.318555,4.39731286 C13.9802956,4.65067179 14.6206897,4.86180422 14.6206897,5.2840691 C14.6206897,5.60076775 14.364532,5.81190019 13.7881773,5.81190019 C13.2545156,5.81190019 12.7208539,5.60076775 12.1444992,5.15738964 L11.2906404,6.38195777 C11.9310345,6.90978887 12.9129721,7.26871401 13.7241379,7.26871401 C15.4318555,7.26871401 16.3497537,6.38195777 16.3497537,5.22072937 C16.3497537,4.05950096 15.4318555,3.57389635 14.5993432,3.29942418 Z M9.43349754,3.29942418 C8.77175698,3.04606526 8.17405583,2.89827255 8.17405583,2.47600768 C8.17405583,2.15930902 8.43021346,1.96928983 8.8998358,1.96928983 C9.36945813,1.96928983 9.79638752,2.15930902 10.2660099,2.49712092 L11.1198686,1.378119 C10.5862069,0.97696737 9.86042693,0.554702495 8.87848933,0.554702495 C7.42692939,0.554702495 6.44499179,1.378119 6.44499179,2.53934741 C6.44499179,3.57389635 7.36288998,4.10172745 8.13136289,4.39731286 C8.79310345,4.65067179 9.43349754,4.86180422 9.43349754,5.2840691 C9.43349754,5.60076775 9.1773399,5.81190019 8.60098522,5.81190019 C8.06732348,5.81190019 7.53366174,5.60076775 6.95730706,5.15738964 L6.12479475,6.38195777 C6.76518883,6.90978887 7.74712644,7.26871401 8.55829228,7.26871401 C10.2660099,7.26871401 11.183908,6.38195777 11.183908,5.22072937 C11.183908,4.05950096 10.2660099,3.57389635 9.43349754,3.29942418 Z M3.136289,0.533589251 C1.57799672,0.533589251 0.0837438424,1.82149712 0.126436782,3.84836852 C0.126436782,5.93857965 1.51395731,7.16314779 3.34975369,7.16314779 C4.1182266,7.16314779 4.97208539,6.88867562 5.63382594,6.4452975 L4.99343186,5.32629559 C4.52380952,5.60076775 4.07553366,5.72744722 3.60591133,5.72744722 C2.75205255,5.72744722 2.09031199,5.32629559 1.91954023,4.35508637 L5.78325123,4.35508637 C5.8045977,4.20729367 5.84729064,3.91170825 5.84729064,3.57389635 C5.86863711,1.86372361 4.92939245,0.533589251 3.136289,0.533589251 Z M1.91954023,3.19385797 C2.04761905,2.34932821 2.55993432,1.94817658 3.15763547,1.94817658 C3.92610837,1.94817658 4.22495895,2.47600768 4.22495895,3.19385797 L1.91954023,3.19385797 Z" transform="translate(9 13)"/>
    <path fill="#7ACCEE" d="M6.78163399 11C6.68201714 11 6.30379322 11 5.64696223 11 4.49425287 11 3.9819376 11.4433781 3.9819376 12.815739 3.9819376 13.7236084 4.11001642 14.2303263 4.11001642 15.0115163 4.11001642 15.4548944 3.83251232 15.9193858 3 15.9616123L3 17.059501C3.83251232 17.0806142 4.11001642 17.5451056 4.11001642 17.9884837 4.11001642 18.7696737 3.9819376 19.2341651 3.9819376 20.1420345 3.9819376 21.5143954 4.49425287 21.9577735 5.62561576 21.9577735L6.45812808 21.9577735 6.45812808 20.9865643 6.20197044 20.9865643C5.6683087 20.9865643 5.49753695 20.7754319 5.49753695 20.0786948 5.49753695 19.3819578 5.56157635 18.7907869 5.56157635 18.0095969 5.56157635 17.0383877 5.24137931 16.6583493 4.60098522 16.5105566L4.60098522 16.4472169C5.24137931 16.2994242 5.56157635 15.9193858 5.56157635 14.9481766 5.56157635 14.1880998 5.49753695 13.5758157 5.49753695 12.8790787 5.49753695 12.1823417 5.64696223 11.9923225 6.20197044 11.9923225 6.58841281 11.9923225 6.78163399 11.9923225 6.78163399 11.9923225 6.78163399 11.6274821 6.78163399 11.226619 6.78163399 11zM27.8899836 15.0115163C27.8899836 14.1880998 28.0180624 13.7024952 28.0180624 12.815739 28.0180624 11.4433781 27.5057471 11 26.3743842 11L25.5418719 11 25.5418719 11.9712092 25.7980296 11.9712092C26.3743842 11.9712092 26.5024631 12.1612284 26.5024631 12.8579655 26.5024631 13.512476 26.4384236 14.1669866 26.4384236 14.9270633 26.4384236 15.8982726 26.7586207 16.2783109 27.3990148 16.4261036L27.3990148 16.4894434C26.7586207 16.6372361 26.4384236 17.0172745 26.4384236 17.9884837 26.4384236 18.7485605 26.5024631 19.3608445 26.5024631 20.0575816 26.5024631 20.7754319 26.3530378 20.9654511 25.7980296 20.9654511L25.7980296 20.9865643 25.5418719 20.9865643 25.5418719 22 26.3743842 22C27.5057471 22 28.0180624 21.5566219 28.0180624 20.184261 28.0180624 19.2763916 27.8899836 18.8119002 27.8899836 17.9884837 27.8899836 17.5451056 28.1674877 17.0806142 29 17.0383877L29 15.940499C28.1674877 15.9193858 27.8899836 15.4548944 27.8899836 15.0115163z"/>
    <path fill="#6A9FB5" d="M8.67816092,18.1573896 L8.67816092,12.0134357 L8.67816092,11.084453 L8.67816092,11 L7.63872404,11 C7.13058476,11 6.84378512,11 6.77832512,11 C6.77832512,11.1575121 6.77832512,11.4882862 6.77832512,11.9923225 C6.77832512,13.3646833 6.77832512,18.0518234 6.77832512,18.0518234 C6.77832512,19.3397313 7.22660099,20.184261 8.52873563,20.184261 C8.93431856,20.184261 9.2545156,20.1209213 9.48932677,20.0364683 L9.27586207,18.6641075 C9.14778325,18.6852207 8.67816092,18.5585413 8.67816092,18.1573896 Z"/>
  </g>
</svg>
