<svg xmlns="http://www.w3.org/2000/svg" width="32" height="32" viewBox="0 0 32 32">
  <g fill="none" fill-rule="evenodd">
    <path fill="#EE9D5C" d="M15.9923906,28 C9.31135067,28 4,22.6886493 4,16.0076094 C4,9.31135067 9.2961319,4 15.9923906,4 C22.7038681,4 28,9.31135067 28,16.0076094 C28,22.6886493 22.6886493,28 15.9923906,28 Z M15.9923906,25.4736842 C21.3189601,25.4736842 25.5041218,21.2885225 25.5041218,16.0076094 C25.5041218,10.6962587 21.3189601,6.52631579 15.9923906,6.52631579 C10.6810399,6.52631579 6.49587825,10.7114775 6.49587825,16.0076094 C6.49587825,21.2885225 10.6810399,25.4736842 15.9923906,25.4736842 Z"/>
    <path fill="#F4BF75" d="M21.5776791,14.379201 L18.7165504,14.379201 C18.4882689,13.192137 17.5294864,12.461636 16.2511097,12.461636 C14.5313887,12.461636 13.4812936,13.785669 13.4812936,15.9771718 C13.4812936,18.214331 14.5313887,19.538364 16.2511097,19.538364 C17.5903614,19.538364 18.4882689,18.8687381 18.7165504,17.7121116 L21.5776791,17.7121116 C21.2885225,20.3906151 19.2492074,22.0342422 16.2358909,22.0342422 C12.6442613,22.0342422 10.4223209,19.7057705 10.4223209,15.9771718 C10.4223209,12.2942295 12.65948,9.96575777 16.2206722,9.96575777 C19.1731135,9.96575777 21.2885225,11.7006975 21.5776791,14.379201 Z"/>
  </g>
</svg>
