<svg xmlns="http://www.w3.org/2000/svg" width="32" height="32" viewBox="0 0 32 32">
  <g fill="none" fill-rule="evenodd" transform="translate(5 5)">
    <circle cx="11.521" cy="11.522" r="10.771" stroke="#42A5F5" stroke-width="1.043"/>
    <path fill="#3965BD" d="M11.6538539,4.88980856 C7.91815423,4.89020571 4.88990312,7.87104113 4.88961043,11.5481391 C4.88990312,15.2252371 7.91815423,18.2060725 11.6538539,18.2064697 C13.4481797,18.2068237 15.1691455,17.5054961 16.4381024,16.2567935 C17.7070592,15.0080909 18.4200438,13.3143175 18.4201843,11.5481391 C18.4200438,9.78196076 17.7070592,8.08818732 16.4381024,6.83948475 C15.1691455,5.59078219 13.4481797,4.88945453 11.6538539,4.88980856 L11.6538539,4.88980856 Z M13.5940974,6.88911278 C14.2389333,6.88881324 14.857455,7.1407844 15.3134809,7.58954939 C15.7695067,8.03831437 16.0256468,8.64707853 16.0255061,9.2818087 C16.0246281,10.6027999 14.9361208,11.6730416 13.5940974,11.6724177 C12.2528888,11.6719075 11.1656531,10.6019977 11.1647756,9.2818087 C11.1644829,7.96080471 12.2520611,6.88962349 13.5940974,6.88911278 Z"/>
    <ellipse cx="19.272" cy="3.71" fill="#3965BD" rx="2.43" ry="2.392"/>
  </g>
</svg>
