<svg xmlns="http://www.w3.org/2000/svg" width="32" height="32" viewBox="0 0 32 32">
  <g fill="none" transform="translate(4 5)">
    <polygon fill="#7ACCEE" points="5.755 10 0 12.009 4.451 15 8 11.661 5.755 10"/>
    <path fill="#6A9FB5" d="M16.909629,0.00221790141 C16.3924504,0.0696882612 16.5326596,0.040529266 15.7903823,0.610774829 C15.0806459,1.15602156 13.0346314,4.40598256 11.9410407,5.49935033 C10.9680843,6.47211105 10.5829688,5.96071296 9.57241515,6.77239954 C8.5603639,7.58529635 7,9.21040922 7,9.21040922 L9.52137907,11 L13.518745,5.72490708 C14.462538,4.47942844 14.4524884,4.31551782 14.9667902,3.0086578 C15.2184079,2.36927781 15.6667134,1.87788634 16.0606568,1.2762126 C16.55281,0.524583714 17.2502899,-0.0419933377 16.9096684,0.00244481966 L16.909629,0.00221790141 Z"/>
    <path fill="#D14748" d="M16.362879,0 C15.1965142,-0.00702240244 14.0475328,5.12627352 12.0521004,9.06444123 C10.0174621,13.0802966 6,15.6686409 6,15.6686409 C6.67731747,15.9765194 7.29375583,15.85201 8.02318612,16.5424406 C8.52211883,17.1461635 9.9663565,20.127092 10.8274304,22 C10.8274304,22 11.534889,21.6154086 12.4312519,20.9656334 C13.3276522,20.3158208 14.4129567,19.4007869 15.1687232,18.3399019 C16.1715873,16.9321115 16.9554432,16.0599926 17.6196672,15.5285417 C18.2838912,14.9970907 18.8284459,14.806345 19.3527449,14.7613758 C21.2267548,14.6005959 24,17.9656938 24,17.9656938 C24,17.9656938 18.1929828,0.0112495155 16.362506,0 L16.362879,0 Z"/>
  </g>
</svg>
