<svg xmlns="http://www.w3.org/2000/svg" width="32" height="32" viewBox="0 0 32 32">
  <path fill="#9DBD58" fill-rule="evenodd" d="M22.9999678,9.75 L22.4999517,9.75 L22.4999517,9.27081836 C22.4999517,9.24377539 22.4883735,9.22046094 22.4839204,9.19458594 C22.8150926,8.86198437 22.9999678,8.42970117 22.9999678,7.9685332 C22.9999678,7.49218164 22.8066082,7.04480469 22.4550454,6.70838477 L21.1738097,5.48004102 C20.5698248,4.90045898 19.5775738,4.82319336 18.8655419,5.24208984 C18.5794635,4.51821875 17.8540252,4 16.9999619,4 L14.9999443,4 C14.145881,4 13.4204897,4.51821875 13.1344113,5.24213477 C12.4223793,4.82319336 11.4301283,4.90050391 10.8261434,5.48008594 L9.54490776,6.70842969 C9.19334492,7.04489453 8.99998535,7.49222656 8.99998535,7.96857812 C8.99998535,8.42974609 9.18486053,8.8620293 9.51603273,9.19463086 C9.5115796,9.22050586 9.5,9.24382031 9.5,9.27086328 L9.5,9.75 L8.99998535,9.75 C8.44821919,9.75 8,10.1800371 8,10.7083184 L8,25.0833184 C8,26.1404199 8.89742275,27 9.9999707,27 C11.1025187,27 11.9999883,26.1404199 11.9999883,25.0833184 L11.9999883,10.7083184 C11.9999883,10.1800371 11.5517222,9.75 11,9.75 L10.8593778,9.75 L10.4999868,9.75 L10.4999868,9.71635352 C10.6171744,9.73823047 10.7373152,9.75 10.8593778,9.75 C11.3564408,9.75 11.8232694,9.56469727 12.1738478,9.22823242 L13.4550835,7.99988867 C13.6179274,7.84405469 13.7427556,7.66257031 13.8342557,7.46725 C14.1633185,7.69513867 14.5640533,7.83327344 15.0000381,7.83327344 L17.0000557,7.83327344 C17.4360405,7.83327344 17.8367752,7.69509375 18.1658381,7.46725 C18.2573381,7.66257031 18.3821664,7.84405469 18.5450103,7.99988867 L19.8262459,9.22823242 C20.1768244,9.56469727 20.643653,9.75 21.140716,9.75 C21.2627786,9.75 21.3829193,9.73823047 21.5001069,9.71635352 L21.5001069,9.75 L21.140716,9.75 L21.0000908,9.75 C20.4483247,9.75 20.0001055,10.1800371 20.0001055,10.7083184 L20.0001055,25.0833184 C19.9999648,26.1404199 20.8974345,27 21.9999824,27 C23.1025304,27 24,26.1404199 24,25.0833184 L24,10.7083184 C24,10.1800371 23.5517339,9.75 22.9999678,9.75 Z M10.9999561,10.7083184 L10.9999561,12.625 L8.99993848,12.625 L8.99993848,10.7083184 L10.9999561,10.7083184 Z M12.7480203,7.32233203 L11.4667846,8.55067578 C11.1425499,8.86140039 10.5761588,8.86140039 10.2519241,8.55067578 C10.0898302,8.3948418 9.9999707,8.18802148 9.9999707,7.96857813 C9.9999707,7.74864063 10.0898302,7.54182031 10.2519241,7.38598633 L11.5331597,6.15764258 C11.6952536,6.00230273 11.9111132,5.91663672 12.1405665,5.91663672 C12.3199105,5.91663672 12.4827075,5.98253711 12.6262389,6.07947852 C12.4954575,6.22156641 12.4591294,6.43009375 12.5526919,6.61014063 C12.6360827,6.76952344 12.8009891,6.85855859 12.9734892,6.86790234 C12.9449892,7.03761719 12.877161,7.19816797 12.7480203,7.32233203 Z M17.7763533,6.34528125 L17.8552909,6.38306055 C17.682697,6.67145898 17.371306,6.875 16.9999619,6.875 L14.9999443,6.875 C14.6286002,6.875 14.3172093,6.67145898 14.1446623,6.38306055 L14.2235998,6.34528125 C14.4706782,6.22691211 14.5702877,5.93909766 14.4472407,5.70231445 C14.3819906,5.57747656 14.2673811,5.49535937 14.1380529,5.45969141 C14.3089593,5.16572266 14.6243815,4.95831836 14.9999912,4.95831836 L17.0000088,4.95831836 C17.375806,4.95831836 17.6914157,5.16590234 17.8622753,5.46005078 C17.7331345,5.49567383 17.6184781,5.57752148 17.5527593,5.70231445 C17.4296655,5.93914258 17.5292749,6.22691211 17.7763533,6.34528125 Z M20.5331685,8.55067578 L19.2519329,7.32233203 C19.1227921,7.19816797 19.0549639,7.03757227 19.0264639,6.86790234 C19.1989641,6.85855859 19.3638705,6.76952344 19.4472612,6.61014063 C19.5408238,6.43009375 19.5044956,6.22156641 19.3737142,6.07947852 C19.5171987,5.98253711 19.6800427,5.91663672 19.8593866,5.91663672 C20.0888868,5.91663672 20.3046995,6.00225781 20.4667934,6.15764258 L21.7480291,7.38598633 C21.910123,7.54182031 21.9999824,7.74864063 21.9999824,7.96857813 C21.9999824,8.18802148 21.910123,8.39488672 21.7480291,8.55067578 C21.4237944,8.86140039 20.8574032,8.86140039 20.5331685,8.55067578 Z M22.9999678,12.625 L20.9999502,12.625 L20.9999502,10.7083184 L22.9999678,10.7083184 L22.9999678,12.625 Z"/>
</svg>
