<svg xmlns="http://www.w3.org/2000/svg" width="32" height="32" viewBox="0 0 32 32">
  <path fill="#F4BF75" d="M12.2705906,19.2738336 L12.2706802,19.2739933 C12.3382647,19.4223229 12.4410354,19.7598411 12.5227782,19.9322998 C12.5710119,20.0347018 12.6962205,20.3499316 12.787078,20.6221202 L9.85578936,20.7140315 C7.99938423,20.8146182 8.34291477,20.3527853 7.15348529,20.2706767 L5.87713845,20.3617348 C5.95901924,20.1655535 6.03445333,19.3332417 6.06095318,19.253974 C6.20088817,18.8373044 6.38651256,18.494391 6.67213402,18.1719182 C6.95059927,17.8578321 6.93615246,17.4528349 7.09880135,17.0870304 C7.27491159,16.6892764 7.51172603,16.3711966 7.73522782,15.997314 C8.13912212,15.3212174 8.4055182,14.4678788 9.26431768,14.2941475 C9.35601899,14.2751048 9.88180544,14.659244 10.115126,14.8875201 C10.3823642,15.147782 10.674289,15.4492154 10.8498295,15.808049 C11.1896869,16.5033153 11.4781143,17.5109069 11.5870593,18.0664846 C11.6497344,18.3855447 11.699509,18.4045873 11.9126366,18.6572976 C12.0107702,18.7732237 12.2062331,19.1349038 12.2705906,19.2738336 Z M15.9861243,13.1244482 L15.9857337,13.1243955 C16.8652637,12.4818278 17.268108,11.431311 17.2682442,11.4314493 C17.4133573,11.1034215 17.4127839,10.5180182 17.7239198,10.2557775 C18.09051,9.94637859 18.7061882,9.96853998 19.127104,9.77860339 C19.3733072,9.66822487 19.5509583,9.60742447 19.8026442,9.66027015 C19.9893974,9.69976237 20.3256391,9.91895642 20.4028954,9.61126023 C20.3405016,9.57035026 20.3161035,9.49576978 20.2827341,9.45443139 C20.6296259,9.41963177 20.2891807,8.60393916 20.1520552,8.44113974 C19.9400385,8.18970022 19.586295,8.07449477 19.2099577,7.97335077 C18.7630974,7.8534491 18.3574651,7.71480066 17.9365493,7.79847223 C17.2015592,7.94424217 17.2566731,7.51806026 16.8234122,7.51806026 C16.3036997,7.51806026 15.3790036,7.54392852 15.2190154,8.0559023 C15.1445686,8.29497951 15.0678713,8.3049456 14.9388767,8.4883289 C14.8285287,8.64544456 14.9580842,8.78410572 14.9027015,8.96337914 C14.8455037,9.14761563 14.7615122,9.7965369 14.6738782,10.0229795 C14.5256654,10.4061203 14.3489997,10.8845651 14.0228669,10.8845651 C13.5654892,10.9401102 13.206263,10.9578658 12.8354084,10.8213504 C12.6121933,10.7390984 12.2380956,10.610681 12.0530267,10.5316984 C11.1995594,10.1676004 11.0592016,9.76928355 11.0592016,9.76928355 C10.9675182,9.61587114 10.7262029,9.36853423 10.6360461,9.04578907 C10.5367836,8.69035005 10.3692289,8.39389068 10.3013667,8.20892806 C10.2310946,8.01728507 10.0631332,7.71029685 9.931193,7.37845696 C9.76237514,6.95356392 9.52457883,6.63648981 9.35057926,6.47909459 C9.08473862,6.23887372 8.83935967,5.8673982 8.29968722,5.97536234 C8.20321987,5.99467731 7.85268363,6.01074287 7.58404787,6.23901895 C7.40191738,6.39384731 7.34442399,6.71348828 7.17574589,6.98282683 C7.078311,7.13865361 6.90697396,7.58514892 6.74979525,7.95776083 C6.64071047,8.21602594 6.58996119,8.40964218 6.47218287,8.50467946 C6.37992612,8.57911834 6.26579937,8.67529019 6.12782813,8.6228711 C6.04230833,8.59034062 5.95060701,8.53536557 5.85820692,8.46206308 C5.73343006,8.363328 5.44964513,7.87437244 5.27549685,7.51297919 C5.12461432,7.19972813 4.80226216,6.73124934 4.61565232,6.47766775 C4.34741074,6.11301055 4.18995253,6.02038946 3.7934402,6.02038946 C2.94277524,6.02038946 2.87841589,6.50295511 2.50419283,7.20472025 C2.33987224,7.51283396 2.27999225,8.00209813 1.95007894,8.38563825 C1.76149818,8.60496482 1.15970607,9.50689586 0.741316584,9.66017213 L0.741316584,3.1956477 C0.741316584,1.55953904 2.05068521,0.232869259 3.66543821,0.232869259 L21.0284854,0.232869259 C22.6438655,0.232869259 23.952607,1.55937566 23.952607,3.1956477 L23.952607,20.606169 C21.8706038,21.0914394 20.6124431,19.9074173 18.2942884,20.1281598 C17.3783503,20.2151026 15.9520347,20.1356915 14.9265316,20.2898246 C14.3672217,20.3736378 13.9359317,20.530463 13.5054838,20.6037655 C13.5023984,20.598374 13.4997341,20.5919841 13.4972113,20.5860117 C13.1486639,19.8780926 12.9257157,19.0583137 12.8107415,18.2740243 C12.7814376,18.0717254 12.8385027,17.8704431 12.7782124,17.6806517 C12.7267536,17.515024 12.6087047,17.4996755 12.5311671,17.3651497 C12.3268907,17.0118527 12.1157304,16.5541388 12.0962399,16.1215851 C12.0784389,15.733071 11.9373859,15.3820432 11.9181766,14.9969238 C11.9089223,14.8112532 11.9305146,14.6194831 11.9239246,14.4355189 C11.9202784,14.3460075 11.9153708,14.2685915 11.897844,14.1712814 C11.8934972,14.1472757 11.8779323,14.0482556 11.870502,14.0086218 L11.9181731,13.8881574 C11.8970126,13.8466774 12.3250739,13.860452 12.4526674,13.8614504 C12.6693068,13.8642914 12.8730278,13.8755137 13.0890938,13.8860262 C13.5304893,13.9083292 13.9326098,13.9027888 14.3625022,13.8354533 C15.3204029,13.6855626 15.7608129,13.2892372 15.9861243,13.1244482 Z M6.25929893,14.6162754 L6.25930073,14.6161411 C6.43890486,14.6343233 7.1117861,14.6569113 7.15328999,14.7059212 C6.81131827,14.8826605 6.6108063,15.3787139 6.4823725,15.7297417 C6.34845777,16.0955462 6.25508118,16.5026854 6.09327799,16.8605207 C5.91381719,17.2560056 5.53790809,17.4205096 5.58277509,17.8810554 C5.59988084,18.0648744 5.63311047,18.257661 5.60268491,18.4599418 C5.57043716,18.6728784 5.48547279,18.839107 5.4236398,19.0476324 C5.34428358,19.3196758 5.24977999,20.1987248 5.12737539,20.4566994 L4.97734574,20.476873 C3.37785837,20.6622532 2.97993057,20.624894 1.34906982,20.1840806 C1.12809438,20.124275 0.930680335,20.084073 0.741956235,20.0513991 L0.741956235,16.0578838 C0.769016903,15.9740652 0.797901562,15.8936648 0.830430624,15.8217837 C0.992224854,15.4724623 1.36772006,15.1481378 1.5763504,14.7895946 C1.68978553,14.5941213 1.81933559,14.4026236 1.89434863,14.1974928 C1.95898927,14.0207717 1.99067801,13.7572512 2.08405818,13.603975 C2.19847878,13.416037 2.37767081,13.3521125 2.56162888,13.3217114 C2.8497767,13.273551 3.0945823,13.7413527 3.46319722,13.9135228 C3.62036875,13.98668 4.34385593,14.2462249 4.5610508,14.2994954 C4.91873609,14.3862839 5.3155351,14.4585916 5.6786852,14.5327455 C5.87316079,14.5725227 6.05908977,14.595677 6.25929893,14.6162754 Z" transform="translate(4 5)"/>
</svg>
