<svg xmlns="http://www.w3.org/2000/svg" width="32" height="32" viewBox="0 0 32 32">
  <path fill="#8251A8" d="M9.64285714,15.6 C8.35714286,15.6 5.78571429,16.9 5.78571429,18.2 C5.78571429,20.8 9.64285714,20.8 9.64285714,20.8 L9.64285714,19.5 C8.93277675,19.5 8.35714286,18.9179702 8.35714286,18.2 C8.35714286,17.4820298 8.93277675,16.9 9.64285714,16.9 L9.64285714,15.6 L9.64285714,15.6 Z M9.64285714,22.1 C9.64285714,22.1 4.5,21.45 4.5,18.85 C4.5,14.95 8.35714286,13.975 9.64285714,13.975 L9.64285714,12.35 C8.35714286,12.35 3.21428571,14.3 3.21428571,18.2 C3.21428571,23.4 9.64285714,23.4 9.64285714,23.4 L9.64285714,22.1 L9.64285714,22.1 Z M7.16142857,6.539 L8.69142857,7.228 C9.24428571,4.056 10.7228571,1.95 10.7228571,1.95 C10.17,3.289 9.81,4.394 9.57857143,5.265 C11.1342857,2.015 14.2842857,0 14.2842857,0 C12.7671429,1.534 11.6485714,3.198 10.89,4.589 C12.9214286,2.405 15.7371429,0.975 15.7371429,0.975 C12.2785714,3.211 10.7228571,6.76 10.3371429,7.748 L11.0442857,7.852 C11.0442857,8.528 11.0442857,9.152 11.3657143,9.646 C12.3428571,12.103 17.3571429,12.311 17.3571429,18.2 C17.3571429,24.089 12.1757143,26 9.42428571,26 C6.67285714,26 0.642857143,24.739 0.642857143,18.2 C0.642857143,11.661 7.00714286,11.609 8.13857143,8.996 C8.29285714,8.502 7.16142857,6.539 7.16142857,6.539 Z" transform="translate(7 1)"/>
</svg>
