<svg xmlns="http://www.w3.org/2000/svg" width="32" height="32" viewBox="0 0 32 32">
  <g fill="#D14748" fill-rule="evenodd" stroke="#D14748" stroke-width=".5" transform="translate(4 4)">
    <path d="M4.80412932,10.0667639 C4.83608832,10.0908839 4.89156432,10.1065619 4.83608832,10.1541989 C4.79629032,10.2096749 4.74865332,10.2573119 4.71699582,10.3209284 C4.68533832,10.3767059 4.66151982,10.3923839 4.61388282,10.3528874 C4.67719782,10.2494729 4.74051282,10.1538974 4.80382782,10.0664624 L4.80412932,10.0667639 Z M20.7519718,18.3932894 C20.7519718,18.4168064 20.7598108,18.4324844 20.7598108,18.4566044 C20.7757903,18.4249469 20.7757903,18.4089674 20.7839308,18.3932894 L20.7519718,18.3932894 Z M20.7519718,18.4644434 L20.7519718,18.4566044 L20.7519718,18.4644434 Z M19.1335198,21.5629589 L17.7526498,13.9042559 C17.7291328,13.8967184 17.6974753,13.8810404 17.6416978,13.8650609 C17.6576773,13.8967184 17.6658178,13.9205369 17.6736568,13.9443554 C17.7128518,13.9365164 17.7291328,13.9365164 17.7448108,13.9286774 C17.7448108,13.9208384 17.7448108,13.9129994 17.7529513,13.9045574 L19.1338213,21.5638634 L19.1335198,21.5629589 Z M17.7053143,12.1802789 C17.6974753,12.2037959 17.6974753,12.2279159 17.6974753,12.2517344 C17.6974753,12.2276144 17.6974753,12.2034944 17.7059173,12.1799774 L17.7053143,12.1802789 Z M17.7131533,12.3388679 C17.7053143,12.3388679 17.7053143,12.3388679 17.6974753,12.3304259 L17.6974753,12.3382649 C17.7059173,12.3461039 17.7059173,12.3461039 17.7137563,12.3382649 L17.7131533,12.3388679 Z M17.6974753,12.4021829 L17.6974753,12.3464054 C17.6742598,12.3542444 17.6504413,12.3542444 17.6184823,12.3623849 C17.6582803,12.3774599 17.6980783,12.3859019 17.6980783,12.4015799 L17.6974753,12.4021829 Z"/>
    <path d="M23.8779238,10.4719799 C23.8622458,10.1620379 23.8544068,9.85209591 23.8224478,9.54245541 C23.7669718,9.12125991 23.7114958,8.69222541 23.6162218,8.27917041 C23.5447663,7.93757091 23.4262768,7.61164941 23.3068828,7.28602941 C23.1561328,6.90463191 23.0053828,6.51539541 22.8148348,6.14997741 C22.5054958,5.56205241 22.1008828,5.03744241 21.7279273,4.48931541 C21.4813003,4.13957541 21.1641223,3.85375341 20.9259373,3.49617441 C20.7911668,3.28964691 20.5927798,3.11507841 20.3943928,2.95648941 C20.0769133,2.70172191 19.7437558,2.47107441 19.4105983,2.24886891 C19.1591651,2.07256287 18.8995891,1.9081647 18.6327283,1.75621791 C18.4186633,1.63652241 18.1886188,1.54124841 17.9664133,1.43783391 C17.7125503,1.31874141 17.4665263,1.17552891 17.1810058,1.12005291 C17.1092488,1.10497791 17.0459338,1.08085791 16.9744783,1.05673791 C16.7920708,0.993422912 16.6175023,0.921967412 16.4347933,0.866189912 C16.1574133,0.778754912 15.8875708,0.675641912 15.6017488,0.603884912 C15.3249718,0.532429412 15.0391498,0.485093912 14.7533278,0.444994412 C14.4361498,0.398261912 14.1111328,0.381679412 13.7933518,0.350624912 C13.5905134,0.324417484 13.3867539,0.305912185 13.1825128,0.295148912 C12.8810128,0.279169412 12.5716738,0.279169412 12.2701738,0.271330412 C12.1194238,0.263189912 11.9608348,0.247210412 11.8100848,0.255350912 C11.5800403,0.263189912 11.3499958,0.287008412 11.1196498,0.318665912 C10.8977458,0.342785912 10.6755403,0.381980912 10.4614753,0.414241412 C10.2000748,0.445898912 9.93837282,0.461878412 9.67636932,0.493837412 C9.43034532,0.525796412 9.17648232,0.573433412 8.93075982,0.613231412 C8.84332482,0.629210912 8.75588982,0.660868412 8.66845482,0.676546412 C8.47850982,0.716344412 8.28012282,0.732323912 8.08957482,0.795940412 C7.74887982,0.899656412 7.40728032,1.01905041 7.07412282,1.14568041 C6.76448232,1.27291341 6.46298232,1.40798541 6.16962282,1.56687591 C5.86812282,1.73330391 5.58230082,1.93169091 5.29678032,2.12284191 C5.02253799,2.30635722 4.75503263,2.49974549 4.49479032,2.70262641 C4.24153032,2.90161641 4.00334532,3.12382191 3.77299932,3.34632891 C3.64636932,3.47295891 3.54295482,3.62431191 3.42386232,3.76722291 C3.22577682,3.99787041 3.02738982,4.22007591 2.83684182,4.45856241 C2.67885582,4.65755241 2.53534182,4.86377841 2.38459182,5.07060741 C2.11535232,5.43542241 1.88530782,5.82496041 1.67124282,6.21449841 C1.58380782,6.37338891 1.50451332,6.53227941 1.42521882,6.69086841 C1.30612632,6.92905341 1.17919482,7.15970091 1.06824282,7.40602641 C0.988646824,7.57305741 0.925331824,7.75576641 0.877694824,7.93847541 C0.767044324,8.32801341 0.655790824,8.72539041 0.552677824,9.11432541 C0.457403824,9.46406541 0.433585324,9.82948341 0.426047824,10.1870624 C0.417907324,10.5048434 0.449564824,10.8147854 0.481222324,11.1325664 C0.489362824,11.2121624 0.442027324,11.3074364 0.536698324,11.3707514 C0.505040824,11.4581864 0.528859324,11.5064264 0.575893324,11.5215014 C0.521020324,11.6089364 0.600013324,11.6650154 0.568657324,11.7446114 C0.560516824,11.7602894 0.592777324,11.7919469 0.607852324,11.8157654 C0.607852324,11.8398854 0.600314824,11.8715429 0.607852324,11.8953614 C0.616294324,11.9668169 0.647951824,12.0382724 0.647951824,12.1178684 C0.647951824,12.1733444 0.695287324,12.2369609 0.711266824,12.2927384 C0.719105824,12.3162554 0.711266824,12.3560534 0.695287324,12.3720329 C0.647650324,12.4275089 0.655489324,12.4751459 0.726944824,12.5071049 C0.767044324,12.6102179 0.751064824,12.6578549 0.743225824,12.7060949 C0.758903824,12.7772489 0.735085324,12.8010674 0.743225824,12.8170469 C0.806540824,12.9442799 0.830660824,13.0871909 0.838198324,13.2301019 C0.838198324,13.2620609 0.854177824,13.2940199 0.870157324,13.3335164 C0.877996324,13.3335164 0.870157324,13.4842664 0.870157324,13.4842664 C0.909352324,13.4607494 0.941612824,13.4529104 0.981109324,13.4369309 C1.00522932,13.5400439 1.02874632,13.6359209 1.06040382,13.7233559 C1.10020182,13.7866709 1.10020182,13.8180269 1.08452382,13.8258659 C1.11618132,13.9687769 1.13185932,14.1038489 1.18703382,14.2389209 C1.18703382,14.0881709 1.17195882,13.9374209 1.14783882,13.7942084 C1.25879082,13.8340064 1.35406482,13.8735029 1.41768132,13.8735029 C1.42582182,13.8493829 1.43366082,13.8180269 1.44180132,13.8020474 C1.39416432,13.7547119 1.35436632,13.6832564 1.30672932,13.6356194 C1.32270882,13.6989344 1.30672932,13.7230544 1.30672932,13.7471744 C1.27507182,13.7308934 1.23527382,13.7149139 1.19577732,13.6989344 C1.22743482,13.6597394 1.25909232,13.6196399 1.30672932,13.5723044 C1.30672932,13.5005474 1.26753432,13.4366294 1.15597932,13.4447699 C1.20361632,13.4290919 1.25125332,13.4055749 1.30672932,13.3892939 C1.39416432,13.3419584 1.29889032,13.2545234 1.29889032,13.1432699 C1.30672932,13.0084994 1.22743482,12.8734274 1.20361632,12.7302149 C1.16381832,12.5080094 1.17195882,12.1742489 1.14814032,11.9517419 C1.10050332,11.9119439 1.06070532,12.0150569 1.05286632,12.0231974 C1.07698632,12.2137454 1.10050332,12.4042934 1.11618132,12.5951429 C1.06884582,12.4362524 1.03688682,12.2613824 0.997390324,12.0705329 C0.989249824,12.1263104 0.981410824,12.1501289 0.981410824,12.1820879 C0.942215824,12.2212829 0.973571824,12.2695229 0.997390324,12.3249989 C0.941914324,12.3008789 0.878297824,12.3093209 0.878297824,12.3093209 L0.878297824,12.5318279 C0.799304824,12.4522319 0.775787824,12.3889169 0.735688324,12.3328379 C0.720010324,12.2695229 0.711568324,12.2062079 0.696493324,12.1428929 C0.711568324,12.1027934 0.696493324,12.0789749 0.696493324,12.0554579 C0.687179048,11.9919082 0.679137438,11.9281784 0.672373324,11.8643069 C0.680212324,11.8564679 0.664534324,11.7376769 0.664534324,11.7376769 C0.727849324,11.7452144 0.767948824,11.7527519 0.807445324,11.7527519 C0.728150824,11.6502419 0.783325324,11.5863239 0.815585824,11.5227074 C0.831565324,11.4907484 0.887041324,11.4835124 0.903020824,11.4509504 C0.966335824,11.3318579 1.06975032,11.2368854 1.06975032,11.0855324 C1.06975032,11.0140769 1.09387032,10.9347824 1.10140782,10.8630254 C1.11738732,10.7279534 1.13306532,10.5928814 1.14060282,10.4578094 C1.15688382,10.2829394 1.14060282,10.1080694 1.18070232,9.94133991 C1.24462032,9.66395991 1.32391482,9.38567541 1.41104832,9.10739091 C1.47436332,8.90840091 1.54612032,8.71845591 1.62511332,8.51946591 C1.74420582,8.20952391 1.85545932,7.89958191 2.00620932,7.60592091 C2.22027432,7.17658491 2.46629832,6.76352991 2.70448332,6.34263591 C2.85523332,6.08033091 3.01382232,5.83400541 3.18085332,5.57984091 C3.33914082,5.33351541 3.49742832,5.07935091 3.68043882,4.84870341 C3.93166563,4.52336438 4.21333471,4.22271545 4.52162382,3.95083641 C4.83910332,3.66501441 5.14060332,3.37105191 5.48159982,3.10874691 C5.92542532,2.76656292 6.39803095,2.46342954 6.89412732,2.20273941 C7.29904182,1.98867441 7.71933282,1.82104041 8.13992532,1.66214991 C8.40976782,1.55903691 8.70312732,1.51139991 8.98111032,1.42396491 C9.29828832,1.32055041 9.61576782,1.27321491 9.94892532,1.26507441 C10.1629903,1.25693391 10.3695178,1.23311541 10.5835828,1.20929691 C10.7741308,1.19422191 10.9643773,1.17794091 11.1709048,1.15412241 C11.1467848,1.18577991 11.1389458,1.20175941 11.1311068,1.21743741 C11.0442748,1.34467041 10.9490008,1.47190341 10.8615658,1.59883491 C10.7901103,1.70224941 10.7108158,1.81350291 10.6393603,1.91661591 C10.5121273,2.08394841 10.3770553,2.25067791 10.2582643,2.42554791 C10.0758568,2.68785291 9.90912732,2.95799691 9.71857932,3.22000041 C9.52863432,3.47416491 9.32210682,3.71265141 9.12371982,3.95867541 C8.86201782,4.30057641 8.61599382,4.65001491 8.35429182,4.99161441 C8.11610682,5.31723441 7.86284682,5.62777941 7.63250082,5.95339941 C7.42627482,6.23891991 7.24356582,6.54132441 7.04517882,6.83468391 C6.75181932,7.27185891 6.45815832,7.70059191 6.16479882,8.13776691 C5.93449509,8.47053272 5.70173071,8.80158879 5.46652482,9.13090791 C5.45054532,9.15502791 5.42672682,9.16226391 5.40320982,9.17824341 C5.33989482,9.28135641 5.33989482,9.33713391 5.31577482,9.38477091 C5.25245982,9.50386341 5.18914482,9.62295591 5.11738782,9.73451091 C5.07758982,9.79782591 5.02211382,9.85330191 4.97447682,9.91691841 C4.96663782,9.82164441 5.10110682,9.77400741 5.03779182,9.65461341 C4.99859682,9.71853141 4.95849732,9.77400741 4.91900082,9.83762391 L4.82372682,10.0275689 C4.85538432,10.0516889 4.91116182,10.0676684 4.85538432,10.1150039 C4.83126432,10.1551034 4.80774732,10.2024389 4.78392882,10.2425384 C4.81827153,10.2223478 4.84804552,10.1952432 4.87136382,10.1629424 C4.87136382,10.2503774 4.82372682,10.3215314 4.78392882,10.3929869 C4.75227132,10.4563019 4.67297682,10.5045419 4.61750082,10.5518774 C4.62533982,10.5600179 4.68081582,10.5838364 4.68895632,10.5916754 C4.76041182,10.5675554 4.78423032,10.5283604 4.79237082,10.5518774 C4.81649082,10.5202199 4.84000782,10.4964014 4.84784682,10.4725829 C4.87920282,10.3929869 4.92683982,10.3296719 5.00613432,10.2977129 C5.03809332,10.2817334 5.06161032,10.2579149 5.08542882,10.2343979 C5.32361382,9.98777091 5.56963782,9.74958591 5.78370282,9.48728091 C6.11716182,9.08176341 6.41866182,8.66117091 6.73644282,8.24811591 C6.87091182,8.07324591 7.02980232,7.89837591 7.17241182,7.73134491 C7.19592882,7.91405391 7.18025082,8.08862241 7.17241182,8.25595491 C7.14829182,8.54961591 7.13261382,8.84387991 7.10909682,9.14537991 C7.10095632,9.26447241 7.10909682,9.38356491 7.10095632,9.50295891 C7.10095632,9.53461641 7.07683632,9.55843491 7.07683632,9.59039391 C7.07683632,9.66968841 7.10095632,9.75712341 7.10095632,9.83671941 C7.07683632,10.1306819 7.04487732,10.4165039 7.02105882,10.7104664 C7.01291832,10.7737814 7.04457582,10.8376994 7.06025382,10.8934769 C7.02105882,11.3222099 7.10849382,11.7753644 7.03673682,12.2282174 C7.09221282,12.1407824 7.10819232,12.0853064 7.10819232,12.0298304 C7.11572982,11.9821934 7.10819232,11.9345564 7.10819232,11.8790804 L7.10819232,11.7994844 C7.11572982,11.6562719 7.14738732,11.5055219 7.13170932,11.3623094 C7.11572982,11.2034189 7.11572982,11.0526689 7.14768882,10.9016174 C7.16366832,10.8383024 7.13984982,10.7587064 7.17964782,10.6791104 L7.17964782,10.7982029 C7.17180882,11.2504529 7.18778832,11.7036074 7.12447332,12.1564604 C7.11633282,12.1962584 7.14859332,12.2680154 7.06115832,12.2598749 C6.98940132,12.4027859 7.07683632,12.5062004 6.99784332,12.5854949 C6.98156232,12.6014744 7.01291832,12.6729299 7.02105882,12.7205669 C6.98909982,12.8161424 6.98909982,12.8161424 7.03673682,12.8239814 C7.04457582,12.9988514 7.06085682,13.1574404 7.06839432,13.3244714 C7.19502432,13.0229714 7.13170932,12.7124264 7.18778832,12.4024844 C7.19562732,12.5297174 7.20376782,12.6569504 7.19562732,12.7914194 C7.19562732,12.9985499 7.18778832,13.1969369 7.17994932,13.4034644 C7.17994932,13.4432624 7.17180882,13.4830604 7.16396982,13.5228584 C7.13984982,13.6344134 7.13231232,13.7453654 7.09251432,13.8484784 C7.06085682,13.9280744 7.07683632,14.0474684 7.07683632,14.1424409 L7.07683632,14.4448454 C7.10849382,14.5799174 7.06869582,14.6513729 7.09251432,14.7306674 C7.06839432,14.8105649 7.06085682,14.8343834 7.06839432,14.8582019 L7.09251432,14.9772944 C7.25140482,14.9613149 7.17994932,15.0807089 7.24326432,15.1440239 C7.19562732,15.2079419 7.21160682,15.2314589 7.21160682,15.2637194 C7.21160682,15.3351749 7.20406932,15.3987914 7.19592882,15.4702469 C7.19592882,15.6529559 7.18808982,15.8356649 7.18808982,16.0105349 C7.18808982,16.0346549 7.19592882,16.0578704 7.19592882,16.0816889 C7.19592882,16.0979699 7.18808982,16.3047989 7.18808982,16.3047989 C7.20406932,16.3283159 7.18808982,16.3521344 7.16396982,16.3759529 C7.15643232,16.3759529 7.13261382,15.3668324 7.13261382,15.3668324 L7.01352132,15.3668324 C6.99784332,15.8432024 7.03764132,16.2722369 6.95020632,16.7175524 C6.85493232,16.7250899 6.82357632,16.7410694 6.71986032,16.7410694 C6.47383632,16.7410694 6.22781232,16.7410694 5.98178832,16.7489084 C5.68812732,16.7489084 5.40290832,16.7567474 5.10894582,16.7567474 C4.96663782,16.7567474 4.81588782,16.7730284 4.67297682,16.7730284 C4.48242882,16.7730284 4.28404182,16.7489084 4.09409682,16.7489084 C3.80013432,16.7489084 3.51461382,16.7730284 3.22095282,16.7808674 C3.00688782,16.7887064 2.79282282,16.7887064 2.57875782,16.7968469 C2.43554532,16.8043844 2.29233282,16.8119219 2.15002482,16.8282029 C2.08670982,16.8360419 2.03093232,16.8598604 1.95163782,16.8836789 C1.92751782,16.8836789 1.87234332,16.8758399 1.82500782,16.8836789 C1.74511032,16.8996584 1.67425782,16.9469939 1.59436032,16.9632749 C1.47526782,16.9873949 1.44361032,17.0187509 1.45928832,17.1381449 L1.45928832,17.2174394 C1.45144932,17.2331174 1.63415832,17.1933194 1.63415832,17.1933194 C1.61787732,17.1933194 1.61003832,17.2409564 1.58591832,17.2807544 C1.64983632,17.2566344 1.68933282,17.2409564 1.72913082,17.2252784 C1.84822332,17.2810559 1.95133632,17.2493984 2.04630882,17.2735184 C2.35564782,17.3525114 2.67282582,17.3850734 2.99000382,17.4161279 C3.19653132,17.4321074 3.39491832,17.4402479 3.60114432,17.4477854 C3.89450382,17.4637649 4.18816482,17.4797444 4.48152432,17.4797444 C4.72754832,17.4797444 4.96573332,17.4556244 5.21115432,17.4556244 C5.55184932,17.4556244 5.89375032,17.4713024 6.23474682,17.4797444 C6.30620232,17.4797444 6.38549682,17.4713024 6.46479132,17.4713024 L7.04367132,17.4713024 C7.55983932,17.4556244 8.07540432,17.4471824 8.59127082,17.4321074 C8.88523332,17.4236654 9.18673332,17.4079874 9.48009282,17.3998469 L10.3845928,17.3757269 C10.7337298,17.3678879 11.0828668,17.3678879 11.4241648,17.3606519 C11.6858668,17.3606519 11.9397298,17.3516069 12.2020348,17.3440694 C12.4950928,17.3362304 12.7965928,17.3124119 13.0902538,17.2967339 C13.2491443,17.2885934 13.4080348,17.2726139 13.5666238,17.2569359 C13.7571718,17.2412579 13.9555588,17.2177409 14.1455038,17.2096004 C14.4313258,17.1933194 14.7249868,17.1854804 15.0108088,17.1695009 C15.3677848,17.1459839 15.7247608,17.1143264 16.0895758,17.1061859 C16.4230348,17.0905079 16.7640313,17.0983469 17.0974903,17.0905079 C17.3911513,17.0823674 17.6848123,17.0663879 17.9863123,17.0585489 L18.4868023,17.0344289 C18.4868023,17.0344289 18.8196583,17.0265899 18.9863878,17.0103089 C19.2719083,16.9946309 19.5574288,16.9629734 19.8432508,16.9551344 C20.0253568,16.9469939 20.2080658,16.9551344 20.3904733,16.9469939 C20.6838328,16.9391549 20.9853328,16.9228739 21.2789938,16.9228739 C21.3896443,16.9228739 21.5087368,16.9391549 21.6516478,16.9469939 C21.5883328,17.0027714 21.5485348,17.0344289 21.5008978,17.0742269 C21.5325553,17.0820659 21.5642128,17.0983469 21.5961718,17.1140249 C21.5591721,17.140159 21.5148357,17.1538822 21.4695418,17.1532199 C21.4532608,17.1933194 21.4372813,17.2092989 21.4213018,17.2888949 L21.5642128,17.2888949 C21.5087368,17.2888949 21.4610998,17.3603504 21.4056238,17.4079874 C21.3423088,17.3917064 21.2865313,17.4079874 21.2548738,17.4954224 C21.3103498,17.5267784 21.3025108,17.5505969 21.2946718,17.5828574 C21.1993978,17.6142134 21.1279423,17.6461724 21.1680418,17.7492854 C21.1357813,17.7649634 21.0962848,17.7809429 21.0564868,17.8047614 C21.0172918,17.8680764 20.9455348,17.8840559 20.9612128,17.9714909 C20.9931718,17.9790284 21.0245278,17.9956109 21.0486478,18.0028469 C21.0088498,18.0188264 20.9693533,18.0426449 20.9295553,18.0583229 C20.7869458,18.1457579 20.8505623,18.1855559 20.8822198,18.2253539 C20.8580998,18.2413334 20.8345828,18.2570114 20.8107643,18.2651519 C20.8264423,18.3366074 20.8499593,18.3525869 20.8580998,18.3525869 C20.8175458,18.3832592 20.7778336,18.415029 20.7390073,18.4478609 C20.7148873,18.5193164 20.6832298,18.5509739 20.6515723,18.5986109 C20.6199148,18.6462479 20.6039353,18.7101659 20.5641373,18.7575014 C20.3977093,18.9405119 20.2786168,19.1554814 20.0645518,19.2980909 C19.9849558,19.3538684 19.9138018,19.4253239 19.8423463,19.4970809 C19.6994353,19.6318514 19.5725038,19.7829029 19.4217538,19.9101359 C19.2224204,20.0752115 19.0159992,20.2315363 18.8030758,20.3786669 C18.5432591,20.5614872 18.2815429,20.741593 18.0179698,20.9189549 C17.8750588,21.0139274 17.7164698,21.0853829 17.5657198,21.1728179 C17.4149698,21.2602529 17.2720588,21.3398489 17.1213088,21.4269824 C17.0260348,21.4902974 16.9385998,21.5777324 16.8354868,21.6259724 C16.5737848,21.7375274 16.2958018,21.8324999 16.0262608,21.9359144 C15.7639558,22.0474694 15.5740108,22.1424419 15.3756238,22.2138974 C15.1932163,22.2772124 15.0026683,22.3254524 14.8124218,22.3646474 C14.7491068,22.3809284 14.6773498,22.3646474 14.6058943,22.3727879 C14.4708223,22.3969079 14.3360518,22.4288669 14.2009798,22.4445449 C13.8518428,22.4921819 13.5027058,22.5241409 13.1538703,22.5717779 C12.9473428,22.5958979 12.7489558,22.6350929 12.5427298,22.6592129 C12.4001203,22.6670519 12.2493703,22.6513739 12.1064593,22.6513739 C12.0033463,22.6513739 11.8923943,22.6754939 11.7889798,22.6595144 C11.6225518,22.6353944 11.4558223,22.5961994 11.2890928,22.5642404 C11.2498978,22.5564014 11.1938188,22.5401204 11.1624628,22.5564014 C11.0991478,22.5883604 11.0430688,22.5407234 10.9794523,22.5564014 C10.9402573,22.5645419 10.9004593,22.5322814 10.8606613,22.5322814 C10.8287023,22.5247439 10.7889043,22.5407234 10.7491063,22.5322814 C10.6616713,22.5087644 10.5826783,22.4771069 10.4868013,22.4849459 C10.3924318,22.4927849 10.2968563,22.4451479 10.1943463,22.4216309 C10.0511338,22.3896719 9.91696632,22.3583159 9.77345232,22.3260554 C9.71799147,22.3087332 9.66483979,22.284739 9.61516482,22.2545999 C9.40863732,22.2545999 9.27356532,22.2467609 9.14663382,22.1988224 C9.03568182,22.1596274 8.93256882,22.1038499 8.81347632,22.1198294 C8.78212032,22.1276684 8.75830182,22.1119904 8.72604132,22.1119904 C8.70192132,22.0800314 8.67870582,22.0164149 8.65518882,22.0164149 C8.49659982,22.0245554 8.40132582,21.8897849 8.26625382,21.8496854 C8.19509982,21.8255654 8.13962382,21.7462709 8.06816832,21.7224524 C7.89329832,21.6509969 7.75099032,21.5002469 7.55260332,21.4764284 C7.48928832,21.4682879 7.42597332,21.4366304 7.35421632,21.4131134 C7.37833632,21.4444694 7.39341132,21.4682879 7.41753132,21.4921064 C7.18748682,21.3805514 6.97342182,21.2539214 6.75905532,21.1345274 C6.72769932,21.1266884 6.70388082,21.0953324 6.68006232,21.0790514 L6.46599732,20.9361404 C6.34690482,20.9602604 6.29926782,20.9120204 6.26700732,20.8963424 C6.05294232,20.7455924 5.80721982,20.6500169 5.60069232,20.4832874 C5.51325732,20.4115304 5.41074732,20.3638934 5.34743232,20.2764584 C5.23587732,20.1413864 5.10110682,20.0461124 4.95035682,19.9668179 C4.83156582,19.9035029 4.72061382,19.8317459 4.60966182,19.7602904 C4.55388432,19.7204924 4.49810682,19.6728554 4.49810682,19.5854204 C4.49810682,19.5296429 4.47458982,19.4738654 4.40313432,19.5058244 C4.37147682,19.4581874 4.33981932,19.4027114 4.30002132,19.3867319 C4.20474732,19.3475369 4.14143232,19.2751769 4.06997682,19.2118619 C3.99852132,19.1485469 3.94334682,19.0611119 3.85591182,19.0294544 C3.69702132,18.9661394 3.60174732,18.8310674 3.50677482,18.7198139 C3.28426782,18.4575089 3.08588082,18.1710839 2.87965482,17.8937039 C2.86367532,17.8695839 2.83201782,17.8536044 2.80819932,17.8297859 C2.83985682,17.9172209 2.87965482,17.9886764 2.91915132,18.0679709 C2.84015832,18.0363134 2.78468232,17.9805359 2.73704532,17.9250599 C2.72890482,17.9332004 3.28426782,18.8467454 3.28426782,18.8467454 C3.33250782,18.9182009 3.37170282,18.9899579 3.41933982,19.0614134 C3.3216348,19.0705009 3.22792568,19.0204436 3.18115482,18.9341804 C3.11000082,18.8075504 3.03040482,18.7279544 2.87181582,18.7442354 C2.85498476,18.6868539 2.84189229,18.6284413 2.83262082,18.5693654 C2.80036032,18.5693654 2.77684332,18.5693654 2.72106582,18.5612249 C2.83262082,18.7360949 2.92759332,18.8868449 3.03070632,19.0617149 C2.99060682,19.0375949 2.96739132,19.0219169 2.95080882,19.0140779 C3.09341832,19.1648279 3.19653132,19.3556774 3.37893882,19.4512529 C3.41873682,19.6336604 3.62496282,19.7210954 3.67259982,19.8959654 C3.63340482,19.8878249 3.60084282,19.8799859 3.56104482,19.8718454 C3.49772982,19.7925509 3.42627432,19.7132564 3.35512032,19.6258214 C3.37079832,19.6812974 3.39431532,19.7289344 3.42627432,19.7687324 C3.52154832,19.8878249 3.60898332,20.0069174 3.71993532,20.1103319 C3.75973332,20.1507329 3.81520932,20.1667124 3.81520932,20.2381679 C3.87852432,20.2698254 3.90264432,20.2773629 3.92616132,20.2773629 C3.94244232,20.3256029 3.91862382,20.3970584 4.01359632,20.3810789 C4.07691132,20.5001714 4.14022632,20.5001714 4.22766132,20.4606749 C4.33107582,20.5640894 4.38685332,20.5722299 4.45800732,20.5089149 C4.45800732,20.5481099 4.46584632,20.5879079 4.46584632,20.6198669 C4.49750382,20.6038874 4.48996632,20.5800689 4.48996632,20.5402709 C4.52916132,20.5719284 4.55328132,20.5879079 4.56895932,20.6035859 C4.64825382,20.7151409 4.71970932,20.8182539 4.83066132,20.9056889 C4.98141132,21.0329219 5.11648332,21.1679939 5.25879132,21.2870864 C5.53677432,21.5177339 5.84671632,21.7085834 6.15575382,21.8831519 C6.53684982,22.0978199 6.90196632,22.3281659 7.29059982,22.5343919 C7.75852782,22.7810189 8.25841482,22.9480499 8.77397982,23.0671424 C8.96452782,23.1069404 9.14693532,23.1464369 9.33778482,23.1937724 C9.50360982,23.2420124 9.67064082,23.3134679 9.83737032,23.3529644 C10.0912333,23.4087419 10.3529353,23.4563789 10.6067983,23.5037144 C10.6619728,23.5118549 10.7183533,23.5199954 10.7816683,23.5278344 C10.8525208,23.5438139 10.9396543,23.5118549 10.9556338,23.5359749 C10.9954318,23.5992899 11.0270893,23.5673309 11.0747263,23.5594919 C11.1302023,23.5435124 11.1938188,23.5435124 11.2571338,23.5435124 C11.4793393,23.5513514 11.6934043,23.5989884 11.9156098,23.5833104 C11.9638498,23.5833104 12.0350038,23.5432109 12.0748018,23.6225054 C12.1459558,23.5908479 12.1857538,23.5908479 12.2174113,23.5833104 C12.2258533,23.6544644 12.2174113,23.6544644 12.2023363,23.6623034 C12.1860553,23.6701424 12.1622368,23.6782829 12.1305793,23.7021014 C12.4160998,23.7575774 12.6859423,23.7654164 12.9235243,23.7021014 C13.3365793,23.7337589 13.6935553,23.6861219 14.0348533,23.5670294 C14.0665108,23.6068274 14.0903293,23.6623034 14.1379663,23.5830089 C14.1536443,23.5588889 14.1934423,23.5507484 14.2254013,23.5429094 C14.2965553,23.5269299 14.3839903,23.4952724 14.4473053,23.5187894 C14.5190623,23.5429094 14.5428808,23.4795944 14.5980553,23.4795944 C14.6936308,23.4795944 14.7807643,23.4714539 14.8681993,23.4554744 C14.9158363,23.4476354 14.9634733,23.4238169 15.0189493,23.4078374 C14.9645997,23.3809727 14.9047039,23.367238 14.8440793,23.3677379 C14.9396548,23.3201009 15.0267883,23.2803029 15.1142233,23.2411079 C15.0982438,23.2646249 15.0822643,23.2962824 15.0509083,23.2962824 L15.1615588,23.2962824 C15.1374388,23.2962824 15.1057813,23.3677379 15.0662848,23.4153749 C15.3515038,23.3439194 15.6132058,23.2803029 15.8673703,23.2163849 C15.7799353,23.0499569 15.9623428,23.1057344 16.0259593,23.0101589 C15.9466648,23.0342789 15.8673703,23.0577959 15.7877743,23.0734739 C16.0576168,22.9387034 16.3352983,22.8196109 16.6048393,22.7005184 C16.5656443,22.7481554 16.5174043,22.7719739 16.4465518,22.8120734 C16.4941888,22.8196109 16.5258463,22.8196109 16.5496648,22.8271484 C16.6762948,22.8672479 16.6449388,22.7481554 16.6844353,22.6763984 C16.8351853,22.6763984 16.8985003,22.6528814 16.9699558,22.6287614 C17.0492503,22.6046414 17.1285448,22.5811244 17.2081408,22.5494669 C17.3347708,22.4939909 17.4538633,22.4228369 17.5807948,22.3595219 C17.6049148,22.3510799 17.6441098,22.3595219 17.6760688,22.3595219 C17.7635038,22.3034429 17.7948598,22.2558059 17.8186783,22.2636449 C17.9302333,22.2796244 18.0086233,22.2395249 18.0405823,22.1370149 C18.0960583,22.0969154 18.1358563,22.0652579 18.1753528,22.0411379 C18.3496198,21.9458639 18.5160478,21.8505899 18.6909178,21.7553159 C18.7542328,21.7553159 18.7861918,21.7553159 18.8018698,21.7471754 C18.9055858,21.6989354 19.0008598,21.6440624 19.0958323,21.5882849 C19.0685791,21.5769526 19.0420917,21.56386 19.0165378,21.5490899 C19.0955308,21.5328089 19.1190478,21.5249699 19.1672878,21.5089904 C19.3572328,21.2858804 19.6195378,21.1351304 19.8176233,20.9602604 C19.9050583,20.9524214 19.9050583,20.9286029 19.9050583,20.9129249 C19.9364143,20.8731269 19.9683733,20.8254899 20.0075683,20.7935309 C20.1824383,20.6346404 20.3723833,20.4995684 20.5312738,20.3328389 C20.7610229,20.1038957 20.9807218,19.8650838 21.1897498,19.6170779 C21.3796948,19.3945709 21.5708458,19.1723654 21.7294348,18.9260399 C21.9516403,18.5844404 22.1418868,18.2347004 22.3402738,17.8768199 C22.4831848,17.6229569 22.6101163,17.3687924 22.7533288,17.1146279 C22.7684038,17.0905079 22.8006643,17.0588504 22.8244828,17.0588504 C23.0385478,17.0347304 23.2532158,17.0196554 23.4594418,16.9955354 C23.5070788,16.9876964 23.5625548,16.9563404 23.6101918,16.9322204 C23.5860718,16.8924224 23.5703938,16.8447854 23.5468768,16.8049874 C23.5149178,16.7567474 23.4672808,16.7175524 23.4353218,16.6693124 C23.4039658,16.6301174 23.3801473,16.5818774 23.3563288,16.5345419 C23.3322088,16.4953469 23.3086918,16.4633879 23.2848733,16.4229869 C23.2350401,16.3355345 23.1897548,16.2455678 23.1491983,16.1534459 C23.1413593,16.1293259 23.1250783,16.0901309 23.1335203,16.0660109 C23.2764313,15.7563704 23.3319073,15.4226099 23.4666778,15.1126679 C23.6014483,14.7948869 23.6415478,14.4373079 23.7048628,14.0957084 C23.7603388,13.7700884 23.7922978,13.4444684 23.8314928,13.1188484 C23.8556128,12.8885024 23.8872703,12.6659954 23.8948078,12.4356494 C23.9430478,12.0702314 23.9267668,11.7283304 23.9189278,11.3864294 C23.9110888,11.0849294 23.8948078,10.7749874 23.8797328,10.4728844 L23.8779238,10.4719799 Z M3.97138632,20.2520369 C3.91591032,20.1887219 3.86827332,20.1169649 3.81279732,20.0536499 L3.83691732,20.0295299 C3.92344782,20.1251054 4.01088282,20.2203794 4.09801632,20.3237939 C4.05037932,20.2996739 3.99490332,20.2839959 3.97138632,20.2520369 Z M4.09801632,20.3237939 C4.12213632,20.3156534 4.14625632,20.3156534 4.16977332,20.3078144 C4.19389332,20.3476124 4.20957132,20.3952494 4.23308832,20.4428864 C4.12213632,20.4347459 4.06666032,20.3871089 4.09831782,20.3237939 L4.09801632,20.3237939 Z M12.3500713,23.6050184 L12.3500713,23.5808984 C12.5008213,23.5652204 12.6434308,23.5492409 12.7941808,23.5335629 L12.7941808,23.5567784 C12.6434308,23.5808984 12.5008213,23.5959734 12.3500713,23.6044154 L12.3500713,23.6050184 Z M14.3490163,23.3984909 C14.2383658,23.4226109 14.1192733,23.4385904 14.0083213,23.4545699 C13.9685233,23.4624089 13.9208863,23.5022069 13.9052083,23.4304499 C13.8892288,23.4385904 13.8732493,23.4385904 13.8575713,23.4467309 C13.8967663,23.5655219 13.9923418,23.4702479 14.0716363,23.5178849 C13.8967663,23.5420049 13.7309413,23.5576829 13.5639103,23.5811999 L13.5639103,23.5655219 C13.6121503,23.5576829 13.6673248,23.5495424 13.7146603,23.5414019 L13.7146603,23.5178849 C13.6355898,23.5084999 13.5560909,23.5031664 13.4764753,23.5019054 C13.4532598,23.5019054 13.4213008,23.5338644 13.3974823,23.5417034 C13.3658248,23.5495424 13.3341673,23.5576829 13.2943693,23.5576829 C13.1595988,23.5655219 13.0248283,23.5655219 12.8975953,23.5733609 C12.8894548,23.5733609 12.8734753,23.5655219 12.8656363,23.5655219 L12.8656363,23.5414019 C13.3971808,23.4702479 13.9208863,23.3987924 14.4524308,23.3273369 C14.4605713,23.3430149 14.4605713,23.3589944 14.4684103,23.3746724 C14.4207733,23.3746724 14.3891158,23.3912549 14.3493178,23.3987924 L14.3490163,23.3984909 Z M14.4684103,23.3194979 C14.6511193,23.2953779 14.8181503,23.2796999 14.9924173,23.2561829 C14.6276023,23.3592959 14.5085098,23.3749739 14.4687118,23.3194979 L14.4684103,23.3194979 Z M7.55772882,7.27819041 C7.81098882,6.92845041 8.07329382,6.57871041 8.32715682,6.22143291 C8.40645132,6.11741541 8.46976632,6.00616191 8.54906082,5.90304891 C8.57318082,5.87108991 8.60483832,5.85541191 8.64433482,5.82345291 L8.63649582,5.80837791 C8.66815332,5.76827841 8.69981082,5.73601791 8.71579032,5.70466191 C8.75619132,5.64134691 8.78000982,5.56958991 8.81166732,5.49813441 C8.81950632,5.48305941 8.84332482,5.46707991 8.84332482,5.46707991 C8.95487982,5.52255591 8.95487982,5.40376491 8.99407482,5.36366541 C9.06553032,5.28406941 9.13698582,5.19693591 9.20030082,5.11733991 C9.24793782,5.05402491 9.29557482,4.99824741 9.33537282,4.92679191 C9.34321182,4.90267191 9.31939332,4.86347691 9.31125282,4.83121641 L9.28773582,4.83121641 C9.31185582,4.81553841 9.33537282,4.79202141 9.35919132,4.77574041 C9.36703032,4.77574041 9.36703032,4.77574041 9.37486932,4.76790141 C9.42250632,4.69614441 9.47014332,4.62468891 9.51778032,4.56107241 C9.61275282,4.43444241 9.71586582,4.30720941 9.82681782,4.19625741 C9.81113982,4.23545241 9.79516032,4.27555191 9.77918082,4.30720941 C9.78732132,4.30720941 9.78732132,4.31534991 9.79516032,4.31534991 C9.89043432,4.18811691 9.99354732,4.06902441 10.0888213,3.94148991 C10.0806808,3.93395241 10.0728418,3.92581191 10.0647013,3.92581191 C10.0255063,3.96560991 9.99354732,4.00540791 9.95374932,4.04520591 C9.94591032,4.03706541 9.93807132,4.02922641 9.92962932,4.02922641 C10.0095268,3.92581191 10.0888213,3.82269891 10.1678143,3.70360641 C10.1837938,3.72772641 10.1997733,3.75908241 10.2311293,3.82269891 C10.2633898,3.74340441 10.2950473,3.68792841 10.3185643,3.63215091 C10.2950473,3.65627091 10.2633898,3.67978791 10.2395713,3.70390791 L10.2154513,3.67978791 L10.3583623,3.46572291 C10.5091123,3.25105491 10.6598623,3.02854791 10.8106123,2.81387991 C10.8663898,2.73458541 10.9372423,2.67096891 10.9854823,2.59137291 C11.1362323,2.28987291 11.3744173,2.05108491 11.5565233,1.77310191 C11.5963213,1.71762591 11.6517973,1.66998891 11.6994343,1.62235191 C11.7386293,1.57411191 11.7708898,1.59039291 11.8025473,1.63019091 C12.0166123,1.90033491 12.2306773,2.17831791 12.4447423,2.44846191 C12.6039343,2.64745191 12.7625233,2.83739691 12.9132733,3.04422591 C13.0956808,3.29869191 13.2702493,3.55285641 13.4529583,3.80702091 C13.6591843,4.10098341 13.8654103,4.39494591 14.0637973,4.69644591 C14.3652973,5.14176141 14.6508178,5.58677541 14.9523178,6.03148791 C15.1745233,6.35710791 15.3967288,6.67519041 15.6107938,7.00081041 L15.2055778,7.00081041 C14.8329238,6.99327291 14.4518278,6.96161541 14.0791738,6.97729341 C13.5714478,7.00141341 13.0558828,7.05688941 12.5481568,7.09668741 C11.9053588,7.15246491 11.2547218,7.16000241 10.6125268,7.16000241 C10.3818793,7.16000241 10.1518348,7.19226291 9.92209182,7.20824241 C9.64410882,7.22392041 9.37426632,7.23989991 9.09658482,7.24743741 C8.77096482,7.26371841 8.45438982,7.27155741 8.12876982,7.27969791 C7.94606082,7.28753691 7.75581432,7.27969791 7.55742732,7.27969791 L7.55772882,7.27819041 Z M16.6579033,10.9323704 L16.6579033,11.0041274 C16.6500643,11.0041274 16.6422253,11.0122679 16.6262458,11.0122679 C16.5945883,10.9007129 16.5629308,10.7813189 16.5231328,10.6700654 C16.4438383,10.4394179 16.3564033,10.2087704 16.2134923,10.0025444 C16.0543003,9.78033891 15.9119923,9.55029441 15.7528003,9.31964691 C15.7136053,9.26386941 15.6575263,9.21623241 15.6098893,9.16889691 C15.4431598,8.98588641 15.2764303,8.79503691 15.0623653,8.66026641 C14.7469605,8.46243128 14.4150867,8.29215681 14.0704303,8.15133441 C13.9747374,8.11025251 13.8820492,8.06249793 13.7930503,8.00842341 L13.9829953,8.00842341 L15.3397453,7.98430341 C15.6334063,7.97676591 15.9192283,7.97676591 16.2125878,7.96078641 C16.2837418,7.96078641 16.3235398,7.98490641 16.3633378,8.04822141 C16.4344918,8.16731391 16.5059473,8.28640641 16.5852418,8.40580041 C16.5933823,8.42147841 16.6093618,8.44499541 16.6093618,8.46911541 C16.6093618,8.64398541 16.6093618,8.82669441 16.6172008,9.00156441 C16.6247383,9.18427341 16.6413208,9.35914341 16.6485568,9.54185241 C16.6485568,9.72456141 16.6325773,9.91510941 16.6407178,10.1056574 C16.6488583,10.3761029 16.6566973,10.6543874 16.6566973,10.9317674 L16.6579033,10.9323704 Z M8.12062932,8.27193441 C8.49358482,8.25595491 8.85025932,8.23213641 9.21567732,8.21615691 C9.50059482,8.20017741 9.79455732,8.19203691 10.0797763,8.17635891 C10.1988688,8.16882141 10.3101223,8.16128391 10.4289133,8.17635891 C10.3022833,8.24027691 10.1750503,8.30389341 10.0640983,8.38318791 C9.92118732,8.47846191 9.78671832,8.60539341 9.64350582,8.70880791 C9.50029332,8.81192091 9.37336182,8.93915391 9.25457082,9.07422591 C9.10382082,9.25663341 8.93709132,9.41552391 8.77820082,9.59039391 C8.66664582,9.71762691 8.54001582,9.83671941 8.44504332,9.97179141 C8.31027282,10.1466614 8.19118032,10.3366064 8.06424882,10.5355964 C8.10404682,9.78064041 8.15168382,9.03412641 8.11972482,8.27133141 L8.12062932,8.27193441 Z M13.3019068,15.9149594 C13.0477423,15.9782744 12.7863418,16.0500314 12.5240368,16.0816889 C12.3021328,16.1136479 12.0717868,16.1058089 11.8417423,16.1058089 C11.6349133,16.1058089 11.4365263,16.0979699 11.2303003,16.0816889 C11.0002558,16.0581719 10.7702113,16.0343534 10.5480058,15.9309389 C10.3571563,15.8435039 10.1590708,15.7642094 9.96912582,15.6686339 C9.77797482,15.5733599 9.58772832,15.4624079 9.44451582,15.2875379 C9.34200582,15.1600034 9.19879332,15.0568904 9.07186182,14.9456369 C9.09598182,15.0409109 9.15115632,15.1205069 9.23859132,15.1759829 C9.19879332,15.2236199 9.14331732,15.2001029 9.06372132,15.0725684 C9.04020432,15.0885479 9.01638582,15.0966884 9.00040632,15.1045274 C9.02452632,15.0487499 9.04804332,14.9929724 9.07186182,14.9456369 C9.04020432,14.8823219 9.00040632,14.8105649 8.96874882,14.7466469 C8.90543382,14.6435339 8.84211882,14.5325819 8.78634132,14.4291674 C8.77036182,14.4050474 8.77036182,14.3815304 8.75468382,14.3577119 C8.7150828,14.3119065 8.67784922,14.2641066 8.64312882,14.2144994 C8.57981382,14.1195269 8.52433782,14.0164139 8.44504332,13.9208384 C8.44504332,13.9449584 8.45318382,13.9684754 8.45318382,14.0004344 C8.44504332,14.0004344 8.43720432,14.0082734 8.43720432,14.0082734 L8.27017332,13.6030574 C8.26233432,13.6030574 8.26233432,13.6030574 8.25449532,13.6108964 L8.39710482,14.1355064 C8.38926582,14.1355064 8.38142682,14.1430439 8.37298482,14.1430439 C8.34976932,14.1116879 8.32595082,14.0797289 8.30966982,14.0405339 C8.29399182,13.9766159 8.24635482,13.9766159 8.20715982,14.0004344 C8.18303982,14.0164139 8.16706032,14.0718899 8.17520082,14.0957084 C8.23097832,14.2307804 8.29429332,14.3658524 8.35790982,14.5009244 C8.37358782,14.5485614 8.38956732,14.5883594 8.41338582,14.6359964 C8.42152632,14.6519759 8.44534482,14.6676539 8.44534482,14.6914724 C8.47730382,14.7547874 8.50112232,14.8181024 8.54061882,14.8741814 C8.61207432,14.9694554 8.69136882,15.0647294 8.76282432,15.1600034 C8.83367682,15.2552774 8.89699182,15.3589934 8.96060832,15.4539659 C8.96844732,15.4699454 8.99226582,15.4699454 8.99980332,15.4780859 C9.03990282,15.5971784 9.17467332,15.6843119 9.26994732,15.6366749 C9.29406732,15.8193839 9.49215282,15.8830004 9.57144732,16.0578704 C9.49358306,16.0260927 9.41685461,15.9916001 9.34140282,15.9544559 C9.33326232,15.9622949 9.33326232,15.9701339 9.32512182,15.9861134 C9.42039582,16.0337504 9.51566982,16.0813874 9.60250182,16.1368634 C9.68239932,16.1851034 9.76169382,16.2324389 9.83314932,16.2876134 C9.92842332,16.3750484 10.0396768,16.4232884 10.1738443,16.4546444 C10.1666083,16.4305244 10.1587693,16.4223839 10.1587693,16.4223839 C10.3806733,16.5257984 10.6110193,16.6370519 10.7852863,16.7238839 C9.96008082,16.7401649 9.07939932,16.7561444 8.16675882,16.7721239 C8.16675882,16.6213739 8.15891982,16.4781614 8.15891982,16.3271099 C8.15891982,16.2637949 8.17459782,16.2080174 8.16645732,16.1444009 C8.14233732,15.7795859 8.14233732,15.4135649 8.09500182,15.0559859 C8.04766632,14.6748899 8.04766632,14.3013314 8.05580682,13.9193309 C8.06334432,13.7134064 8.04766632,13.4990399 8.03952582,13.2922109 C8.03952582,13.0142279 8.03952582,12.7434809 8.04796782,12.4661009 C8.04796782,12.4263029 8.06394732,12.3946454 8.07992682,12.3545459 L8.10404682,12.3545459 C8.11158432,12.3708269 8.10404682,12.3946454 8.11912182,12.4027859 C8.14324182,12.4269059 8.18303982,12.4661009 8.19901932,12.4582619 C8.24635482,12.4263029 8.31781032,12.3949469 8.33378982,12.3467069 C8.37298482,12.2517344 8.38926582,12.1483199 8.38926582,12.0530459 C8.38926582,11.9818919 8.42122482,11.9342549 8.45258082,11.8863164 C8.46886182,11.8621964 8.47670082,11.8386794 8.49268032,11.8070219 C8.46102282,11.7829019 8.42936532,11.7672239 8.38956732,11.7355664 C8.42152632,11.6481314 8.41368732,11.5447169 8.53277982,11.4973814 C8.54845782,11.4892409 8.54845782,11.4491414 8.55689982,11.4256244 C8.56443732,11.3614049 8.57197482,11.2899494 8.58041682,11.2266344 C8.59609482,11.2507544 8.60453682,11.2582919 8.61961182,11.2739699 C8.62409389,11.265331 8.62955696,11.2572375 8.63589282,11.2498499 C8.63589282,11.2184939 8.62805382,11.1548774 8.63589282,11.1548774 C8.73116682,11.1388979 8.69136882,11.0357849 8.73900582,10.9881479 C8.74654332,10.9797059 8.73086532,10.9558874 8.73086532,10.9399079 C8.73086532,10.9242299 8.73086532,10.9007129 8.73870432,10.9007129 C8.84935482,10.8765929 8.83367682,10.7575004 8.90513232,10.7017229 C8.92925232,10.6857434 8.93678982,10.6625279 8.96844732,10.6224284 C9.03176232,10.7333804 8.92081032,10.7891579 8.91297132,10.8684524 C9.04744032,10.7891579 9.08723832,10.5986099 9.00794382,10.5428324 C9.03960132,10.5187124 9.07125882,10.4873564 9.09537882,10.4553974 C9.18281382,10.3601234 9.27748482,10.2726884 9.35708082,10.1774144 C9.41285832,10.1062604 9.44451582,10.0188254 9.49999182,9.94736991 C9.53195082,9.90757191 9.59526582,9.87591441 9.64290282,9.85179441 C9.78581382,9.77280141 9.92028282,9.68536641 10.0077178,9.55029441 C10.0236973,9.53431491 10.0475158,9.51863691 10.0710328,9.50265741 C10.0951528,9.48667791 10.1427898,9.48667791 10.1506288,9.46285941 C10.1587693,9.44718141 10.1349508,9.40738341 10.1189713,9.38356491 C10.1503273,9.36758541 10.1822863,9.33592791 10.2456013,9.30396891 C10.2214813,9.35160591 10.2139438,9.38356491 10.1979643,9.41552391 L10.2371593,9.45471891 C10.3089163,9.39924291 10.4198683,9.33592791 10.4913238,9.28829091 C10.4913238,9.28075341 10.4515258,9.24909591 10.4515258,9.24909591 C10.4041903,9.27321591 10.3327348,9.31241091 10.2615808,9.34436991 C10.2766558,9.32024991 10.2766558,9.30457191 10.2857008,9.29673291 C10.3963513,9.22527741 10.5073033,9.15382191 10.6263958,9.09774291 C10.9037758,8.97111291 11.1817588,8.84387991 11.4594403,8.72478741 C11.5070773,8.70066741 11.5709953,8.71694841 11.6261698,8.71694841 C11.6496868,8.71694841 11.6653648,8.71694841 11.6894848,8.70910941 C11.8161148,8.66931141 11.9433478,8.62951341 12.0702793,8.59755441 C12.1254538,8.58187641 12.1887688,8.57403741 12.2451493,8.57403741 C12.4824298,8.58157491 12.7206148,8.58157491 12.9584983,8.59755441 C13.0616113,8.60539341 13.1568853,8.62921191 13.2521593,8.66086941 C13.3742971,8.70331838 13.4935413,8.7536749 13.6091353,8.81161941 C13.7439058,8.88397941 13.8708373,8.96297241 13.9980703,9.05040741 C14.2281148,9.20115741 14.4421798,9.36818841 14.6722243,9.50326041 C14.8944298,9.63833241 15.0689983,9.82104141 15.2119093,10.0278704 C15.3867793,10.2738944 15.5848648,10.4964014 15.6641593,10.7982029 L15.7829503,11.3228129 C15.8070703,11.4180869 15.8625463,11.5133609 15.8387278,11.6243129 C15.7986283,11.8233029 15.7669708,12.0298304 15.7353133,12.2285189 C15.7196353,12.3084164 15.7036558,12.3883139 15.7117963,12.4667039 C15.7268713,12.7139339 15.6318988,12.9279989 15.5369263,13.1505059 C15.5049673,13.2219614 15.4573303,13.2937184 15.4178338,13.3730129 C15.4372442,13.3867352 15.4585809,13.3975052 15.4811488,13.4049719 L15.5526043,13.2620609 C15.5607448,13.2620609 15.5607448,13.2620609 15.5685838,13.2702014 C15.5287858,13.3811534 15.4971283,13.5005474 15.4570288,13.6118009 C15.3623578,13.8581264 15.2670838,14.1122909 15.1479913,14.3504759 C15.0846763,14.4855479 14.9731213,14.5968014 14.8941283,14.7243359 C14.8151353,14.8352879 14.7515188,14.9543804 14.6722243,15.0577949 C14.6007688,15.1452299 14.5296148,15.2326649 14.4340393,15.2959799 C14.2199743,15.4548704 13.9977688,15.6137609 13.7677243,15.7409939 C13.6251148,15.8284289 13.4583853,15.8760659 13.2997963,15.9158639 L13.3019068,15.9149594 Z M9.07276632,15.4928594 L9.06492732,15.5009999 C9.04834482,15.4931609 9.02452632,15.4853219 9.00884832,15.4693424 L8.81830032,15.1829174 C8.80262232,15.1594004 8.79418032,15.1355819 8.80262232,15.1039244 C8.89005732,15.2389964 8.97749232,15.3662294 9.07246482,15.4928594 L9.07276632,15.4928594 Z M14.0083213,16.5812744 C14.3649958,16.4305244 14.6586568,16.2164594 14.9278963,15.9698324 C14.9679958,15.9300344 15.0074923,15.8905379 15.0551293,15.8582774 C15.3885883,15.6520514 15.6340093,15.3659279 15.8565163,15.0481469 C16.1103793,14.6827289 16.2771088,14.2696739 16.4836363,13.8804374 C16.4976385,13.8503652 16.5134458,13.8211669 16.5309718,13.7930024 C16.5149923,14.6987084 16.6184068,15.5884349 16.7371978,16.4863019 C15.8408383,16.5179594 14.9281978,16.5496169 14.0080198,16.5815759 L14.0083213,16.5812744 Z M22.0532458,16.3430894 C22.0454068,16.3590689 22.0291258,16.3750484 22.0215883,16.3913294 C22.0134478,16.3750484 22.0134478,16.3512299 22.0056088,16.3189694 C21.9579718,16.4465039 21.8548588,16.3828874 21.7834033,16.3828874 C21.3552733,16.3910279 20.9187013,16.3910279 20.4899683,16.3910279 C20.0775163,16.3910279 19.6572253,16.3910279 19.2447733,16.3982639 C19.1097013,16.3982639 18.9667903,16.4299214 18.8317183,16.4380619 C18.5067013,16.4537399 18.1813828,16.4621819 17.8560643,16.4697194 C17.8319443,16.4697194 17.8084273,16.4305244 17.7686293,16.3985654 C17.754652,16.4235983 17.7387237,16.4474908 17.7209923,16.4700209 C17.7125503,16.4543429 17.6968723,16.4386649 17.6808928,16.4148464 C17.6730538,16.4389664 17.6649133,16.4624834 17.6567728,16.4781614 L17.6338588,16.4781614 C17.6178793,16.3672094 17.5862218,16.2640964 17.5862218,16.1525414 C17.5862218,15.9143564 17.6103418,15.6761714 17.6178793,15.4373834 C17.6260198,15.3264314 17.6178793,15.2233184 17.6178793,15.1196024 C17.6498383,15.1437224 17.6736568,15.1597019 17.7053143,15.1829174 C17.7209923,15.1518629 17.7369718,15.1280444 17.7529513,15.1045274 C17.7529513,15.1045274 17.7369718,15.0960854 17.7209923,15.0804074 C17.7360673,15.0722669 17.7523483,15.0562874 17.7523483,15.0484484 C17.7601873,15.0243284 17.7764683,15.0008114 17.7764683,14.9851334 C17.7764683,14.9293559 17.7601873,14.8817189 17.7523483,14.8343834 C17.7601873,14.8343834 17.7680263,14.8343834 17.7764683,14.8259414 L17.8238038,15.0641264 L17.8479238,15.0641264 C17.8159648,15.0089519 17.9190778,14.9610134 17.8319443,14.8976984 C17.8241053,14.8895579 17.8397833,14.8419209 17.8397833,14.8181024 C17.8156633,14.7707669 17.8005883,14.7231299 17.7764683,14.6595134 C17.7843073,14.6516744 17.8081258,14.6435339 17.8319443,14.6353934 C17.8002868,14.6197154 17.7764683,14.6040374 17.7526498,14.5961984 C17.8319443,14.5244414 17.8319443,14.4846434 17.7604888,14.4053489 C17.7767698,14.3978114 17.7924478,14.3978114 17.7924478,14.3902739 C17.7924478,14.3185169 17.7924478,14.2470614 17.7767698,14.1762089 C17.7607903,14.0960099 17.8008898,14.0013389 17.6814958,13.9530989 C17.6888357,13.9756629 17.699506,13.9970036 17.7131533,14.0164139 C17.7131533,14.0164139 17.6890333,14.0245544 17.6655163,14.0405339 C17.5624033,13.9449584 17.6263213,13.8174239 17.6022013,13.6748144 C17.6576773,13.6907939 17.6974753,13.7067734 17.7369718,13.7230544 C17.7209923,13.6669754 17.6814958,13.6033589 17.6576773,13.5319034 L17.6254168,13.5319034 L17.6254168,13.0072934 C17.6254168,13.0154339 17.6808928,13.0154339 17.7128518,13.0235744 C17.7128518,13.0154339 17.7203893,13.0075949 17.7203893,12.9994544 C17.6962693,12.9677969 17.6646118,12.9361394 17.6329543,12.8963414 L17.6489338,12.8803619 C17.5856188,12.8013689 17.6172763,12.6904169 17.6172763,12.6662969 L17.6172763,12.1100294 C17.6968723,12.1896254 17.5780813,12.2927384 17.6968723,12.3403754 L17.6968723,12.2610809 L17.6887318,12.2610809 C17.6808928,12.1419884 17.6808928,12.0228959 17.6730538,11.9035019 L17.6573758,11.9035019 C17.6492353,11.9197829 17.6492353,11.9276219 17.6410948,11.9436014 L17.6254168,11.9436014 L17.6730538,10.0447544 C17.7523483,10.1478674 17.8394818,10.2437444 17.8949578,10.3462544 C18.0776668,10.6803164 18.3155503,10.9664399 18.5377558,11.2682414 C18.7283038,11.5305464 18.9025708,11.8163684 19.0774408,12.0865124 C19.2915058,12.4121324 19.4977318,12.7377524 19.7120983,13.0633724 C19.8715232,13.3101066 20.0353646,13.5539589 20.2035433,13.7948114 C20.3542933,14.0088764 20.5134853,14.2157054 20.6720743,14.4225344 C20.8065433,14.6052434 20.9494543,14.7879524 21.0842248,14.9706614 C21.2431153,15.1931684 21.4017043,15.4153739 21.5605948,15.6300419 C21.6395878,15.7409939 21.7270228,15.8522474 21.8138548,15.9635009 C21.8620948,16.0268159 21.9332488,16.0750559 21.9808858,16.1142509 C21.9733483,16.1142509 21.9652078,16.1142509 21.9495298,16.1064119 C21.9736498,16.1380694 21.9887248,16.1618879 22.0050058,16.1778674 C22.0924408,16.2255044 22.1002798,16.2731414 22.0526428,16.3448984 L22.0532458,16.3430894 Z M22.4578588,14.3574104 L22.4578588,14.3016329 C22.4578588,14.3173109 22.4656978,14.3408279 22.4578588,14.3571089 L22.4578588,14.3574104 Z M22.7277013,10.8539804 C22.7195608,10.8539804 22.6722253,10.8057404 22.6643863,10.7979014 C22.6562458,10.8220214 22.6643863,10.8455384 22.6484068,10.8774974 C22.6402663,10.8539804 22.5850918,10.8618194 22.5850918,10.8383024 C22.5769513,10.9492544 22.6324273,11.0605079 22.6242868,11.1717614 C22.6484068,11.1557819 22.7433793,11.1476414 22.7671978,11.1241244 C22.7753383,11.1319634 22.7913178,11.1398024 22.7991568,11.1398024 C22.6402663,11.2591964 22.6800643,11.3779874 22.7515198,11.5136624 C22.7671978,11.5450184 22.8148348,11.6086349 22.7671978,11.6722514 C22.7515198,11.6882309 22.7753383,11.7355664 22.7831773,11.7756659 L22.8063928,11.7756659 L22.8063928,11.7907409 L22.7349373,11.8148609 C22.7192593,11.7907409 22.6242868,11.7437069 22.6242868,11.7033059 L22.6242868,12.1091249 C22.7035813,12.1332449 22.7035813,12.2441969 22.7352388,12.2999744 C22.749186,12.280655 22.7600676,12.2592986 22.7674993,12.2366594 L22.7756398,12.2438954 C22.7674993,12.2915324 22.7596603,12.3391694 22.7436808,12.3871079 C22.7280028,12.4582619 22.7120233,12.5218784 22.7044858,12.5933339 C22.7044858,12.6011729 22.7195608,12.6174539 22.7195608,12.6249914 C22.6327288,12.8239814 22.6803658,13.0458854 22.6487083,13.2521114 C22.6245883,13.4028614 22.6487083,13.5626564 22.6327288,13.7212454 C22.6164478,13.8563174 22.5844888,13.9992284 22.5531328,14.1343004 C22.5449923,14.1584204 22.5290128,14.1659579 22.4898178,14.1819374 C22.5054958,14.0866634 22.4976568,14.0230469 22.4816773,13.9356119 C22.4732353,13.9356119 22.3701223,13.8801359 22.3619818,13.8801359 C22.3619818,13.9916909 22.4252968,14.1424409 22.4494168,14.2690709 C22.4252968,14.2612319 22.3303243,14.2057559 22.3227868,14.2057559 C22.3065058,14.3010299 22.3065058,14.4282629 22.2986668,14.5313759 C22.2905263,14.6109719 22.2193723,14.6821259 22.2112318,14.7695609 C22.2112318,14.8178009 22.2667078,14.8491569 22.2588688,14.9287529 L22.3221838,14.9287529 C22.3221838,14.7701639 22.3939408,14.6272529 22.3939408,14.4602219 L22.4174578,14.4602219 C22.4255983,14.4762014 22.4494168,14.4921809 22.4415778,14.5000199 C22.4255983,14.5874549 22.3933378,14.6827289 22.4017798,14.7701639 C22.4017798,14.8178009 22.4409748,14.8654379 22.4258998,14.9209139 C22.4096188,14.9691539 22.4017798,15.0164894 22.3936393,15.0879449 C22.3854988,15.0481469 22.3776598,15.0324689 22.3776598,15.0086504 C22.3698208,15.0086504 22.2983653,15.0005099 22.2902248,15.0005099 C22.2823858,15.0481469 22.3460023,15.0957839 22.3378618,15.1355819 C22.3300228,15.1434209 22.3221838,15.1434209 22.3062043,15.1515614 L22.0445023,14.7698624 C21.8376733,14.4683624 21.6314473,14.1659579 21.4252213,13.8563174 C21.3717425,13.780519 21.3238773,13.7009118 21.2820088,13.6181324 C21.0365241,13.1953927 20.7635836,12.7892048 20.4649438,12.4021829 C20.2352008,12.1085219 20.0518888,11.7901379 19.8378238,11.4811004 C19.6400398,11.1871379 19.4416528,10.9010144 19.2432658,10.6067504 C19.1718103,10.5117779 19.0846768,10.4243429 19.0210603,10.3209284 C18.8151358,9.99530841 18.6321253,9.66154791 18.4265023,9.33592791 C18.2516323,9.06548241 18.0616873,8.80317741 17.8789783,8.54117391 C17.8156633,8.45373891 17.7523483,8.35816341 17.6884303,8.26288941 C17.678535,8.24626716 17.6731322,8.22735738 17.6727523,8.20801641 C17.6567728,8.03314641 17.6407933,7.85827641 17.6329543,7.69154691 C17.6329543,7.53265641 17.6489338,7.37376591 17.6489338,7.20673491 L17.6489338,7.06382391 C17.6489338,7.02402591 17.6564713,6.99236841 17.6564713,6.95226891 C17.6640088,6.94473141 17.6721493,6.92875191 17.6799883,6.92091291 C17.4499438,6.92091291 17.2117588,6.91247091 16.9817143,6.92091291 C16.8309643,6.92845041 16.7516698,6.86483391 16.6485568,6.75358041 C16.3470568,6.41198091 16.1248513,6.02274441 15.8631493,5.65732641 C15.6164078,5.30964647 15.3651364,4.9652036 15.1093993,4.62408591 C14.9028718,4.34610291 14.6963443,4.07595891 14.4904198,3.79797591 C14.2600738,3.48019491 14.0381698,3.16241391 13.7999848,2.84463291 C13.5141628,2.46353691 13.2205018,2.08183791 12.9271423,1.70074191 C12.7914673,1.52587191 12.6407173,1.35914241 12.4899673,1.17613191 C12.5933818,1.19241291 12.6889573,1.20809091 12.7839298,1.21623141 L13.1650258,1.24035141 C13.4505463,1.26356691 13.7360668,1.27954641 14.0212858,1.31874141 C14.2594708,1.35100191 14.4976558,1.39863891 14.7436798,1.43813541 C15.2676868,1.52557041 15.7832518,1.66878291 16.2831388,1.83551241 C16.5767998,1.93078641 16.8620188,2.05801941 17.1484438,2.17711191 C17.7906388,2.43941691 18.4017793,2.75719791 19.0047793,3.09065691 C19.1947243,3.19407141 19.3062793,3.36080091 19.4485873,3.51185241 C19.6551148,3.72652041 19.8616423,3.94088691 20.0597278,4.16309241 C20.2894708,4.42539741 20.5035358,4.69554141 20.7260428,4.96568541 C20.9241283,5.20387041 21.1300528,5.44205541 21.3290428,5.68084341 C21.3923578,5.75229891 21.4405978,5.83973391 21.4954708,5.91902841 C21.6221008,6.10987791 21.7653133,6.29288841 21.8762653,6.49911441 C21.9552583,6.65046741 22.0028953,6.82533741 22.0583713,6.99206691 C22.1373643,7.23839241 22.2169603,7.47657741 22.2965563,7.72290291 C22.3517308,7.90561191 22.3990663,8.09676291 22.4388643,8.28670791 C22.4708233,8.41424241 22.4629843,8.54901291 22.5021793,8.67564291 C22.5504193,8.84327691 22.5021793,9.02538291 22.5504193,9.19271541 C22.5579568,9.20869491 22.5654943,9.23251341 22.5739363,9.24849291 C22.6055938,9.27984891 22.6294123,9.31180791 22.5817753,9.35944491 C22.5742378,9.36728391 22.5742378,9.39863991 22.5817753,9.42275991 C22.5980563,9.40708191 22.6058953,9.39110241 22.6218748,9.36728391 C22.6218748,9.38326341 22.6294123,9.39140391 22.6294123,9.39894141 C22.6294123,9.43029741 22.6212718,9.46225641 22.6294123,9.49391391 C22.6294123,9.50959191 22.6450903,9.53310891 22.6529293,9.54938991 C22.6689088,9.53310891 22.6845868,9.52526991 22.7162443,9.50114991 C22.7876998,9.77159541 22.7958403,10.0417394 22.7958403,10.3197224 C22.7958403,10.5820274 22.8431758,10.8443324 22.7325253,11.0984969 C22.7560423,11.0110619 22.7005663,10.9311644 22.7243848,10.8518699 L22.7277013,10.8539804 Z"/>
    <path d="M17.6579788,13.9437524 C17.6655163,13.9437524 17.6736568,13.9518929 17.6736568,13.9518929 L17.6655163,13.9428479 C17.6655163,13.9353104 17.6655163,13.9353104 17.6576773,13.9428479 L17.6579788,13.9437524 Z M18.9113143,21.7936064 C18.8238793,21.8569214 18.7364443,21.9126989 18.6254923,21.9365174 C18.6170503,21.9286784 18.6170503,21.9205379 18.6092113,21.9123974 C18.6966463,21.8569214 18.7916188,21.8014454 18.8790538,21.7456679 C18.8871943,21.7607429 18.9031738,21.7770239 18.9110128,21.7930034 L18.9113143,21.7936064 Z M4.03470132,11.0276444 C4.12213632,10.9169939 4.20957132,10.8057404 4.30424232,10.6944869 C4.31177982,10.7023259 4.37509482,10.7186069 4.38323532,10.7261444 C4.29580032,10.8376994 4.17670782,10.9884494 4.08957432,11.1075419 C4.07329332,11.0915624 4.04947482,11.0360864 4.03379682,11.0279459 L4.03470132,11.0276444 Z M1.78098882,14.9215169 C1.71767382,14.7864449 1.65435882,14.6432324 1.59104382,14.5084619 C1.61311874,14.4944746 1.63707882,14.4837128 1.66219782,14.4765029 C1.74963282,14.6031329 1.78882782,14.7538829 1.85274582,14.8895579 C1.85274582,14.8895579 1.78943082,14.9212154 1.78129032,14.9212154 L1.78098882,14.9215169 Z M3.80465682,11.1075419 C3.75701982,11.1792989 3.70938282,11.2588949 3.66174582,11.3306519 C3.65390682,11.3222099 3.56647182,11.3620079 3.55863282,11.3541689 C3.60626982,11.2827134 3.72506082,11.1551789 3.77269782,11.0840249 C3.78083832,11.0918639 3.78867732,11.1000044 3.80465682,11.1081449 L3.80465682,11.1075419 Z M18.0625918,22.1198294 C18.0701293,22.1198294 18.0701293,22.1119904 18.0782698,22.1119904 C18.1337458,22.1198294 18.1970608,22.1276684 18.2606773,22.1276684 C18.1569613,22.1991239 18.0933448,22.1909834 18.0616873,22.1198294 L18.0625918,22.1198294 Z M3.81973182,11.4413024 C3.82817382,11.4171824 3.84385182,11.3936654 3.85983132,11.3698469 C3.87550932,11.3698469 3.89902632,11.3617064 3.89902632,11.3617064 C3.93128682,11.3062304 3.93128682,11.2664324 3.96294432,11.2187954 C3.95510532,11.2109564 3.94696482,11.2109564 3.93882432,11.2028159 C3.89148882,11.2353779 3.84385182,11.2751759 3.79621482,11.3068334 C3.81219432,11.3225114 3.81219432,11.3309534 3.81219432,11.3466314 C3.74887932,11.3384909 3.72475932,11.3707514 3.69310182,11.4575834 C3.68526282,11.4817034 3.64546482,11.4895424 3.60566682,11.5208984 C3.59782782,11.5371794 3.58998882,11.5769774 3.57400932,11.6164739 L3.58214982,11.6249159 C3.56617032,11.6408954 3.54235182,11.6490359 3.54235182,11.6490359 C3.49471482,11.6963714 3.43923882,11.7364709 3.39160182,11.7838064 C3.38376282,11.8079264 3.37592382,11.8314434 3.37592382,11.8552619 C3.43170132,11.7997859 3.52667382,11.6963714 3.59812932,11.6327549 L3.60626982,11.6408954 C3.63792732,11.5932584 3.66174582,11.5456214 3.69370482,11.4979844 C3.70124232,11.5058234 3.70124232,11.5136624 3.70938282,11.5221044 C3.68526282,11.5854194 3.66174582,11.6565734 3.63792732,11.7201899 C3.62134482,11.7280289 3.59752632,11.7443099 3.59752632,11.7361694 C3.56586882,11.7602894 3.54205032,11.7916454 3.51009132,11.8154639 L3.36748182,11.9107379 C3.28818732,11.9821934 3.20889282,12.0455084 3.12145782,12.1172654 C3.06598182,12.2047004 3.01050582,12.2839949 2.94658782,12.3874094 C3.04216332,12.3632894 3.06598182,12.4033889 3.05814282,12.4829849 C3.16909482,12.4986629 3.17723532,12.4115294 3.20889282,12.3479129 C3.21673182,12.3316319 3.22487232,12.2996729 3.24055032,12.2918339 C3.31200582,12.2285189 3.39130032,12.1730429 3.47059482,12.1094264 C3.48657432,12.0934469 3.48657432,12.0611864 3.48657432,12.0376694 C3.48657432,12.0298304 3.44647482,12.0298304 3.42265632,12.0216899 C3.49411182,11.9420939 3.59752632,11.8076249 3.66868032,11.7201899 C3.70847832,11.6960699 3.74797482,11.6641109 3.74797482,11.6402924 C3.74013582,11.5528574 3.79561182,11.5293404 3.85952982,11.4973814 C3.82757082,11.4732614 3.81943032,11.4500459 3.81943032,11.4422069 L3.81973182,11.4413024 Z"/>
    <path d="M3.97892382,11.3538674 C3.94726632,11.4093434 3.91560882,11.4569804 3.88395132,11.5127579 L3.83631432,11.4886379 C3.80465682,11.6710454 3.69340332,11.8299359 3.58245132,11.8615934 C3.61410882,11.8775729 3.64576632,11.8935524 3.66988632,11.8857134 C3.69340332,11.8775729 3.70908132,11.8374734 3.72506082,11.8139564 L3.93912582,11.5040144 L4.01088282,11.3846204 L3.97922532,11.3529629 L3.97892382,11.3538674 Z M1.33718082,14.8416194 C1.37697882,14.8416194 1.41677682,14.8494584 1.46381082,14.8494584 C1.46381082,14.8178009 1.50391032,14.8253384 1.50391032,14.7939824 L1.52803032,14.7939824 C1.52803032,14.8337804 1.53586932,14.8654379 1.53586932,14.9055374 L1.36944132,14.9055374 C1.36130082,14.8973969 1.32964332,14.8494584 1.33748232,14.8416194 L1.33718082,14.8416194 Z M1.27386582,14.4762014 C1.24974582,14.4520814 1.21055082,14.4285644 1.21055082,14.4047459 C1.20241032,14.3733899 1.22622882,14.3338934 1.24974582,14.2940954 C1.26602682,14.3495714 1.27386582,14.3972084 1.28954382,14.4529859 C1.28140332,14.4605234 1.27356432,14.4686639 1.27356432,14.4765029 L1.27386582,14.4762014 Z M1.47225282,13.9675709 C1.50391032,14.0477699 1.53556782,14.1352049 1.56752682,14.2148009 C1.54497639,14.222174 1.52364052,14.2328419 1.50421182,14.2464584 C1.47255432,14.1668624 1.43275632,14.0794274 1.40109882,14.0001329 C1.42253404,13.9847974 1.44683422,13.973929 1.47255432,13.9681739 L1.47225282,13.9675709 Z M19.1341228,21.5635619 C19.1733178,21.5478839 19.2209548,21.5394419 19.2848728,21.5243669 C19.2131158,21.5795414 19.1576398,21.6193394 19.1100028,21.6669764 C19.1018623,21.6591374 19.0940233,21.6509969 19.0858828,21.6509969 C19.1018623,21.6193394 19.1178418,21.5955209 19.1341228,21.5635619 Z M9.38180382,4.77574041 C9.42913932,4.74378141 9.46923882,4.71996291 9.51657432,4.68830541 L9.53225232,4.70398341 C9.48401232,4.76729841 9.44481732,4.83061341 9.38903982,4.91051091 C9.38120082,4.85533641 9.38120082,4.82307591 9.37306032,4.78388091 C9.36522132,4.78388091 9.37306032,4.78388091 9.38120082,4.77604191 L9.38180382,4.77574041 Z M11.7063688,8.79563991 C11.7778243,8.76368091 11.8492798,8.73232491 11.9364133,8.69222541 C11.9285743,8.73986241 11.9285743,8.77182141 11.9285743,8.80378041 C11.9029769,8.79450555 11.8761617,8.78902062 11.8489783,8.78749941 C11.8013413,8.79563991 11.7139063,8.85925641 11.6741083,8.86709541 C11.6665708,8.86709541 11.7060673,8.80378041 11.7060673,8.79563991 L11.7063688,8.79563991 Z M17.6579788,15.5329589 C17.6736568,15.6122534 17.8244068,15.6520514 17.6736568,15.7313459 C17.6977768,15.7479284 17.7209923,15.7554659 17.7448108,15.7717469 C17.74292,15.7837349 17.7374558,15.7948733 17.7291328,15.8037059 C17.7131533,15.8112434 17.6814958,15.8272229 17.6658178,15.8187809 C17.6576773,15.8187809 17.6416978,15.7874249 17.6416978,15.7714454 C17.6416978,15.6999899 17.6498383,15.6285344 17.6576773,15.5332604 L17.6579788,15.5329589 Z"/>
  </g>
</svg>
