<svg xmlns="http://www.w3.org/2000/svg" width="32" height="32" viewBox="0 0 32 32">
  <path fill="#8251A8" d="M19.7069172,0.045375 L2.29384138,0.045375 C1.09185545,0.045375 0.117206897,1.008948 0.117206897,2.197275 L0.117206897,21.803475 C0.117206897,22.991802 1.09185545,23.955375 2.29384138,23.955375 L19.7069172,23.955375 C20.9089032,23.955375 21.8835517,22.991802 21.8835517,21.803475 L21.8835517,2.197275 C21.8835517,1.008948 20.9089032,0.045375 19.7069172,0.045375 Z M5.5587931,20.368875 L5.5587931,15.586875 L8.27958621,17.977875 L5.5587931,20.368875 Z M14.0234828,20.368875 L14.0234828,13.2287513 C14.0116927,12.6707516 13.7399157,12.000375 12.511931,12.000375 C10.0529387,12.000375 7.2946591,13.2230726 7.26714886,13.2353265 L5.5587931,14.0004465 L5.5587931,3.631875 L7.97727586,3.631875 L7.97727586,10.4196251 C9.18470338,10.0310876 10.872502,9.609375 12.511931,9.609375 C14.0068557,9.609375 14.9016943,10.190388 15.3890186,10.6778531 C16.4292685,11.7179381 16.4434771,13.042851 16.4420338,13.195875 L16.4420338,20.368875 L14.0234828,20.368875 Z M14.6281034,7.51725 L12.2096207,7.51725 C13.1600844,6.28439063 13.756845,4.98697425 14.0234828,3.631875 L16.4419655,3.631875 C16.2787179,4.989963 15.7218623,6.2918625 14.6281034,7.51725 Z" transform="translate(5 4)"/>
</svg>
