<svg xmlns="http://www.w3.org/2000/svg" width="32" height="32" viewBox="0 0 32 32">
  <path fill="#D14748" fill-rule="evenodd" d="M28.8160477,8.47851003 C28.9065639,8.47851003 28.9065639,8.56733524 29,8.65902579 C28.8160477,8.83954155 28.6350152,9.10601719 28.4510628,9.37535817 L28.3605466,9.37535817 C27.630577,8.65902579 26.8100911,8.3008596 25.8056529,8.21203438 C24.7106984,8.03151862 23.615744,8.21203438 22.6113058,8.75071633 C19.9658958,9.91404011 18.231488,11.8853868 17.317566,14.5702006 C17.0430974,15.4670487 16.8620649,16.4498567 16.7686288,17.4355301 C16.7686288,18.1518625 16.7686288,18.9570201 16.8591451,19.6733524 C16.9496613,20.8366762 17.1336136,22.0028653 17.3146461,23.1661891 C17.7701472,24.7793696 18.2285681,26.3896848 18.8651016,27.9111748 L18.8651016,28 L6.73008643,28 C6.73008643,27.730659 6.73008643,27.5530086 6.63957019,27.3724928 C6.63957019,26.0286533 6.73008643,24.7765043 7.00455501,23.52149 C7.27902359,21.6418338 7.73452464,19.8510029 8.37397804,18.1489971 C8.92291521,16.5358166 9.65288484,15.1031519 10.3828545,13.5816619 C10.9317916,12.6848138 11.3872927,11.7908309 11.93331,10.8939828 C12.9377482,9.55014327 14.0327026,8.29799427 15.4926419,7.31232092 C16.9525812,6.32664756 18.5030367,5.6991404 20.2374445,5.52148997 C21.9718524,5.252149 23.6128241,5.52148997 25.1661995,6.14899713 C26.5356225,6.7765043 27.7210932,7.49283668 28.8160477,8.47851003 L28.8160477,8.47851003 Z M4.2715487,22 C5.09203457,22 5.91544032,22.0888252 6.73592619,22.1805158 C6.55197384,22.9856734 6.4614576,23.7020057 6.28042513,24.5100287 C5.5504555,24.4212034 4.82048587,24.3295129 4,24.2406877 C4.09051623,23.4355301 4.18395235,22.7191977 4.27446858,22.0028653 L4.2715487,22 Z M8.74188274,15.2836676 C8.46741416,15.9111748 8.28638169,16.4469914 8.10242934,17.0744986 C7.37245971,16.8051576 6.64249007,16.6275072 5.91252044,16.3581662 C6.18698902,15.730659 6.36802149,15.1031519 6.64249007,14.47851 C7.28194347,14.747851 8.0119131,15.017192 8.74188274,15.2836676 L8.74188274,15.2836676 Z M20.0564121,24.2378223 C20.3308806,24.7765043 20.6053492,25.3123209 20.7863817,25.8510029 C20.8768979,25.8510029 20.8768979,25.8510029 20.8768979,25.9398281 L20.6929456,25.9398281 C19.9629759,25.8510029 19.3235225,25.8510029 18.5935529,25.8510029 C18.5030367,25.7621777 18.4096006,25.7621777 18.4096006,25.6704871 C18.2256482,25.2234957 18.135132,24.6848138 18.0446157,24.2378223 C17.9540995,24.2378223 17.9540995,24.2378223 17.9540995,24.1489971 L19.8695398,24.1489971 C19.9600561,24.1489971 19.9600561,24.2378223 20.0534922,24.2378223 L20.0564121,24.2378223 Z M12.3012147,9.5530086 C11.8457136,10.0916905 11.4807288,10.5386819 11.0223079,11.0744986 L9.37841626,10 C9.83391731,9.46131805 10.1989021,9.01432665 10.6573231,8.56733524 C11.2062602,8.92550143 11.7522775,9.28366762 12.3012147,9.5530086 L12.3012147,9.5530086 Z M17.317566,20.1203438 C17.4080822,19.6733524 17.4080822,19.1346705 17.4080822,18.5988539 C17.4985985,18.5988539 17.4985985,18.6876791 17.4985985,18.6876791 C18.0475356,18.9570201 18.5935529,19.226361 19.049054,19.4928367 C19.1395702,19.4928367 19.1395702,19.4928367 19.1395702,19.5816619 C19.2300864,20.0286533 19.2300864,20.47851 19.2300864,20.8366762 L19.2300864,21.017192 C19.2300864,21.017192 19.2300864,20.9283668 19.1395702,20.9283668 C18.590633,20.747851 18.0446157,20.4813754 17.4051623,20.2120344 C17.4051623,20.2120344 17.3146461,20.2120344 17.3146461,20.1232092 L17.317566,20.1203438 Z M16.8620649,5.88252149 C16.4065639,6.24068768 15.8576267,6.51002865 15.4021257,6.77936963 L14.3071712,5.43553009 L14.3976875,5.43553009 C14.7626723,5.16618911 15.2181733,4.98853868 15.6765943,4.71919771 L15.8605466,4.71919771 C16.2255314,5.16618911 16.5,5.5243553 16.8649848,5.88252149 L16.8620649,5.88252149 Z M17.5015183,15.730659 C17.6854707,15.2836676 17.8665032,14.9255014 18.0504555,14.5673352 L19.14541,15.3724928 C19.2359262,15.3724928 19.3293623,15.4613181 19.3293623,15.4613181 L19.4198785,15.5501433 C19.2359262,15.9971347 19.14541,16.5358166 19.0548937,16.982808 L19.0548937,16.982808 C18.5059566,16.5358166 17.9599393,16.0859599 17.5044382,15.7277937 L17.5015183,15.730659 Z M21.7908199,5.25501433 L19.8753796,5.25501433 C19.7848633,4.89684814 19.6914272,4.44985673 19.600911,4 L20.2403644,4 C20.6958655,4 21.0608503,4.08882521 21.4258351,4.08882521 C21.6097874,4.08882521 21.6097874,4.08882521 21.6097874,4.17765043 C21.7003037,4.53581662 21.7003037,4.80515759 21.7937398,5.16332378 L21.7937398,5.252149 L21.7908199,5.25501433 Z M20.7863817,12.2406877 C20.6024293,12.5100287 20.4213969,12.7793696 20.2374445,13.1375358 C19.8724597,12.5988539 19.4169587,12.1518625 18.9585377,11.7048711 C19.2330063,11.3467049 19.5979911,11.0773639 19.8724597,10.8080229 C19.9629759,10.8080229 19.9629759,10.8968481 19.9629759,10.8968481 C20.2374445,11.2550143 20.5119131,11.7020057 20.7834618,12.0601719 L20.7834618,12.2406877 L20.7863817,12.2406877 Z M23.0668068,9.10601719 C23.1573231,9.37535817 23.1573231,9.5530086 23.2507592,9.82234957 L23.1602429,9.82234957 C22.8857744,10.0916905 22.6113058,10.269341 22.3397571,10.5386819 C22.1558047,10.1805158 21.9747722,9.82234957 21.7908199,9.37535817 C22.246321,9.28653295 22.6113058,9.19484241 23.0697267,9.10601719 L23.0668068,9.10601719 Z M25.9866854,6.24068768 L25.9866854,5.43553009 C26.5356225,5.70487106 26.9911236,6.06303725 27.5371409,6.42120344 C27.4466246,6.6017192 27.3531885,6.69054441 27.2626723,6.86819484 C26.8071712,6.59885387 26.3487503,6.42120344 25.9837655,6.24068768 L25.9866854,6.24068768 Z M26.9006073,9.10601719 C26.9006073,9.10601719 26.9911236,9.10601719 26.9911236,9.19484241 L26.9911236,9.64183381 C26.5356225,9.5530086 26.1706377,9.5530086 25.7122168,9.5530086 L25.7122168,8.83667622 C25.802733,8.83667622 25.8961691,8.83667622 25.9866854,8.92550143 C26.2611539,8.92550143 26.6261388,9.01432665 26.9006073,9.10601719 L26.9006073,9.10601719 Z"/>
</svg>
