<svg xmlns="http://www.w3.org/2000/svg" width="32" height="32" viewBox="0 0 32 32">
  <path fill="#7ACCEE" d="M12,0 C5.383,0 0,5.383 0,12 C0,18.617 5.383,24 12,24 C18.617,24 24,18.617 24,12 C24,5.383 18.617,0 12,0 Z M14.658,18.284 C13.997,18.544 11.706,19.638 10.386,18.475 C9.992,18.129 9.796,17.69 9.796,17.157 C9.796,16.159 10.124,15.289 10.715,13.2 C10.819,12.805 10.946,12.293 10.946,11.887 C10.946,11.186 10.68,11 9.959,11 C9.607,11 9.217,11.125 8.864,11.257 L9.059,10.458 C9.846,10.138 10.834,9.748 11.68,9.748 C12.949,9.748 13.883,10.381 13.883,11.585 C13.883,11.932 13.823,12.54 13.697,12.96 L12.967,15.542 C12.816,16.064 12.543,17.215 12.966,17.556 C13.382,17.893 14.367,17.714 14.853,17.485 L14.658,18.284 Z M13.452,8 C12.624,8 11.952,7.328 11.952,6.5 C11.952,5.672 12.624,5 13.452,5 C14.28,5 14.952,5.672 14.952,6.5 C14.952,7.328 14.28,8 13.452,8 Z" transform="translate(4 4)"/>
</svg>
