<svg xmlns="http://www.w3.org/2000/svg" width="32" height="32" viewBox="0 0 32 32">
  <g fill="none" fill-rule="evenodd" transform="translate(4 4)">
    <rect width="24" height="24" fill="#D14748"/>
    <path fill="#FFF" d="M11.9156079,21.9130435 L9.75218557,17.9294163 L8.46159226,17.9294163 L8.46159226,21.9130435 L6.26086957,21.9130435 L6.26086957,11.4782609 L9.94614757,11.4782609 C11.2591277,11.4782609 12.2413613,11.7438334 12.892878,12.2749863 C13.5443946,12.8061392 13.870148,13.5719162 13.870148,14.5723402 C13.870148,15.2788252 13.6861346,15.8795863 13.3181023,16.3746414 C12.95007,16.8696966 12.4403032,17.2177771 11.7887866,17.4188932 L14.3923534,21.9130435 L11.9156079,21.9130435 Z M11.6545052,14.6651626 C11.6545052,14.1804211 11.5003318,13.8233163 11.1919804,13.5938376 C10.883629,13.3643589 10.3912689,13.2496213 9.71488518,13.2496213 L8.46159226,13.2496213 L8.46159226,16.1580559 L9.7745658,16.1580559 C11.027865,16.1580559 11.6545052,15.6604298 11.6545052,14.6651626 Z M15.4293041,21.9130435 L15.4293041,11.4782609 L22.6506586,11.4782609 L22.6506586,13.2418861 L17.6300268,13.2418861 L17.6300268,15.7480904 L22.1955939,15.7480904 L22.1955939,17.5117156 L17.6300268,17.5117156 L17.6300268,20.1494182 L22.9565217,20.1494182 L22.9565217,21.9130435 L15.4293041,21.9130435 Z"/>
  </g>
</svg>
