<svg xmlns="http://www.w3.org/2000/svg" width="32" height="32" viewBox="0 0 32 32">
  <defs>
    <linearGradient id="rollup-a" x1="36.046%" x2="60.583%" y1="48.223%" y2="55.339%">
      <stop offset="0%" stop-color="#FF6533"/>
      <stop offset="15.7%" stop-color="#FF5633"/>
      <stop offset="43.4%" stop-color="#FF4333"/>
      <stop offset="71.4%" stop-color="#FF3733"/>
      <stop offset="100%" stop-color="#F33"/>
    </linearGradient>
    <linearGradient id="rollup-b" x1="32.208%" x2="76.182%" y1="38.133%" y2="80.432%">
      <stop offset="0%" stop-color="#AC4142"/>
      <stop offset="100%" stop-color="#D14748"/>
    </linearGradient>
    <linearGradient id="rollup-c" x1="41.266%" x2="47.811%" y1="39.503%" y2="48.92%">
      <stop offset="0%" stop-color="#FF6533"/>
      <stop offset="15.7%" stop-color="#FF5633"/>
      <stop offset="43.4%" stop-color="#FF4333"/>
      <stop offset="71.4%" stop-color="#FF3733"/>
      <stop offset="100%" stop-color="#F33"/>
    </linearGradient>
    <linearGradient id="rollup-d" x1="43.543%" x2="52.623%" y1="47.22%" y2="54.541%">
      <stop offset="0%" stop-color="#F4BF75"/>
      <stop offset="100%" stop-color="#FB8840"/>
    </linearGradient>
    <linearGradient id="rollup-e" x1="53.402%" x2="44.097%" y1="5.891%" y2="128.024%">
      <stop offset="0%" stop-color="#FFF"/>
      <stop offset="100%" stop-color="#FFF" stop-opacity="0"/>
    </linearGradient>
  </defs>
  <g fill="none" transform="translate(6 4)">
    <path fill="url(#rollup-a)" d="M16.4909468,5.37551698 C16.4909468,3.96444377 16.1070306,2.64156264 15.4308145,1.49506566 C13.6377512,-0.281374717 9.73751144,-0.692937736 8.76899552,1.48666642 C7.77430349,3.72086566 10.4399036,6.20704226 11.6047403,6.00966 C13.088053,5.75768264 11.3429793,2.48197698 11.3429793,2.48197698 C13.6115751,6.59760717 13.088053,5.33772038 8.98712974,9.11738075 C4.88620646,12.8970411 0.698029494,20.8721245 0.0872536868,21.2080943 C0.0610775807,21.2248928 0.0349014747,21.2374917 0.00436268434,21.2500906 L16.0895798,21.2500906 C16.3731543,21.2500906 16.5563871,20.9603166 16.4298692,20.7167385 L12.2242415,12.7038585 C12.1326251,12.531674 12.1980654,12.3174932 12.3725728,12.2209019 C14.8331268,10.8602242 16.4909468,8.30685358 16.4909468,5.37551698 L16.4909468,5.37551698 Z" transform="translate(2.572 2.547)"/>
    <path fill="url(#rollup-b)" d="M16.4909468,5.37551698 C16.4909468,3.96444377 16.1070306,2.64156264 15.4308145,1.49506566 C13.6377512,-0.281374717 9.73751144,-0.692937736 8.76899552,1.48666642 C7.77430349,3.72086566 10.4399036,6.20704226 11.6047403,6.00966 C13.088053,5.75768264 11.3429793,2.48197698 11.3429793,2.48197698 C13.6115751,6.59760717 13.088053,5.33772038 8.98712974,9.11738075 C4.88620646,12.8970411 0.698029494,20.8721245 0.0872536868,21.2080943 C0.0610775807,21.2248928 0.0349014747,21.2374917 0.00436268434,21.2500906 L16.0895798,21.2500906 C16.3731543,21.2500906 16.5563871,20.9603166 16.4298692,20.7167385 L12.2242415,12.7038585 C12.1326251,12.531674 12.1980654,12.3174932 12.3725728,12.2209019 C14.8331268,10.8602242 16.4909468,8.30685358 16.4909468,5.37551698 L16.4909468,5.37551698 Z" transform="translate(2.572 2.547)"/>
    <path fill="url(#rollup-c)" d="M2.6586149,23.7532075 C3.26936718,23.4172528 7.45721486,15.4384906 11.5580362,11.6588679 C15.6588576,7.87924528 16.1821915,9.13920755 13.9137838,5.02377358 C13.9137838,5.02377358 5.23232033,16.7403774 2.09153257,22.5354717"/>
    <path fill="#D14748" d="M3.22838641,13.2288113 C9.09183416,2.85154377 9.8596666,1.80583774 12.9135456,1.80583774 C14.5190135,1.80583774 16.1375694,2.50297509 17.1846136,3.74186377 C15.7580158,1.52866264 13.2320216,0.0461958491 10.3395619,0.00419962264 L0.379553537,0.00419962264 C0.170144689,0.00419962264 0,0.167984906 0,0.369566792 L0,19.6962302 C0.59332507,18.2221626 1.60110515,16.1139521 3.22838641,13.2288113 Z" transform="translate(.652 .027)"/>
    <path fill="url(#rollup-d)" d="M11.5580362,11.6588679 C7.45721486,15.4384906 3.26936718,23.4173585 2.6586149,23.7532075 C2.04786261,24.0890566 1.02267687,24.1311698 0.477351129,23.543234 C-0.102863543,22.9174981 -1.00589882,21.9054604 3.88008027,13.2545547 C9.74338062,2.87757358 10.5109371,1.83191321 13.5646985,1.83191321 C15.1700989,1.83191321 16.7885925,2.52900755 17.8356524,3.76783774 C17.8923646,3.85602642 17.9490767,3.94841509 18.0057889,4.0408 C16.2128115,2.26442264 12.3126211,1.85287547 11.3443552,4.03240113 C10.3497071,6.26651434 13.0151822,8.75240113 14.1799629,8.55504264 C15.6632128,8.3030766 13.9182136,5.02749547 13.9182136,5.02749547 C16.1823483,9.13881623 15.6588576,7.87892943 11.5581146,11.6584389 L11.5580362,11.6588679 Z"/>
    <path fill="url(#rollup-e)" d="M4.35994027,13.7166038 C10.2232406,3.33962264 10.9907971,2.29396226 14.0445585,2.29396226 C15.3663786,2.29396226 16.6969405,2.76849057 17.7090722,3.62516981 C16.6620907,2.4745283 15.1090237,1.832 13.5647377,1.832 C10.5109763,1.832 9.74318462,2.87766038 3.88011947,13.2546415 C-1.00589882,21.9055849 -0.102706739,22.9176604 0.47739033,23.5433208 C0.560277021,23.6315094 0.65625294,23.7070981 0.756588016,23.7700906 C0.246190405,23.0562038 0.0193339556,21.3974113 4.36002651,13.7165057 L4.35994027,13.7166038 Z" opacity=".3"/>
  </g>
</svg>
