<svg xmlns="http://www.w3.org/2000/svg" xmlns:xlink="http://www.w3.org/1999/xlink" width="32" height="32" viewBox="0 0 32 32">
  <defs>
    <path id="scala-a" d="M20.8992701,24 L2.92554745,24 C1.31386861,24 0,22.6764706 0,21.0529412 L0,2.94705882 C0,1.32352941 1.31386861,0 2.92554745,0 L20.9167883,0 C22.5284672,0 23.8423358,1.32352941 23.8423358,2.94705882 L23.8423358,21.0705882 C23.8248175,22.6764706 22.5109489,24 20.8992701,24 Z"/>
  </defs>
  <g fill="none" fill-rule="evenodd" transform="translate(4 4)">
    <path fill="#DC332D" fill-rule="nonzero" d="M20.8992701,24 L2.92554745,24 C1.31386861,24 0,22.6764706 0,21.0529412 L0,2.94705882 C0,1.32352941 1.31386861,0 2.92554745,0 L20.9167883,0 C22.5284672,0 23.8423358,1.32352941 23.8423358,2.94705882 L23.8423358,21.0705882 C23.8248175,22.6764706 22.5109489,24 20.8992701,24 Z"/>
    <mask id="scala-b" fill="#fff">
      <use xlink:href="#scala-a"/>
    </mask>
    <use fill="#D14748" xlink:href="#scala-a"/>
    <polygon fill="#AC4142" fill-rule="nonzero" points="6.394 9.776 7.953 11.347 6.394 15.706 8.076 17.382 6.394 21.618 8.777 24 23.825 24 23.825 8.824 17.431 2.382 17.431 3.6" mask="url(#scala-b)"/>
    <g fill="#FFF" fill-rule="nonzero" transform="translate(6.307 2.294)">
      <path d="M.0875912409 4.48235294C.0875912409 4.48235294 11.1065693 5.59411765 11.1065693 7.44705882L11.1065693 3C11.1065693 3 11.1065693 1.14705882.0875912409.0352941176L.0875912409 1.76470588.0875912409 4.48235294zM.0875912409 10.4117647C.0875912409 10.4117647 11.1065693 11.5235294 11.1065693 13.3764706L11.1065693 8.92941176C11.1065693 8.92941176 11.1065693 7.07647059.0875912409 5.96470588L.0875912409 10.4117647z" opacity=".6" transform="translate(0 3)"/>
      <path d="M11.1240876.0882352941L11.1240876 4.53529412C11.1240876 4.53529412 11.1240876 6.38823529.105088656 7.5L.105088656 3.03529412C.0875912409 3.03529412 11.1240876 1.94117647 11.1240876.0882352941M.0875912409 8.96470588C.0875912409 8.96470588 11.1065693 7.85294118 11.1065693 6L11.1065693 10.4470588C11.1065693 10.4470588 11.1065693 12.3.0875912409 13.4117647L.0875912409 8.96470588zM.0875912409 19.3235294L.0875912409 14.8764706C.0875912409 14.8764706 11.1065693 13.7647059 11.1065693 11.9117647L11.1065693 16.3588235C11.1240876 16.3764706 11.1240876 18.2117647.0875912409 19.3235294"/>
    </g>
  </g>
</svg>
