<svg xmlns="http://www.w3.org/2000/svg" width="32" height="32" viewBox="0 0 32 32">
  <g fill="none" transform="translate(5 4)">
    <polygon fill="#8E989E" points="10.419 9.439 6.439 5.293 7.68 4 3.84 0 0 4 3.84 8 5.081 6.707 8.821 10.603"/>
    <path fill="#78909C" d="M18.1824,13.94 C17.88576,13.976 17.58528,14 17.28,14 C16.9872,14 16.69632,13.982 16.40448,13.947 L12.90912,18.446 L17.2464,22.964 C18.57216,24.345 20.72064,24.345 22.0464,22.964 L22.0464,22.964 C23.37216,21.583 23.37216,19.345 22.0464,17.964 L18.1824,13.94 Z"/>
    <path fill="#C5C6C6" d="M19.46016,6.771 L16.53984,3.729 L19.61952,0.521 C18.90432,0.189 18.11424,0 17.28,0 C14.09856,0 11.52,2.686 11.52,6 C11.52,6.594 11.60544,7.166 11.76,7.708 L1.40256,16.438 C0.5472,17.225 0.03648,18.357 0.00192,19.544 C-0.0336,20.732 0.40896,21.895 1.21536,22.734 C1.99872,23.551 3.04032,24 4.14816,24 C5.3376,24 6.47232,23.468 7.25952,22.539 L15.64032,11.75 C16.16064,11.911 16.70976,12 17.28,12 C20.46144,12 23.04,9.314 23.04,6 C23.04,5.131 22.85856,4.308 22.53984,3.562 L19.46016,6.771 Z"/>
  </g>
</svg>
