<svg xmlns="http://www.w3.org/2000/svg" width="32" height="32" viewBox="0 0 32 32">
  <g fill="none" fill-rule="evenodd" transform="translate(7 4)">
    <polygon fill="#343944" points="3.871 22.333 1.894 1.833 .412 1.833 1.894 22.333"/>
    <path fill="#FF6E9F" d="M13.9208955,0.940241393 L13.5882353,4.09395109 L15.4973238,3.07577014 L17.0882353,4.09395109 L17.0882353,0.712998713 L16.948258,0.721426931 L17.7058824,0.666666667 L17.7058824,23.0833333 L2.55294118,22.3333333 L1.56470588,1.83333333 L13.9208955,0.940241393 Z M11.0056471,9.44 L14.1877647,9.36 C14.2668235,6.24 12.6658824,4.70000083 9.87905882,4.70000083 C7.09223529,4.70000083 5.53082353,6.3 5.53082353,8.70000083 C5.53082353,12.88 10.8672941,12.96 10.8672941,15.24 C10.8672941,15.88 10.5708235,16.26 9.91858824,16.26 C9.06870588,16.26 8.73270588,15.7000008 8.77223529,14.14 L5.432,14.14 C5.17505882,18 7.40847059,18.88 9.95811765,18.88 C12.4287059,18.88 14.3656471,17.72 14.3656471,15.2000008 C14.3656471,10.72 8.95011765,10.84 8.95011765,8.62 C8.95011765,7.72 9.58258824,7.6 9.95811765,7.6 C10.3534118,7.6 11.0649412,7.76 11.0056471,9.44 Z"/>
  </g>
</svg>
