<svg xmlns="http://www.w3.org/2000/svg" width="32" height="32" viewBox="0 0 32 32">
  <path fill="#AEE33E" fill-rule="evenodd" stroke="#AEE33E" d="M19.53349.690263643C19.6524499.785058622 19.7339765.911683417 19.7780697 1.06979079 19.8219333 1.22789817 19.8280191 1.40822855 19.7969012 1.61055043 19.7654388 1.81310381 19.6934428 2.01542569 19.5804539 2.21763183 19.5551921 2.24297994 19.5239594 2.24297994 19.4862964 2.21763183 19.4487482 2.19228372 19.4234865 2.16080114 19.4110852 2.12283685 19.4361174 1.97097969 19.3829528 1.84458639 19.2510176 1.7433097 19.1193119 1.6422645 18.915151 1.59145254 18.6393385 1.59145254 18.1246876 1.59145254 17.607166 1.7843991 17.0865441 2.17017647 16.5656926 2.55618533 16.0605723 3.06546238 15.5712979 3.69754466 15.0819088 4.33020565 14.6237523 5.05754589 14.1972879 5.87956535 13.770479 6.70181631 13.4002794 7.54929963 13.0866891 8.42189956 12.772984 9.29461524 12.5249595 10.1610807 12.3431896 11.0211802 12.161305 11.8815112 12.0704775 12.6655664 12.0704775 13.3740402 12.0704775 13.7532201 12.1769213 13.9431573 12.390498 13.9431573 12.5410351 13.9431573 12.6883571 13.8798449 12.8326936 13.7532201 12.9768005 13.6269426 13.1434133 13.4373526 13.3316134 13.184103 13.3691615 13.1591021 13.4036094 13.1622272 13.4349569 13.1937098 13.4661896 13.2255396 13.4756054 13.2665133 13.463319 13.3168623 13.2120793 13.6963894 12.9174353 14.0126042 12.5785833 14.2655065 12.2398461 14.5187561 11.9321119 14.6450337 11.6562995 14.6450337 11.4178055 14.6450337 11.251652 14.5754711 11.1576094 14.4362301 11.0635667 14.2972206 11.0163732 14.1203626 11.0163732 13.9050773 11.0163732 13.3106121 11.1416485 12.5672991 11.3928882 11.6758327 11.6437834 10.7840191 11.9791907 9.84185659 12.3999138 8.84876633 12.8202924 7.85590756 13.3064664 6.8661739 13.8586655 5.87956535 14.4107498 4.8929568 14.9848806 4.00449983 15.5810581 3.21396294 16.1768912 2.42342606 16.7762838 1.78138973 17.3785471 1.28796971 17.9804659.794549695 18.5450662.547897557 19.0722332.547897557 19.2604333.547897557 19.4139559.595468664 19.53349.690263643zM.946564198 23.7197721C.827489453 23.6249771.745962868 23.4983523.701869617 23.340245.658120843 23.1819061.65192023 23.0018072.683038124 22.7994853.714615322 22.5969319.786611334 22.3947258.899485465 22.1924039.924747224 22.1668243.955979944 22.1668243.99364293 22.1924039 1.03119109 22.2175205 1.05645285 22.2492346 1.06885407 22.2871989 1.04393679 22.4390561 1.09710131 22.5654494 1.22892176 22.666726 1.36062739 22.7676555 1.5646735 22.8183517 1.8406008 22.8183517 2.35525172 22.8183517 2.87288813 22.6254052 3.39351001 22.2396278 3.91424672 21.8539662 4.41936706 21.3448049 4.90875623 20.7126068 5.39814539 20.0799458 5.85630183 19.3527213 6.28276625 18.5305861 6.70946032 17.7083352 7.07977474 16.8608519 7.3932502 15.9881362 7.70695531 15.1154205 7.95497985 14.248955 8.13686451 13.3888555 8.31874917 12.5285245 8.40957668 11.7444694 8.40957668 11.0361113 8.40957668 10.6565841 8.30313281 10.4669942 8.08955613 10.4669942 7.93890418 10.4669942 7.7915822 10.5299593 7.64736052 10.6565841 7.50325367 10.7828617 7.33664089 10.9727989 7.14844079 11.2259327 7.11089263 11.2509336 7.07644478 11.2478085 7.04509723 11.2163259 7.01386451 11.1844961 7.00444876 11.1434067 7.01673516 11.0928262 7.26797484 10.7136463 7.56261881 10.3970843 7.90147085 10.144182 8.24020807 9.89127961 8.54782739 9.76500205 8.8237547 9.76500205 9.06224866 9.76500205 9.22840214 9.83421743 9.32244478 9.97345841 9.41648742 10.1126994 9.46368097 10.2896732 9.46368097 10.5049585 9.46368097 11.0994237 9.33840562 11.8423895 9.08716594 12.734203 8.83627075 13.6260166 8.50086349 14.5681792 8.08014038 15.5612694 7.65976175 16.5541282 7.17358772 17.5438618 6.62138864 18.5304704 6.06930439 19.5170789 5.49517351 20.4055359 4.89911083 21.1960728 4.3032778 21.9866097 3.70388516 22.628646 3.10150704 23.1218345 2.4994734 23.6152546 1.93487309 23.8620224 1.40782095 23.8620224 1.21950602 23.8620224 1.06598342 23.8145671.946564198 23.7197721z" transform="translate(6 4)"/>
</svg>
