<svg xmlns="http://www.w3.org/2000/svg" width="32" height="32" viewBox="0 0 32 32">
  <g fill="none" fill-rule="evenodd" transform="translate(4 5)">
    <path fill="#78909C" d="M12.1706194,22.8430481 C14.7898472,13.493173 14.7138694,13.4508107 16.6072101,6.78426619 L17.0624954,7.04673817 C17.3098446,7.18937715 17.5123164,7.07273584 17.5123164,6.78821226 L17.5123164,3.60895297 C18.0147463,1.85236955 18.4084705,0.495036016 18.5238033,0.086907468 L20.575087,0.086907468 L23.9826351,3.23819606 L21.7446913,5.168871 L23.4368972,6.99526511 L12.2838013,22.842816 C12.229274,22.932299 12.1533544,22.9118723 12.1706194,22.842816 L12.1706194,22.8430481 Z"/>
    <path fill="#D14748" d="M16.7897427,0.88650981 L13.7587701,2.63322804 C13.7939396,2.6866161 13.8153319,2.74812844 13.8153319,2.81521171 L13.8153319,4.44459225 C13.8153319,4.5291427 13.7824877,4.60533675 13.7283673,4.66684909 L16.7897427,6.43109253 C16.9984346,6.55138977 17.1696316,6.45297003 17.1696316,6.21266571 L17.1696316,1.10516876 C17.1696316,0.864632309 16.9984927,0.766502723 16.7897427,0.88650981 Z M10.2069398,4.44447619 L10.2069398,2.81515367 C10.2069398,2.74841859 10.2283321,2.68690626 10.2630947,2.63351819 L7.23212205,0.88650981 C7.02354648,0.766502723 6.85252382,0.864690339 6.85252382,1.10516876 L6.85252382,6.21260768 C6.85252382,6.45285397 7.02331395,6.55150583 7.23212205,6.43080238 L10.2933231,4.66638485 C10.2394934,4.60487251 10.2068816,4.52885255 10.2068816,4.4443021 L10.2069398,4.44447619 Z M13.3890542,2.690214 C13.4897959,2.690214 13.5720519,2.74580722 13.5720519,2.81480549 L13.5720519,4.44412801 C13.5720519,4.51295219 13.4897959,4.5688936 13.3891123,4.5688936 L10.6339151,4.5688936 C10.5326502,4.5688936 10.4506267,4.51318431 10.4506267,4.44412801 L10.4506267,2.81480549 C10.4506267,2.74603934 10.532592,2.690214 10.6339151,2.690214 L13.3891123,2.690214 L13.3890542,2.690214 Z"/>
    <path fill="#78909C" d="M11.7317271,22.8430481 L11.844909,22.8430481 C9.22608818,13.493173 9.30148464,13.4508107 7.40831841,6.78426619 L6.95297493,7.04673817 C6.70574196,7.18937715 6.50321206,7.07273584 6.50321206,6.78821226 L6.50321206,3.60895297 C6.00066586,1.85236955 5.60711609,0.495036016 5.49143455,0.086907468 L3.44038335,0.086907468 L0.0328934057,3.23819606 L2.27060462,5.168871 L0.578398731,6.99526511 L11.7317271,22.8430481 Z"/>
    <ellipse cx="11.925" cy="7.145" fill="#78909C" rx="1" ry="1"/>
    <ellipse cx="11.925" cy="12.056" fill="#78909C" rx="1" ry="1"/>
    <ellipse cx="11.925" cy="16.966" fill="#78909C" rx="1" ry="1"/>
  </g>
</svg>
