<svg xmlns="http://www.w3.org/2000/svg" width="32" height="32" viewBox="0 0 32 32">
  <defs>
    <linearGradient id="sublime-a" x1="52.274%" x2="56.08%" y1="58.685%" y2="39.59%">
      <stop offset="0%" stop-color="#FF9700"/>
      <stop offset="53%" stop-color="#F48E00"/>
      <stop offset="100%" stop-color="#CE6E00"/>
    </linearGradient>
  </defs>
  <g fill="none" transform="translate(4 4)">
    <rect width="24" height="24" fill="#343944" rx="1.5"/>
    <path fill="url(#sublime-a)" d="M18.8571429,12.0598496 C18.8571429,11.850991 18.7028357,11.7305542 18.5134761,11.7903914 L5.48652391,15.9225917 C5.29678329,15.9828101 5.14285714,16.201197 5.14285714,16.4096745 L5.14285714,20.6329646 C5.14285714,20.8418233 5.29678329,20.9626412 5.48652391,20.9024228 L18.5134761,16.7706036 C18.7028357,16.7103853 18.8571429,16.4919984 18.8571429,16.2831397 L18.8571429,12.0598496 L18.8571429,12.0598496 Z"/>
    <path fill="#FF9800" d="M5.14285714,11.9487023 C5.14285714,12.1575484 5.29676191,12.3759222 5.48647618,12.4361369 L18.5135238,16.56847 C18.7032381,16.6286847 18.8571429,16.5078741 18.8571429,16.2994091 L18.8571429,12.0759917 C18.8571429,11.8675267 18.7032381,11.6491529 18.5135238,11.5889381 L5.48647618,7.45660511 C5.29676191,7.39639034 5.14285714,7.51681988 5.14285714,7.725666 L5.14285714,11.9487023 Z"/>
    <path fill="#FF9800" d="M18.8571429,3.39208177 C18.8571429,3.1832231 18.7028357,3.06240522 18.5134761,3.1226236 L5.48652391,7.25444271 C5.29678329,7.31466113 5.14285714,7.533048 5.14285714,7.74190666 L5.14285714,11.9651968 C5.14285714,12.1740554 5.29678329,12.2944922 5.48652391,12.234655 L18.5134761,8.1024547 C18.7028357,8.04223629 18.8571429,7.82384941 18.8571429,7.61537186 L18.8571429,3.39208177 Z"/>
  </g>
</svg>
