<svg xmlns="http://www.w3.org/2000/svg" width="32" height="32" viewBox="0 0 32 32">
  <path fill="#D14748" fill-rule="evenodd" d="M22.3830303,4.01408333 L22.3830303,4.00925 C23.6571294,5.78599983 24.1587863,7.9998096 23.7745455,10.15 C23.5920557,11.1679631 23.2035585,12.1382266 22.6327273,13.0016667 C23.4655706,14.5847964 23.7445522,16.3997394 23.4254545,18.1588333 C23.0468132,20.2681221 21.7934048,22.120423 19.9733333,23.2604167 L13.3115152,27.4944167 C9.51757576,29.9038333 4.28121212,28.7800833 1.61454545,24.99075 C0.342315795,23.2131866 -0.15836285,20.999838 0.225454545,18.85 C0.407944319,17.8320369 0.796441516,16.8617734 1.36727273,15.9983333 C0.53551206,14.4165919 0.256558938,12.6035352 0.574545455,10.846 C0.952614367,8.73647982 2.20616558,6.88396783 4.02666667,5.74441667 L10.6884848,1.51041667 C14.4824242,-0.899 19.7284848,0.22475 22.3830303,4.01408333 Z M10.0387879,25.3411667 L10.0412121,25.3411667 C10.5199668,25.2142846 10.9762356,25.0145776 11.3939394,24.7490833 L18.0460606,20.5175 C19.1390855,19.8299777 19.8920703,18.7163068 20.1212121,17.4483333 C20.3520214,16.1554054 20.0505359,14.8243034 19.2848485,13.7556667 C18.0202635,11.9380483 15.7521248,11.1004076 13.6048485,11.658 C13.1260938,11.7848821 12.669825,11.9845891 12.2521212,12.2500833 L9.71151515,13.8644167 C9.58464342,13.9440306 9.44655423,14.0043068 9.30181818,14.04325 C8.6545788,14.2106593 7.97129354,13.9578813 7.59030303,13.4100833 C7.36096087,13.0879194 7.27340502,12.6864211 7.34787879,12.2984167 C7.41632971,11.9158606 7.6434146,11.5798074 7.97333333,11.3728333 L14.64,7.15575 C14.7657518,7.07566598 14.9031168,7.01534905 15.0472727,6.97691667 C15.6945497,6.80876576 16.3782542,7.0616989 16.7587879,7.61008333 C16.9616109,7.89716436 17.0568498,8.24613777 17.0278788,8.59608333 L17.0036364,8.83775 L17.2460606,8.91266667 C18.1827301,9.19368171 19.0641711,9.63261626 19.8521212,10.2104167 L20.1939394,10.4520833 L20.32,10.07025 C20.3869666,9.86713195 20.43962,9.65959918 20.4775758,9.44916667 C20.7069941,8.15558472 20.4037469,6.82442145 19.6363636,5.7565 C18.3725894,3.93928227 16.1053429,3.10161356 13.9587879,3.65883333 C13.4800332,3.7857154 13.0237644,3.98542244 12.6060606,4.25091667 L5.95393939,8.4825 C4.86091454,9.17002226 4.10792969,10.2836932 3.87878788,11.5516667 C3.64589034,12.8436145 3.94473367,14.1746251 4.70787879,15.2443333 C5.97246374,17.0619517 8.24060246,17.8995924 10.3878788,17.342 C10.8666335,17.2151179 11.3229023,17.0154109 11.7406061,16.7499167 L14.2909091,15.1355833 C14.4177808,15.0559694 14.55587,14.9956932 14.7006061,14.95675 C15.3478454,14.7893407 16.0311307,15.0421187 16.4121212,15.5899167 C16.6391349,15.9131006 16.7264761,16.3136146 16.6545455,16.7015833 C16.5841026,17.0839836 16.3564413,17.4195889 16.0266667,17.6271667 L9.3769697,21.85875 C9.25121786,21.938834 9.11385287,21.9991509 8.96969697,22.0375833 C8.3139703,22.2106368 7.62024355,21.950696 7.24121212,21.3899167 C7.03838911,21.1028356 6.9431502,20.7538622 6.97212121,20.4039167 L6.99636364,20.16225 L6.75393939,20.0873333 C5.81726989,19.8063183 4.9358289,19.3673837 4.14787879,18.7895833 L3.80606061,18.5479167 L3.68,18.92975 C3.61303337,19.1328681 3.56037999,19.3404008 3.52242424,19.5508333 C3.29300593,20.8444153 3.59625309,22.1755786 4.36363636,23.2435 C5.62705602,25.0597308 7.89299161,25.8972728 10.0387879,25.3411667 Z" transform="translate(4 2)"/>
</svg>
