<svg xmlns="http://www.w3.org/2000/svg" width="32" height="32" viewBox="0 0 32 32">
  <g fill="none" transform="translate(4 5)">
    <path fill="#EE9D5C" d="M5.93406669,3.15807376 L18.537931,3.15807376 L18.537931,4.67329037 L16.1191164,4.67329037 C11.5506619,5.25602253 8.43231695,7.53698112 6.46889645,11.0210618 C5.66217505,12.4525852 5.11155537,13.9918084 4.7720012,15.531626 C4.65323143,16.0702257 4.56949648,16.5694122 4.51483016,17.0156358 C4.48260037,17.2787172 4.46731341,17.4622209 4.46288297,17.5526316 L3.12415421,17.484334 C3.13019565,17.3610481 3.14828782,17.1438707 3.18477977,16.8459987 C3.24464968,16.3572998 3.33566429,15.8147156 3.46429278,15.2314084 C3.83159077,13.5657775 4.42764236,11.8995522 5.30689426,10.3393238 C6.71125497,7.84729213 8.66534004,5.90574225 11.2252737,4.67329037 L5.93406669,4.67329037 C5.63176519,5.55604979 4.81607907,6.18850698 3.85727136,6.18850698 C2.6410857,6.18850698 1.65517241,5.1709286 1.65517241,3.91568206 C1.65517241,2.66043552 2.6410857,1.64285714 3.85727136,1.64285714 C4.81607907,1.64285714 5.63176519,2.27531434 5.93406669,3.15807376 Z"/>
    <path fill="#F4BF75" d="M2.64827586 19.0266943L2.64827586 19.0616516C2.64827586 19.8736715 3.3152172 20.5357143 4.13793103 20.5357143 4.96638068 20.5357143 5.62758621 19.8757539 5.62758621 19.0616516L5.62758621 19.0266943C5.62758621 18.2146743 4.96064487 17.5526316 4.13793103 17.5526316 3.30948139 17.5526316 2.64827586 18.2125919 2.64827586 19.0266943zM.662068966 19.0266943C.662068966 17.121664 2.21468434 15.581203 4.13793103 15.581203 6.05594736 15.581203 7.6137931 17.1242468 7.6137931 19.0266943L7.6137931 19.0616516C7.6137931 20.9666819 6.06117773 22.5071429 4.13793103 22.5071429 2.2199147 22.5071429.662068966 20.9640991.662068966 19.0616516L.662068966 19.0266943zM18.537931 4.11128075L18.537931 4.14623804C18.537931 4.95825801 19.2048724 5.62030075 20.0275862 5.62030075 20.8560359 5.62030075 21.5172414 4.9603404 21.5172414 4.14623804L21.5172414 4.11128075C21.5172414 3.29926078 20.8503 2.63721805 20.0275862 2.63721805 19.1991366 2.63721805 18.537931 3.2971784 18.537931 4.11128075zM16.5517241 4.11128075C16.5517241 2.20625047 18.1043395.665789474 20.0275862.665789474 21.9456025.665789474 23.5034483 2.20883322 23.5034483 4.11128075L23.5034483 4.14623804C23.5034483 6.05126833 21.9508329 7.59172932 20.0275862 7.59172932 18.1095699 7.59172932 16.5517241 6.04868557 16.5517241 4.14623804L16.5517241 4.11128075z"/>
  </g>
</svg>
