<svg xmlns="http://www.w3.org/2000/svg" width="32" height="32" viewBox="0 0 32 32">
  <path fill="#D14748" d="M17.931,20.1953889 C15.1308,21.8429444 11.2806,22.0122222 7.407,20.3212778 C4.27062,18.9621667 1.66824,16.5831111 1.77635684e-15,13.8648889 C0.80076,14.5444444 1.73496,15.0883333 2.73588,15.5637778 C6.7362,17.4735 10.73568,17.3427222 13.55028,15.5686667 C13.54848,15.5668333 13.54728,15.5656111 13.54608,15.5637778 C9.54228,12.4373333 6.13908,8.35938889 3.60348,5.02944444 C3.06942,4.48567778 2.66904,3.806 2.26866,3.19433889 C5.3382,6.04883889 10.20966,9.65072778 11.94426,10.6706722 C8.27466,6.72839444 5.00466,1.83522778 5.13786,1.97089444 C10.94346,7.95183889 16.34886,11.3502278 16.34886,11.3502278 C16.52766,11.4528944 16.66566,11.53845 16.77666,11.6148389 C16.89366,11.3117278 16.99626,10.9970056 17.08266,10.6706722 C18.01686,7.20445 16.94946,3.26217222 14.61366,6.11111111e-05 C20.01846,3.33031111 23.22186,9.58289444 21.88686,14.81645 C21.85206,14.9576167 21.81426,15.09695 21.77346,15.2338389 C21.78906,15.2527833 21.80466,15.2723389 21.82026,15.2925056 C24.48906,18.6908944 23.75526,22.2927833 23.42166,21.6132278 C21.97386,18.7275611 19.29366,19.6100056 17.93106,20.19545 L17.931,20.1953889 Z" transform="translate(4 4)"/>
</svg>
