<svg xmlns="http://www.w3.org/2000/svg" width="32" height="32" viewBox="0 0 32 32">
  <path fill="#F4BF75" fill-rule="evenodd" d="M20.818909,3.58205554 C20.2579822,3.08122908 19.637647,2.90360263 18.9579033,3.04917619 C18.2781595,3.19474975 17.5928894,3.57070348 16.902093,4.17703738 C16.7943287,4.26117622 16.6920908,4.34998945 16.5953793,4.44347705 L16.2886657,4.73996632 C15.7056335,5.34496468 15.133654,6.06481924 14.5727272,6.89953001 C14.0118005,7.73424077 13.4992295,8.61569534 13.0350143,9.54389371 C12.5707991,10.4720921 12.1659923,11.4109748 11.8205941,12.3605417 C11.4751959,13.3101087 11.2161472,14.2129319 11.0434481,15.0690112 C11.1733178,15.3401253 11.2921348,15.6272658 11.3998991,15.9304327 C11.5076633,16.2335997 11.5940129,16.5100559 11.6589477,16.7598013 C11.6810532,16.8439402 11.6969415,16.9120526 11.7066127,16.9641385 C11.7162838,17.0162245 11.7321722,17.0736526 11.7542776,17.1364228 C11.7763831,17.2619633 11.7977978,17.3607931 11.8185217,17.4329121 L11.8516799,17.5430939 L11.8185217,17.464965 C11.8185217,17.464965 11.7860543,17.3761518 11.7211194,17.1985253 C11.7211194,17.1771567 11.715593,17.1564559 11.7045403,17.1364228 C11.6934876,17.1163898 11.6879612,17.0850047 11.6879612,17.0422675 C11.6658557,17.0422675 11.6548029,17.0315832 11.6548029,17.0102146 L11.6548029,16.9781617 C11.5677626,16.7898509 11.4378929,16.550122 11.2651937,16.2589749 C11.0924946,15.9678278 10.9626249,15.7381154 10.8755845,15.5698377 C10.7885442,15.7995501 10.7132474,16.0185782 10.6496941,16.226922 L10.4548895,16.8539567 C10.714629,17.3334146 10.9253219,17.886327 11.0869682,18.5126939 L11.3294378,19.4522444 L11.2962796,19.3420626 C11.2962796,19.3420626 11.2527594,19.2218642 11.165719,18.9814675 C11.0786787,18.7410708 10.9329206,18.4646146 10.7284449,18.1520989 C10.5239691,17.8395832 10.3782111,17.5838278 10.2911707,17.3848328 C10.161301,17.822889 10.0749514,18.1828163 10.032122,18.4646146 C9.98929265,18.746413 9.98929265,18.9186973 10.032122,18.9814675 C10.1191624,19.1270411 10.1999856,19.3093419 10.2745916,19.52837 C10.3491976,19.7473981 10.4300208,19.9924692 10.5170612,20.2635832 C10.6676548,20.8685816 10.7975245,21.4582213 10.9066704,22.0325023 L11.0683167,22.8939238 L11.0683167,23.144337 C11.0462113,23.6451635 11.0406849,24.1513321 11.0517376,24.6628429 C11.0627904,25.1743536 11.0897314,25.6598214 11.1325608,26.1192462 C11.1974957,26.7456132 11.2727925,27.3092099 11.3584513,27.8100363 C11.44411,28.3108628 11.5518743,28.7075173 11.681744,29 L11.8765486,28.9058446 C11.681744,28.3422479 11.5470387,27.7005223 11.4724327,26.9806677 C11.3978267,26.2608132 11.3819383,25.4728462 11.4247677,24.6167668 C11.4675971,23.3226313 11.6458226,21.9089651 11.9594442,20.3757684 C12.2730658,18.8425716 12.71034,17.2619633 13.2712667,15.6339435 C13.7465347,14.4025781 14.2701584,13.2339831 14.8421379,12.1281582 C15.4141174,11.0223334 16.0026759,10.0099962 16.6078137,9.09114659 C17.2129514,8.17229698 17.8332866,7.3529449 18.4688194,6.63309033 C19.1043521,5.91323577 19.7246873,5.32359608 20.329825,4.86417128 C19.7688983,5.34362914 19.1755041,6.05814156 18.5496425,7.00770852 C17.9237809,7.95727549 17.3248604,8.95892841 16.7528809,10.0126673 C16.1809014,11.0664061 15.6628041,12.0887599 15.1985889,13.0797285 C14.7343736,14.0706971 14.3945018,14.8586641 14.1789733,15.4436294 C13.6608759,16.757798 13.2236017,18.030565 12.8671508,19.2619303 C12.5106998,20.4932956 12.22471,21.7039601 12.0091815,22.8939238 C12.3766853,21.788099 12.9921849,20.9847733 13.8556805,20.4839469 L15.1509239,19.7327072 L15.9280699,18.7771303 C15.9280699,18.7771303 16.5325168,17.9477617 17.7414107,16.2890245 C17.3310776,16.3931964 16.8454476,16.5133947 16.2845209,16.6496195 C15.7235942,16.7858443 15.3243138,16.8953584 15.0866798,16.9781617 C14.7412816,17.1237352 14.5147003,17.222565 14.4069361,17.2746509 L14.2452897,17.3527799 L15.5571122,16.6335931 C15.5571122,16.6335931 16.4689636,16.2476228 18.2926663,15.4756823 C18.9185279,14.495398 19.5388631,13.4416591 20.1536719,12.3144657 C20.7684808,11.1872723 21.2437488,10.0761053 21.5794759,8.98096477 C21.915203,7.88582425 22.0499083,6.8634705 21.9835918,5.91390354 C21.9172753,4.96433657 21.5283569,4.18705391 20.8168366,3.58205554 L20.8168366,3.58205554 L20.818909,3.58205554 Z" transform="rotate(20 16 16)"/>
</svg>
