<svg xmlns="http://www.w3.org/2000/svg" width="32" height="32" viewBox="0 0 32 32">
  <path fill="#2ECC71" fill-rule="evenodd" d="M2.01367188,10 L10.4423828,10 L10.4560547,12.8232422 L10.0527344,12.8232422 C9.92057226,11.8160757 9.54232083,11.1347674 8.91796875,10.7792969 C8.56705554,10.5833324 8.04297224,10.4762371 7.34570312,10.4580078 L7.34570312,17.8271484 C7.34570312,18.342125 7.43570874,18.6839184 7.61572266,18.8525391 C7.79573658,19.0211597 8.17057007,19.1054688 8.74023438,19.1054688 L8.74023438,19.4609375 L3.75,19.4609375 L3.75,19.1054688 C4.29687773,19.1054688 4.66031811,19.0200204 4.84033203,18.8491211 C5.02034595,18.6782218 5.11035156,18.3375677 5.11035156,17.8271484 L5.11035156,10.4580078 C4.42675439,10.4762371 3.90267109,10.5833324 3.53808594,10.7792969 C2.86816071,11.143882 2.48990929,11.8251903 2.40332031,12.8232422 L2,12.8232422 L2.01367188,10 Z M11.2080078,22.4609375 L11.2080078,22.1054688 C11.6090515,22.0917968 11.8938794,22.0371099 12.0625,21.9414062 C12.3222669,21.7955722 12.4521484,21.5221374 12.4521484,21.1210938 L12.4521484,14.3466797 C12.4521484,13.9365214 12.3177097,13.660808 12.0488281,13.5195312 C11.8938794,13.4329423 11.6136088,13.3782553 11.2080078,13.3554688 L11.2080078,13 L19.2744141,13 L19.2744141,15.8232422 L18.9326172,15.8232422 C18.7548819,14.9208939 18.4529644,14.3033871 18.0268555,13.9707031 C17.6007466,13.6380192 16.8248754,13.4716797 15.6992188,13.4716797 C15.2708312,13.4716797 14.9985357,13.5161128 14.8823242,13.6049805 C14.7661127,13.6938481 14.7080078,13.8704414 14.7080078,14.1347656 L14.7080078,17.375 C15.5055378,17.3841146 16.0455715,17.2394221 16.328125,16.940918 C16.6106785,16.6424139 16.8271477,16.0966837 16.9775391,15.3037109 L17.3330078,15.3037109 L17.3330078,20.0341797 L16.9775391,20.0341797 C16.8772781,19.2366497 16.6733414,18.6749691 16.3657227,18.3491211 C16.0581039,18.0232731 15.5055378,17.8603516 14.7080078,17.8603516 L14.7080078,21.2509766 C14.7080078,21.547202 14.7843417,21.7488601 14.9370117,21.855957 C15.0896818,21.9630539 15.4029924,22.0166016 15.8769531,22.0166016 C16.7701868,22.0166016 17.4993461,21.8434262 18.0644531,21.4970703 C18.6295601,21.1507144 19.1308572,20.5013068 19.5683594,19.5488281 L19.9580078,19.5488281 L19.390625,22.4609375 L11.2080078,22.4609375 Z M20.5458984,19.1054688 C20.901369,19.0416663 21.1565747,18.9755863 21.3115234,18.9072266 C21.5621757,18.7932937 21.7923167,18.6018894 22.0019531,18.3330078 L24.4492188,15.2363281 L21.6806641,11.1689453 C21.4755849,10.8727199 21.2955737,10.6665045 21.140625,10.550293 C20.9856763,10.4340815 20.7919933,10.3691407 20.5595703,10.3554688 L20.5595703,10 L25.40625,10 L25.40625,10.3554688 C24.9550759,10.3782553 24.6554369,10.4147133 24.5073242,10.4648438 C24.3592115,10.5149742 24.2851562,10.6334626 24.2851562,10.8203125 C24.2851562,10.9023442 24.3033852,10.982096 24.3398438,11.0595703 C24.3763023,11.1370447 24.4287106,11.2281896 24.4970703,11.3330078 L25.8574219,13.4384766 C26.6230507,12.3675077 27.0833326,11.7089856 27.2382812,11.4628906 C27.3932299,11.2167956 27.4707031,11.0117196 27.4707031,10.8476562 C27.4707031,10.6471344 27.356772,10.510417 27.1289062,10.4375 C26.9967441,10.3964842 26.7688818,10.3691407 26.4453125,10.3554688 L26.4453125,10 L29.9453125,10 L29.9453125,10.3554688 C29.3255177,10.4147138 28.8356138,10.6232078 28.4755859,10.980957 C28.1155581,11.3387062 27.3567766,12.3310466 26.1992188,13.9580078 L28.7421875,17.9091797 C29.0748715,18.4241562 29.3198234,18.7431634 29.4770508,18.8662109 C29.6342781,18.9892584 29.8427721,19.0690102 30.1025391,19.1054688 L30.1025391,19.4609375 L25.3378906,19.4609375 L25.3378906,19.1054688 C25.7480489,19.0872395 26.0192051,19.059896 26.1513672,19.0234375 C26.3564463,18.9641924 26.4589844,18.845704 26.4589844,18.6679688 C26.4589844,18.599609 26.4373375,18.5050462 26.394043,18.3842773 C26.3507485,18.2635085 26.2744146,18.1165373 26.1650391,17.9433594 L24.7568359,15.6738281 L24.2236328,16.3847656 C23.7724587,16.9908884 23.4671232,17.4147123 23.3076172,17.65625 C23.0432929,18.061851 22.9111328,18.3489575 22.9111328,18.5175781 C22.9111328,18.7636731 23.072915,18.9322912 23.3964844,19.0234375 C23.578777,19.0781253 23.7952461,19.1054688 24.0458984,19.1054688 L24.0458984,19.4609375 L20.5458984,19.4609375 L20.5458984,19.1054688 Z"/>
</svg>
