<svg xmlns="http://www.w3.org/2000/svg" width="32" height="32" viewBox="0 0 32 32">
  <g fill="none" transform="translate(4 4)">
    <path fill="#6A9FB5" d="M5,13 L5,1 C5,0.448 4.552,0 4,0 C3.448,0 3,0.448 3,1 L3,13 L5,13 Z"/>
    <path fill="#7ACCEE" d="M7,15 L1,15 C0.448,15 0,15.448 0,16 L0,20 C0,20.552 0.448,21 1,21 L3,21 L3,23 C3,23.552 3.448,24 4,24 C4.552,24 5,23.552 5,23 L5,21 L7,21 C7.552,21 8,20.552 8,20 L8,16 C8,15.448 7.552,15 7,15 Z"/>
    <path fill="#6A9FB5" d="M13,3 L13,1 C13,0.448 12.552,0 12,0 C11.448,0 11,0.448 11,1 L11,3 L13,3 Z"/>
    <path fill="#7ACCEE" d="M16,6 C16,5.448 15.552,5 15,5 L9,5 C8.448,5 8,5.448 8,6 L8,10 C8,10.552 8.448,11 9,11 L11,11 L11,23 C11,23.552 11.448,24 12,24 C12.552,24 13,23.552 13,23 L13,11 L15,11 C15.552,11 16,10.552 16,10 L16,6 Z"/>
    <path fill="#6A9FB5" d="M21,13 L21,1 C21,0.448 20.552,0 20,0 C19.448,0 19,0.448 19,1 L19,13 L21,13 Z"/>
    <path fill="#7ACCEE" d="M23,15 L17,15 C16.448,15 16,15.448 16,16 L16,20 C16,20.552 16.448,21 17,21 L19,21 L19,23 C19,23.552 19.448,24 20,24 C20.552,24 21,23.552 21,23 L21,21 L23,21 C23.552,21 24,20.552 24,20 L24,16 C24,15.448 23.552,15 23,15 Z"/>
  </g>
</svg>
