<svg xmlns="http://www.w3.org/2000/svg" width="32" height="32" viewBox="0 0 32 32">
  <g fill="#3965BD" fill-rule="evenodd" transform="translate(3 3)">
    <path fill-rule="nonzero" d="M24,2 L2,2 L2,24 L24,24 L24,2 Z M26,0 L26,26 L0,26 L0,0 L26,0 Z"/>
    <path d="M15.2600872,19.9037489 C15.584174,20.0712442 15.9967301,20.2193497 16.4977556,20.3480652 C16.9987812,20.4767808 17.5241809,20.5411386 18.0739549,20.5411386 C18.6526168,20.5411386 19.0936095,20.4380011 19.3969331,20.2317262 C19.7002566,20.0254512 19.8519184,19.7548184 19.8519184,19.4198278 C19.8519184,19.1104153 19.7074786,18.8459708 19.418599,18.6264942 C19.1297195,18.4070176 18.6467489,18.1941418 17.9696874,17.9878668 C17.0389535,17.6784543 16.2878666,17.275393 15.7164267,16.7786828 C15.1449867,16.2819726 14.8592668,15.6598473 14.8592668,14.9123067 C14.8592668,14.0352254 15.2402267,13.3004739 16.0021466,12.7080521 C16.7640665,12.1156304 17.8080954,11.8190069 19.1342332,11.8181818 C19.7688655,11.8181818 20.3227018,11.8697506 20.7957422,11.9728881 C21.2687825,12.0760256 21.6741166,12.1985529 22.0117446,12.3404701 L21.4403047,14.2167474 C21.2146176,14.1136099 20.904072,14.0038716 20.5086681,13.8875325 C20.1132641,13.7711934 19.6406752,13.7130239 19.0909013,13.7130239 C18.5411273,13.7130239 18.1321821,13.812861 17.8640658,14.0125352 C17.5959494,14.2122094 17.4618912,14.4473629 17.4618912,14.7179956 C17.4618912,15.0406097 17.6239346,15.2984535 17.9480214,15.4915269 C18.2721082,15.6846002 18.8011189,15.9102651 19.5350536,16.1685214 C20.5362019,16.503512 21.2732962,16.9193623 21.7463365,17.4160725 C22.2193768,17.9127827 22.4554456,18.5283073 22.4545429,19.2626462 C22.4545429,20.1265259 22.0844159,20.874479 21.344162,21.5065056 C20.6039081,22.1385322 19.4650906,22.4545455 17.9277096,22.4545455 C17.2786333,22.4545455 16.6652155,22.3868873 16.0874564,22.2515709 C15.5096972,22.1162545 15.0583229,21.9710369 14.7333333,21.8159181 L15.2627954,19.9012736 L15.2600872,19.9037489 Z"/>
    <polygon points="9.204 22.455 9.204 13.618 5.909 13.618 5.909 11.818 14.733 11.818 14.733 13.618 11.446 13.618 11.446 22.455"/>
  </g>
</svg>
