<svg xmlns="http://www.w3.org/2000/svg" width="32" height="32" viewBox="0 0 32 32">
  <g fill="none" transform="translate(5 5)">
    <polygon fill="#FFF" fill-opacity=".785" points="18.962 16.129 10.036 21.215 1.111 16.129 1.111 5.957 10.036 .87 18.962 5.957"/>
    <path fill="#7ACCEE" d="M10.7522105,0.119085714 C10.5090526,0.119085714 10.2771147,0.187299429 10.0918516,0.324445714 L0.94402,5.39816 C0.573493684,5.59244571 0.331146316,5.97057143 0.331146316,6.40485714 L0.331146316,16.6905714 C0.331146316,17.1248571 0.573493684,17.5029829 0.94402,17.6972686 L10.0918516,22.7709829 C10.2771147,22.9081257 10.5090526,22.9763429 10.7522105,22.9763429 C10.9953684,22.9763429 11.2273063,22.9081257 11.4125695,22.7709829 L20.5604011,17.6972686 C20.9309274,17.5029829 21.1732747,17.1248571 21.1732747,16.6905714 L21.1732747,6.40485714 C21.1732747,5.97057143 20.9309274,5.59244571 20.5604011,5.39816 L11.4125695,0.324445714 C11.2273063,0.187302857 10.9953684,0.119085714 10.7522105,0.119085714 Z M10.7522105,2.57664 L18.8574737,7.07897143 L18.8574737,9.48297143 L18.8393758,9.48297143 L18.8393758,15.4003429 L18.8574737,15.4003429 L18.8574737,16.0164114 L10.7522105,20.5186971 L2.64694737,16.0164114 L2.64694737,7.07892571 L10.7522105,2.57664 L10.7522105,2.57664 Z M10.7522105,4.95394286 L5.07806316,8.18834286 L10.7522105,11.4227429 L16.4263579,8.18834286 L10.7522105,4.95394286 L10.7522105,4.95394286 Z M4.96273684,10.7597714 L4.96273684,14.8513143 L9.59431579,17.4897143 L9.59431579,13.3981714 L4.96273684,10.7597714 Z M16.5416842,10.7597714 L11.9101053,13.3981714 L11.9101053,17.4897143 L16.5416842,14.8513143 L16.5416842,10.7597714 Z"/>
    <path fill="#3965BD" d="M10.7522105,4.95394286 L5.07806316,8.18834286 L10.7522105,11.4227429 L16.4263579,8.18834286 L10.7522105,4.95394286 L10.7522105,4.95394286 Z M4.96273684,10.7597714 L4.96273684,14.8513143 L9.59431579,17.4897143 L9.59431579,13.3981714 L4.96273684,10.7597714 Z M16.5416842,10.7597714 L11.9101053,13.3981714 L11.9101053,17.4897143 L16.5416842,14.8513143 L16.5416842,10.7597714 Z"/>
  </g>
</svg>
