<svg xmlns="http://www.w3.org/2000/svg" width="32" height="32" viewBox="0 0 32 32">
  <path fill="#9DBD58" d="M21,18 L21,3 C21,1.343 19.657,0 18,0 L3.5,0 C1.567,0 0,1.567 0,3.5 L0,6 L5,6 L5,21 C5,22.657 6.343,24 8,24 L20,24 L20.5,24 C22.433,24 24,22.433 24,20.5 L24,18 L21,18 Z M5,4 L2,4 L2,3.5 C2,2.673 2.673,2 3.5,2 C4.327,2 5,2.673 5,3.5 L5,4 Z M14.586,9 L16,7.586 L18.707,10.293 C19.098,10.684 19.098,11.316 18.707,11.707 L16,14.414 L14.586,13 L16.586,11 L14.586,9 Z M8.293,11.707 C7.902,11.316 7.902,10.684 8.293,10.293 L11,7.586 L12.414,9 L10.414,11 L12.414,13 L11,14.414 L8.293,11.707 Z M22,20.5 C22,21.327 21.327,22 20.5,22 L11.675,22 C11.878,21.581 12,21.085 12,20.5 L12,20 L22,20 L22,20.5 Z" transform="translate(4 4)"/>
</svg>
