<?xml version="1.0" encoding="utf-8"?>
<svg clip-rule="evenodd" fill-rule="evenodd" stroke-linejoin="round" stroke-miterlimit="1.4142" version="1.1" viewBox="0 0 24 24" xmlns="http://www.w3.org/2000/svg">
  <path d="m10 4h-6c-1.11 0-2 0.89-2 2v12c0 1.097 0.903 2 2 2h16c1.097 0 2-0.903 2-2v-10c0-1.11-0.9-2-2-2h-8l-2-2z" fill="#e57373" fill-rule="nonzero" style="fill:#45403d"/>
  <path fill="#8fa758" d="M 23.1 10.792 L 16.851 21.605 L 10.602 10.792 L 11.617 10.792 L 16.851 19.848 L 22.085 10.792 L 23.1 10.792 Z M 16.851 13.25 L 15.406 10.792 L 13.214 10.792 L 16.851 17.082 L 20.486 10.792 L 18.296 10.792 L 16.851 13.25 Z" style=""/>
</svg>