<?xml version="1.0" encoding="utf-8"?>
<svg clip-rule="evenodd" stroke-linejoin="round" stroke-miterlimit="1.4142" version="1.1" viewBox="0 0 24 24" xmlns="http://www.w3.org/2000/svg">
  <path d="m19 20h-15c-1.11 0-2-0.9-2-2v-12c0-1.11 0.89-2 2-2h6l2 2h7c1.097 0 2 0.903 2 2h-17v10l2.14-8h17.07l-2.28 8.5c-0.23 0.87-1.01 1.5-1.93 1.5z" fill="#e57373" style="fill:#45403d"/>
  <path d="M 21.982 18.017 L 1.982 18.017 C 1.982 19.114 2.885 20.017 3.982 20.017 L 19.982 20.017 C 21.079 20.017 21.982 19.114 21.982 18.017 Z" fill="#e57373" fill-rule="nonzero" style="fill:#45403d"/>
  <path fill="#8fa758" d="M 23.082 10.809 L 16.833 21.622 L 10.584 10.809 L 11.599 10.809 L 16.833 19.865 L 22.067 10.809 L 23.082 10.809 Z M 16.833 13.267 L 15.388 10.809 L 13.196 10.809 L 16.833 17.099 L 20.468 10.809 L 18.278 10.809 L 16.833 13.267 Z" style=""/>
</svg>