<?xml version="1.0" encoding="utf-8"?>
<svg viewBox="-32 -32 578 578" xmlns="http://www.w3.org/2000/svg">
  <path d="M 512 454.53 L 512 57.471 C 511.32 30.223 493.804 0.56 454.528 0 L 57.469 0 C 27.102 -0.227 0.403 23.535 0 57.472 L 0 454.53 C 0.403 488.467 27.102 512.229 57.469 512 L 454.528 512 C 493.804 511.44 511.319 481.778 512 454.53 Z M 481.956 454.53 C 481.699 465.5 476.266 479.72 454.528 481.306 L 57.469 481.306 C 43.182 481.194 31.016 471.516 30.694 454.53 L 30.694 57.471 C 31.016 40.484 43.182 30.807 57.469 30.695 L 454.528 30.695 C 476.265 32.281 481.698 46.5 481.956 57.471 L 481.956 454.529 L 481.956 454.53 Z" fill="#d8a657"/>
  <path fill="#d8a657" d="M 183.45898388671873 460.67500830078126 C 227.60298388671873 460.67500830078126 257.8629838867188 437.1790083007813 257.8629838867188 385.5590083007813 L 257.8629838867188 215.39100830078127 L 208.02298388671875 215.39100830078127 L 208.02298388671875 384.8470083007812 C 208.02298388671875 409.76700830078124 197.69898388671874 416.17500830078126 181.32298388671876 416.17500830078126 C 164.23498388671874 416.17500830078126 157.11498388671873 404.42700830078127 149.28298388671874 390.54300830078125 L 108.69898388671875 415.1070083007813 C 120.44698388671875 440.02700830078123 143.58698388671874 460.67500830078126 183.45898388671873 460.67500830078126 Z M 375.68548388671877 460.67500830078126 C 423.0334838867187 460.67500830078126 458.27748388671876 436.11100830078124 458.27748388671876 391.25500830078124 C 458.27748388671876 349.60300830078126 434.4254838867188 331.09100830078125 392.06148388671875 312.93500830078125 L 379.6014838867187 307.5950083007813 C 358.24148388671875 298.33900830078124 348.9854838867187 292.2870083007813 348.9854838867187 277.3350083007813 C 348.9854838867187 265.23100830078124 358.24148388671875 255.97500830078127 372.83748388671876 255.97500830078127 C 387.0774838867187 255.97500830078127 396.33348388671874 262.0270083007813 404.8774838867188 277.3350083007813 L 443.68148388671875 252.41500830078127 C 427.3054838867188 223.57900830078125 404.5214838867187 212.54300830078125 372.83748388671876 212.54300830078125 C 328.33748388671876 212.54300830078125 299.85748388671874 241.02300830078127 299.85748388671874 278.40300830078127 C 299.85748388671874 318.98700830078127 323.7094838867188 338.21100830078126 359.66548388671873 353.51900830078125 L 372.1254838867187 358.8590083007813 C 394.90948388671876 368.82700830078124 408.4374838867187 374.87900830078127 408.4374838867187 391.96700830078123 C 408.4374838867187 406.20700830078124 395.26548388671876 416.53100830078125 374.61748388671873 416.53100830078125 C 350.05348388671877 416.53100830078125 336.16948388671875 403.7150083007813 325.48948388671874 386.27100830078126 L 284.90548388671874 409.76700830078124 C 299.50148388671874 438.60300830078126 329.40548388671874 460.67500830078126 375.68548388671877 460.67500830078126 Z" transform="matrix(1, 0, 0, 1, 0, 0)" style="white-space: pre;"/>
</svg>
