<?xml version="1.0" encoding="utf-8"?>
<svg viewBox="-64 -64 640 640" xmlns="http://www.w3.org/2000/svg">
  <path fill-rule="evenodd" fill="#d8a657" d="M 454.528 0.002 L 57.47 0.002 C 27.103 -0.228 0.404 23.534 0.001 57.471 L 0.001 454.529 C 0.405 488.466 27.103 512.227 57.47 511.998 L 454.528 511.998 C 493.804 511.438 511.319 481.776 512 454.529 L 512 57.471 C 511.32 30.224 493.805 0.56 454.528 0.002 Z M 183.766 460.368 C 227.91 460.368 258.17 436.872 258.17 385.252 L 258.17 215.084 L 208.33 215.084 L 208.33 384.54 C 208.33 409.46 198.006 415.868 181.63 415.868 C 164.542 415.868 157.422 404.12 149.59 390.236 L 109.006 414.8 C 120.754 439.72 143.894 460.368 183.766 460.368 Z M 375.992 460.368 C 423.34 460.368 458.584 435.804 458.584 390.948 C 458.584 349.296 434.732 330.784 392.368 312.628 L 379.908 307.288 C 358.548 298.032 349.292 291.98 349.292 277.028 C 349.292 264.924 358.548 255.668 373.144 255.668 C 387.384 255.668 396.64 261.72 405.184 277.028 L 443.988 252.108 C 427.612 223.272 404.828 212.236 373.144 212.236 C 328.644 212.236 300.164 240.716 300.164 278.096 C 300.164 318.68 324.016 337.904 359.972 353.212 L 372.432 358.552 C 395.216 368.52 408.744 374.572 408.744 391.66 C 408.744 405.9 395.572 416.224 374.924 416.224 C 350.36 416.224 336.476 403.408 325.796 385.964 L 285.212 409.46 C 299.808 438.296 329.712 460.368 375.992 460.368 Z" style="white-space: pre;"/>
</svg>
