<?xml version="1.0" encoding="utf-8"?>
<svg viewBox="-32 -32 578 578" xmlns="http://www.w3.org/2000/svg">
  <path fill="#3c6a9e" fill-rule="evenodd" d="M 376.054 460.368 C 329.774 460.368 299.87 438.296 285.274 409.46 L 325.858 385.964 C 336.538 403.408 350.422 416.224 374.986 416.224 C 395.634 416.224 408.806 405.9 408.806 391.66 C 408.806 374.572 395.278 368.52 372.494 358.552 L 360.034 353.212 C 324.078 337.904 300.226 318.68 300.226 278.096 C 300.226 240.716 328.706 212.236 373.206 212.236 C 404.89 212.236 427.674 223.272 444.05 252.108 L 405.246 277.028 C 396.702 261.72 387.446 255.668 373.206 255.668 C 358.61 255.668 349.354 264.924 349.354 277.028 C 349.354 291.98 358.61 298.032 379.97 307.288 L 392.43 312.628 C 434.794 330.784 458.646 349.296 458.646 390.948 C 458.646 435.804 423.402 460.368 376.054 460.368 Z M 152.489 457.164 L 152.489 258.872 L 83.425 258.872 L 83.425 215.084 L 271.393 215.084 L 271.393 258.872 L 202.329 258.872 L 202.329 457.164 L 152.489 457.164 Z M 454.528 0.002 L 57.47 0.002 C 27.103 -0.228 0.404 23.534 0.001 57.471 L 0.001 454.529 C 0.405 488.466 27.103 512.227 57.47 511.998 L 454.528 511.998 C 493.804 511.438 511.319 481.776 512 454.529 L 512 57.471 C 511.32 30.224 493.805 0.56 454.528 0.002 Z"/>
</svg>
